<?xml version="1.0" standalone="no"?>
<!DOCTYPE svg PUBLIC "-//W3C//DTD SVG 1.1//EN" "http://www.w3.org/Graphics/SVG/1.1/DTD/svg11.dtd" >
<svg xmlns="http://www.w3.org/2000/svg" xmlns:xlink="http://www.w3.org/1999/xlink" version="1.1">
<metadata>
Created by FontForge 20170731 at Sat Dec  3 16:35:18 2022
 By Aleksey,,,
Copyright (c) 2021 by Brandsemut. All rights reserved.
</metadata>
<defs>
<font id="SnagridsRegular" horiz-adv-x="0" >
  <font-face 
    font-family="Snagrids"
    font-weight="400"
    font-stretch="normal"
    units-per-em="2048"
    panose-1="0 0 0 0 0 0 0 0 0 0"
    ascent="1638"
    descent="-410"
    x-height="896"
    cap-height="1434"
    bbox="-14 -477 1486 1462"
    underline-thickness="102"
    underline-position="-307"
    unicode-range="U+000A-FB06"
  />
<missing-glyph horiz-adv-x="1079" 
d="M102 1434h875v-1434h-875v1434zM160 1393l379 -633l381 633h-760zM514 717l-369 614v-1231zM541 674l-379 -631h758zM565 717l371 -621v1239z" />
    <glyph glyph-name="sn.liga" unicode="sn" horiz-adv-x="1189" 
d="M876 894q-46 0 -75 -20q-30 -21 -57 -48v-756q0 -27 7 -41q7 -15 27 -15v-14h-176v14q20 0 27 15q7 14 7 41v738q0 108 -29 200q-29 91 -81 143q-53 53 -123 53q-49 0 -87 -22t-38 -78q0 -53 24 -89q23 -36 74 -87q40 -40 59 -63q21 -25 33 -59l-67 -57h-14q0 65 -27 113
t-86 48q-45 0 -72 -27q-28 -28 -28 -87q0 -69 38 -136q40 -71 118 -171q76 -103 116 -172t40 -136q0 -57 -32 -106q-31 -48 -82 -76q-50 -28 -109 -28q-71 0 -127 33q-55 33 -107 89l66 58h14q0 -36 18 -75q17 -38 53 -64q35 -26 83 -26q57 0 96 36t39 91q0 68 -41 141
q-44 78 -122 183q-73 95 -119 175q-41 71 -41 137q0 80 59 128q58 48 140 48q26 0 47 -6q-39 39 -59 76q-22 41 -22 87q0 67 46 101q44 32 117 32q83 0 160 -53q77 -52 126 -141q49 -87 55 -191l2 3q3 3 8.5 9.5t10.5 13.5q19 23 63 46t89 23q78 0 128 -47t50 -134v-674
q0 -27 7 -41q8 -15 27 -15v-14h-176v14q19 0 27 15q7 14 7 41v665q0 159 -111 159z" />
    <glyph glyph-name="ag.liga" unicode="ag" horiz-adv-x="1228" 
d="M390 39q-21 -26 -62 -46q-44 -22 -89 -22q-77 0 -127 47q-51 48 -51 134v280q0 77 32 121t76 63q37 16 115 36q57 15 87 27t42 38v18q0 57 -13 119q-12 56 -66 56q-51 0 -75 -49t-24 -112h-14l-66 57q75 119 188 119q77 0 127 -47t50 -134v-744q0 -149 50 -254
q50 -104 138 -156t197 -52q72 0 131 23q61 24 61 90q0 62 -55 96q-54 34 -163 67q-93 31 -123 44q-45 20 -77 53q-32 34 -32 82q0 54 39 87q40 34 89 44q-119 99 -119 378q0 209 68 316t189 107q7 0 41 -4l186 41l-7 -66l-133 13q81 -35 125 -137q44 -103 44 -270
q0 -212 -67 -318q-68 -107 -189 -107q-77 0 -133 43q-23 -7 -35 -28t-12 -47q0 -53 45 -78q51 -29 142 -57q84 -27 123 -44q50 -22 83 -58q34 -37 34 -97q0 -97 -71 -142q-72 -46 -184 -46q-120 0 -235 56q-114 55 -186 164q-71 107 -71 257v66q-4 -4 -23 -27zM280 2
q60 0 95 33q35 34 38 35v641q-8 -20 -31 -37q-16 -12 -61 -34q-52 -26 -79 -45q-31 -22 -52 -64t-21 -108v-262q0 -159 111 -159zM775 502q0 -142 8 -232q7 -82 38 -131q30 -48 92 -48q61 0 91 48q32 51 39 131q8 90 8 232q0 140 -8 230q-7 80 -39 131q-29 47 -91 47
q-63 0 -92 -47q-31 -49 -38 -131q-8 -90 -8 -230z" />
    <glyph glyph-name="ri.liga" unicode="ri" horiz-adv-x="698" 
d="M203 70q0 -27 7 -41q8 -15 27 -15v-14h-176v14q19 0 27 15q7 14 7 41v726q0 27 -7 41t-27 14v15l142 30v-66q18 29 65 62t109 33q63 0 123 -29t88 -82l-80 -58h-15q-18 138 -147 138q-52 0 -87 -22q-38 -24 -56 -46v-756zM466 0v14q20 0 27 15q7 14 7 41v539q0 28 -7 42
t-27 14v14l142 31v-640q0 -27 7 -41q7 -15 27 -15v-14h-176z" />
    <glyph glyph-name="ds.liga" unicode="ds" horiz-adv-x="1144" 
d="M303 2q63 0 98 35l36 36v-3q-2 -2 -20 -26t-62 -48q-45 -25 -94 -25q-77 0 -127 47t-50 134v592q0 87 50 134t127 47q49 0 84 -19q40 -21 50 -33q3 -4 16.5 -19t23.5 -26v505q0 27 -7 41q-8 15 -27 15v14l142 31v-1106q0 -341 251 -341q130 0 173 39t43 87q0 70 -40 141
q-40 72 -123 183q-73 95 -119 175q-40 70 -40 137q0 80 59 128t140 48q118 0 193 -119l-66 -57h-14q0 65 -27 113t-86 48q-46 0 -73 -27q-28 -28 -28 -87q0 -67 39 -136q43 -76 117 -171q81 -109 117 -172q39 -67 39 -136q0 -90 -71 -149t-233 -59q-72 0 -152 28
q-82 29 -144 107q-63 79 -63 220v496q-31 31 -58 50q-29 20 -74 20q-111 0 -111 -159v-574q0 -159 111 -159z" />
    <glyph glyph-name="as.liga" unicode="as" horiz-adv-x="1138" 
d="M382 674q-16 -12 -61 -34q-52 -26 -79 -45q-31 -22 -52 -64t-21 -108v-262q0 -159 111 -159q65 0 99 34l12 12l10 10l7 7t4 5l2 2v-2l-2 -3q-3 -3 -7.5 -9.5t-9.5 -13.5q-18 -24 -62 -48q-45 -25 -94 -25q-77 0 -127 47q-51 48 -51 134v280q0 77 32 121t76 63
q37 16 115 36q57 15 87 27t42 38v18q0 57 -13 119q-12 56 -66 56q-51 0 -75 -49t-24 -112h-14l-66 57q75 119 188 119q77 0 127 -47t50 -134v-416q0 -200 81 -270q82 -71 186 -71q129 0 173 39t44 87q0 70 -40 141q-40 72 -123 183q-73 95 -119 175q-41 71 -41 137
q0 79 60 128q59 48 139 48q119 0 194 -119l-66 -57h-15q0 65 -27 113t-86 48q-45 0 -72 -27q-28 -28 -28 -87q0 -67 39 -136q43 -76 117 -171q76 -103 116 -172t40 -136q0 -90 -71 -149t-234 -59q-73 0 -157 28q-86 29 -151 107q-66 80 -66 220v383q-8 -20 -31 -37z" />
    <glyph glyph-name="cm.liga" unicode="cm" horiz-adv-x="1546" 
d="M993 735q0 159 -111 159q-45 0 -74 -20q-27 -19 -58 -50v-754q0 -27 7 -41q7 -15 27 -15v-14h-176v14q20 0 27 15q7 14 7 41v738q0 108 -29 200q-29 91 -81 143q-53 53 -123 53q-48 0 -86 -25q-39 -25 -39 -81q0 -47 28 -79q29 -33 92 -80q39 -30 79 -68q26 -25 44 -65
l-66 -57h-14q0 65 -27 113t-86 48q-68 0 -102 -62t-43 -160t-9 -240q0 -195 46 -320q46 -126 149 -126q72 0 133 71l1 -3q-8 -13 -27 -34q-21 -23 -61 -44q-39 -21 -87 -21q-128 0 -201 133q-72 132 -72 344q0 136 32 249q32 112 93 173q62 62 148 55l23 -2q-53 42 -82 78
q-29 35 -29 81q0 67 46 101q44 32 117 32q83 0 160 -54t126 -142q49 -87 55 -191q73 97 173 97q56 0 99 -25t64 -74q27 34 77 67q49 32 112 32q77 0 127 -47t50 -134v-674q0 -27 7 -41q7 -15 27 -15v-14h-176v14q20 0 27 15q8 16 8 41v665q0 159 -112 159q-74 0 -145 -71
q13 -32 13 -79v-674q0 -27 7 -41q8 -15 27 -15v-14h-176v14q19 0 27 15q7 14 7 41v665z" />
    <glyph glyph-name="cn.liga" unicode="cn" horiz-adv-x="1196" 
d="M420 862q-27 48 -86 48q-68 0 -102 -62t-43 -160t-9 -240q0 -195 46 -320q46 -126 149 -126q72 0 133 71l1 -3q-8 -13 -27 -34q-21 -23 -61 -44q-39 -21 -87 -21q-128 0 -201 133q-72 132 -72 344q0 136 32 249q32 112 93 173q62 62 148 55l23 -2q-53 42 -82 78
q-29 35 -29 81q0 67 46 101q44 32 117 32q83 0 160 -53q77 -52 126 -141q49 -87 55 -191l2 3q3 3 8.5 9.5t10.5 13.5q19 23 63 46t89 23q78 0 128 -47t50 -134v-674q0 -27 7 -41q8 -15 27 -15v-14h-176v14q19 0 27 15q7 14 7 41v665q0 159 -111 159q-46 0 -75 -20
q-30 -21 -57 -48v-756q0 -27 7 -41q7 -15 27 -15v-14h-176v14q20 0 27 15q7 14 7 41v738q0 108 -29 200q-29 91 -81 143q-53 53 -123 53q-48 0 -86 -25q-39 -25 -39 -81q0 -47 28 -79q29 -33 92 -80q39 -30 79 -68q26 -25 44 -65l-66 -57h-14q0 65 -27 113z" />
    <glyph glyph-name="cr.liga" unicode="cr" horiz-adv-x="1085" 
d="M757 29q7 -15 27 -15v-14h-176v14q20 0 27 15q7 14 7 41v738q0 108 -29 200q-29 91 -81 143q-53 53 -123 53q-48 0 -86 -25q-39 -25 -39 -81q0 -47 28 -79q29 -33 92 -80q39 -30 79 -68q26 -25 44 -65l-66 -57h-14q0 65 -27 113t-86 48q-68 0 -102 -62t-43 -160t-9 -240
q0 -195 46 -320q46 -126 149 -126q72 0 133 71l1 -3q-8 -13 -27 -34q-21 -23 -61 -44q-39 -21 -87 -21q-128 0 -201 133q-72 132 -72 344q0 136 32 249q32 112 93 173q62 62 148 55l23 -2q-53 42 -82 78q-29 35 -29 81q0 67 46 101q44 32 117 32q83 0 160 -53
q78 -54 127 -141q51 -91 54 -191l2 3q3 3 8.5 9.5t10.5 13.5q19 23 63 46t89 23q46 0 80 -21q36 -22 53 -52q18 -32 18 -60l-66 -57h-15q0 159 -111 159q-46 0 -75 -20q-30 -21 -57 -48v-756q0 -27 7 -41z" />
    <glyph glyph-name="ct.liga" unicode="ct" horiz-adv-x="1015" 
d="M561 1118q-60 86 -152 86q-48 0 -86 -25q-39 -25 -39 -81q0 -47 28 -79q29 -33 92 -80q39 -30 79 -68q26 -25 44 -65l-66 -57h-14q0 65 -27 113t-86 48q-68 0 -102 -62t-43 -160t-9 -240q0 -195 46 -320q46 -126 149 -126q72 0 133 71l1 -3q-8 -13 -27 -34
q-21 -23 -61 -44q-39 -21 -87 -21q-128 0 -201 133q-72 132 -72 344q0 136 32 249q32 112 93 173q62 62 148 55l23 -2q-52 39 -82 77q-29 37 -29 82q0 67 46 101q44 32 117 32t143 -42q72 -43 121 -116q51 -75 68 -161h229v-14h-226q6 -38 6 -74v-591q0 -107 26 -160
q27 -55 94 -55q64 0 98 34l36 36v-2q-3 -8 -29 -33q-28 -26 -63 -45q-39 -21 -84 -21q-90 0 -138 65t-48 181v591q0 12 -4 74h-30v14h29q-17 137 -76 222z" />
    <glyph glyph-name="ss.liga" unicode="ss" horiz-adv-x="1077" 
d="M136 4q-55 33 -107 89l66 58h14q0 -36 18 -75q17 -38 53 -64q35 -26 83 -26q57 0 96 36t39 91q0 68 -41 141q-44 78 -122 183q-73 95 -119 175q-41 71 -41 137q0 80 59 128q58 48 140 48q102 0 161 -72q59 -73 86 -172q30 -111 58 -276q28 -153 47 -224q22 -83 67 -140
q43 -55 117 -55q57 0 96 36q38 35 38 91q0 70 -40 141q-40 72 -123 183q-73 95 -119 175q-40 70 -40 137q0 80 59 128t140 48q118 0 193 -119l-66 -57h-14q0 65 -27 113t-86 48q-46 0 -73 -27q-28 -28 -28 -87q0 -67 39 -136q43 -76 117 -171q81 -109 117 -172
q39 -67 39 -136q0 -59 -31 -106t-83 -76q-50 -28 -108 -28q-82 0 -130 59q-47 57 -71 143q-20 72 -48 232q-29 172 -54 268t-81 167q-55 70 -152 70q-45 0 -72 -27q-28 -28 -28 -87q0 -69 38 -136q40 -71 118 -171q76 -103 116 -172t40 -136q0 -57 -32 -106q-31 -48 -82 -76
q-50 -28 -109 -28q-71 0 -127 33z" />
    <glyph glyph-name="fj.liga" unicode="fj" horiz-adv-x="647" 
d="M88 29q7 14 7 41v812h-34v14h34v385q0 82 61 132q59 49 146 49q70 0 120 -33q51 -34 76 -81t31 -92l-80 -57h-15q0 72 -4 115q-4 47 -33 91q-28 43 -86 43q-56 0 -82 -50t-26 -126v-376h355v-862q0 -86 -32 -150q-32 -63 -75 -96q-45 -34 -81 -34v15q6 0 26 19
q21 19 37 58q17 40 17 100v880q0 27 -7 41q-7 15 -27 15h-213v-812q0 -27 7 -41q8 -15 27 -15v-14h-176v14q19 0 27 15z" />
    <glyph glyph-name="ffj.liga" unicode="ffj" horiz-adv-x="1019" 
d="M88 29q7 14 7 41v812h-34v14h34v315q0 88 55 135q53 46 134 46q111 0 184 -98q6 78 65 123t141 45q70 0 120 -33q53 -35 77 -81q25 -47 31 -92l-81 -57h-14q0 62 -5 115q-5 49 -32 91q-28 43 -87 43q-55 0 -81 -50t-26 -126v-376h355v-862q0 -86 -32 -150
q-31 -63 -75 -96q-45 -34 -82 -34v15q6 0 26 19q22 21 38 58q17 40 17 100v880q0 27 -7 41q-8 15 -27 15h-213v-812q0 -27 7 -41q7 -15 27 -15v-14h-176v14q20 0 27 15q7 14 7 41v812h-265v-812q0 -27 7 -41q8 -15 27 -15v-14h-176v14q19 0 27 15zM468 896v366l-52 -45h-14
q0 57 -31 110q-30 51 -78 51t-69 -49t-21 -127v-306h265z" />
    <glyph glyph-name="gi.liga" unicode="gi" horiz-adv-x="952" 
d="M195 120q-23 -7 -35 -28t-12 -47q0 -53 45 -78q51 -29 142 -57q92 -29 123 -43q48 -21 83 -59q34 -37 34 -97q0 -97 -71 -142q-72 -46 -184 -46q-141 0 -218 50t-77 130q0 72 39 111q40 40 95 52q-48 25 -72 53q-25 29 -25 74q0 54 39 87q40 34 88 44q-118 99 -118 378
q0 210 67 316q68 107 189 107q85 0 147 -56q71 56 154 56q64 0 124 -29t88 -82l-81 -58h-14q-10 72 -52 106q-39 32 -100 32q-68 0 -115 -28q106 -103 106 -364q0 -211 -68 -318t-189 -107q-76 0 -132 43zM91 -287q0 -86 58 -131q57 -44 171 -44q72 0 131 23q61 24 61 90
q0 62 -56 95q-57 34 -164 69q-81 24 -126 45q-34 -12 -55 -50q-20 -36 -20 -97zM189 502q0 -131 9 -232q7 -82 38 -131q30 -48 91 -48q62 0 92 48q31 49 38 131q8 90 8 232q0 140 -8 230q-7 82 -38 131q-29 47 -92 47q-62 0 -91 -47q-31 -49 -38 -131q-9 -101 -9 -230z
M718 0v14q20 0 27 15q7 14 7 41v539q0 28 -7 42t-27 14v14l142 31v-640q0 -27 7 -41q7 -15 27 -15v-14h-176z" />
    <glyph glyph-name="ll.liga" unicode="ll" horiz-adv-x="651" 
d="M208 29q8 -15 27 -15v-14h-176v14q19 0 27 15q7 14 7 41v1186q0 27 -7 41q-8 15 -27 15v14l142 31v-1287q0 -27 7 -41zM414 0v14q20 0 27 15q7 14 7 41v1263q0 27 -7 41q-7 15 -27 15v14l142 31v-1364q0 -27 7 -41q7 -15 27 -15v-14h-176z" />
    <glyph glyph-name="ff.liga" unicode="ff" horiz-adv-x="755" 
d="M150 1346q53 46 134 46q110 0 184 -98q3 80 54 125q49 43 124 43q57 0 104 -31q48 -31 84 -87l-67 -57h-14q0 63 -24 112t-74 49q-46 0 -63 -47q-16 -45 -16 -129v-376h177v-14h-177v-812q0 -27 7 -41q7 -15 27 -15v-14h-176v14q20 0 27 15q7 14 7 41v812h-265v-812
q0 -27 7 -41q8 -15 27 -15v-14h-176v14q19 0 27 15q7 14 7 41v812h-34v14h34v315q0 88 55 135zM468 896v366l-52 -45h-14q0 57 -31 110q-30 51 -78 51t-69 -49t-21 -127v-306h265z" />
    <glyph glyph-name="fi.liga" unicode="fi" horiz-adv-x="653" 
d="M156 1413q59 49 146 49q70 0 120 -33q51 -34 76 -81t31 -92l-80 -57h-15q0 72 -4 115q-4 47 -33 91q-28 43 -86 43q-56 0 -82 -50t-26 -126v-376h355v-826q0 -27 7 -41q7 -15 27 -15v-14h-176v14q20 0 27 15q7 14 7 41v756q0 27 -7 41q-7 15 -27 15h-213v-812
q0 -27 7 -41q8 -15 27 -15v-14h-176v14q19 0 27 15q7 14 7 41v812h-34v14h34v385q0 82 61 132z" />
    <glyph glyph-name="ffi.liga" unicode="ffi" horiz-adv-x="1024" 
d="M150 1346q53 46 134 46q111 0 184 -98q6 78 65 123t141 45q70 0 120 -33q53 -35 77 -81q25 -47 31 -92l-81 -57h-14q0 62 -5 115q-5 49 -32 91q-28 43 -87 43q-55 0 -81 -50t-26 -126v-376h355v-826q0 -27 7 -41q8 -15 27 -15v-14h-176v14q19 0 27 15q7 14 7 41v756
q0 27 -7 41q-8 15 -27 15h-213v-812q0 -27 7 -41q7 -15 27 -15v-14h-176v14q20 0 27 15q7 14 7 41v812h-265v-812q0 -27 7 -41q8 -15 27 -15v-14h-176v14q19 0 27 15q7 14 7 41v812h-34v14h34v315q0 88 55 135zM468 896v366l-52 -45h-14q0 57 -31 110q-30 51 -78 51t-69 -49
t-21 -127v-306h265z" />
    <glyph glyph-name="st.liga" unicode="st" horiz-adv-x="1028" 
d="M360 862q-27 48 -86 48q-45 0 -72 -27q-28 -28 -28 -87q0 -69 38 -136q40 -71 118 -171q76 -103 116 -172t40 -136q0 -57 -32 -106q-31 -48 -82 -76q-50 -28 -109 -28q-71 0 -127 33q-55 33 -107 89l66 58h14q0 -36 18 -75q17 -38 53 -64q35 -26 83 -26q57 0 96 36t39 91
q0 70 -40 141q-40 72 -123 183q-73 95 -119 175q-41 71 -41 137q0 80 59 128q58 48 140 48q26 0 47 -6q-39 39 -59 76q-22 41 -22 87q0 67 46 101q44 32 117 32q74 0 147 -43q72 -43 127 -116t74 -160h231v-14h-228q8 -32 8 -74v-591q0 -107 26 -160q27 -55 94 -55
q64 0 98 34l36 36v-2q-3 -8 -29 -33q-28 -26 -63 -45q-39 -21 -84 -21q-90 0 -138 65t-48 181v591q0 12 -4 74h-64v14h63q-19 134 -87 221t-159 87q-49 0 -87 -22t-38 -78q0 -53 24 -89q23 -36 74 -87q40 -40 59 -63q21 -25 33 -59l-67 -57h-14q0 65 -27 113z" />
    <glyph glyph-name=".notdef" horiz-adv-x="1079" 
d="M102 1434h875v-1434h-875v1434zM160 1393l379 -633l381 633h-760zM514 717l-369 614v-1231zM541 674l-379 -631h758zM565 717l371 -621v1239z" />
    <glyph glyph-name=".null" 
 />
    <glyph glyph-name=".null" 
 />
    <glyph glyph-name="nonmarkingreturn" horiz-adv-x="682" 
 />
    <glyph glyph-name="LF" unicode="&#xa;" 
 />
    <glyph glyph-name="controlCR" unicode="&#xd;" 
 />
    <glyph glyph-name="space" unicode=" " horiz-adv-x="411" 
 />
    <glyph glyph-name="zero" unicode="0" horiz-adv-x="851" 
d="M96 717q0 304 34 464q34 161 105 221t191 60t190 -60q70 -59 104 -221q34 -160 34 -464t-34 -464q-35 -163 -104 -222q-70 -60 -190 -60t-191 60t-105 222q-34 160 -34 464zM222 717q0 -311 14 -434l378 866q-17 151 -59 224q-43 75 -129 75q-94 0 -137 -87
q-44 -88 -56 -234q-11 -135 -11 -410zM618 1122l-378 -864q16 -136 60 -204t126 -68q92 0 135 87q44 88 56 233q11 135 11 411q0 279 -10 405z" />
    <glyph glyph-name="one" unicode="1" horiz-adv-x="372" 
d="M250 29q8 -15 27 -15v-14h-183v14q20 0 27 15q7 14 7 41v1261q0 28 -7 42t-27 14v14l149 33v-1364q0 -27 7 -41z" />
    <glyph glyph-name="two" unicode="2" horiz-adv-x="839" 
d="M121 244q43 116 105 211q66 101 162 226q84 109 132 180q43 63 79 150q33 79 33 157q0 127 -56 204q-55 76 -163 76q-133 0 -194 -84q-62 -85 -62 -197h-20l-59 170q29 34 117 80q87 45 218 45q91 0 170 -36t127 -103q47 -66 47 -155q0 -102 -42 -193q-41 -90 -105 -166
q-57 -68 -168 -182q-105 -108 -160 -173q-61 -72 -109 -155q-51 -88 -70 -183h446q60 0 85 11q24 11 24 58q0 26 -5 50h14l79 -233l-668 -2q0 128 43 244z" />
    <glyph glyph-name="three" unicode="3" horiz-adv-x="927" 
d="M486 866q74 51 113 138q39 86 39 177q0 110 -62 189q-62 78 -167 78q-132 0 -189 -83t-57 -198h-20l-59 170q34 37 114 81t211 44q103 0 184 -36q81 -38 126 -102q44 -63 44 -143q0 -72 -38 -145q-39 -74 -114 -136q-73 -60 -181 -86q164 -9 288 -104q122 -94 122 -310
q0 -146 -56 -240q-57 -95 -150 -142q-94 -47 -208 -47q-94 0 -169 25t-123 55q-47 29 -62 46l59 170h20q0 -67 34 -132q33 -64 98 -107q63 -42 143 -42q141 0 215 107t74 307q0 123 -41 214q-40 90 -113 138q-71 47 -165 47h-91v15q107 0 181 52z" />
    <glyph glyph-name="four" unicode="4" horiz-adv-x="1015" 
d="M102 504l649 930h59v-916h59q28 0 42 7t14 27h14v-84h-14q0 36 -56 36h-59v-434q0 -27 7 -41q7 -15 27 -15v-14h-182v14q18 0 26 15q8 16 8 41v434h-594zM696 518v810l-565 -810h565z" />
    <glyph glyph-name="five" unicode="5" horiz-adv-x="876" 
d="M158 823l95 611h514l-79 -233h-14q5 25 5 50q0 47 -24 57q-25 11 -85 11h-321l-72 -470q111 76 226 76q82 0 170 -45q87 -44 151 -152q63 -106 63 -280q0 -171 -58 -279q-57 -107 -146 -152q-90 -46 -187 -46q-81 0 -150 25q-71 26 -115 55t-59 46l59 170h20
q0 -72 27 -133q28 -64 84 -106t134 -42q116 0 191 115q74 114 74 347q0 138 -35 241q-35 102 -97 154q-64 53 -146 53q-72 0 -122 -21q-59 -25 -103 -52z" />
    <glyph glyph-name="six" unicode="6" horiz-adv-x="854" 
d="M196 1257q103 205 298 205q72 0 123 -25q54 -26 67 -39q15 -14 55 -61l-59 -170h-20q0 117 -37 198q-38 83 -129 83q-127 0 -192 -151q-64 -149 -79 -482q36 45 88 77q54 33 129 33q160 0 241 -128t81 -347q0 -217 -77 -348t-254 -131q-162 0 -251 151q-88 149 -88 453
q0 476 104 682zM575 46q44 61 53 147q9 87 9 257q0 205 -52 322q-53 119 -183 119q-97 0 -179 -88q-5 -94 -5 -247q0 -276 43 -423t170 -147q101 0 144 60z" />
    <glyph glyph-name="seven" unicode="7" horiz-adv-x="681" 
d="M578 1140q-30 -130 -100 -353q-74 -233 -115 -413q-39 -173 -39 -374h-114q0 191 31 343q32 159 76 268t117 265q63 131 105 240q36 94 51 203h-364q-60 0 -85 -11t-25 -55q0 -19 6 -52h-14l-79 233h582q0 -153 -33 -294z" />
    <glyph glyph-name="eight" unicode="8" horiz-adv-x="854" 
d="M245 25q-80 54 -120 143q-41 91 -41 198q0 98 40 194q40 98 93 174q48 69 95 115q-131 197 -131 346q0 129 79 198q80 69 195 69q117 0 189 -75q73 -76 73 -199q0 -98 -55 -220q-54 -120 -134 -206l27 -34q108 -137 160 -224q52 -88 52 -178q0 -96 -41 -178t-116 -129
q-76 -48 -178 -48q-108 0 -187 54zM191 202q22 -85 81 -151q58 -65 160 -65q116 0 177 71t61 181q0 65 -32 133q-33 71 -76 133q-49 71 -130 179q-83 112 -115 159q-31 -36 -64 -105q-34 -71 -60 -170q-25 -96 -25 -201q0 -77 23 -164zM350 1024q60 -114 171 -255
q59 77 86 186t27 210t-42 192t-137 91q-87 0 -126 -58t-39 -127q0 -125 60 -239z" />
    <glyph glyph-name="nine" unicode="9" horiz-adv-x="854" 
d="M167 1331q77 131 255 131q162 0 251 -150q87 -147 87 -454q0 -476 -104 -682q-103 -205 -297 -205q-73 0 -124 25t-66 40q-22 22 -56 61l60 170h19q0 -115 38 -199q37 -82 129 -82q127 0 192 150q64 149 79 482q-34 -43 -88 -76t-129 -33q-160 0 -241 127
q-82 129 -82 348q0 216 77 347zM277 1388q-43 -59 -52 -147q-9 -87 -9 -257q0 -206 52 -323q52 -118 182 -118q98 0 180 88q5 94 5 247q0 272 -44 422q-43 148 -169 148q-102 0 -145 -60z" />
    <glyph glyph-name="A" unicode="A" horiz-adv-x="669" 
d="M626 29q8 -15 28 -15v-14h-183v14q29 0 29 34q0 12 -2 22l-14 88q-6 32 -58 32h-281q-21 0 -39 -8q-16 -8 -18 -24l-15 -88q-3 -18 -3 -25q0 -31 27 -31v-14h-83v14q36 0 45 56l217 1296q-6 28 -14 40q-9 13 -29 13v15h145l235 -1364q6 -27 13 -41zM100 231q0 -27 45 -27
h281q24 0 35 11q10 10 7 31l-185 1078l-181 -1082z" />
    <glyph glyph-name="A" unicode="&#xc5;" horiz-adv-x="669" 
d="M626 29q8 -15 28 -15v-14h-183v14q29 0 29 34q0 12 -2 22l-14 88q-6 32 -58 32h-281q-21 0 -39 -8q-16 -8 -18 -24l-15 -88q-3 -18 -3 -25q0 -31 27 -31v-14h-83v14q36 0 45 56l217 1296q-6 28 -14 40q-9 13 -29 13v15h145l235 -1364q6 -27 13 -41zM100 231q0 -27 45 -27
h281q24 0 35 11q10 10 7 31l-185 1078l-181 -1082z" />
    <glyph glyph-name="A" unicode="&#xc4;" horiz-adv-x="669" 
d="M626 29q8 -15 28 -15v-14h-183v14q29 0 29 34q0 12 -2 22l-14 88q-6 32 -58 32h-281q-21 0 -39 -8q-16 -8 -18 -24l-15 -88q-3 -18 -3 -25q0 -31 27 -31v-14h-83v14q36 0 45 56l217 1296q-6 28 -14 40q-9 13 -29 13v15h145l235 -1364q6 -27 13 -41zM100 231q0 -27 45 -27
h281q24 0 35 11q10 10 7 31l-185 1078l-181 -1082z" />
    <glyph glyph-name="A" unicode="&#xc3;" horiz-adv-x="669" 
d="M626 29q8 -15 28 -15v-14h-183v14q29 0 29 34q0 12 -2 22l-14 88q-6 32 -58 32h-281q-21 0 -39 -8q-16 -8 -18 -24l-15 -88q-3 -18 -3 -25q0 -31 27 -31v-14h-83v14q36 0 45 56l217 1296q-6 28 -14 40q-9 13 -29 13v15h145l235 -1364q6 -27 13 -41zM100 231q0 -27 45 -27
h281q24 0 35 11q10 10 7 31l-185 1078l-181 -1082z" />
    <glyph glyph-name="A" unicode="&#xc2;" horiz-adv-x="669" 
d="M626 29q8 -15 28 -15v-14h-183v14q29 0 29 34q0 12 -2 22l-14 88q-6 32 -58 32h-281q-21 0 -39 -8q-16 -8 -18 -24l-15 -88q-3 -18 -3 -25q0 -31 27 -31v-14h-83v14q36 0 45 56l217 1296q-6 28 -14 40q-9 13 -29 13v15h145l235 -1364q6 -27 13 -41zM100 231q0 -27 45 -27
h281q24 0 35 11q10 10 7 31l-185 1078l-181 -1082z" />
    <glyph glyph-name="A" unicode="&#xc1;" horiz-adv-x="669" 
d="M626 29q8 -15 28 -15v-14h-183v14q29 0 29 34q0 12 -2 22l-14 88q-6 32 -58 32h-281q-21 0 -39 -8q-16 -8 -18 -24l-15 -88q-3 -18 -3 -25q0 -31 27 -31v-14h-83v14q36 0 45 56l217 1296q-6 28 -14 40q-9 13 -29 13v15h145l235 -1364q6 -27 13 -41zM100 231q0 -27 45 -27
h281q24 0 35 11q10 10 7 31l-185 1078l-181 -1082z" />
    <glyph glyph-name="A" unicode="&#xc0;" horiz-adv-x="669" 
d="M626 29q8 -15 28 -15v-14h-183v14q29 0 29 34q0 12 -2 22l-14 88q-6 32 -58 32h-281q-21 0 -39 -8q-16 -8 -18 -24l-15 -88q-3 -18 -3 -25q0 -31 27 -31v-14h-83v14q36 0 45 56l217 1296q-6 28 -14 40q-9 13 -29 13v15h145l235 -1364q6 -27 13 -41zM100 231q0 -27 45 -27
h281q24 0 35 11q10 10 7 31l-185 1078l-181 -1082z" />
    <glyph glyph-name="B" unicode="B" horiz-adv-x="714" 
d="M74 0v14q20 0 27 15q7 14 7 41v1294q0 27 -7 41t-27 14v15h320q94 0 154 -63t60 -158v-188q0 -75 -40 -133q-39 -57 -104 -77q76 -15 123 -72q48 -59 48 -152v-363q0 -108 -62 -168q-61 -60 -152 -60h-347zM482 1204q0 92 -36 154q-36 61 -107 61h-82q-20 0 -27 -14
q-8 -16 -8 -41v-545h117q71 0 107 61q36 62 36 154v170zM230 29q8 -15 27 -15h109q74 0 108 63q35 64 35 172v321q0 108 -35 172q-34 63 -108 63h-144v-735q0 -25 8 -41z" />
    <glyph glyph-name="C" unicode="C" horiz-adv-x="663" 
d="M399 -29q-165 0 -247 204q-82 203 -82 540q0 340 82 543q82 204 247 204q58 0 107 -28q45 -26 65 -46q1 -1 61 -67l-59 -171h-20q0 123 -34 210q-34 88 -120 88q-91 0 -136 -104q-44 -101 -56 -268q-12 -164 -12 -436q0 -291 61 -455q61 -165 190 -165q66 0 115 51
q51 53 77 106l5 -5q-85 -201 -244 -201z" />
    <glyph glyph-name="C" unicode="&#xc7;" horiz-adv-x="663" 
d="M399 -29q-165 0 -247 204q-82 203 -82 540q0 340 82 543q82 204 247 204q58 0 107 -28q45 -26 65 -46q1 -1 61 -67l-59 -171h-20q0 123 -34 210q-34 88 -120 88q-91 0 -136 -104q-44 -101 -56 -268q-12 -164 -12 -436q0 -291 61 -455q61 -165 190 -165q66 0 115 51
q51 53 77 106l5 -5q-85 -201 -244 -201z" />
    <glyph glyph-name="D" unicode="D" horiz-adv-x="729" 
d="M101 1405q-7 14 -27 14v15h347q91 0 152 -60q62 -60 62 -168v-978q0 -108 -62 -168q-61 -60 -152 -60h-347v14q20 0 27 15q7 14 7 41v1294q0 27 -7 41zM222 70q0 -25 8 -41q8 -15 27 -15h109q73 0 108 62t35 168v946q0 105 -35 167t-108 62h-109q-20 0 -27 -14
q-8 -16 -8 -41v-1294z" />
    <glyph glyph-name="E" unicode="E" horiz-adv-x="667" 
d="M101 29q7 14 7 41v1294q0 27 -7 41t-27 14v15h577l-59 -171h-15q4 26 4 52q0 57 -27 81q-26 23 -81 23h-216q-20 0 -27 -14q-8 -16 -8 -41v-640h45q78 0 125 43q46 42 81 113h18l-113 -326h-14q0 3 0.5 9.5t1 19.5t0.5 25q1 45 -23 74q-24 28 -76 28h-45v-640
q0 -25 8 -41q8 -15 27 -15h216q54 0 81 24t27 80q0 26 -4 52h15l59 -170h-577v14q20 0 27 15z" />
    <glyph glyph-name="E" unicode="&#xcb;" horiz-adv-x="667" 
d="M101 29q7 14 7 41v1294q0 27 -7 41t-27 14v15h577l-59 -171h-15q4 26 4 52q0 57 -27 81q-26 23 -81 23h-216q-20 0 -27 -14q-8 -16 -8 -41v-640h45q78 0 125 43q46 42 81 113h18l-113 -326h-14q0 3 0.5 9.5t1 19.5t0.5 25q1 45 -23 74q-24 28 -76 28h-45v-640
q0 -25 8 -41q8 -15 27 -15h216q54 0 81 24t27 80q0 26 -4 52h15l59 -170h-577v14q20 0 27 15z" />
    <glyph glyph-name="E" unicode="&#xca;" horiz-adv-x="667" 
d="M101 29q7 14 7 41v1294q0 27 -7 41t-27 14v15h577l-59 -171h-15q4 26 4 52q0 57 -27 81q-26 23 -81 23h-216q-20 0 -27 -14q-8 -16 -8 -41v-640h45q78 0 125 43q46 42 81 113h18l-113 -326h-14q0 3 0.5 9.5t1 19.5t0.5 25q1 45 -23 74q-24 28 -76 28h-45v-640
q0 -25 8 -41q8 -15 27 -15h216q54 0 81 24t27 80q0 26 -4 52h15l59 -170h-577v14q20 0 27 15z" />
    <glyph glyph-name="E" unicode="&#xc9;" horiz-adv-x="667" 
d="M101 29q7 14 7 41v1294q0 27 -7 41t-27 14v15h577l-59 -171h-15q4 26 4 52q0 57 -27 81q-26 23 -81 23h-216q-20 0 -27 -14q-8 -16 -8 -41v-640h45q78 0 125 43q46 42 81 113h18l-113 -326h-14q0 3 0.5 9.5t1 19.5t0.5 25q1 45 -23 74q-24 28 -76 28h-45v-640
q0 -25 8 -41q8 -15 27 -15h216q54 0 81 24t27 80q0 26 -4 52h15l59 -170h-577v14q20 0 27 15z" />
    <glyph glyph-name="E" unicode="&#xc8;" horiz-adv-x="667" 
d="M101 29q7 14 7 41v1294q0 27 -7 41t-27 14v15h577l-59 -171h-15q4 26 4 52q0 57 -27 81q-26 23 -81 23h-216q-20 0 -27 -14q-8 -16 -8 -41v-640h45q78 0 125 43q46 42 81 113h18l-113 -326h-14q0 3 0.5 9.5t1 19.5t0.5 25q1 45 -23 74q-24 28 -76 28h-45v-640
q0 -25 8 -41q8 -15 27 -15h216q54 0 81 24t27 80q0 26 -4 52h15l59 -170h-577v14q20 0 27 15z" />
    <glyph glyph-name="F" unicode="F" horiz-adv-x="645" 
d="M101 29q7 14 7 41v1294q0 27 -7 41t-27 14v15h577l-59 -171h-15q4 26 4 52q0 57 -27 81q-26 23 -81 23h-216q-20 0 -27 -14q-8 -16 -8 -41v-640h45q78 0 125 43q46 42 81 113h18l-113 -326h-14q0 3 0.5 9.5t1 19.5t0.5 25q1 45 -23 74q-24 28 -76 28h-45v-640
q0 -25 8 -41q8 -15 27 -15v-14h-183v14q20 0 27 15z" />
    <glyph glyph-name="G" unicode="G" horiz-adv-x="755" 
d="M537 720q-7 15 -27 15v14h183v-14q-19 0 -27 -15q-7 -14 -7 -41v-620q-40 3 -62 -5q-18 -7 -58 -31q-35 -24 -71 -37t-85 -13q-154 0 -235 204q-80 201 -80 536v2q0 218 44 385q45 170 129 266t194 96q80 0 151 -50q69 -49 107 -91l-59 -171h-20q0 111 -46 206
q-45 92 -133 92q-134 0 -188 -206t-54 -527q0 -221 11 -378q10 -150 53 -250q42 -100 126 -100q71 0 116 52q45 53 45 128v512q0 27 -7 41z" />
    <glyph glyph-name="H" unicode="H" horiz-adv-x="786" 
d="M101 29q7 14 7 41v1294q0 27 -7 41t-27 14v15h183v-15q-20 0 -27 -14q-8 -16 -8 -41v-606q0 -20 15 -27q14 -7 41 -7h229q28 0 42 7t14 27v606q0 27 -7 41t-27 14v15h183v-15q-20 0 -27 -14t-7 -41v-1294q0 -27 7 -41q7 -15 27 -15v-14h-183v14q19 0 27 15q7 14 7 41v606
q0 19 -14 26q-16 8 -42 8h-229q-25 0 -41 -8q-15 -8 -15 -26v-606q0 -25 8 -41q8 -15 27 -15v-14h-183v14q20 0 27 15z" />
    <glyph glyph-name="I" unicode="I" horiz-adv-x="331" 
d="M101 29q7 14 7 41v1294q0 27 -7 41t-27 14v15h183v-15q-20 0 -27 -14q-8 -16 -8 -41v-1294q0 -25 8 -41q8 -15 27 -15v-14h-183v14q20 0 27 15z" />
    <glyph glyph-name="I" unicode="&#xcf;" horiz-adv-x="331" 
d="M101 29q7 14 7 41v1294q0 27 -7 41t-27 14v15h183v-15q-20 0 -27 -14q-8 -16 -8 -41v-1294q0 -25 8 -41q8 -15 27 -15v-14h-183v14q20 0 27 15z" />
    <glyph glyph-name="I" unicode="&#xce;" horiz-adv-x="331" 
d="M101 29q7 14 7 41v1294q0 27 -7 41t-27 14v15h183v-15q-20 0 -27 -14q-8 -16 -8 -41v-1294q0 -25 8 -41q8 -15 27 -15v-14h-183v14q20 0 27 15z" />
    <glyph glyph-name="I" unicode="&#xcd;" horiz-adv-x="331" 
d="M101 29q7 14 7 41v1294q0 27 -7 41t-27 14v15h183v-15q-20 0 -27 -14q-8 -16 -8 -41v-1294q0 -25 8 -41q8 -15 27 -15v-14h-183v14q20 0 27 15z" />
    <glyph glyph-name="I" unicode="&#xcc;" horiz-adv-x="331" 
d="M101 29q7 14 7 41v1294q0 27 -7 41t-27 14v15h183v-15q-20 0 -27 -14q-8 -16 -8 -41v-1294q0 -25 8 -41q8 -15 27 -15v-14h-183v14q20 0 27 15z" />
    <glyph glyph-name="J" unicode="J" horiz-adv-x="331" 
d="M101 1405q-7 14 -27 14v15h183v-15q-20 0 -27 -14t-7 -41v-1310q0 -114 -52 -175q-53 -62 -136 -62l11 15q20 0 41 41t21 136v1355q0 27 -7 41z" />
    <glyph glyph-name="K" unicode="K" horiz-adv-x="772" 
d="M101 29q7 14 7 41v1294q0 27 -7 41t-27 14v15h183v-15q-20 0 -27 -14q-8 -16 -8 -41v-554l312 554q13 28 13 39q0 16 -20 16v15h83v-15q-20 0 -32 -13q-9 -10 -29 -42l-253 -445q194 -3 267 -130q72 -126 72 -341q0 -173 8 -264q8 -86 36 -128q29 -42 88 -42v-14h-23
q-133 0 -184 87t-51 262q0 171 -11 286q-11 110 -59 190t-150 80l-67 -117v-718q0 -25 8 -41q8 -15 27 -15v-14h-183v14q20 0 27 15z" />
    <glyph glyph-name="L" unicode="L" horiz-adv-x="638" 
d="M101 29q7 14 7 41v1294q0 27 -7 41t-27 14v15h183v-15q-20 0 -27 -14q-8 -16 -8 -41v-1294q0 -25 8 -41q8 -15 27 -15h216q54 0 81 24t27 80q0 26 -4 52h15l59 -170h-577v14q20 0 27 15z" />
    <glyph glyph-name="M" unicode="M" horiz-adv-x="960" 
d="M424 0l-298 1301v-1231q0 -25 8 -41q8 -15 27 -15v-14h-83v14q20 0 27 15q7 14 7 41v1294q-6 27 -16 41t-30 14v15h189v-15q-25 0 -25 -27l4 -28l249 -1099l242 1099q1 4 1.5 9.5t1 8t1 5.5t0.5 5q0 27 -26 27v15h183v-15q-20 0 -27 -14t-7 -41v-1294q0 -27 7 -41
q7 -15 27 -15v-14h-183v14q19 0 27 15q8 16 8 41v1285l-300 -1355h-14z" />
    <glyph glyph-name="N" unicode="N" horiz-adv-x="817" 
d="M132 1330v-1260q0 -25 8 -41q8 -15 26 -15v-14h-82v14q20 0 27 15q7 14 7 41v1294q-25 55 -63 55v15h197v-15q-18 0 -18 -14q0 -10 13 -41l446 -1074v1074q0 27 -7 41t-27 14v15h83v-15q-20 0 -27 -14t-7 -41v-1364h-15z" />
    <glyph glyph-name="N" unicode="&#xd1;" horiz-adv-x="817" 
d="M132 1330v-1260q0 -25 8 -41q8 -15 26 -15v-14h-82v14q20 0 27 15q7 14 7 41v1294q-25 55 -63 55v15h197v-15q-18 0 -18 -14q0 -10 13 -41l446 -1074v1074q0 27 -7 41t-27 14v15h83v-15q-20 0 -27 -14t-7 -41v-1364h-15z" />
    <glyph glyph-name="O" unicode="O" horiz-adv-x="815" 
d="M78 717q0 304 34 464q34 161 105 221t191 60t190 -60q68 -58 103 -221q34 -160 34 -464t-34 -464q-35 -164 -103 -222q-70 -60 -190 -60t-191 60t-105 222q-34 160 -34 464zM610 717q0 263 -12 410q-12 148 -55 234q-43 87 -135 87q-94 0 -138 -87q-43 -86 -55 -234
q-12 -147 -12 -410q0 -264 12 -411t55 -233q44 -87 138 -87q92 0 135 87q43 86 55 233t12 411z" />
    <glyph glyph-name="O" unicode="&#xd8;" horiz-adv-x="815" 
d="M78 717q0 304 34 464q34 161 105 221t191 60t190 -60q68 -58 103 -221q34 -160 34 -464t-34 -464q-35 -164 -103 -222q-70 -60 -190 -60t-191 60t-105 222q-34 160 -34 464zM610 717q0 263 -12 410q-12 148 -55 234q-43 87 -135 87q-94 0 -138 -87q-43 -86 -55 -234
q-12 -147 -12 -410q0 -264 12 -411t55 -233q44 -87 138 -87q92 0 135 87q43 86 55 233t12 411z" />
    <glyph glyph-name="O" unicode="&#xd6;" horiz-adv-x="815" 
d="M78 717q0 304 34 464q34 161 105 221t191 60t190 -60q68 -58 103 -221q34 -160 34 -464t-34 -464q-35 -164 -103 -222q-70 -60 -190 -60t-191 60t-105 222q-34 160 -34 464zM610 717q0 263 -12 410q-12 148 -55 234q-43 87 -135 87q-94 0 -138 -87q-43 -86 -55 -234
q-12 -147 -12 -410q0 -264 12 -411t55 -233q44 -87 138 -87q92 0 135 87q43 86 55 233t12 411z" />
    <glyph glyph-name="O" unicode="&#xd5;" horiz-adv-x="815" 
d="M78 717q0 304 34 464q34 161 105 221t191 60t190 -60q68 -58 103 -221q34 -160 34 -464t-34 -464q-35 -164 -103 -222q-70 -60 -190 -60t-191 60t-105 222q-34 160 -34 464zM610 717q0 263 -12 410q-12 148 -55 234q-43 87 -135 87q-94 0 -138 -87q-43 -86 -55 -234
q-12 -147 -12 -410q0 -264 12 -411t55 -233q44 -87 138 -87q92 0 135 87q43 86 55 233t12 411z" />
    <glyph glyph-name="O" unicode="&#xd4;" horiz-adv-x="815" 
d="M78 717q0 304 34 464q34 161 105 221t191 60t190 -60q68 -58 103 -221q34 -160 34 -464t-34 -464q-35 -164 -103 -222q-70 -60 -190 -60t-191 60t-105 222q-34 160 -34 464zM610 717q0 263 -12 410q-12 148 -55 234q-43 87 -135 87q-94 0 -138 -87q-43 -86 -55 -234
q-12 -147 -12 -410q0 -264 12 -411t55 -233q44 -87 138 -87q92 0 135 87q43 86 55 233t12 411z" />
    <glyph glyph-name="O" unicode="&#xd3;" horiz-adv-x="815" 
d="M78 717q0 304 34 464q34 161 105 221t191 60t190 -60q68 -58 103 -221q34 -160 34 -464t-34 -464q-35 -164 -103 -222q-70 -60 -190 -60t-191 60t-105 222q-34 160 -34 464zM610 717q0 263 -12 410q-12 148 -55 234q-43 87 -135 87q-94 0 -138 -87q-43 -86 -55 -234
q-12 -147 -12 -410q0 -264 12 -411t55 -233q44 -87 138 -87q92 0 135 87q43 86 55 233t12 411z" />
    <glyph glyph-name="O" unicode="&#xd2;" horiz-adv-x="815" 
d="M78 717q0 304 34 464q34 161 105 221t191 60t190 -60q68 -58 103 -221q34 -160 34 -464t-34 -464q-35 -164 -103 -222q-70 -60 -190 -60t-191 60t-105 222q-34 160 -34 464zM610 717q0 263 -12 410q-12 148 -55 234q-43 87 -135 87q-94 0 -138 -87q-43 -86 -55 -234
q-12 -147 -12 -410q0 -264 12 -411t55 -233q44 -87 138 -87q92 0 135 87q43 86 55 233t12 411z" />
    <glyph glyph-name="P" unicode="P" horiz-adv-x="669" 
d="M101 1405q-7 14 -27 14v15h347q91 0 152 -60q62 -60 62 -168v-283q0 -108 -62 -168q-61 -60 -152 -60h-164q-20 0 -27 -14q-8 -16 -8 -41v-570q0 -25 8 -41q8 -15 27 -15v-14h-183v14q20 0 27 15q7 14 7 41v1294q0 27 -7 41zM222 765q0 -25 8 -41q7 -14 27 -14h109
q74 0 108 61q35 62 35 168v251q0 105 -35 167t-108 62h-109q-20 0 -27 -14q-8 -16 -8 -41v-599z" />
    <glyph glyph-name="Q" unicode="Q" horiz-adv-x="808" 
d="M216 47q-73 76 -107 238q-35 166 -35 430q0 269 35 435q35 164 106 238t188 74q116 0 187 -74t106 -238q35 -166 35 -435q0 -347 -59 -522t-186 -211q100 -9 146 -38t46 -66q0 -23 -17 -45q-17 -21 -44 -32l-6 5q4 28 4 31q0 62 -58 98q-59 36 -154 36q-114 0 -187 76z
M199 715q0 -277 12 -423t55 -226t137 -80t137 80q42 78 54 226q12 146 12 423q0 281 -12 427q-12 150 -54 226q-44 80 -137 80t-137 -80q-43 -78 -55 -226q-12 -146 -12 -427z" />
    <glyph glyph-name="R" unicode="R" horiz-adv-x="786" 
d="M101 1405q-7 14 -27 14v15h347q91 0 152 -60q62 -60 62 -168v-283q0 -91 -45 -148q-44 -56 -117 -74q76 -9 119 -76t43 -177q0 -173 8 -264q8 -86 36 -128q29 -42 88 -42v-14h-23q-133 0 -184 88q-51 89 -51 261q0 137 -6 203q-6 67 -34 105t-89 38h-102q-27 0 -41 -7
q-15 -8 -15 -27v-591q0 -25 8 -41q8 -15 27 -15v-14h-183v14q20 0 27 15q7 14 7 41v1294q0 27 -7 41zM237 717q14 -7 41 -7h88q74 0 108 61q35 62 35 168v251q0 105 -35 167t-108 62h-109q-20 0 -27 -14q-8 -16 -8 -41v-620q0 -20 15 -27z" />
    <glyph glyph-name="S" unicode="S" horiz-adv-x="737" 
d="M151 21q-82 50 -118 92l59 170h20q0 -74 25 -140q26 -69 79 -113t138 -44q109 0 172 68q64 69 64 179q0 86 -61 186q-61 101 -183 255q-89 117 -147 200q-50 73 -92 164q-38 83 -38 164q0 117 80 188q81 72 215 72q111 0 185 -44q71 -42 107 -81l-59 -170h-19
q0 64 -26 131t-73 108q-48 42 -115 42q-93 0 -142 -52t-49 -142t63 -193q67 -110 189 -264q103 -134 143 -191q52 -75 90 -156q38 -82 38 -154q0 -93 -45 -168t-124 -115q-82 -42 -173 -42q-121 0 -203 50z" />
    <glyph glyph-name="T" unicode="T" horiz-adv-x="681" 
d="M636 1263h-14q3 19 3 52q0 58 -26 81t-81 23h-120v-1349q0 -27 7 -41q7 -15 27 -15v-14h-183v14q19 0 27 15q7 14 7 41v1349h-120q-55 0 -81 -23t-26 -81q0 -33 3 -52h-14l-59 171h709z" />
    <glyph glyph-name="U" unicode="U" horiz-adv-x="765" 
d="M645 224v1140q0 27 -7 41t-27 14v15h83v-15q-20 0 -27 -14q-8 -16 -8 -41v-1145q0 -137 -64 -192q-65 -56 -185 -56q-131 0 -217 61q-87 62 -87 219v1113q0 27 -7 41t-27 14v15h182v-15q-19 0 -26 -14q-8 -16 -8 -41v-1124q0 -254 208 -254q217 0 217 238z" />
    <glyph glyph-name="U" unicode="&#xdc;" horiz-adv-x="765" 
d="M645 224v1140q0 27 -7 41t-27 14v15h83v-15q-20 0 -27 -14q-8 -16 -8 -41v-1145q0 -137 -64 -192q-65 -56 -185 -56q-131 0 -217 61q-87 62 -87 219v1113q0 27 -7 41t-27 14v15h182v-15q-19 0 -26 -14q-8 -16 -8 -41v-1124q0 -254 208 -254q217 0 217 238z" />
    <glyph glyph-name="U" unicode="&#xdb;" horiz-adv-x="765" 
d="M645 224v1140q0 27 -7 41t-27 14v15h83v-15q-20 0 -27 -14q-8 -16 -8 -41v-1145q0 -137 -64 -192q-65 -56 -185 -56q-131 0 -217 61q-87 62 -87 219v1113q0 27 -7 41t-27 14v15h182v-15q-19 0 -26 -14q-8 -16 -8 -41v-1124q0 -254 208 -254q217 0 217 238z" />
    <glyph glyph-name="U" unicode="&#xda;" horiz-adv-x="765" 
d="M645 224v1140q0 27 -7 41t-27 14v15h83v-15q-20 0 -27 -14q-8 -16 -8 -41v-1145q0 -137 -64 -192q-65 -56 -185 -56q-131 0 -217 61q-87 62 -87 219v1113q0 27 -7 41t-27 14v15h182v-15q-19 0 -26 -14q-8 -16 -8 -41v-1124q0 -254 208 -254q217 0 217 238z" />
    <glyph glyph-name="U" unicode="&#xd9;" horiz-adv-x="765" 
d="M645 224v1140q0 27 -7 41t-27 14v15h83v-15q-20 0 -27 -14q-8 -16 -8 -41v-1145q0 -137 -64 -192q-65 -56 -185 -56q-131 0 -217 61q-87 62 -87 219v1113q0 27 -7 41t-27 14v15h182v-15q-19 0 -26 -14q-8 -16 -8 -41v-1124q0 -254 208 -254q217 0 217 238z" />
    <glyph glyph-name="V" unicode="V" horiz-adv-x="657" 
d="M38 1405q-7 14 -28 14v15h183v-15q-29 0 -29 -34q0 -11 2 -21l203 -1075l222 1075q3 18 3 25q0 30 -26 30v15h82v-15q-36 0 -45 -55l-281 -1364h-14l-259 1364q-6 27 -13 41z" />
    <glyph glyph-name="W" unicode="W" horiz-adv-x="937" 
d="M38 1405q-7 14 -28 14v15h183v-15q-29 0 -29 -34q0 -11 2 -21l203 -1074l87 421l-123 653q-5 23 -14 41q-7 14 -27 14v15h182v-15q-28 0 -28 -34q0 -16 1 -21l203 -1075l222 1075q4 24 4 25q0 30 -27 30v15h82v-15q-35 0 -44 -55l-282 -1364h-14l-127 676l-140 -676h-14
l-259 1364q-6 27 -13 41z" />
    <glyph glyph-name="X" unicode="X" horiz-adv-x="745" 
d="M571 36q0 19 -7 34l-237 663l-251 -663q-7 -15 -7 -34q0 -22 22 -22v-14h-83v14q19 0 32 16q14 18 22 40l258 683l-219 611q-19 55 -53 55v15h190v-15q-22 0 -22 -21q0 -19 7 -34l183 -513l186 513q8 18 8 34q0 21 -22 21v15h82v-15q-34 0 -53 -55l-194 -533l273 -761
q9 -25 21 -40q13 -16 32 -16v-14h-190v14q22 0 22 22z" />
    <glyph glyph-name="Y" unicode="Y" horiz-adv-x="634" 
d="M404 29q8 -15 27 -15v-14h-183v14q20 0 27 15q7 14 7 41v656l-237 638q-21 55 -55 55v15h186v-15q-21 0 -21 -19q0 -15 9 -36l225 -611l178 611q5 14 5 28q0 27 -25 27v15h82v-15q-19 0 -29 -14q-10 -15 -19 -41l-184 -638v-656q0 -27 7 -41z" />
    <glyph glyph-name="Y" unicode="&#x178;" horiz-adv-x="634" 
d="M404 29q8 -15 27 -15v-14h-183v14q20 0 27 15q7 14 7 41v656l-237 638q-21 55 -55 55v15h186v-15q-21 0 -21 -19q0 -15 9 -36l225 -611l178 611q5 14 5 28q0 27 -25 27v15h82v-15q-19 0 -29 -14q-10 -15 -19 -41l-184 -638v-656q0 -27 7 -41z" />
    <glyph glyph-name="Y" unicode="&#xdd;" horiz-adv-x="634" 
d="M404 29q8 -15 27 -15v-14h-183v14q20 0 27 15q7 14 7 41v656l-237 638q-21 55 -55 55v15h186v-15q-21 0 -21 -19q0 -15 9 -36l225 -611l178 611q5 14 5 28q0 27 -25 27v15h82v-15q-19 0 -29 -14q-10 -15 -19 -41l-184 -638v-656q0 -27 7 -41z" />
    <glyph glyph-name="Z" unicode="Z" horiz-adv-x="710" 
d="M39 28q10 15 20 42l435 1294q5 14 5 28q0 27 -26 27h-250q-54 0 -80 -23q-27 -24 -27 -81q0 -26 4 -52h-15l-59 171h618v-15q-20 0 -27 -12q-9 -14 -19 -43l-436 -1294q-5 -14 -5 -31q0 -25 25 -25h324q54 0 81 24t27 80q0 26 -4 52h15l59 -170h-694v14q20 0 29 14z" />
    <glyph glyph-name="a" unicode="a" horiz-adv-x="614" 
d="M400 854q-12 56 -66 56q-51 0 -75 -49t-24 -112h-14l-66 57q75 119 188 119q77 0 127 -47t50 -134v-644q0 -27 7 -41t27 -14v-15l-141 -30v66q-74 -95 -174 -95q-77 0 -127 47q-51 48 -51 134v280q0 77 32 121t76 63q37 16 115 36q57 15 87 27t42 38v18q0 57 -13 119z
M280 2q63 0 96 33t37 35v641q-8 -20 -31 -37q-16 -12 -61 -34q-52 -26 -79 -45q-31 -22 -52 -64t-21 -108v-262q0 -159 111 -159z" />
    <glyph glyph-name="a" unicode="&#xe5;" horiz-adv-x="614" 
d="M400 854q-12 56 -66 56q-51 0 -75 -49t-24 -112h-14l-66 57q75 119 188 119q77 0 127 -47t50 -134v-644q0 -27 7 -41t27 -14v-15l-141 -30v66q-74 -95 -174 -95q-77 0 -127 47q-51 48 -51 134v280q0 77 32 121t76 63q37 16 115 36q57 15 87 27t42 38v18q0 57 -13 119z
M280 2q63 0 96 33t37 35v641q-8 -20 -31 -37q-16 -12 -61 -34q-52 -26 -79 -45q-31 -22 -52 -64t-21 -108v-262q0 -159 111 -159z" />
    <glyph glyph-name="a" unicode="&#xe4;" horiz-adv-x="614" 
d="M400 854q-12 56 -66 56q-51 0 -75 -49t-24 -112h-14l-66 57q75 119 188 119q77 0 127 -47t50 -134v-644q0 -27 7 -41t27 -14v-15l-141 -30v66q-74 -95 -174 -95q-77 0 -127 47q-51 48 -51 134v280q0 77 32 121t76 63q37 16 115 36q57 15 87 27t42 38v18q0 57 -13 119z
M280 2q63 0 96 33t37 35v641q-8 -20 -31 -37q-16 -12 -61 -34q-52 -26 -79 -45q-31 -22 -52 -64t-21 -108v-262q0 -159 111 -159z" />
    <glyph glyph-name="a" unicode="&#xe3;" horiz-adv-x="614" 
d="M400 854q-12 56 -66 56q-51 0 -75 -49t-24 -112h-14l-66 57q75 119 188 119q77 0 127 -47t50 -134v-644q0 -27 7 -41t27 -14v-15l-141 -30v66q-74 -95 -174 -95q-77 0 -127 47q-51 48 -51 134v280q0 77 32 121t76 63q37 16 115 36q57 15 87 27t42 38v18q0 57 -13 119z
M280 2q63 0 96 33t37 35v641q-8 -20 -31 -37q-16 -12 -61 -34q-52 -26 -79 -45q-31 -22 -52 -64t-21 -108v-262q0 -159 111 -159z" />
    <glyph glyph-name="a" unicode="&#xe2;" horiz-adv-x="614" 
d="M400 854q-12 56 -66 56q-51 0 -75 -49t-24 -112h-14l-66 57q75 119 188 119q77 0 127 -47t50 -134v-644q0 -27 7 -41t27 -14v-15l-141 -30v66q-74 -95 -174 -95q-77 0 -127 47q-51 48 -51 134v280q0 77 32 121t76 63q37 16 115 36q57 15 87 27t42 38v18q0 57 -13 119z
M280 2q63 0 96 33t37 35v641q-8 -20 -31 -37q-16 -12 -61 -34q-52 -26 -79 -45q-31 -22 -52 -64t-21 -108v-262q0 -159 111 -159z" />
    <glyph glyph-name="a" unicode="&#xe1;" horiz-adv-x="614" 
d="M400 854q-12 56 -66 56q-51 0 -75 -49t-24 -112h-14l-66 57q75 119 188 119q77 0 127 -47t50 -134v-644q0 -27 7 -41t27 -14v-15l-141 -30v66q-74 -95 -174 -95q-77 0 -127 47q-51 48 -51 134v280q0 77 32 121t76 63q37 16 115 36q57 15 87 27t42 38v18q0 57 -13 119z
M280 2q63 0 96 33t37 35v641q-8 -20 -31 -37q-16 -12 -61 -34q-52 -26 -79 -45q-31 -22 -52 -64t-21 -108v-262q0 -159 111 -159z" />
    <glyph glyph-name="a" unicode="&#xe0;" horiz-adv-x="614" 
d="M400 854q-12 56 -66 56q-51 0 -75 -49t-24 -112h-14l-66 57q75 119 188 119q77 0 127 -47t50 -134v-644q0 -27 7 -41t27 -14v-15l-141 -30v66q-74 -95 -174 -95q-77 0 -127 47q-51 48 -51 134v280q0 77 32 121t76 63q37 16 115 36q57 15 87 27t42 38v18q0 57 -13 119z
M280 2q63 0 96 33t37 35v641q-8 -20 -31 -37q-16 -12 -61 -34q-52 -26 -79 -45q-31 -22 -52 -64t-21 -108v-262q0 -159 111 -159z" />
    <glyph glyph-name="b" unicode="b" horiz-adv-x="630" 
d="M53 1389v14l142 31v-606q75 97 174 97q77 0 127 -47t50 -134v-592q0 -87 -50 -134t-127 -47q-67 0 -107 31q-39 30 -69 66l-91 -68h-15v1333q0 27 -7 41q-8 15 -27 15zM439 735q0 159 -112 159q-61 0 -95 -34q-35 -35 -37 -36v-752q2 -1 37 -36q34 -34 95 -34
q112 0 112 159v574z" />
    <glyph glyph-name="c" unicode="c" horiz-adv-x="546" 
d="M420 862q-27 48 -86 48q-68 0 -102 -62t-43 -160t-9 -240q0 -195 46 -320q46 -126 149 -126q72 0 133 71l1 -3q-8 -13 -27 -34q-21 -23 -61 -44q-39 -21 -87 -21q-128 0 -201 133q-72 132 -72 344t72 344q73 133 201 133q118 0 193 -119l-66 -57h-14q0 65 -27 113z" />
    <glyph glyph-name="c" unicode="&#xe7;" horiz-adv-x="546" 
d="M420 862q-27 48 -86 48q-68 0 -102 -62t-43 -160t-9 -240q0 -195 46 -320q46 -126 149 -126q72 0 133 71l1 -3q-8 -13 -27 -34q-21 -23 -61 -44q-39 -21 -87 -21q-128 0 -201 133q-72 132 -72 344t72 344q73 133 201 133q118 0 193 -119l-66 -57h-14q0 65 -27 113z" />
    <glyph glyph-name="d" unicode="d" horiz-adv-x="632" 
d="M84 152v592q0 87 50 134t127 47q49 0 84 -19q40 -21 50 -33q3 -4 16.5 -19t23.5 -26v505q0 27 -7 41q-8 15 -27 15v14l142 31v-1434h-15l-91 68q-30 -36 -69 -66q-40 -31 -107 -31q-77 0 -127 47t-50 134zM303 2q45 0 74 20q27 19 58 50v752l-37 37q-33 33 -95 33
q-112 0 -112 -159v-574q0 -159 112 -159z" />
    <glyph glyph-name="e" unicode="e" horiz-adv-x="651" 
d="M228 128q46 -126 149 -126q72 0 133 71l1 -3q-8 -13 -27 -34q-21 -23 -61 -44q-39 -21 -87 -21q-128 0 -201 133q-72 132 -72 344q0 237 69 357t204 120q134 0 203 -120t69 -357h-426q0 -195 46 -320zM182 462h308q0 161 -10 250q-11 93 -43 145q-33 53 -101 53t-101 -53
q-32 -52 -43 -145q-10 -89 -10 -250z" />
    <glyph glyph-name="e" unicode="&#xeb;" horiz-adv-x="651" 
d="M228 128q46 -126 149 -126q72 0 133 71l1 -3q-8 -13 -27 -34q-21 -23 -61 -44q-39 -21 -87 -21q-128 0 -201 133q-72 132 -72 344q0 237 69 357t204 120q134 0 203 -120t69 -357h-426q0 -195 46 -320zM182 462h308q0 161 -10 250q-11 93 -43 145q-33 53 -101 53t-101 -53
q-32 -52 -43 -145q-10 -89 -10 -250z" />
    <glyph glyph-name="e" unicode="&#xea;" horiz-adv-x="651" 
d="M228 128q46 -126 149 -126q72 0 133 71l1 -3q-8 -13 -27 -34q-21 -23 -61 -44q-39 -21 -87 -21q-128 0 -201 133q-72 132 -72 344q0 237 69 357t204 120q134 0 203 -120t69 -357h-426q0 -195 46 -320zM182 462h308q0 161 -10 250q-11 93 -43 145q-33 53 -101 53t-101 -53
q-32 -52 -43 -145q-10 -89 -10 -250z" />
    <glyph glyph-name="e" unicode="&#xe9;" horiz-adv-x="651" 
d="M228 128q46 -126 149 -126q72 0 133 71l1 -3q-8 -13 -27 -34q-21 -23 -61 -44q-39 -21 -87 -21q-128 0 -201 133q-72 132 -72 344q0 237 69 357t204 120q134 0 203 -120t69 -357h-426q0 -195 46 -320zM182 462h308q0 161 -10 250q-11 93 -43 145q-33 53 -101 53t-101 -53
q-32 -52 -43 -145q-10 -89 -10 -250z" />
    <glyph glyph-name="e" unicode="&#xe8;" horiz-adv-x="651" 
d="M228 128q46 -126 149 -126q72 0 133 71l1 -3q-8 -13 -27 -34q-21 -23 -61 -44q-39 -21 -87 -21q-128 0 -201 133q-72 132 -72 344q0 237 69 357t204 120q134 0 203 -120t69 -357h-426q0 -195 46 -320zM182 462h308q0 161 -10 250q-11 93 -43 145q-33 53 -101 53t-101 -53
q-32 -52 -43 -145q-10 -89 -10 -250z" />
    <glyph glyph-name="f" unicode="f" horiz-adv-x="382" 
d="M146 1416q49 46 127 46q58 0 105 -31q46 -30 83 -87l-66 -57h-15q0 63 -24 112t-74 49q-46 0 -63 -47q-16 -45 -16 -129v-376h177v-14h-177v-812q0 -27 7 -41q8 -15 27 -15v-14h-176v14q19 0 27 15q7 14 7 41v812h-34v14h34v385q0 87 51 135z" />
    <glyph glyph-name="g" unicode="g" horiz-adv-x="645" 
d="M195 120q-23 -7 -35 -28t-12 -47q0 -53 45 -78q51 -29 142 -57q92 -29 123 -43q48 -21 83 -59q34 -37 34 -97q0 -97 -71 -142q-72 -46 -184 -46q-141 0 -218 50t-77 130q0 72 39 111q40 40 95 52q-48 25 -72 53q-25 29 -25 74q0 54 39 87q40 34 88 44q-118 99 -118 378
q0 210 67 316q68 107 189 107q8 0 42 -4l186 41l-7 -66l-133 13q81 -35 125 -137q44 -103 44 -270q0 -211 -68 -318t-189 -107q-76 0 -132 43zM149 -418q57 -44 171 -44q72 0 131 23q61 24 61 90q0 42 -30 72q-31 31 -71 48q-34 14 -116 43q-93 30 -129 46q-34 -12 -55 -50
q-20 -36 -20 -97q0 -86 58 -131zM189 502q0 -131 9 -232q7 -82 38 -131q30 -48 91 -48q62 0 92 48q31 49 38 131q8 90 8 232q0 140 -8 230q-7 82 -38 131q-29 47 -92 47q-62 0 -91 -47q-31 -49 -38 -131q-9 -101 -9 -230z" />
    <glyph glyph-name="h" unicode="h" horiz-adv-x="645" 
d="M334 894q-61 0 -95 -33q-35 -34 -38 -35v-756q0 -27 7 -41q8 -15 27 -15v-14h-176v14q19 0 27 15q7 14 7 41v1263q0 27 -7 41q-8 15 -27 15v14l142 31v-604q74 95 174 95q77 0 127 -47t50 -134v-674q0 -27 7 -41q7 -15 27 -15v-14h-175v14q19 0 26 15q8 16 8 41v665
q0 159 -111 159z" />
    <glyph glyph-name="i" unicode="i" horiz-adv-x="296" 
d="M210 29q8 -15 27 -15v-14h-176v14q19 0 27 15q7 14 7 41v726q0 27 -7 41t-27 14v15l142 30v-826q0 -27 7 -41zM144 980q-28 0 -50 22t-22 50q0 27 22 49q21 21 50 21q28 0 49 -21t21 -49q0 -29 -21 -50q-22 -22 -49 -22z" />
    <glyph glyph-name="i" unicode="&#xef;" horiz-adv-x="296" 
d="M210 29q8 -15 27 -15v-14h-176v14q19 0 27 15q7 14 7 41v726q0 27 -7 41t-27 14v15l142 30v-826q0 -27 7 -41zM144 980q-28 0 -50 22t-22 50q0 27 22 49q21 21 50 21q28 0 49 -21t21 -49q0 -29 -21 -50q-22 -22 -49 -22z" />
    <glyph glyph-name="i" unicode="&#xee;" horiz-adv-x="296" 
d="M210 29q8 -15 27 -15v-14h-176v14q19 0 27 15q7 14 7 41v726q0 27 -7 41t-27 14v15l142 30v-826q0 -27 7 -41zM144 980q-28 0 -50 22t-22 50q0 27 22 49q21 21 50 21q28 0 49 -21t21 -49q0 -29 -21 -50q-22 -22 -49 -22z" />
    <glyph glyph-name="i" unicode="&#xed;" horiz-adv-x="296" 
d="M210 29q8 -15 27 -15v-14h-176v14q19 0 27 15q7 14 7 41v726q0 27 -7 41t-27 14v15l142 30v-826q0 -27 7 -41zM144 980q-28 0 -50 22t-22 50q0 27 22 49q21 21 50 21q28 0 49 -21t21 -49q0 -29 -21 -50q-22 -22 -49 -22z" />
    <glyph glyph-name="i" unicode="&#xec;" horiz-adv-x="296" 
d="M210 29q8 -15 27 -15v-14h-176v14q19 0 27 15q7 14 7 41v726q0 27 -7 41t-27 14v15l142 30v-826q0 -27 7 -41zM144 980q-28 0 -50 22t-22 50q0 27 22 49q21 21 50 21q28 0 49 -21t21 -49q0 -29 -21 -50q-22 -22 -49 -22z" />
    <glyph glyph-name="j" unicode="j" horiz-adv-x="292" 
d="M95 -54v850q0 27 -7 41t-27 14v15l141 30v-862q0 -88 -31 -150q-31 -63 -75 -96q-45 -34 -82 -34v15q6 0 26 19q22 21 38 58q17 40 17 100zM143 980q-28 0 -50 22q-21 21 -21 50q0 28 21 49t50 21t50 -21q20 -20 20 -49q0 -30 -20 -50q-22 -22 -50 -22z" />
    <glyph glyph-name="k" unicode="k" horiz-adv-x="638" 
d="M208 29q8 -15 27 -15v-14h-176v14q19 0 27 15q7 14 7 41v1263q0 27 -7 41q-8 15 -27 15v14l142 31v-902l233 294q3 7 13 20q12 16 12 25q0 11 -16 11v14h82v-14q-36 0 -77 -56l-172 -219l285 -537q30 -56 70 -56v-14h-147l-283 527v-457q0 -27 7 -41z" />
    <glyph glyph-name="l" unicode="l" horiz-adv-x="294" 
d="M208 29q8 -15 27 -15v-14h-176v14q19 0 27 15q7 14 7 41v1263q0 27 -7 41q-8 15 -27 15v14l142 31v-1364q0 -27 7 -41z" />
    <glyph glyph-name="m" unicode="m" horiz-adv-x="997" 
d="M336 894q-61 0 -95 -33q-35 -34 -38 -35v-756q0 -27 7 -41q8 -15 27 -15v-14h-176v14q19 0 27 15q7 14 7 41v726q0 27 -7 41t-27 14v15l142 30v-66l3 3q2 3 7.5 10t11.5 14q20 25 63 46q44 22 89 22q57 0 100 -25t63 -74q81 99 188 99q77 0 127 -47t50 -134v-674
q0 -25 8 -41q7 -15 27 -15v-14h-176v14q20 0 27 15q7 14 7 41v665q0 159 -111 159q-74 0 -145 -71q12 -33 12 -79v-674q0 -27 7 -41q7 -15 27 -15v-14h-175v14q19 0 27 15q7 14 7 41v665q0 159 -111 159z" />
    <glyph glyph-name="n" unicode="n" horiz-adv-x="647" 
d="M336 894q-61 0 -95 -33q-35 -34 -38 -35v-756q0 -27 7 -41q8 -15 27 -15v-14h-176v14q19 0 27 15q7 14 7 41v726q0 27 -7 41t-27 14v15l142 30v-66l3 3q2 3 7.5 10t11.5 14q20 25 63 46q44 22 89 22q77 0 127 -47t50 -134v-674q0 -27 7 -41q7 -15 27 -15v-14h-175v14
q19 0 27 15q7 14 7 41v665q0 159 -111 159z" />
    <glyph glyph-name="n" unicode="&#xf1;" horiz-adv-x="647" 
d="M336 894q-61 0 -95 -33q-35 -34 -38 -35v-756q0 -27 7 -41q8 -15 27 -15v-14h-176v14q19 0 27 15q7 14 7 41v726q0 27 -7 41t-27 14v15l142 30v-66l3 3q2 3 7.5 10t11.5 14q20 25 63 46q44 22 89 22q77 0 127 -47t50 -134v-674q0 -27 7 -41q7 -15 27 -15v-14h-175v14
q19 0 27 15q7 14 7 41v665q0 159 -111 159z" />
    <glyph glyph-name="o" unicode="o" horiz-adv-x="681" 
d="M68 448q0 179 30 284q30 104 90 149q59 44 152 44t152 -44q60 -45 90 -149q30 -105 30 -284t-30 -284q-30 -104 -90 -149q-59 -44 -152 -44t-152 44q-60 45 -90 149q-30 105 -30 284zM494 448q0 178 -9 271q-9 92 -42 142q-33 49 -103 49t-103 -49q-33 -50 -42 -142
q-9 -93 -9 -271t9 -271q9 -92 42 -142q33 -49 103 -49t103 49q33 50 42 142q9 93 9 271z" />
    <glyph glyph-name="o" unicode="&#xf8;" horiz-adv-x="681" 
d="M68 448q0 179 30 284q30 104 90 149q59 44 152 44t152 -44q60 -45 90 -149q30 -105 30 -284t-30 -284q-30 -104 -90 -149q-59 -44 -152 -44t-152 44q-60 45 -90 149q-30 105 -30 284zM494 448q0 178 -9 271q-9 92 -42 142q-33 49 -103 49t-103 -49q-33 -50 -42 -142
q-9 -93 -9 -271t9 -271q9 -92 42 -142q33 -49 103 -49t103 49q33 50 42 142q9 93 9 271z" />
    <glyph glyph-name="o" unicode="&#xf6;" horiz-adv-x="681" 
d="M68 448q0 179 30 284q30 104 90 149q59 44 152 44t152 -44q60 -45 90 -149q30 -105 30 -284t-30 -284q-30 -104 -90 -149q-59 -44 -152 -44t-152 44q-60 45 -90 149q-30 105 -30 284zM494 448q0 178 -9 271q-9 92 -42 142q-33 49 -103 49t-103 -49q-33 -50 -42 -142
q-9 -93 -9 -271t9 -271q9 -92 42 -142q33 -49 103 -49t103 49q33 50 42 142q9 93 9 271z" />
    <glyph glyph-name="o" unicode="&#xf5;" horiz-adv-x="681" 
d="M68 448q0 179 30 284q30 104 90 149q59 44 152 44t152 -44q60 -45 90 -149q30 -105 30 -284t-30 -284q-30 -104 -90 -149q-59 -44 -152 -44t-152 44q-60 45 -90 149q-30 105 -30 284zM494 448q0 178 -9 271q-9 92 -42 142q-33 49 -103 49t-103 -49q-33 -50 -42 -142
q-9 -93 -9 -271t9 -271q9 -92 42 -142q33 -49 103 -49t103 49q33 50 42 142q9 93 9 271z" />
    <glyph glyph-name="o" unicode="&#xf4;" horiz-adv-x="681" 
d="M68 448q0 179 30 284q30 104 90 149q59 44 152 44t152 -44q60 -45 90 -149q30 -105 30 -284t-30 -284q-30 -104 -90 -149q-59 -44 -152 -44t-152 44q-60 45 -90 149q-30 105 -30 284zM494 448q0 178 -9 271q-9 92 -42 142q-33 49 -103 49t-103 -49q-33 -50 -42 -142
q-9 -93 -9 -271t9 -271q9 -92 42 -142q33 -49 103 -49t103 49q33 50 42 142q9 93 9 271z" />
    <glyph glyph-name="o" unicode="&#xf3;" horiz-adv-x="681" 
d="M68 448q0 179 30 284q30 104 90 149q59 44 152 44t152 -44q60 -45 90 -149q30 -105 30 -284t-30 -284q-30 -104 -90 -149q-59 -44 -152 -44t-152 44q-60 45 -90 149q-30 105 -30 284zM494 448q0 178 -9 271q-9 92 -42 142q-33 49 -103 49t-103 -49q-33 -50 -42 -142
q-9 -93 -9 -271t9 -271q9 -92 42 -142q33 -49 103 -49t103 49q33 50 42 142q9 93 9 271z" />
    <glyph glyph-name="o" unicode="&#xf2;" horiz-adv-x="681" 
d="M68 448q0 179 30 284q30 104 90 149q59 44 152 44t152 -44q60 -45 90 -149q30 -105 30 -284t-30 -284q-30 -104 -90 -149q-59 -44 -152 -44t-152 44q-60 45 -90 149q-30 105 -30 284zM494 448q0 178 -9 271q-9 92 -42 142q-33 49 -103 49t-103 -49q-33 -50 -42 -142
q-9 -93 -9 -271t9 -271q9 -92 42 -142q33 -49 103 -49t103 49q33 50 42 142q9 93 9 271z" />
    <glyph glyph-name="p" unicode="p" horiz-adv-x="638" 
d="M61 -448v14q19 0 27 15q7 14 7 41v1174q0 27 -7 41t-27 14v15l142 30v-68q75 97 174 97q77 0 127 -47t50 -134v-592q0 -87 -50 -134t-127 -47q-99 0 -174 97v-446q0 -27 7 -41q8 -15 27 -15v-14h-176zM447 735q0 159 -111 159q-61 0 -95 -34t-38 -36v-752q4 -2 38 -36
t95 -34q111 0 111 159v574z" />
    <glyph glyph-name="q" unicode="q" horiz-adv-x="630" 
d="M84 152v592q0 87 50 134t127 47q67 0 107 -31q39 -30 69 -66l91 68h15v-1274q0 -27 7 -41q8 -15 27 -15v-14h-176v14q19 0 27 15q7 14 7 41v446q-75 -97 -174 -97q-77 0 -127 47t-50 134zM303 2q61 0 95 34q35 35 37 36v752q-2 1 -37 36q-34 34 -95 34q-112 0 -112 -159
v-574q0 -159 112 -159z" />
    <glyph glyph-name="r" unicode="r" horiz-adv-x="538" 
d="M210 29q8 -15 27 -15v-14h-176v14q19 0 27 15q7 14 7 41v726q0 27 -7 41t-27 14v15l142 30v-66l3 3q2 3 7.5 10t11.5 14q20 25 63 46q44 22 89 22t80 -21q34 -21 52 -52q18 -32 18 -60l-66 -57h-14q0 159 -111 159q-61 0 -95 -33q-35 -34 -38 -35v-756q0 -27 7 -41z" />
    <glyph glyph-name="s" unicode="s" horiz-adv-x="532" 
d="M360 862q-27 48 -86 48q-45 0 -72 -27q-28 -28 -28 -87q0 -69 38 -136q40 -71 118 -171q76 -103 116 -172t40 -136q0 -57 -32 -106q-31 -48 -82 -76q-50 -28 -109 -28q-71 0 -127 33q-55 33 -107 89l66 58h14q0 -36 18 -75q17 -38 53 -64q35 -26 83 -26q57 0 96 36t39 91
q0 70 -40 141q-40 72 -123 183q-73 95 -119 175q-41 71 -41 137q0 80 59 128q58 48 140 48q119 0 194 -119l-67 -57h-14q0 65 -27 113z" />
    <glyph glyph-name="t" unicode="t" horiz-adv-x="464" 
d="M57 896h34v50q0 27 -7 41q-8 15 -27 15v14l142 31v-151h220v-14h-220v-665q0 -105 27 -160t93 -55q65 0 99 34l12 12l10 10l7 7l5 5l1 2v-2q-3 -10 -28 -33q-26 -25 -64 -45q-39 -21 -83 -21q-91 0 -139 65q-48 64 -48 181v665h-34v14z" />
    <glyph glyph-name="u" unicode="u" horiz-adv-x="649" 
d="M201 161q0 -159 111 -159q61 0 95 33q35 34 38 35v726q0 27 -7 41t-27 14v15l141 30v-796q0 -27 7 -41t27 -14v-15l-141 -30v66q-4 -4 -23 -27q-21 -26 -62 -46q-44 -22 -89 -22q-77 0 -127 47q-51 48 -51 134v644q0 27 -7 41t-27 14v15l142 30v-735z" />
    <glyph glyph-name="u" unicode="&#xfc;" horiz-adv-x="649" 
d="M201 161q0 -159 111 -159q61 0 95 33q35 34 38 35v726q0 27 -7 41t-27 14v15l141 30v-796q0 -27 7 -41t27 -14v-15l-141 -30v66q-4 -4 -23 -27q-21 -26 -62 -46q-44 -22 -89 -22q-77 0 -127 47q-51 48 -51 134v644q0 27 -7 41t-27 14v15l142 30v-735z" />
    <glyph glyph-name="u" unicode="&#xfb;" horiz-adv-x="649" 
d="M201 161q0 -159 111 -159q61 0 95 33q35 34 38 35v726q0 27 -7 41t-27 14v15l141 30v-796q0 -27 7 -41t27 -14v-15l-141 -30v66q-4 -4 -23 -27q-21 -26 -62 -46q-44 -22 -89 -22q-77 0 -127 47q-51 48 -51 134v644q0 27 -7 41t-27 14v15l142 30v-735z" />
    <glyph glyph-name="u" unicode="&#xfa;" horiz-adv-x="649" 
d="M201 161q0 -159 111 -159q61 0 95 33q35 34 38 35v726q0 27 -7 41t-27 14v15l141 30v-796q0 -27 7 -41t27 -14v-15l-141 -30v66q-4 -4 -23 -27q-21 -26 -62 -46q-44 -22 -89 -22q-77 0 -127 47q-51 48 -51 134v644q0 27 -7 41t-27 14v15l142 30v-735z" />
    <glyph glyph-name="u" unicode="&#xf9;" horiz-adv-x="649" 
d="M201 161q0 -159 111 -159q61 0 95 33q35 34 38 35v726q0 27 -7 41t-27 14v15l141 30v-796q0 -27 7 -41t27 -14v-15l-141 -30v66q-4 -4 -23 -27q-21 -26 -62 -46q-44 -22 -89 -22q-77 0 -127 47q-51 48 -51 134v644q0 27 -7 41t-27 14v15l142 30v-735z" />
    <glyph glyph-name="v" unicode="v" horiz-adv-x="610" 
d="M8 882v14h176v-14q-23 0 -23 -22q0 -10 7 -34l191 -638l176 638q5 16 5 32q0 24 -23 24v14h83v-14q-20 0 -32 -15t-19 -41l-227 -826h-15l-247 826q-17 56 -52 56z" />
    <glyph glyph-name="w" unicode="w" horiz-adv-x="839" 
d="M473 896l160 -677l132 607l2 10t1.5 8t0.5 5q0 33 -29 33v14h83v-14q-20 0 -28 -14q-7 -14 -15 -42l-181 -826h-15l-161 663l-142 -663h-14l-210 826q-7 28 -15 42t-28 14v14h176v-14q-29 0 -29 -33q0 -2 0.5 -5t1.5 -8l2 -10l154 -588l140 658h14z" />
    <glyph glyph-name="x" unicode="x" horiz-adv-x="620" 
d="M269 459l-165 367q-26 56 -59 56v14h175v-14q-19 0 -19 -18q0 -14 10 -38l135 -297l138 297q11 30 11 38q0 18 -20 18v14h82v-14q-33 0 -59 -56l-147 -313l199 -443q10 -22 25 -41q12 -15 32 -15v-14h-175v14q21 0 21 20q0 16 -10 36l-167 373l-186 -373q-13 -23 -13 -38
q0 -18 20 -18v-14h-83v14q19 0 33 16q13 14 28 40z" />
    <glyph glyph-name="y" unicode="y" horiz-adv-x="612" 
d="M541 855q0 27 -25 27v14h82v-14q-20 0 -30 -15q-10 -14 -16 -41l-309 -1274h-95l160 326l-247 948q-12 56 -49 56v14h176v-14q-25 0 -25 -27q0 -6 2 -16q1 -5 3 -13l192 -736l177 736q4 28 4 29z" />
    <glyph glyph-name="y" unicode="&#xff;" horiz-adv-x="612" 
d="M541 855q0 27 -25 27v14h82v-14q-20 0 -30 -15q-10 -14 -16 -41l-309 -1274h-95l160 326l-247 948q-12 56 -49 56v14h176v-14q-25 0 -25 -27q0 -6 2 -16q1 -5 3 -13l192 -736l177 736q4 28 4 29z" />
    <glyph glyph-name="y" unicode="&#xfd;" horiz-adv-x="612" 
d="M541 855q0 27 -25 27v14h82v-14q-20 0 -30 -15q-10 -14 -16 -41l-309 -1274h-95l160 326l-247 948q-12 56 -49 56v14h176v-14q-25 0 -25 -27q0 -6 2 -16q1 -5 3 -13l192 -736l177 736q4 28 4 29z" />
    <glyph glyph-name="z" unicode="z" horiz-adv-x="591" 
d="M415 882h-203q-43 0 -70 -5q-25 -5 -39 -23t-14 -60q0 -17 2 -31h-15l-41 133h505l-392 -882h245q44 0 71 5q25 5 39 23t14 60q0 17 -2 31h15l41 -133h-548z" />
    <glyph glyph-name="nonbreakingspace" unicode="&#xa0;" horiz-adv-x="411" 
 />
    <glyph glyph-name="softhyphen" unicode="&#xad;" 
 />
    </font>
</defs>
</svg>
