<?xml version="1.0" standalone="no"?>
<!DOCTYPE svg PUBLIC "-//W3C//DTD SVG 1.1//EN" "http://www.w3.org/Graphics/SVG/1.1/DTD/svg11.dtd" >
<svg xmlns="http://www.w3.org/2000/svg" xmlns:xlink="http://www.w3.org/1999/xlink" version="1.1">
<metadata>
Created by FontForge 20170731 at Sat Dec  3 16:45:36 2022
 By Aleksey,,,
(c)2021, Graphix Line Studio
</metadata>
<defs>
<font id="HotChocolateRegular" horiz-adv-x="0" >
  <font-face 
    font-family="Hot Chocolate"
    font-weight="400"
    font-stretch="normal"
    units-per-em="2048"
    panose-1="0 0 0 0 0 0 0 0 0 0"
    ascent="1638"
    descent="-410"
    x-height="570"
    cap-height="1420"
    bbox="-638 -825 1872.41 1488.53"
    underline-thickness="102"
    underline-position="-307"
    unicode-range="U+000A-F003"
  />
<missing-glyph horiz-adv-x="1079" 
d="M102 1434h875v-1434h-875v1434zM160 1393l379 -633l381 633h-760zM514 717l-369 614v-1231zM541 674l-379 -631h758zM565 717l371 -621v1239z" />
    <glyph glyph-name="ol.liga" unicode="ol" horiz-adv-x="978" 
d="M1007 361q10 -2 16 -11.5t4 -20.5q-6 -25 -75 -164v-1l-1 -2l-1 -1q-24 -49 -68 -128q-47 -83 -89.5 -142t-69.5 -87t-53.5 -43.5t-36.5 -17.5t-23 -2q-42 0 -70.5 22t-41.5 58.5t-18 69.5t-5 70q0 118 50 312.5t144 429.5q-24 -34 -36 -50q-104 -144 -184 -217
q-77 -69 -131 -72q-3 -56 -35.5 -137.5t-74.5 -140.5q-71 -101 -142 -101q-49 0 -85.5 47t-36.5 133q2 146 68 276q76 142 179 142q79 0 112 -59q27 -50 1 -91q-4 -6 -13 -10q1 0 2 -0.5t2 -0.5q4 0 5 -1v-1q19 -9 55 10.5t98 84.5t137 169q144 204 264 428q3 5 8.5 15.5
t8.5 16.5l1 4h1q63 121 114 210q12 21 39.5 22.5t49.5 -12.5q24 -14 31 -34t-3 -33q-198 -346 -335 -675q-189 -457 -189 -727q0 -44 9 -73t23 -29q82 0 279 369l12 22q66 132 73 155t31 18zM259 389q-5 24 16 32q-11 0 -18.5 8t-7.5 19q0 48 -18 48q-20 0 -50.5 -32.5
t-61.5 -93.5q-67 -134 -67 -241q0 -19 1 -34.5t3 -23t3.5 -12.5t2.5 -7l1 -1h6q27 0 77 64q51 66 86.5 152t26.5 122z" />
    <glyph glyph-name="at.liga" unicode="at" horiz-adv-x="1009" 
d="M1005 1069q-125 -241 -209 -443q-189 -457 -189 -727q0 -44 9 -73t22 -29q83 0 280 369l12 22q65 129 73 155q3 11 12.5 16t19.5 2q24 -7 19 -32q-6 -25 -75 -164q0 -1 -1 -3l-1 -1q-33 -69 -68 -128q-47 -83 -89.5 -142t-69.5 -87t-53.5 -43.5t-36.5 -17.5t-23 -2
q-42 0 -70.5 22t-41.5 58.5t-18 69.5t-5 70q0 130 59 346q-12 -18 -17 -26q-100 -160 -168 -160q-60 0 -92 56q-10 17 -17 44q-32 -56 -66.5 -103.5t-83 -88.5t-87.5 -41q-51 0 -82 39.5t-31 104.5q0 74 29.5 158t80.5 159q52 75 109.5 117t108.5 42q74 0 109 -54
q32 -50 10 -103q-2 -4 -4 -6l-3 -3l-1 -1q0 -1 -1 -1t-2 -1q-1 0 -1 -0.5t-1 -0.5t-1 -0.5t-1 -0.5t-2 -0.5t-2 -0.5h-1h-1l-1 -1h-3q-22 0 -26 24q-4 34 -13.5 54.5t-21.5 20.5q-42 0 -101.5 -67.5t-105.5 -173.5t-46 -200q0 -30 5 -37q7 0 22 9.5t39 33.5t51 58t61 90
t66 123q3 8 4 10q15 24 47 13q36 -14 31 -43q-22 -132 8 -166q6 -7 15 -7q6 0 15.5 4.5t40.5 37t68 89.5q22 35 54 95q73 137 141 296q2 5 6 13q69 173 155 346q-318 -28 -545 -80q-3 -1 -8 -1q-17 0 -28 13q-17 20 -9 46q5 17 23 20q264 44 600 67q55 109 127 235
q12 21 39.5 22.5t49.5 -12.5q24 -14 31 -34t-3 -33q-23 -40 -93 -170q58 2 86 3q451 12 492 -54q14 -24 -5 -47q-11 -15 -30 -8t-17 26q-54 21 -210 25.5t-349 -7.5z" />
    <glyph glyph-name="ot.liga" unicode="ot" horiz-adv-x="907" 
d="M1532 1061q150 -18 178 -59q17 -25 0 -50q-12 -19 -32 -11t-17 30q-73 29 -253 37t-392 -5q-174 -346 -285.5 -659.5t-111.5 -513.5q0 -51 9 -60q5 2 10 5q9 7 19.5 5.5t17.5 -9.5t5.5 -19.5t-9.5 -18.5q-10 -8 -24 -13q-7 -5 -15 -5h-5q-14 -1 -31 7q-29 14 -46 55
t-17 99q0 126 69 381t192 551q-48 -64 -74 -95q-217 -259 -379 -259h-6q15 -55 -9 -143q-33 -118 -105 -221q-84 -117 -159 -117q-51 0 -87 49q-38 52 -38 135q0 75 31 159t89 146.5t124 62.5q41 0 70 -26q1 1 3 4l2 2q11 21 34 12q59 -24 135 10.5t153.5 112.5t145 164.5
t131.5 187.5q-269 -22 -488 -61q-23 -3 -36 13q-16 20 -8 45q6 17 23 20q280 46 556 59q30 49 59 104q39 79 112 212q15 26 43 24q19 0 41 -10.5t32 -27.5q13 -22 1 -42q-73 -127 -138 -254q96 2 143 2q207 0 337 -15zM250 273q34 92 26 149v-1v-1l-1 -1q0 -1 -1 -3v-2
l-1 -1q-1 -1 -1 -2t-0.5 -1t-0.5 -1l-2 -2l-1 -1l-2 -2h-1l-1 -1q-2 -2 -3 -2t-1 -1h-1q-1 -1 -2 -1h-2q-1 0 -3 -1h-2h-1h-2h-1l-2 1l-1 1h-2h-2q-1 0 -1 1t-1 1h-1l-2 1l-1 1q-1 0 -1 1l-2 1q-1 1 -1 2l-2 2q-1 1 -1 3q0 1 -0.5 1t-0.5 1t-0.5 1t-0.5 1t-0.5 1t-0.5 1v2v4
q0 10 -5.5 22t-13.5 12q-24 0 -63.5 -51.5t-72.5 -133t-33 -150.5q0 -33 6 -55t12.5 -29t13.5 -7q35 0 91 70.5t92 169.5z" />
    <glyph glyph-name="tt.liga" unicode="tt" horiz-adv-x="829" 
d="M1394 1017q17 -28 -5 -53q-13 -17 -33 -7t-13 31h-1l-2 1q-118 49 -536 36q-107 -209 -186 -399q-189 -457 -189 -727q0 -44 9 -73t22 -29q83 0 280 369l12 22q63 124 72 155q3 10 12.5 15.5t20.5 2.5q24 -7 19 -32q-7 -27 -76 -164v-1l-1 -2v-1q-28 -58 -69 -128
q-47 -83 -89.5 -142t-69.5 -87t-53 -43.5t-36 -17.5t-23 -2q-42 0 -71 22t-42 58.5t-18 69.5t-5 70q0 93 32 236q-56 -117 -107 -209q-82 -150 -141 -206q-43 -41 -78 -41q-42 0 -70.5 22t-41.5 58.5t-18 69.5t-5 70q0 154 82.5 429t232.5 591q-331 -38 -543 -88
q-22 -6 -39 12q-19 24 -11 53q7 19 24 22q272 46 605 76q81 164 161 302q12 21 40 22.5t50 -12.5q24 -14 30.5 -34t-3.5 -33q-71 -125 -127 -233q146 10 291 15q2 4 11 19q56 113 138 256q12 21 39.5 22.5t49.5 -12.5q24 -14 30.5 -34t-3.5 -33q-59 -105 -116 -214
q206 3 342 -9q189 -16 216 -61zM543 766q50 119 114 253q-125 -6 -297 -22q-100 -197 -172 -371q-189 -457 -189 -727q0 -44 9 -73t23 -29q18 0 51 35q53 58 128 197q4 7 24 47q79 153 230 510q60 143 79 180z" />
    <glyph glyph-name=".notdef" horiz-adv-x="1079" 
d="M102 1434h875v-1434h-875v1434zM160 1393l379 -633l381 633h-760zM514 717l-369 614v-1231zM541 674l-379 -631h758zM565 717l371 -621v1239z" />
    <glyph glyph-name=".null" 
 />
    <glyph glyph-name=".null" 
 />
    <glyph glyph-name="nonmarkingreturn" horiz-adv-x="682" 
 />
    <glyph glyph-name="controlLF" unicode="&#xa;" 
 />
    <glyph glyph-name="controlCR" unicode="&#xd;" 
 />
    <glyph glyph-name="space" unicode=" " horiz-adv-x="481" 
 />
    <glyph glyph-name="exclam" unicode="!" horiz-adv-x="843" 
d="M733 1366q15 -23 3 -45q-15 -30 -53 -102q-57 -108 -92 -178.5t-98.5 -208t-127 -304.5t-126.5 -361q-8 -26 -36 -26h-6q-15 3 -24.5 15t-8.5 27q0 135 138.5 497.5t299.5 703.5q8 20 36 22q23 2 52.5 -9t42.5 -31zM168 106q25 -1 42 -19t16 -43q0 -42 -39 -57
q-40 -15 -68 15q-29 31 -11 68q19 39 60 36z" />
    <glyph glyph-name="numbersign" unicode="#" horiz-adv-x="1169" 
d="M1065 1333q-9 -23 -65 -138q-72 -146 -122 -257q69 -6 123 -15q12 -2 21 -10t10 -20q3 -24 -19 -34q-22 -9 -41 8q-33 4 -122 7q-85 -194 -135 -327q68 -2 134 -12q12 -2 21 -9.5t10 -19.5q3 -23 -20 -34q-22 -9 -40 7q-32 4 -128 4q-93 -257 -158 -513q-10 -36 -37 -36
q-1 0 -2 0.5t-2 0.5q-28 4 -28 36q0 144 123 512q-93 -2 -193 -9q-96 -250 -157 -452q-4 -14 -14 -24t-23 -10h-3l-2 1q-26 7 -26 36q0 90 116 438q-74 -7 -141 -21h-6q-16 0 -25 12q-16 20 -10 43q6 16 23 19q87 15 184 22q64 184 120 327q-66 -7 -114 -17h-6q-15 0 -24 11
q-8 10 -11 27.5t2 28.5q7 16 25 18q82 6 158 9q93 232 177 406q9 18 28 23.5t41 -3.5q25 -11 36 -31t4 -40q-5 -13 -62 -140q-15 -32 -48.5 -108.5t-45.5 -103.5q99 2 171 -1q88 212 198 436q7 15 23 19.5t45 -6.5q23 -10 33.5 -27t3.5 -33zM610 549q61 175 124 328
q-85 0 -175 -3q-60 -138 -136 -329q85 4 187 4z" />
    <glyph glyph-name="dollar" unicode="$" horiz-adv-x="976" 
d="M873 942q8 -35 -7.5 -65t-49.5 -46q-10 -5 -20 -1.5t-15 13.5v1l-1 1v2t-0.5 1t-0.5 1v2q0 1 -1 3v1q0 9 7 18q33 40 23 61q-18 35 -127 35h-5q-91 -201 -152 -348q73 -33 114 -72t41 -96q0 -85 -83.5 -143t-221.5 -72q-45 -123 -80 -241q-4 -14 -14 -24t-23 -10
q-1 0 -2 0.5t-2 0.5q-27 7 -27 36q0 62 48 235q-63 6 -113 44q-52 42 -58 87q-6 43 31 54q20 5 34 -9q16 -16 7 -38q-2 -6 -4 -8v-5q7 -13 34 -29t64 -16q19 0 29 1q39 130 92 281q-82 34 -128 73.5t-46 99.5q0 57 39.5 113t113.5 103q94 59 206 81q58 132 127 270
q9 18 29 23t44 -5q26 -11 38.5 -31.5t5.5 -40.5q-9 -25 -66 -147q-5 -10 -15.5 -33.5t-16.5 -36.5q64 -14 103 -48t49 -76zM293 737q0 -24 121 -72q58 157 108 277q-99 -34 -164 -98t-65 -107zM598 487q0 29 -101 69q-52 -128 -87 -221q81 23 134.5 65t53.5 87z" />
    <glyph glyph-name="percent" unicode="%" horiz-adv-x="1130" 
d="M1028 1229q0 -43 -29 -104t-95 -151.5t-121 -160t-158 -194.5q-93 -113 -141 -172.5t-119 -152t-115 -163t-70 -128.5q-13 -29 -37 -29q-5 0 -11 2q-15 5 -23.5 21t-5.5 30q7 35 26.5 78t58 102.5t67 101.5t91 122t90.5 115t101 126q95 118 147.5 185t119.5 159t98 153
t31 98q0 16 -8 19q-35 16 -144.5 -33t-161.5 -88q10 -51 -20 -120q-34 -81 -90 -141q-67 -71 -126 -71q-44 0 -77.5 39t-33.5 105q0 108 63.5 199.5t139.5 91.5q22 0 40.5 -14.5t22.5 -32.5q2 -4 2 -6q1 -5 -3 -15q-7 -13 -21 -15q-23 -3 -59 -39t-65 -91.5t-29 -102.5
q0 -43 7 -50h2q20 0 56 32t71 87q32 51 44.5 92t4.5 58q-3 6 -3 12q-3 15 11 26q90 66 186 107.5t157 41.5q60 0 94.5 -38.5t34.5 -90.5zM771 430q79 -27 79 -129q0 -66 -31 -140t-82.5 -125.5t-103.5 -51.5q-51 0 -89 49q-37 49 -37 126q0 101 57 199q61 104 129 104
q30 0 46 -26q17 0 32 -6zM626 45q13 0 37.5 21.5t51.5 56t46.5 87.5t19.5 106q0 41 -22 60q-1 1 -7 4q-1 0 -3 1t-3 1h-3q-5 -8 -13 -11q-41 -19 -83.5 -98.5t-42.5 -159.5q0 -33 6.5 -50.5t15.5 -17.5z" />
    <glyph glyph-name="ampersand" unicode="&#x26;" horiz-adv-x="1036" 
d="M803 1182q60 -31 96 -80t36 -88q0 -30 -23 -52.5t-40 -27.5l-21 -5l-10 19q-9 19 8 33q23 19 16 43q-12 33 -62.5 54.5t-103.5 21.5q-140 2 -251 -83q-42 -33 -67.5 -72t-25.5 -70q0 -46 46.5 -86.5t107.5 -68.5q14 -4 28 -12q1 0 1 -0.5t1 -0.5q40 -22 52 -49
q10 -18 -3 -33q-11 -14 -30 -9q-120 30 -243 -66q-56 -43 -91.5 -96.5t-35.5 -85.5q0 -45 29.5 -75.5t74 -41.5t68 -14t38.5 -3q97 0 190 37t132 90q25 36 15 65q-1 1 -2 3.5t-1 3.5q-5 10 -1 21t14 15t20.5 0t15.5 -14q17 -33 14.5 -70t-23.5 -68q-39 -60 -134.5 -100.5
t-211.5 -45.5q-14 -44 -25.5 -105t-12.5 -83v-1q18 -13 13 -32t-30 -23q-1 0 -2.5 -0.5t-2.5 -0.5q-16 0 -26 13q-19 22 -19 98t14 139q-95 18 -164 77.5t-69 140.5q0 64 26.5 120t69.5 95t91.5 66t99.5 40q-56 41 -89 85t-33 108q0 66 30 120t75 87.5t100.5 57t105 33
t90.5 9.5q3 0 8.5 -0.5t8.5 -0.5q45 92 93 204q10 22 32 22q19 1 41.5 -12t33.5 -31q13 -21 0 -42q-32 -58 -82 -173z" />
    <glyph glyph-name="parenleft" unicode="(" horiz-adv-x="1009" 
d="M904 1429q7 -18 -5 -30q-14 -14 -31 -6q-29 11 -92 -31q-74 -50 -166.5 -160t-175.5 -266q-193 -362 -193 -719q0 -97 26.5 -180t67.5 -114q27 -22 61 -12l5 2.5t4 2.5q21 14 36 -6t-5 -37q-15 -10 -17 -11q-1 0 -1 -0.5t-1 -0.5q-25 -12 -55 -12q-38 0 -74 19
q-76 39 -131 140.5t-55 241.5q0 200 67 417.5t189 413.5q111 179 234 286t218 107q34 0 61 -15t33 -30z" />
    <glyph glyph-name="parenright" unicode=")" horiz-adv-x="1009" 
d="M721 1455q76 -39 131 -140.5t55 -241.5q0 -200 -67 -417.5t-189 -413.5q-111 -179 -234 -286t-218 -107q-34 0 -61 15t-33 30q-7 17 6 30q14 14 30 6q29 -11 92 31q74 50 166.5 160t175.5 266q193 362 193 719q0 97 -26.5 180t-67.5 114q-27 22 -61 12q-2 -1 -4.5 -2.5
t-3.5 -2.5q-22 -14 -37 6t5 37q15 10 17 11l1 1h1q60 28 129 -7z" />
    <glyph glyph-name="asterisk" unicode="*" horiz-adv-x="550" 
d="M447 1293q4 -10 0.5 -20t-13.5 -15q-27 -12 -51 -13q7 -29 22 -49q16 -18 0 -35q-17 -18 -35 -5q-31 22 -64 89l-33 3q-46 -72 -58 -79q-27 -12 -51.5 -3.5t-37.5 25.5q-17 21 2 40q20 18 41 41q-19 6 -44 22q-35 22 -18 49q9 14 28 15.5t28 -5.5q29 -15 58 -24
q37 43 69 86q18 23 45 11q14 -5 25.5 -18.5t10.5 -29.5q-2 -49 1 -73q17 0 32 3q33 10 43 -15z" />
    <glyph glyph-name="plus" unicode="+" horiz-adv-x="686" 
d="M546 659q37 -2 37 -30q0 -27 -35 -27h-16q-81 3 -151 3q-33 -90 -58 -169q-5 -17 -18 -28t-28 -11q-1 0 -2.5 0.5t-2.5 0.5q-13 2 -22.5 12.5t-9.5 29.5q0 55 25 162q-61 -3 -125 -9h-3q-13 0 -23 9.5t-11 24.5q-1 16 6.5 26t19.5 12q34 4 152 2q12 47 35 118
q11 36 29 75q19 35 72 16q26 -9 42 -26.5t12 -38.5q-3 -11 -9 -20q-30 -55 -58 -127q33 -1 67.5 -2t53.5 -2t21 -1z" />
    <glyph glyph-name="comma" unicode="," horiz-adv-x="331" 
d="M170 110q22 -1 38 -14.5t19 -34.5q13 -80 -73 -141l-1 -1q-7 -7 -20 -7q-5 0 -8 1q-19 5 -22 24q-3 18 12 28q17 13 25 31q-28 20 -28 53q-1 25 16 42.5t42 18.5z" />
    <glyph glyph-name="hyphen" unicode="-" horiz-adv-x="591" 
d="M457 657q18 -1 26 -10.5t7 -20.5q0 -4 -1.5 -9t-9.5 -11.5t-22 -6.5h-10q-148 6 -308 -13h-4q-11 0 -20.5 8.5t-11.5 24.5q-2 17 5.5 27t19.5 12q56 5 183 3t146 -4z" />
    <glyph glyph-name="period" unicode="." horiz-adv-x="327" 
d="M168 77q25 -1 42 -19t16 -43q0 -42 -39 -57q-40 -15 -68 15q-29 31 -11 68q19 39 60 36z" />
    <glyph glyph-name="slash" unicode="/" horiz-adv-x="1159" 
d="M1034 1351q17 -14 21.5 -32.5t-6.5 -33.5q-492 -655 -874 -1282q-10 -16 -29 -16q-12 0 -22 6q-14 8 -19 21t1 25q121 227 426.5 698.5t422.5 611.5q14 17 36.5 17.5t42.5 -15.5z" />
    <glyph glyph-name="zero" unicode="0" horiz-adv-x="1028" 
d="M863 1376q62 -45 62 -177q0 -163 -60.5 -367.5t-167.5 -403.5q-59 -110 -124 -201t-141.5 -156t-137.5 -65q-90 0 -141 71.5t-51 198.5q0 174 56.5 367t159.5 373q94 165 197 263.5t180 98.5q47 0 68 -33q1 -1 3 -5l3 -6q10 -24 -10 -41q-19 -14 -36 -1q-11 6 -38 -8
q-54 -29 -135 -129t-155 -244q-178 -345 -178 -655q0 -81 25 -133t56 -52q69 0 165.5 112t188.5 299q93 188 148.5 383.5t55.5 335.5q0 102 -44 138q-1 0 -5 -2q-19 -6 -32 12q-1 1 -1 3t-1 3q-4 10 1 19.5t16 13.5q40 13 73 -12z" />
    <glyph glyph-name="one" unicode="1" horiz-adv-x="778" 
d="M673 1328l-14 -29q-59 -128 -99.5 -221.5t-113 -270.5t-139 -373t-120.5 -395q-10 -32 -45 -32q-1 0 -3 0.5t-3 0.5q-14 1 -24 12.5t-10 25.5q0 124 148 571t299 760q11 22 39 26t51 -9q25 -12 33 -30.5t1 -35.5z" />
    <glyph glyph-name="two" unicode="2" horiz-adv-x="1226" 
d="M720 117q161 -19 178 -73q5 -14 -1.5 -27.5t-19.5 -18.5q-6 -3 -12 -3q-12 0 -20 10q-7 9 -6 21h-1q-9 6 -36 13t-86.5 12.5t-134 5t-189.5 -15t-242 -42.5h-1q-2 -1 -7 -1q-25 0 -36 21q-13 23 9 39q383 265 644 603q125 161 191.5 303.5t66.5 248.5q0 15 -3.5 32
t-14 43t-38.5 43t-70 17q-83 0 -164 -54t-133.5 -134.5t-66.5 -162.5v-10q0 -11 -7.5 -19.5t-18.5 -8.5t-19.5 7.5t-8.5 18.5v8v8v1q3 69 40 147.5t97 139.5q123 127 279 127q104 0 169.5 -73.5t65.5 -190.5q0 -107 -77 -255.5t-196 -293t-255 -275.5t-261 -221
q233 28 385 10z" />
    <glyph glyph-name="three" unicode="3" horiz-adv-x="1083" 
d="M840 883q-83 -95 -189 -158q91 -34 134 -99t43 -193q0 -70 -29 -146.5t-79 -139.5q-60 -75 -140.5 -115t-171.5 -40q-152 0 -234 105q-49 62 -63.5 143.5t-3.5 150.5q0 1 1 3l2.5 10t1.5 9q3 11 12.5 17t19.5 3t16 -12.5t4 -20.5l-3 -15q-4 -177 77 -261q56 -57 147 -57
q121 0 223.5 130.5t102.5 313.5q0 101 -51 139q-50 38 -149 10l-2 -1q-30 -10 -46 -14q-3 -1 -9 -1q-28 2 -37 29q-4 11 1 22.5t16 15.5q195 79 324 245q53 68 83 137t30 121q0 63 -31 92t-98 29q-70 0 -134.5 -34.5t-107 -85t-69 -104.5t-28.5 -97q0 -3 -2 -9
q0 -23 -23 -27t-30 18q-33 102 61 231q56 75 143 129t186 54q88 -2 158 -56q41 -31 63.5 -77t21.5 -98q0 -62 -38 -142t-103 -154z" />
    <glyph glyph-name="four" unicode="4" horiz-adv-x="1001" 
d="M893 1338q13 -20 1 -42q-317 -576 -499 -1264q-10 -33 -38 -33h-4q-29 4 -29 37q0 68 48 248.5t123 398.5q-3 -1 -8 -3.5t-9.5 -5t-8.5 -4.5q-46 -24 -71 -35.5t-65 -24.5t-70 -13q-71 0 -116 51t-45 130q0 94 47 227t103 233t92 131q21 12 42 6.5t38 -20.5
q33 -29 14 -58q-73 -110 -155 -302t-82 -271q0 -43 15.5 -56t43.5 -13q58 0 146.5 43.5t116.5 65.5q126 353 255 595q12 21 33 19q20 1 45.5 -10.5t36.5 -29.5z" />
    <glyph glyph-name="five" unicode="5" horiz-adv-x="1183" 
d="M704 748q103 -71 103 -233q0 -69 -37.5 -155t-99.5 -163q-74 -91 -162 -139t-179 -48q-131 0 -187 77q-35 47 -39 119.5t15 122.5q3 10 12.5 15.5t20.5 2.5q10 -3 15.5 -13t2.5 -21q0 -1 -1 -4.5t-2 -7.5l-2 -8q-15 -119 34 -174q38 -42 114 -42q57 0 126.5 40t130 104
t102 155t41.5 183q0 112 -62 148q-43 25 -114.5 14t-156.5 -56q-12 -15 -30 -15q-2 0 -10 2q-21 5 -40 26t-14 41q16 73 136 323t175 320q6 8 16 11q7 3 14 2q12 0 26 -7q57 -15 134.5 -15t138 8.5t111.5 20.5l1 1q2 1 5.5 1t5.5 1q14 5 26 -7t7 -26q-5 -16 -20 -19l-1 -1
q-2 0 -5 -0.5t-5 -0.5v-1q-12 -2 -17 -4q-147 -38 -259 -38q-40 0 -88 5q-2 -5 -8 -13q-26 -34 -118 -211.5t-143 -299.5q180 53 287 -21z" />
    <glyph glyph-name="six" unicode="6" horiz-adv-x="1015" 
d="M783 1313q-65 0 -162.5 -97t-178.5 -227q-59 -95 -105 -200q56 44 120 66t121 13q27 -4 52 -16t52 -37.5t43 -75.5t16 -119q0 -82 -31 -187t-83 -198q-39 -70 -81 -118.5t-79 -70.5t-64 -30.5t-52 -8.5q-28 0 -59 9.5t-65.5 36t-61.5 65.5t-45 104t-18 147
q0 141 57.5 318.5t156.5 340.5q103 170 215 266t208 96q84 0 132 -50q46 -49 43 -126v-2v-20q-1 -11 -9.5 -18.5t-18.5 -6.5q-11 1 -18.5 9t-7.5 18q2 64 -31 97q-19 20 -46 22zM569 802q-73 13 -166 -49t-133 -149q-47 -157 -48 -313q0 -64 15 -111t38.5 -69.5t43.5 -32.5
t37 -10q44 0 98.5 51.5t106.5 140.5q51 88 81.5 183.5t30.5 166.5q0 174 -104 192z" />
    <glyph glyph-name="seven" unicode="7" horiz-adv-x="1132" 
d="M1028 1317q8 -21 -7 -40q-58 -65 -120.5 -138.5t-170 -211t-200 -271t-191 -304.5t-163.5 -325q-8 -20 -30 -20q-8 0 -12 1q-12 3 -22 14t-10 24q0 1 0.5 3t0.5 3q25 111 97 259t152 276.5t195 288.5t184 249t160 204q-157 7 -460 -43q-6 -1 -11.5 -2t-8 -1.5t-4.5 -1
t-3 -0.5h-2q-14 0 -24.5 10.5t-12.5 24.5q-2 12 4 22.5t18 13.5q31 8 276 25q273 19 309 -8q18 -7 34.5 -22t21.5 -30z" />
    <glyph glyph-name="eight" unicode="8" horiz-adv-x="1060" 
d="M959 1189q0 -108 -97 -277.5t-222 -322.5q64 -93 64 -193q-2 -140 -86 -252q-99 -129 -253 -129q-110 0 -186.5 84t-76.5 205q0 183 113 358q92 143 195 193q-7 36 -7 79q0 96 36 188.5t92 158.5t125.5 106.5t134.5 40.5q168 0 168 -239zM799 1360q-32 0 -72.5 -20.5
t-82 -59.5t-76 -90t-56.5 -119.5t-22 -139.5q0 -19 4 -57q39 -3 64 -34q7 -8 6 -19t-9 -18t-19.5 -6.5t-18.5 8.5q-4 -1 -8 -4q21 -67 85 -152q119 152 197 315t78 290q0 87 -46 103q-12 3 -24 3zM561 196q61 90 64 199q0 73 -36 134q-8 -8 -22 -24q-58 -75 -85 -87
q-10 -5 -21 -1t-15 14q-10 30 13 48q2 2 16 18.5t37 44.5t37 48q-10 14 -22 30q-62 86 -84 132q-89 -81 -154 -214t-65 -255q0 -92 37 -144t103 -52q121 0 197 109z" />
    <glyph glyph-name="nine" unicode="9" horiz-adv-x="1105" 
d="M1003 1335q3 -34 -47.5 -193t-116.5 -326q-198 -496 -378 -691q-105 -114 -200 -114q-36 -1 -67 16.5t-50 48.5q-23 36 -33 92.5t-9 103t8 86.5v1q1 1 1 2q3 19 9 35q4 10 15 14t21 -1t13.5 -15t-0.5 -20q-4 -14 -5 -21v-2q-10 -93 3 -158t39 -94q16 -18 33 -18
q52 0 131 96.5t169 272.5q122 237 259 604q-99 -153 -196 -257t-161 -104q-61 0 -100 50.5t-39 127.5q0 89 39 185t98.5 171.5t136 124.5t146.5 49q45 0 90.5 -20t61.5 -53q2 -3 4 -11q32 56 34 60v2h1q12 21 34 16q23 -3 39 -20t17 -40zM634 972q112 135 204 280
q-22 5 -20 29v1q1 15 -5 23q-5 6 -28 6q-58 0 -123 -44.5t-124 -123.5q-57 -77 -90.5 -162.5t-33.5 -155.5q0 -42 8 -54q11 2 37 21t73 66.5t102 113.5z" />
    <glyph glyph-name="colon" unicode=":" horiz-adv-x="403" 
d="M242 559q25 -1 42 -18.5t16 -42.5q0 -43 -39 -58t-67 15q-29 31 -11 69t59 35zM168 234q25 -1 42 -19t16 -43q0 -42 -39 -57q-40 -15 -68 15q-29 31 -11 68q19 39 60 36z" />
    <glyph glyph-name="semicolon" unicode=";" horiz-adv-x="405" 
d="M245 571q25 -1 42 -19t16 -43q0 -42 -39 -57q-40 -15 -68 15q-29 31 -11 68q19 39 60 36zM170 245q22 -1 38 -15t19 -35q13 -80 -73 -141h-1q-8 -8 -20 -8q-2 0 -8 2q-19 5 -22 24q-3 18 12 28q17 13 25 31q-28 20 -28 53q-1 25 16 42.5t42 18.5z" />
    <glyph glyph-name="less" unicode="&#x3c;" horiz-adv-x="649" 
d="M542 758q13 -36 -8 -55q-39 -34 -286 -91q8 -3 48 -19q121 -46 144 -60q19 -10 14 -30q-1 -4 -5 -10q-11 -16 -31 -9q-52 13 -158 46.5t-130 46.5q-30 18 -27 54q2 34 33 47q182 64 208 74q12 4 29 10.5t25.5 9.5t21 7.5t19 7t15.5 5t14 4t11 2.5t10 1.5t8 0.5
q29 -1 45 -42z" />
    <glyph glyph-name="equal" unicode="=" horiz-adv-x="694" 
d="M583 744l9 -14l-7 -15q-10 -17 -29 -15h-16q-120 3 -307 0q-20 0 -32 19q-8 15 0 29q7 13 25 13q275 -7 318 -3q27 4 39 -14zM490 531q12 0 20 -9q8 -10 8 -21q0 -5 -2 -10t-11 -11.5t-25 -6.5h-16q-189 4 -328 -1h-1q-13 0 -21.5 8t-10.5 21q-1 12 6 21t19 11
q62 5 198.5 2.5t163.5 -4.5z" />
    <glyph glyph-name="greater" unicode="&#x3e;" horiz-adv-x="649" 
d="M518 660q31 -18 28 -53q-2 -34 -33 -47q-146 -51 -208 -75q-130 -47 -152 -47h-2q-18 1 -29 15t-15 27q-13 36 8 55q39 34 286 91q-8 3 -48 19q-125 48 -144 60q-19 10 -14 29q1 4 5 10q12 17 30 10q51 -12 157 -46.5t131 -47.5z" />
    <glyph glyph-name="question" unicode="?" horiz-adv-x="993" 
d="M671 1428q89 0 154 -64t65 -152q0 -46 -13.5 -92t-30.5 -81.5t-54 -85.5t-62.5 -80t-77.5 -88l-85.5 -97.5t-85 -104t-93.5 -128t-83 -140t-83 -169.5q-9 -19 -28 -19q-3 0 -11 2q-13 5 -21.5 17.5t-4.5 26.5q21 80 56 159t67.5 136t86 130.5t84 111.5t90.5 109
q49 58 74.5 89.5t61.5 81.5t54 85t31.5 78t13.5 82q0 64 -27 91q-21 21 -75 21h-3q-69 0 -147 -41.5t-140 -110.5q-42 -47 -65 -95t-21 -85h1q5 -9 2.5 -20t-11.5 -17t-20 -3.5t-17 11.5q-5 7 -5 8v1q-36 71 21 175q56 102 169 180t233 78zM168 91q25 -1 42 -19t16 -43
q0 -42 -39 -57q-40 -15 -68 15q-29 31 -11 69t60 35z" />
    <glyph glyph-name="at" unicode="@" horiz-adv-x="854" 
d="M466 1046q128 0 207 -76.5t79 -201.5q0 -66 -30.5 -149t-81.5 -145t-102 -62q-62 0 -88 67q-21 52 -16 131q-50 -80 -93 -80q-37 0 -59 27t-22 72q0 103 55 170.5t124 67.5q53 0 79 -24q14 10 34 8t33 -12q14 -10 18 -26t-4 -31q-53 -116 -70.5 -195.5t-1.5 -103.5
q5 -8 14 -7q19 0 53.5 43t63.5 114.5t29 136.5q-3 59 -31 113q-52 94 -168 94q-71 0 -141 -45t-117 -126.5t-47 -174.5q0 -88 31 -130q16 -20 43 -37q3 -1 8.5 -3.5t8.5 -4.5q21 -8 40 -8q11 0 19 -8t8 -19t-8 -19t-19 -8q-54 0 -99 34q-22 15 -35 31q-14 16 -20 24
q-56 78 -58 175q0 70 28 140t79 126q52 58 119.5 90t137.5 32zM453 759l3 6l3.5 7l2.5 5q-31 -12 -65 -65.5t-35 -80.5q22 13 91 128z" />
    <glyph glyph-name="A" unicode="A" horiz-adv-x="1411" 
d="M938 -152q10 -2 16 -12t4 -21q-5 -24 -24.5 -40.5t-42.5 -16.5h-6q-9 1 -17.5 5.5t-19 14.5t-17 32.5t-6.5 53.5q0 200 152 592q-229 3 -456 -18q-223 -349 -317 -642q-6 -21 -29 -21q-3 0 -9 2q-11 3 -18 15q-5 8 -1 23q86 271 299 615q-211 -23 -301 -47q-20 -5 -33 8
q-15 15 -8 35q6 22 29 27q123 30 357 47q118 181 239 333q174 219 345 374.5t271 155.5q49 0 75 -32.5t26 -76.5q0 -23 -10.5 -59t-39.5 -105.5t-54 -124t-80 -175.5q-69 -149 -126 -277q113 -11 171 -36l6 -3q44 -20 49 -46q9 -36 -43 -59q-3 -2 -11 -2q-21 0 -26 21
q-5 22 15 30q4 2 5 3q-2 1 -5 2t-4 2q-88 19 -184 25q-185 -428 -199 -614q10 17 28 12zM565 505q189 10 436 12q46 114 182 420q131 291 136 334q-9 1 -23.5 -2.5t-52.5 -24t-85.5 -57t-126.5 -112t-172 -178.5q-23 -27 -82 -101q-119 -150 -212 -291z" />
    <glyph glyph-name="A" unicode="&#xc5;" horiz-adv-x="1411" 
d="M938 -152q10 -2 16 -12t4 -21q-5 -24 -24.5 -40.5t-42.5 -16.5h-6q-9 1 -17.5 5.5t-19 14.5t-17 32.5t-6.5 53.5q0 200 152 592q-229 3 -456 -18q-223 -349 -317 -642q-6 -21 -29 -21q-3 0 -9 2q-11 3 -18 15q-5 8 -1 23q86 271 299 615q-211 -23 -301 -47q-20 -5 -33 8
q-15 15 -8 35q6 22 29 27q123 30 357 47q118 181 239 333q174 219 345 374.5t271 155.5q49 0 75 -32.5t26 -76.5q0 -23 -10.5 -59t-39.5 -105.5t-54 -124t-80 -175.5q-69 -149 -126 -277q113 -11 171 -36l6 -3q44 -20 49 -46q9 -36 -43 -59q-3 -2 -11 -2q-21 0 -26 21
q-5 22 15 30q4 2 5 3q-2 1 -5 2t-4 2q-88 19 -184 25q-185 -428 -199 -614q10 17 28 12zM565 505q189 10 436 12q46 114 182 420q131 291 136 334q-9 1 -23.5 -2.5t-52.5 -24t-85.5 -57t-126.5 -112t-172 -178.5q-23 -27 -82 -101q-119 -150 -212 -291z" />
    <glyph glyph-name="A" unicode="&#xc4;" horiz-adv-x="1411" 
d="M938 -152q10 -2 16 -12t4 -21q-5 -24 -24.5 -40.5t-42.5 -16.5h-6q-9 1 -17.5 5.5t-19 14.5t-17 32.5t-6.5 53.5q0 200 152 592q-229 3 -456 -18q-223 -349 -317 -642q-6 -21 -29 -21q-3 0 -9 2q-11 3 -18 15q-5 8 -1 23q86 271 299 615q-211 -23 -301 -47q-20 -5 -33 8
q-15 15 -8 35q6 22 29 27q123 30 357 47q118 181 239 333q174 219 345 374.5t271 155.5q49 0 75 -32.5t26 -76.5q0 -23 -10.5 -59t-39.5 -105.5t-54 -124t-80 -175.5q-69 -149 -126 -277q113 -11 171 -36l6 -3q44 -20 49 -46q9 -36 -43 -59q-3 -2 -11 -2q-21 0 -26 21
q-5 22 15 30q4 2 5 3q-2 1 -5 2t-4 2q-88 19 -184 25q-185 -428 -199 -614q10 17 28 12zM565 505q189 10 436 12q46 114 182 420q131 291 136 334q-9 1 -23.5 -2.5t-52.5 -24t-85.5 -57t-126.5 -112t-172 -178.5q-23 -27 -82 -101q-119 -150 -212 -291z" />
    <glyph glyph-name="A" unicode="&#xc3;" horiz-adv-x="1411" 
d="M938 -152q10 -2 16 -12t4 -21q-5 -24 -24.5 -40.5t-42.5 -16.5h-6q-9 1 -17.5 5.5t-19 14.5t-17 32.5t-6.5 53.5q0 200 152 592q-229 3 -456 -18q-223 -349 -317 -642q-6 -21 -29 -21q-3 0 -9 2q-11 3 -18 15q-5 8 -1 23q86 271 299 615q-211 -23 -301 -47q-20 -5 -33 8
q-15 15 -8 35q6 22 29 27q123 30 357 47q118 181 239 333q174 219 345 374.5t271 155.5q49 0 75 -32.5t26 -76.5q0 -23 -10.5 -59t-39.5 -105.5t-54 -124t-80 -175.5q-69 -149 -126 -277q113 -11 171 -36l6 -3q44 -20 49 -46q9 -36 -43 -59q-3 -2 -11 -2q-21 0 -26 21
q-5 22 15 30q4 2 5 3q-2 1 -5 2t-4 2q-88 19 -184 25q-185 -428 -199 -614q10 17 28 12zM565 505q189 10 436 12q46 114 182 420q131 291 136 334q-9 1 -23.5 -2.5t-52.5 -24t-85.5 -57t-126.5 -112t-172 -178.5q-23 -27 -82 -101q-119 -150 -212 -291z" />
    <glyph glyph-name="A" unicode="&#xc2;" horiz-adv-x="1411" 
d="M938 -152q10 -2 16 -12t4 -21q-5 -24 -24.5 -40.5t-42.5 -16.5h-6q-9 1 -17.5 5.5t-19 14.5t-17 32.5t-6.5 53.5q0 200 152 592q-229 3 -456 -18q-223 -349 -317 -642q-6 -21 -29 -21q-3 0 -9 2q-11 3 -18 15q-5 8 -1 23q86 271 299 615q-211 -23 -301 -47q-20 -5 -33 8
q-15 15 -8 35q6 22 29 27q123 30 357 47q118 181 239 333q174 219 345 374.5t271 155.5q49 0 75 -32.5t26 -76.5q0 -23 -10.5 -59t-39.5 -105.5t-54 -124t-80 -175.5q-69 -149 -126 -277q113 -11 171 -36l6 -3q44 -20 49 -46q9 -36 -43 -59q-3 -2 -11 -2q-21 0 -26 21
q-5 22 15 30q4 2 5 3q-2 1 -5 2t-4 2q-88 19 -184 25q-185 -428 -199 -614q10 17 28 12zM565 505q189 10 436 12q46 114 182 420q131 291 136 334q-9 1 -23.5 -2.5t-52.5 -24t-85.5 -57t-126.5 -112t-172 -178.5q-23 -27 -82 -101q-119 -150 -212 -291z" />
    <glyph glyph-name="A" unicode="&#xc1;" horiz-adv-x="1411" 
d="M938 -152q10 -2 16 -12t4 -21q-5 -24 -24.5 -40.5t-42.5 -16.5h-6q-9 1 -17.5 5.5t-19 14.5t-17 32.5t-6.5 53.5q0 200 152 592q-229 3 -456 -18q-223 -349 -317 -642q-6 -21 -29 -21q-3 0 -9 2q-11 3 -18 15q-5 8 -1 23q86 271 299 615q-211 -23 -301 -47q-20 -5 -33 8
q-15 15 -8 35q6 22 29 27q123 30 357 47q118 181 239 333q174 219 345 374.5t271 155.5q49 0 75 -32.5t26 -76.5q0 -23 -10.5 -59t-39.5 -105.5t-54 -124t-80 -175.5q-69 -149 -126 -277q113 -11 171 -36l6 -3q44 -20 49 -46q9 -36 -43 -59q-3 -2 -11 -2q-21 0 -26 21
q-5 22 15 30q4 2 5 3q-2 1 -5 2t-4 2q-88 19 -184 25q-185 -428 -199 -614q10 17 28 12zM565 505q189 10 436 12q46 114 182 420q131 291 136 334q-9 1 -23.5 -2.5t-52.5 -24t-85.5 -57t-126.5 -112t-172 -178.5q-23 -27 -82 -101q-119 -150 -212 -291z" />
    <glyph glyph-name="A" unicode="&#xc0;" horiz-adv-x="1411" 
d="M938 -152q10 -2 16 -12t4 -21q-5 -24 -24.5 -40.5t-42.5 -16.5h-6q-9 1 -17.5 5.5t-19 14.5t-17 32.5t-6.5 53.5q0 200 152 592q-229 3 -456 -18q-223 -349 -317 -642q-6 -21 -29 -21q-3 0 -9 2q-11 3 -18 15q-5 8 -1 23q86 271 299 615q-211 -23 -301 -47q-20 -5 -33 8
q-15 15 -8 35q6 22 29 27q123 30 357 47q118 181 239 333q174 219 345 374.5t271 155.5q49 0 75 -32.5t26 -76.5q0 -23 -10.5 -59t-39.5 -105.5t-54 -124t-80 -175.5q-69 -149 -126 -277q113 -11 171 -36l6 -3q44 -20 49 -46q9 -36 -43 -59q-3 -2 -11 -2q-21 0 -26 21
q-5 22 15 30q4 2 5 3q-2 1 -5 2t-4 2q-88 19 -184 25q-185 -428 -199 -614q10 17 28 12zM565 505q189 10 436 12q46 114 182 420q131 291 136 334q-9 1 -23.5 -2.5t-52.5 -24t-85.5 -57t-126.5 -112t-172 -178.5q-23 -27 -82 -101q-119 -150 -212 -291z" />
    <glyph glyph-name="B" unicode="B" horiz-adv-x="1480" 
d="M1298 644q39 -31 60.5 -77t20.5 -97q0 -91 -44.5 -182t-119.5 -167.5t-176.5 -143.5t-213.5 -114t-232 -73.5t-231 -26.5t-185.5 44.5t-74.5 111.5q0 70 63 134.5t155 105.5t196 61q105 372 342 903q-47 -24 -105 -61q-89 -59 -153 -125.5t-85 -121.5q0 -1 2 -5
q6 -9 4 -20t-11 -17q-22 -14 -37 6q-13 19 -11 41v3q3 32 20 63q45 86 165.5 189.5t259.5 155.5q45 97 55 118q9 20 33 22q19 1 41 -13.5t33 -31.5q12 -20 4 -37q-2 -4 -6 -11.5t-6 -11.5q24 2 36 2q89 0 143.5 -46t54.5 -121q0 -160 -260 -380q74 1 144.5 -18.5
t118.5 -58.5zM466 -137q-9 24 -7 53v5q0 76 40 234q-135 -34 -229 -111.5t-94 -135.5t146 -58q66 0 144 13zM976 64q155 101 243.5 215.5t88.5 215.5q1 33 -15 62.5t-44 47.5q-42 29 -107 39.5t-122.5 5t-100.5 -20.5q-9 -6 -22 -6q-32 0 -41 33q-4 21 14 36q39 32 79 66.5
t92.5 86t91.5 97.5t66.5 96t27.5 86q0 71 -126 71q-39 0 -81 -11q-107 -216 -215 -476t-181 -475q4 0 13 0.5t14 0.5q55 0 114 -16q40 -8 70 -28q19 -11 32 -27q13 -15 10 -33q-5 -21 -27 -21t-26 23h-1q-1 0 -1 1q-4 4 -10 8q-30 17 -62 26q-47 9 -99 7q-17 0 -47 -2
q-70 -213 -70 -282q0 -6 8 -12q233 56 434 186z" />
    <glyph glyph-name="C" unicode="C" horiz-adv-x="1054" 
d="M1071 268l-1 -1q-23 -33 -43 -59q-42 -56 -86 -109t-109.5 -117.5t-128 -112t-136.5 -79.5t-140 -32q-143 0 -234 106t-91 274q0 166 81.5 376.5t225.5 416.5q136 195 275.5 311t237.5 116q86 0 119 -64q23 -43 16 -100.5t-21.5 -100.5t-27.5 -61q-15 -20 -36 -8
q-9 5 -12 16t2 20v2l1 2q21 51 28.5 111t-8.5 94q-9 14 -26 12q-62 0 -184 -104.5t-248 -282.5q-143 -203 -222 -411.5t-79 -386.5q0 -50 11 -96.5t34.5 -87.5t65 -65.5t95.5 -24.5q71 0 154 43.5t148.5 100t133.5 132t101 119t59 81.5l2 2q18 25 26 39q7 13 24 13t23 -14
q7 -16 -2 -28l-3 -5q-3 -5 -10 -15.5t-15 -21.5z" />
    <glyph glyph-name="C" unicode="&#xc7;" horiz-adv-x="1054" 
d="M1071 268l-1 -1q-23 -33 -43 -59q-42 -56 -86 -109t-109.5 -117.5t-128 -112t-136.5 -79.5t-140 -32q-143 0 -234 106t-91 274q0 166 81.5 376.5t225.5 416.5q136 195 275.5 311t237.5 116q86 0 119 -64q23 -43 16 -100.5t-21.5 -100.5t-27.5 -61q-15 -20 -36 -8
q-9 5 -12 16t2 20v2l1 2q21 51 28.5 111t-8.5 94q-9 14 -26 12q-62 0 -184 -104.5t-248 -282.5q-143 -203 -222 -411.5t-79 -386.5q0 -50 11 -96.5t34.5 -87.5t65 -65.5t95.5 -24.5q71 0 154 43.5t148.5 100t133.5 132t101 119t59 81.5l2 2q18 25 26 39q7 13 24 13t23 -14
q7 -16 -2 -28l-3 -5q-3 -5 -10 -15.5t-15 -21.5z" />
    <glyph glyph-name="D" unicode="D" horiz-adv-x="1593" 
d="M1148 1228q204 0 326 -107.5t122 -287.5q0 -179 -117.5 -373t-331.5 -368q-193 -157 -410 -251t-387 -94q-111 0 -179.5 54t-68.5 142q0 60 46 135t125 146q83 74 173 115q93 300 260 694q-197 -100 -311 -235q-4 -5 -9.5 -15t-6.5 -11q-6 -14 -23 -14t-24 13q-8 14 1 28
q54 95 165 183.5t250 150.5q46 107 96 213q10 21 34 23q19 1 41.5 -12t34.5 -31q16 -24 5 -46q-21 -42 -42 -87q114 34 231 35zM350 -160q-5 26 -4 45q0 114 76 374q-107 -62 -180 -158.5t-73 -171.5q0 -42 38.5 -66t103.5 -24q26 0 39 1zM1092 187q207 167 324 343.5
t117 322.5q0 64 -22 115.5t-58 85t-85 56t-101.5 32t-108.5 9.5q-147 -2 -283 -48q-141 -306 -276 -675q-6 -17 -18 -49q21 3 42 3q73 0 109.5 -16t56.5 -47q8 -12 1 -27t-22 -15q-16 0 -24 13l-1 2q-1 2 -2 2q-2 0 -3 1q-29 19 -42.5 23t-58.5 4q-40 0 -79 -9
q-126 -360 -129 -462q151 29 326.5 117.5t336.5 218.5z" />
    <glyph glyph-name="E" unicode="E" horiz-adv-x="1017" 
d="M981 146q8 7 19 6.5t19 -8.5q17 -19 -1 -37q-54 -51 -124.5 -105.5t-156 -111.5t-174.5 -93t-156 -36q-58 0 -111.5 21t-97.5 60t-70 102t-26 140q0 86 40.5 181t112.5 177q117 134 259 170q-128 97 -128 259q0 83 41 174t117 174q71 79 150.5 125t144.5 46
q76 0 123 -45.5t47 -119.5q0 -62 -51 -173q-7 -15 -34 -70q-19 -35 -29 -40l-16 -8l-26 23l5 17q4 14 14 46q10 33 14.5 48.5t14 49.5t13 54.5t7.5 46t2 42.5t-9 26q-8 8 -20 8q-63 0 -134.5 -48t-138.5 -136q-58 -76 -95 -161t-37 -142q0 -60 34 -112t105 -76q12 -2 36 -10
h1q1 -1 2 -1q53 -20 65 -46q8 -16 -3 -30q-11 -15 -28 -10q-55 11 -127 -15.5t-143 -85.5q-101 -83 -161 -193t-60 -212q0 -55 17 -93.5t46 -58t60 -27.5t67 -8q117 0 311 117q143 86 262 192q5 5 8 7z" />
    <glyph glyph-name="E" unicode="&#xcb;" horiz-adv-x="1017" 
d="M981 146q8 7 19 6.5t19 -8.5q17 -19 -1 -37q-54 -51 -124.5 -105.5t-156 -111.5t-174.5 -93t-156 -36q-58 0 -111.5 21t-97.5 60t-70 102t-26 140q0 86 40.5 181t112.5 177q117 134 259 170q-128 97 -128 259q0 83 41 174t117 174q71 79 150.5 125t144.5 46
q76 0 123 -45.5t47 -119.5q0 -62 -51 -173q-7 -15 -34 -70q-19 -35 -29 -40l-16 -8l-26 23l5 17q4 14 14 46q10 33 14.5 48.5t14 49.5t13 54.5t7.5 46t2 42.5t-9 26q-8 8 -20 8q-63 0 -134.5 -48t-138.5 -136q-58 -76 -95 -161t-37 -142q0 -60 34 -112t105 -76q12 -2 36 -10
h1q1 -1 2 -1q53 -20 65 -46q8 -16 -3 -30q-11 -15 -28 -10q-55 11 -127 -15.5t-143 -85.5q-101 -83 -161 -193t-60 -212q0 -55 17 -93.5t46 -58t60 -27.5t67 -8q117 0 311 117q143 86 262 192q5 5 8 7z" />
    <glyph glyph-name="E" unicode="&#xca;" horiz-adv-x="1017" 
d="M981 146q8 7 19 6.5t19 -8.5q17 -19 -1 -37q-54 -51 -124.5 -105.5t-156 -111.5t-174.5 -93t-156 -36q-58 0 -111.5 21t-97.5 60t-70 102t-26 140q0 86 40.5 181t112.5 177q117 134 259 170q-128 97 -128 259q0 83 41 174t117 174q71 79 150.5 125t144.5 46
q76 0 123 -45.5t47 -119.5q0 -62 -51 -173q-7 -15 -34 -70q-19 -35 -29 -40l-16 -8l-26 23l5 17q4 14 14 46q10 33 14.5 48.5t14 49.5t13 54.5t7.5 46t2 42.5t-9 26q-8 8 -20 8q-63 0 -134.5 -48t-138.5 -136q-58 -76 -95 -161t-37 -142q0 -60 34 -112t105 -76q12 -2 36 -10
h1q1 -1 2 -1q53 -20 65 -46q8 -16 -3 -30q-11 -15 -28 -10q-55 11 -127 -15.5t-143 -85.5q-101 -83 -161 -193t-60 -212q0 -55 17 -93.5t46 -58t60 -27.5t67 -8q117 0 311 117q143 86 262 192q5 5 8 7z" />
    <glyph glyph-name="E" unicode="&#xc9;" horiz-adv-x="1017" 
d="M981 146q8 7 19 6.5t19 -8.5q17 -19 -1 -37q-54 -51 -124.5 -105.5t-156 -111.5t-174.5 -93t-156 -36q-58 0 -111.5 21t-97.5 60t-70 102t-26 140q0 86 40.5 181t112.5 177q117 134 259 170q-128 97 -128 259q0 83 41 174t117 174q71 79 150.5 125t144.5 46
q76 0 123 -45.5t47 -119.5q0 -62 -51 -173q-7 -15 -34 -70q-19 -35 -29 -40l-16 -8l-26 23l5 17q4 14 14 46q10 33 14.5 48.5t14 49.5t13 54.5t7.5 46t2 42.5t-9 26q-8 8 -20 8q-63 0 -134.5 -48t-138.5 -136q-58 -76 -95 -161t-37 -142q0 -60 34 -112t105 -76q12 -2 36 -10
h1q1 -1 2 -1q53 -20 65 -46q8 -16 -3 -30q-11 -15 -28 -10q-55 11 -127 -15.5t-143 -85.5q-101 -83 -161 -193t-60 -212q0 -55 17 -93.5t46 -58t60 -27.5t67 -8q117 0 311 117q143 86 262 192q5 5 8 7z" />
    <glyph glyph-name="E" unicode="&#xc8;" horiz-adv-x="1017" 
d="M981 146q8 7 19 6.5t19 -8.5q17 -19 -1 -37q-54 -51 -124.5 -105.5t-156 -111.5t-174.5 -93t-156 -36q-58 0 -111.5 21t-97.5 60t-70 102t-26 140q0 86 40.5 181t112.5 177q117 134 259 170q-128 97 -128 259q0 83 41 174t117 174q71 79 150.5 125t144.5 46
q76 0 123 -45.5t47 -119.5q0 -62 -51 -173q-7 -15 -34 -70q-19 -35 -29 -40l-16 -8l-26 23l5 17q4 14 14 46q10 33 14.5 48.5t14 49.5t13 54.5t7.5 46t2 42.5t-9 26q-8 8 -20 8q-63 0 -134.5 -48t-138.5 -136q-58 -76 -95 -161t-37 -142q0 -60 34 -112t105 -76q12 -2 36 -10
h1q1 -1 2 -1q53 -20 65 -46q8 -16 -3 -30q-11 -15 -28 -10q-55 11 -127 -15.5t-143 -85.5q-101 -83 -161 -193t-60 -212q0 -55 17 -93.5t46 -58t60 -27.5t67 -8q117 0 311 117q143 86 262 192q5 5 8 7z" />
    <glyph glyph-name="F" unicode="F" horiz-adv-x="798" 
d="M902 1264q-29 -3 -105 -11q-124 -246 -248 -544l39 3q189 15 250 -4h1q1 -1 2 -1q1 -1 3.5 -2t3.5 -1q10 -4 18 -12q16 -14 11 -35t-26 -21t-26 20h-1q-72 17 -305 -20q-113 -278 -184.5 -499.5t-71.5 -303.5q0 -3 1 -5q21 5 31 -14t-7 -33q-15 -20 -41 -20q-4 0 -14 2
q-22 7 -36 31t-14 56q0 233 198 761q-117 -23 -235 -54q-3 -1 -8 -1q-13 0 -23 10q-17 19 -11 45q5 20 25 25q143 35 283 56q99 255 235 543q-239 -31 -462 -75h-8q-33 2 -38 33q-4 16 2.5 29t20.5 16q230 57 527 83q6 12 18 36.5t18 36.5q10 21 34 21q19 1 39.5 -11.5
t31.5 -29.5q14 -18 7 -42q75 4 149 6q198 5 327 -9q148 -16 166 -60q15 -36 -34 -67q-23 -14 -37 9q-14 22 9 36q2 1 5 4q-123 47 -520 13z" />
    <glyph glyph-name="G" unicode="G" horiz-adv-x="999" 
d="M1036 603q-20 0 -26 17q-28 17 -86 8q5 -16 -2 -29q-122 -237 -187.5 -446t-65.5 -318q0 -3 1 -5q21 5 31 -14t-7 -33q-14 -20 -40 -22q-6 0 -14 2q-51 16 -51 125q0 121 69 360q-199 -247 -355 -247q-82 0 -141.5 76t-59.5 220q0 150 65.5 335t177.5 352
q121 180 254 278.5t256 98.5q101 0 145 -68q67 -106 -29 -326v-2l-1 -1q-1 -4 -4 -10.5t-5 -9.5q-5 -10 -15 -13.5t-20 0.5t-14 15t1 21l5 10t4 10q13 31 23 83.5t10 109.5t-17 82q-11 18 -30 16q-79 0 -195 -91.5t-226 -240.5q-125 -169 -193.5 -346.5t-68.5 -332.5
q0 -34 3 -64.5t11 -64.5t26 -54t43 -20q23 0 54.5 14t80.5 49.5t119.5 113t153.5 188.5q24 69 59 155q-78 -32 -149 -72q-6 -3 -14 -3q-13 0 -19 5q-12 7 -22 22.5t-9 31.5q2 24 23 32q123 58 261 87q132 27 185 -6q28 -16 30 -50q0 -12 -7 -19q-9 -9 -18 -9z" />
    <glyph glyph-name="H" unicode="H" horiz-adv-x="1286" 
d="M1318 577q-94 13 -189 15q-119 -281 -201.5 -508.5t-94.5 -317.5q11 -11 6 -27q-15 -45 -47 -45h-6q-36 5 -36 68q0 224 244 830q-124 -3 -277 -15q-156 -341 -192 -496q7 1 16 -2q10 -4 14 -14t0 -20q-34 -84 -78 -84q-8 0 -11 1q-16 4 -26.5 21.5t-7.5 47.5
q18 163 166 535q-214 -22 -455 -64h-6q-16 0 -25 12q-16 23 -7 49q7 17 24 20q242 34 498 56q112 271 276 597q11 23 38 23q42 0 67 -33q15 -20 4 -43q-171 -340 -262 -535q142 10 272 12q165 397 336 736q12 23 38 23q20 1 44 -11t34 -28q15 -19 3 -41q-151 -290 -319 -680
q39 -2 100 -10q66 -9 91.5 -20.5t29.5 -28.5q8 -24 -19 -40q-8 -6 -21 -2q-10 3 -16 12q-1 1 -1 3.5t-1 3.5h-3z" />
    <glyph glyph-name="I" unicode="I" horiz-adv-x="688" 
d="M306 -166q57 3 77 -1t28 -15q12 -18 1 -34q-6 -9 -17 -11.5t-20 3.5q-51 0 -231 -30h-4q-13 0 -23.5 10.5t-13.5 22.5q-2 12 5 22q7 11 18 12q36 7 111 15q9 156 168 600t352 839q-60 -11 -117 -27q-2 -1 -7 -1q-15 0 -31 16q-12 12 -18 29q-5 15 1 29q6 13 22 18
q57 19 197 30q3 5 8.5 16.5t8.5 17.5q13 25 41 25q38 2 61 -31q7 -11 7 -21q136 2 162 -27q17 -19 3 -41q-4 -9 -16 -12t-20 2q-2 1 -4 3q-88 0 -161 -7q-194 -379 -375 -822.5t-213 -629.5z" />
    <glyph glyph-name="I" unicode="&#xcf;" horiz-adv-x="688" 
d="M306 -166q57 3 77 -1t28 -15q12 -18 1 -34q-6 -9 -17 -11.5t-20 3.5q-51 0 -231 -30h-4q-13 0 -23.5 10.5t-13.5 22.5q-2 12 5 22q7 11 18 12q36 7 111 15q9 156 168 600t352 839q-60 -11 -117 -27q-2 -1 -7 -1q-15 0 -31 16q-12 12 -18 29q-5 15 1 29q6 13 22 18
q57 19 197 30q3 5 8.5 16.5t8.5 17.5q13 25 41 25q38 2 61 -31q7 -11 7 -21q136 2 162 -27q17 -19 3 -41q-4 -9 -16 -12t-20 2q-2 1 -4 3q-88 0 -161 -7q-194 -379 -375 -822.5t-213 -629.5z" />
    <glyph glyph-name="I" unicode="&#xce;" horiz-adv-x="688" 
d="M306 -166q57 3 77 -1t28 -15q12 -18 1 -34q-6 -9 -17 -11.5t-20 3.5q-51 0 -231 -30h-4q-13 0 -23.5 10.5t-13.5 22.5q-2 12 5 22q7 11 18 12q36 7 111 15q9 156 168 600t352 839q-60 -11 -117 -27q-2 -1 -7 -1q-15 0 -31 16q-12 12 -18 29q-5 15 1 29q6 13 22 18
q57 19 197 30q3 5 8.5 16.5t8.5 17.5q13 25 41 25q38 2 61 -31q7 -11 7 -21q136 2 162 -27q17 -19 3 -41q-4 -9 -16 -12t-20 2q-2 1 -4 3q-88 0 -161 -7q-194 -379 -375 -822.5t-213 -629.5z" />
    <glyph glyph-name="I" unicode="&#xcd;" horiz-adv-x="688" 
d="M306 -166q57 3 77 -1t28 -15q12 -18 1 -34q-6 -9 -17 -11.5t-20 3.5q-51 0 -231 -30h-4q-13 0 -23.5 10.5t-13.5 22.5q-2 12 5 22q7 11 18 12q36 7 111 15q9 156 168 600t352 839q-60 -11 -117 -27q-2 -1 -7 -1q-15 0 -31 16q-12 12 -18 29q-5 15 1 29q6 13 22 18
q57 19 197 30q3 5 8.5 16.5t8.5 17.5q13 25 41 25q38 2 61 -31q7 -11 7 -21q136 2 162 -27q17 -19 3 -41q-4 -9 -16 -12t-20 2q-2 1 -4 3q-88 0 -161 -7q-194 -379 -375 -822.5t-213 -629.5z" />
    <glyph glyph-name="I" unicode="&#xcc;" horiz-adv-x="688" 
d="M306 -166q57 3 77 -1t28 -15q12 -18 1 -34q-6 -9 -17 -11.5t-20 3.5q-51 0 -231 -30h-4q-13 0 -23.5 10.5t-13.5 22.5q-2 12 5 22q7 11 18 12q36 7 111 15q9 156 168 600t352 839q-60 -11 -117 -27q-2 -1 -7 -1q-15 0 -31 16q-12 12 -18 29q-5 15 1 29q6 13 22 18
q57 19 197 30q3 5 8.5 16.5t8.5 17.5q13 25 41 25q38 2 61 -31q7 -11 7 -21q136 2 162 -27q17 -19 3 -41q-4 -9 -16 -12t-20 2q-2 1 -4 3q-88 0 -161 -7q-194 -379 -375 -822.5t-213 -629.5z" />
    <glyph glyph-name="J" unicode="J" horiz-adv-x="1185" 
d="M1240 1157q0 -131 -78 -371t-176 -436q-129 -259 -272 -413q-172 -184 -342 -184q-127 0 -198.5 98t-71.5 272q0 138 42.5 249.5t91.5 124.5h1q1 0 1 0.5t1 0.5q32 5 47 -24q10 -18 -4 -32q-14 -15 -32 -4q-77 -96 -77 -314q0 -129 48.5 -215.5t120.5 -86.5
q122 0 262.5 146t273.5 411q110 219 184 456.5t74 373.5q0 48 -5.5 71t-12 26.5t-20.5 3.5q-49 0 -110 -52t-110 -123t-88 -149l2 -1q24 -10 14 -35q-39 -90 -66 -94q-13 -3 -25 7q-28 25 6 113q21 55 60 121t88.5 130.5t109 107.5t112.5 43q71 0 110 -57.5t39 -163.5z" />
    <glyph glyph-name="K" unicode="K" horiz-adv-x="999" 
d="M1024 -176q13 10 27 4q16 -7 17 -21q2 -17 -11 -26q-25 -19 -76 -21q-1 0 -2 -0.5t-2 -0.5h-7q-18 0 -34 3q-131 14 -304.5 119.5t-330.5 294.5q-109 -267 -113 -331q14 2 23 -9q10 -11 5 -25q-17 -53 -55 -53h-6q-23 4 -38 27.5t-15 56.5q0 119 167 565q157 419 391 948
q7 15 22 21t39 -3q24 -10 40.5 -32.5t7.5 -44.5q-78 -199 -295 -709q-50 -116 -74 -172q168 137 338 326t378 447q18 18 41 5q37 -19 29 -46q-8 -24 -157.5 -201.5t-355.5 -390.5t-328 -297q61 -94 175 -195t233.5 -170.5t197.5 -78.5q55 -5 73 10z" />
    <glyph glyph-name="L" unicode="L" horiz-adv-x="806" 
d="M713 -50q13 10 27 4t16 -22t-10 -25q-56 -43 -208.5 -110t-236.5 -67q-19 0 -39 3.5t-50.5 18.5t-53.5 40t-39.5 74t-16.5 115q0 251 220 803q79 199 159.5 368.5t108.5 206.5q12 16 32.5 18t42.5 -11q20 -12 28 -30t0 -35q-191 -405 -334.5 -797.5t-143.5 -574.5
q0 -92 44 -123q50 -35 161 5q6 2 10 2q80 28 166 70.5t117 66.5z" />
    <glyph glyph-name="M" unicode="M" horiz-adv-x="1685" 
d="M1393 -238q10 -4 14 -14q5 -10 0 -21q-10 -28 -39 -28q-5 0 -8 1q-32 7 -51 57.5t-19 129.5q0 81 20.5 186.5t64 242t75 225.5t88.5 241q130 345 133 410q-46 -43 -304 -389q-282 -377 -336 -448q-17 -21 -41.5 -29.5t-47.5 -1.5q-49 16 -49 81q0 76 96 430
q39 144 54 211q-61 -59 -189 -234q-110 -151 -349 -505q-157 -232 -217.5 -316t-82.5 -101q-14 -14 -33 -14h-4q-21 2 -44 18t-22 36q10 208 204 686q85 210 176.5 394.5t159.5 283.5q12 18 36 21t50 -10t38 -33t5 -40q-4 -13 -32 -90.5t-43 -112.5q-6 -14 -23 -16
q-16 -2 -25 14q-124 -239 -235.5 -494t-162.5 -449q87 133 179 268t219 314t236 311.5t170 175.5q24 17 63 -6q17 -10 25.5 -28t4.5 -38q-13 -82 -80 -322q-63 -225 -77 -306q34 45 127 176q92 128 146.5 202.5t149.5 199t178.5 219t156.5 161.5q42 38 89 4q23 -17 31.5 -44
t-1.5 -50q-75 -164 -158.5 -373t-165.5 -444t-126.5 -439t-26.5 -302l1 -1h2z" />
    <glyph glyph-name="N" unicode="N" horiz-adv-x="1191" 
d="M901 -164q25 -11 15 -35q-17 -41 -52 -41h-9q-56 11 -56 169q0 87 29 212t65 233t100.5 265.5t100 237.5t99.5 222q54 118 86 194q-78 -67 -156 -149.5t-155.5 -180.5t-137.5 -178t-135.5 -194t-113.5 -173.5t-107 -167.5q-165 -260 -220 -324q-19 -22 -48.5 -30.5
t-55.5 1.5q-48 18 -48 77q0 261 232 797q80 185 163 347.5t108 189.5q11 12 30 11.5t34.5 -7.5t27.5 -16q38 -29 21 -59q-117 -196 -282.5 -578.5t-202.5 -592.5q22 32 108 163q79 120 129 194.5t144 211.5t169.5 235.5t166 210.5t174 194.5t155.5 133.5q42 31 90 6
q50 -26 50 -83q0 -27 -111 -275q-82 -183 -132 -300.5t-125.5 -309t-118 -346t-49.5 -264.5q7 3 18 -1z" />
    <glyph glyph-name="N" unicode="&#xd1;" horiz-adv-x="1191" 
d="M901 -164q25 -11 15 -35q-17 -41 -52 -41h-9q-56 11 -56 169q0 87 29 212t65 233t100.5 265.5t100 237.5t99.5 222q54 118 86 194q-78 -67 -156 -149.5t-155.5 -180.5t-137.5 -178t-135.5 -194t-113.5 -173.5t-107 -167.5q-165 -260 -220 -324q-19 -22 -48.5 -30.5
t-55.5 1.5q-48 18 -48 77q0 261 232 797q80 185 163 347.5t108 189.5q11 12 30 11.5t34.5 -7.5t27.5 -16q38 -29 21 -59q-117 -196 -282.5 -578.5t-202.5 -592.5q22 32 108 163q79 120 129 194.5t144 211.5t169.5 235.5t166 210.5t174 194.5t155.5 133.5q42 31 90 6
q50 -26 50 -83q0 -27 -111 -275q-82 -183 -132 -300.5t-125.5 -309t-118 -346t-49.5 -264.5q7 3 18 -1z" />
    <glyph glyph-name="O" unicode="O" horiz-adv-x="1155" 
d="M882 1378q134 0 221.5 -111.5t87.5 -283.5q0 -137 -72 -341t-193 -410q-124 -210 -244 -330q-141 -142 -257 -142q-115 0 -181 103q-54 86 -54 203q0 124 26 248q-17 12 -29 24q-85 83 -85 212q0 77 29.5 169.5t80.5 184t125 177.5t158 152t185.5 105.5t201.5 39.5z
M856 275q114 196 184 394.5t70 325.5q0 146 -54 228.5t-149 82.5q-121 0 -250 -72.5t-244 -204.5q-103 -119 -165 -253t-62 -238q0 -98 46 -155q62 242 204 466q99 157 204 256.5t173 99.5q55 0 80 -33q16 -22 8 -48q-7 -21 -28 -19q-22 2 -24 24q-58 -6 -149.5 -111
t-179.5 -268q-111 -203 -173 -426q2 0 7.5 -0.5t8.5 -0.5q97 0 208.5 49.5t159.5 84.5l9 9q17 19 37 1q19 -17 3 -37q-36 -41 -164 -103t-248 -62q-17 0 -35 3q-28 -112 -29 -222q0 -99 33 -156t77 -57q86 0 204.5 118.5t237.5 323.5z" />
    <glyph glyph-name="O" unicode="&#xd8;" horiz-adv-x="1155" 
d="M882 1378q134 0 221.5 -111.5t87.5 -283.5q0 -137 -72 -341t-193 -410q-124 -210 -244 -330q-141 -142 -257 -142q-115 0 -181 103q-54 86 -54 203q0 124 26 248q-17 12 -29 24q-85 83 -85 212q0 77 29.5 169.5t80.5 184t125 177.5t158 152t185.5 105.5t201.5 39.5z
M856 275q114 196 184 394.5t70 325.5q0 146 -54 228.5t-149 82.5q-121 0 -250 -72.5t-244 -204.5q-103 -119 -165 -253t-62 -238q0 -98 46 -155q62 242 204 466q99 157 204 256.5t173 99.5q55 0 80 -33q16 -22 8 -48q-7 -21 -28 -19q-22 2 -24 24q-58 -6 -149.5 -111
t-179.5 -268q-111 -203 -173 -426q2 0 7.5 -0.5t8.5 -0.5q97 0 208.5 49.5t159.5 84.5l9 9q17 19 37 1q19 -17 3 -37q-36 -41 -164 -103t-248 -62q-17 0 -35 3q-28 -112 -29 -222q0 -99 33 -156t77 -57q86 0 204.5 118.5t237.5 323.5z" />
    <glyph glyph-name="O" unicode="&#xd6;" horiz-adv-x="1155" 
d="M882 1378q134 0 221.5 -111.5t87.5 -283.5q0 -137 -72 -341t-193 -410q-124 -210 -244 -330q-141 -142 -257 -142q-115 0 -181 103q-54 86 -54 203q0 124 26 248q-17 12 -29 24q-85 83 -85 212q0 77 29.5 169.5t80.5 184t125 177.5t158 152t185.5 105.5t201.5 39.5z
M856 275q114 196 184 394.5t70 325.5q0 146 -54 228.5t-149 82.5q-121 0 -250 -72.5t-244 -204.5q-103 -119 -165 -253t-62 -238q0 -98 46 -155q62 242 204 466q99 157 204 256.5t173 99.5q55 0 80 -33q16 -22 8 -48q-7 -21 -28 -19q-22 2 -24 24q-58 -6 -149.5 -111
t-179.5 -268q-111 -203 -173 -426q2 0 7.5 -0.5t8.5 -0.5q97 0 208.5 49.5t159.5 84.5l9 9q17 19 37 1q19 -17 3 -37q-36 -41 -164 -103t-248 -62q-17 0 -35 3q-28 -112 -29 -222q0 -99 33 -156t77 -57q86 0 204.5 118.5t237.5 323.5z" />
    <glyph glyph-name="O" unicode="&#xd5;" horiz-adv-x="1155" 
d="M882 1378q134 0 221.5 -111.5t87.5 -283.5q0 -137 -72 -341t-193 -410q-124 -210 -244 -330q-141 -142 -257 -142q-115 0 -181 103q-54 86 -54 203q0 124 26 248q-17 12 -29 24q-85 83 -85 212q0 77 29.5 169.5t80.5 184t125 177.5t158 152t185.5 105.5t201.5 39.5z
M856 275q114 196 184 394.5t70 325.5q0 146 -54 228.5t-149 82.5q-121 0 -250 -72.5t-244 -204.5q-103 -119 -165 -253t-62 -238q0 -98 46 -155q62 242 204 466q99 157 204 256.5t173 99.5q55 0 80 -33q16 -22 8 -48q-7 -21 -28 -19q-22 2 -24 24q-58 -6 -149.5 -111
t-179.5 -268q-111 -203 -173 -426q2 0 7.5 -0.5t8.5 -0.5q97 0 208.5 49.5t159.5 84.5l9 9q17 19 37 1q19 -17 3 -37q-36 -41 -164 -103t-248 -62q-17 0 -35 3q-28 -112 -29 -222q0 -99 33 -156t77 -57q86 0 204.5 118.5t237.5 323.5z" />
    <glyph glyph-name="O" unicode="&#xd4;" horiz-adv-x="1155" 
d="M882 1378q134 0 221.5 -111.5t87.5 -283.5q0 -137 -72 -341t-193 -410q-124 -210 -244 -330q-141 -142 -257 -142q-115 0 -181 103q-54 86 -54 203q0 124 26 248q-17 12 -29 24q-85 83 -85 212q0 77 29.5 169.5t80.5 184t125 177.5t158 152t185.5 105.5t201.5 39.5z
M856 275q114 196 184 394.5t70 325.5q0 146 -54 228.5t-149 82.5q-121 0 -250 -72.5t-244 -204.5q-103 -119 -165 -253t-62 -238q0 -98 46 -155q62 242 204 466q99 157 204 256.5t173 99.5q55 0 80 -33q16 -22 8 -48q-7 -21 -28 -19q-22 2 -24 24q-58 -6 -149.5 -111
t-179.5 -268q-111 -203 -173 -426q2 0 7.5 -0.5t8.5 -0.5q97 0 208.5 49.5t159.5 84.5l9 9q17 19 37 1q19 -17 3 -37q-36 -41 -164 -103t-248 -62q-17 0 -35 3q-28 -112 -29 -222q0 -99 33 -156t77 -57q86 0 204.5 118.5t237.5 323.5z" />
    <glyph glyph-name="O" unicode="&#xd3;" horiz-adv-x="1155" 
d="M882 1378q134 0 221.5 -111.5t87.5 -283.5q0 -137 -72 -341t-193 -410q-124 -210 -244 -330q-141 -142 -257 -142q-115 0 -181 103q-54 86 -54 203q0 124 26 248q-17 12 -29 24q-85 83 -85 212q0 77 29.5 169.5t80.5 184t125 177.5t158 152t185.5 105.5t201.5 39.5z
M856 275q114 196 184 394.5t70 325.5q0 146 -54 228.5t-149 82.5q-121 0 -250 -72.5t-244 -204.5q-103 -119 -165 -253t-62 -238q0 -98 46 -155q62 242 204 466q99 157 204 256.5t173 99.5q55 0 80 -33q16 -22 8 -48q-7 -21 -28 -19q-22 2 -24 24q-58 -6 -149.5 -111
t-179.5 -268q-111 -203 -173 -426q2 0 7.5 -0.5t8.5 -0.5q97 0 208.5 49.5t159.5 84.5l9 9q17 19 37 1q19 -17 3 -37q-36 -41 -164 -103t-248 -62q-17 0 -35 3q-28 -112 -29 -222q0 -99 33 -156t77 -57q86 0 204.5 118.5t237.5 323.5z" />
    <glyph glyph-name="O" unicode="&#xd2;" horiz-adv-x="1155" 
d="M882 1378q134 0 221.5 -111.5t87.5 -283.5q0 -137 -72 -341t-193 -410q-124 -210 -244 -330q-141 -142 -257 -142q-115 0 -181 103q-54 86 -54 203q0 124 26 248q-17 12 -29 24q-85 83 -85 212q0 77 29.5 169.5t80.5 184t125 177.5t158 152t185.5 105.5t201.5 39.5z
M856 275q114 196 184 394.5t70 325.5q0 146 -54 228.5t-149 82.5q-121 0 -250 -72.5t-244 -204.5q-103 -119 -165 -253t-62 -238q0 -98 46 -155q62 242 204 466q99 157 204 256.5t173 99.5q55 0 80 -33q16 -22 8 -48q-7 -21 -28 -19q-22 2 -24 24q-58 -6 -149.5 -111
t-179.5 -268q-111 -203 -173 -426q2 0 7.5 -0.5t8.5 -0.5q97 0 208.5 49.5t159.5 84.5l9 9q17 19 37 1q19 -17 3 -37q-36 -41 -164 -103t-248 -62q-17 0 -35 3q-28 -112 -29 -222q0 -99 33 -156t77 -57q86 0 204.5 118.5t237.5 323.5z" />
    <glyph glyph-name="P" unicode="P" horiz-adv-x="1013" 
d="M1153 1242q62 -88 62 -222q0 -115 -72 -249t-196 -249q-127 -118 -278.5 -187t-310.5 -82q-112 -316 -112 -416q0 -3 1 -5q18 5 29 -11t-1 -31q-12 -29 -42 -29q-1 0 -3.5 0.5t-3.5 0.5q-26 4 -45.5 32.5t-19.5 73.5q0 121 85 387q-45 12 -82 44t-53 69q-21 50 9 82
q18 19 38 1q8 -8 8 -19t-8 -19q-5 -5 2 -24q9 -18 14 -24q39 -47 92 -49q56 167 95 267q106 276 240 566q-116 -74 -208 -166.5t-121 -165.5v-1q0 -11 -8 -19t-19 -8t-18.5 8.5t-7.5 19.5v9v1q7 58 71.5 142.5t191.5 178.5q80 59 170 108q33 66 48 95q10 18 31 21t46 -10
q32 -17 35 -39q68 22 135 23q133 0 206 -104zM842 571q129 119 202 254.5t73 256.5q0 102 -40.5 144.5t-138.5 42.5q-72 0 -162 -32q-221 -451 -391 -910q115 22 233.5 85t223.5 159z" />
    <glyph glyph-name="Q" unicode="Q" horiz-adv-x="1150" 
d="M804 1378q149 0 246 -103q109 -117 109 -331q0 -130 -65 -327.5t-170 -387.5q-118 -212 -245 -336q53 -82 84 -92q0 22 20 27q22 5 31 -15q13 -27 -1 -52q-17 -26 -47 -24q-70 0 -155 98q-84 -60 -160 -60q-117 0 -189.5 98t-72.5 257q0 118 19.5 225.5t57 201.5
t76 166.5t93.5 155.5q24 36 64 26q21 -4 38.5 -17.5t21.5 -31.5q5 -23 -12 -36q-15 -17 -51 -85t-79.5 -168.5t-76 -233t-32.5 -246.5t37 -184t96 -70q57 0 129 55q-64 89 -74 128q-5 20 11.5 37t37.5 23q19 6 32 -1.5t17 -20.5q21 -51 48 -99q109 115 212 308
q101 188 163.5 383.5t62.5 325.5q0 84 -19 147.5t-45.5 97t-63 54t-64 26t-54.5 5.5q-105 0 -219.5 -72t-219.5 -204q-97 -122 -160 -262t-75 -261q0 -1 1 -3t1 -3q6 -14 -4 -27q-9 -12 -26 -9q-16 3 -21 18q-2 6 -4 14q0 1 -0.5 2t-0.5 2q-18 86 40 245t161 306
q39 55 84 105t109.5 104.5t143.5 87.5t160 33z" />
    <glyph glyph-name="R" unicode="R" horiz-adv-x="1175" 
d="M1192 -122q10 -3 16 -12t3 -20q-8 -28 -34 -39v-1q-8 -4 -24 -8q-18 -3 -35 -3q-89 0 -228 53.5t-304 166.5t-283 255q-115 -309 -115 -433q0 -3 1 -5q18 5 29 -11t-1 -31q-12 -29 -42 -29q-1 0 -3.5 0.5t-3.5 0.5q-26 4 -46 32.5t-20 73.5q0 189 126 545t296 706
q-32 -18 -58 -34q-108 -68 -183 -149t-100 -157q4 -23 -18 -30q-24 -7 -33 14q-27 63 34 154q53 81 166 169.5t249 147.5q27 55 53 103q23 40 84 9q45 -23 40 -54q79 17 154 17q145 0 239 -68q107 -78 107 -215q0 -92 -78 -211.5t-209 -227.5q-49 -40 -105 -77t-134 -77.5
t-174 -67.5t-194 -33q75 -99 221.5 -210.5t308 -188.5t264.5 -76q1 1 1 2q3 10 13 17q8 5 20 2zM380 467q-29 -71 -32 -79q154 6 328.5 100t304.5 223q96 94 150 188.5t54 166.5q0 67 -71 118.5t-187 51.5q-108 -1 -213 -35q-196 -399 -334 -734z" />
    <glyph glyph-name="S" unicode="S" horiz-adv-x="1228" 
d="M1095 1398q145 0 187 -81q33 -64 -0.5 -152t-91.5 -169q-8 -11 -21 -14q-14 -3 -25 5q-14 11 -17.5 28t6.5 31q121 178 91 235q-14 26 -73 26q-99 0 -220.5 -47.5t-231.5 -129.5q-109 -81 -172 -169.5t-63 -159.5q0 -25 14.5 -49t34.5 -42.5t57.5 -41.5t65 -37.5
t76.5 -38.5q38 -19 55.5 -28t53.5 -28t54 -31t48 -33t45.5 -37.5t36 -40t30.5 -46t17 -50t7 -56.5q0 -75 -57 -158t-159 -155q-104 -73 -222 -113t-230 -40q-104 0 -176 38.5t-99 109.5q-31 82 6 182.5t131 190.5l1 1l1 1q3 2 7 6.5t7 6.5q11 11 27 6q15 -5 18 -20
q3 -16 -9 -26l-6.5 -6.5t-7.5 -6.5q-75 -72 -107 -165.5t-9 -149.5q35 -87 192 -87q109 0 220 39t205 110q85 65 134.5 140t49.5 140q0 24 -9 47t-21 41t-37 37.5t-44 32.5t-55 31.5t-57 28.5t-63 29q-46 21 -69 32t-64 32.5t-62.5 37t-50 40t-43 47.5t-25 53.5t-10.5 63.5
q0 102 70.5 206t177 180.5t236.5 124.5t245 48z" />
    <glyph glyph-name="T" unicode="T" horiz-adv-x="622" 
d="M1280 1196q-6 6 -6 15q-123 36 -480 16q-6 -1 -20 -1t-20 -1q-184 -370 -330 -777.5t-171 -603.5h1q11 -2 17 -11.5t4 -20.5q-9 -46 -42 -46h-4q-23 2 -37 30.5t-14 62.5q0 188 114.5 537t330.5 819q-232 -19 -475 -55h-6q-14 0 -25 10.5t-14 26.5q-3 17 5 28.5t20 13.5
q260 44 533 58q10 22 32 66q11 22 36 24q40 0 64 -34q15 -22 4 -44q0 -1 -1.5 -3.5t-2.5 -3.5q51 1 132 1q132 0 271 -17q117 -16 133 -49q12 -28 -11 -45q-8 -7 -19 -5.5t-19 9.5z" />
    <glyph glyph-name="U" unicode="U" horiz-adv-x="1122" 
d="M1345 1326q-256 -497 -409 -985q-53 -169 -76 -289.5t-21.5 -162.5t11.5 -51q6 -6 7 -11q13 20 34 10t14 -32q-5 -16 -18 -25.5t-29 -8.5q-2 0 -5 0.5t-4 0.5q-42 6 -71 54q-32 52 -32 134q0 249 195 778q-251 -446 -418.5 -669.5t-271.5 -223.5q-69 0 -110 69
q-39 67 -39 172q0 127 47 310.5t111.5 346t130.5 292t106 170.5q18 16 43.5 14.5t44.5 -16.5q16 -13 19 -30t-6 -27q-164 -260 -276 -577.5t-112 -485.5q0 -54 7.5 -94t17 -57.5t18.5 -17.5q14 0 32.5 9t52.5 38t75 77t103.5 134t134.5 200q165 260 443 771q89 162 106 190
q8 16 24 46q11 20 33.5 22.5t51.5 -12.5q54 -28 36 -63z" />
    <glyph glyph-name="U" unicode="&#xdc;" horiz-adv-x="1122" 
d="M1345 1326q-256 -497 -409 -985q-53 -169 -76 -289.5t-21.5 -162.5t11.5 -51q6 -6 7 -11q13 20 34 10t14 -32q-5 -16 -18 -25.5t-29 -8.5q-2 0 -5 0.5t-4 0.5q-42 6 -71 54q-32 52 -32 134q0 249 195 778q-251 -446 -418.5 -669.5t-271.5 -223.5q-69 0 -110 69
q-39 67 -39 172q0 127 47 310.5t111.5 346t130.5 292t106 170.5q18 16 43.5 14.5t44.5 -16.5q16 -13 19 -30t-6 -27q-164 -260 -276 -577.5t-112 -485.5q0 -54 7.5 -94t17 -57.5t18.5 -17.5q14 0 32.5 9t52.5 38t75 77t103.5 134t134.5 200q165 260 443 771q89 162 106 190
q8 16 24 46q11 20 33.5 22.5t51.5 -12.5q54 -28 36 -63z" />
    <glyph glyph-name="U" unicode="&#xdb;" horiz-adv-x="1122" 
d="M1345 1326q-256 -497 -409 -985q-53 -169 -76 -289.5t-21.5 -162.5t11.5 -51q6 -6 7 -11q13 20 34 10t14 -32q-5 -16 -18 -25.5t-29 -8.5q-2 0 -5 0.5t-4 0.5q-42 6 -71 54q-32 52 -32 134q0 249 195 778q-251 -446 -418.5 -669.5t-271.5 -223.5q-69 0 -110 69
q-39 67 -39 172q0 127 47 310.5t111.5 346t130.5 292t106 170.5q18 16 43.5 14.5t44.5 -16.5q16 -13 19 -30t-6 -27q-164 -260 -276 -577.5t-112 -485.5q0 -54 7.5 -94t17 -57.5t18.5 -17.5q14 0 32.5 9t52.5 38t75 77t103.5 134t134.5 200q165 260 443 771q89 162 106 190
q8 16 24 46q11 20 33.5 22.5t51.5 -12.5q54 -28 36 -63z" />
    <glyph glyph-name="U" unicode="&#xda;" horiz-adv-x="1122" 
d="M1345 1326q-256 -497 -409 -985q-53 -169 -76 -289.5t-21.5 -162.5t11.5 -51q6 -6 7 -11q13 20 34 10t14 -32q-5 -16 -18 -25.5t-29 -8.5q-2 0 -5 0.5t-4 0.5q-42 6 -71 54q-32 52 -32 134q0 249 195 778q-251 -446 -418.5 -669.5t-271.5 -223.5q-69 0 -110 69
q-39 67 -39 172q0 127 47 310.5t111.5 346t130.5 292t106 170.5q18 16 43.5 14.5t44.5 -16.5q16 -13 19 -30t-6 -27q-164 -260 -276 -577.5t-112 -485.5q0 -54 7.5 -94t17 -57.5t18.5 -17.5q14 0 32.5 9t52.5 38t75 77t103.5 134t134.5 200q165 260 443 771q89 162 106 190
q8 16 24 46q11 20 33.5 22.5t51.5 -12.5q54 -28 36 -63z" />
    <glyph glyph-name="U" unicode="&#xd9;" horiz-adv-x="1122" 
d="M1345 1326q-256 -497 -409 -985q-53 -169 -76 -289.5t-21.5 -162.5t11.5 -51q6 -6 7 -11q13 20 34 10t14 -32q-5 -16 -18 -25.5t-29 -8.5q-2 0 -5 0.5t-4 0.5q-42 6 -71 54q-32 52 -32 134q0 249 195 778q-251 -446 -418.5 -669.5t-271.5 -223.5q-69 0 -110 69
q-39 67 -39 172q0 127 47 310.5t111.5 346t130.5 292t106 170.5q18 16 43.5 14.5t44.5 -16.5q16 -13 19 -30t-6 -27q-164 -260 -276 -577.5t-112 -485.5q0 -54 7.5 -94t17 -57.5t18.5 -17.5q14 0 32.5 9t52.5 38t75 77t103.5 134t134.5 200q165 260 443 771q89 162 106 190
q8 16 24 46q11 20 33.5 22.5t51.5 -12.5q54 -28 36 -63z" />
    <glyph glyph-name="V" unicode="V" horiz-adv-x="937" 
d="M1463 1310q-4 2 -8 9q-93 -94 -188.5 -209.5t-202.5 -264t-167.5 -236t-172.5 -253.5q-218 -323 -317.5 -447t-161.5 -124q-61 0 -96 55q-98 150 4 681q43 223 112 449.5t143 391.5q7 16 22.5 21t32.5 -2q22 -9 37.5 -33.5t6.5 -46.5q-70 -173 -137 -402.5t-111 -450.5
q-34 -170 -47 -300t-8 -195t21 -89q6 -9 12 -9q34 4 163 174q78 102 293 417q104 152 161.5 234.5t153.5 215.5t159.5 210.5t136 152.5t125.5 109l1 1q1 1 4 2.5l5 2.5q15 9 32 7.5t27 -12.5q10 -10 10 -25t-8 -26q-6 -9 -17 -11.5t-20 3.5z" />
    <glyph glyph-name="W" unicode="W" horiz-adv-x="1765" 
d="M1775 1380q72 0 72 -143q0 -149 -82 -396.5t-211 -490.5q-35 -66 -74 -131t-102.5 -153t-125 -152.5t-136.5 -110t-143 -45.5q-93 0 -148 75q-88 118 -77 404q3 79 18 186q-170 -307 -293 -452t-213 -145q-66 0 -112 76.5t-46 188.5q0 387 198 847q79 184 161 309
q85 130 139 147q19 6 48 -5.5t45 -28.5q21 -23 11 -45q-20 -52 -45 -57q-7 -2 -13 0q-156 -255 -288.5 -637t-132.5 -553q0 -40 3 -72t7 -50.5t9.5 -30.5t10 -16t7.5 -4q23 0 51.5 18t61 55t63.5 75.5t69 98.5t65.5 103.5t65.5 110.5t56.5 99.5t49.5 89.5q68 122 76 136
q2 5 8 13l1 1q8 13 23 13q9 3 22 -1q17 -4 26.5 -19t5.5 -32q-37 -152 -55.5 -300t-7.5 -288t62 -205q29 -37 64 -37q112 0 278 208q102 128 205 313.5t184 385.5q76 190 112 343.5t24 241.5q-12 -12 -30 -5q-16 6 -16 25q0 17 14.5 29.5t34.5 12.5z" />
    <glyph glyph-name="X" unicode="X" horiz-adv-x="1056" 
d="M1016 -138q13 8 27 0t14 -23q0 -16 -15 -24q-70 -40 -137 -40h-3q-14 0 -29 3q-50 9 -88 37q-172 122 -234 560q-367 -496 -388 -713q8 7 18.5 7t18.5 -7t9 -17.5t-6 -18.5q-25 -33 -51 -33q-5 0 -13 2q-22 9 -28 32q0 1 -1 3q-9 35 -8 59q0 233 363 743q26 37 69 94
q-32 394 30 733q4 22 25.5 32t47.5 6q24 -4 35.5 -17.5t9.5 -29.5q-28 -226 -21 -557q292 367 614 700q15 17 37 10q37 -12 50 -50q6 -21 -9 -38q-367 -381 -685 -786q0 -1 0.5 -4t0.5 -4q15 -247 55 -415t99 -236q31 -36 67 -40q1 0 4 -0.5t5 -0.5h6q54 0 111 33z" />
    <glyph glyph-name="Y" unicode="Y" horiz-adv-x="1228" 
d="M1336 1183q0 -119 -80 -357.5t-206 -465.5q-149 -268 -317 -424q-201 -187 -405 -187q-63 0 -115 36t-83 87q-41 69 -22 106q11 21 34 12t16 -32l1 -1q1 -2 3 -6.5t3 -6.5q14 -29 23.5 -44.5t28 -37.5t43 -32t55.5 -10q163 0 345 184q223 225 403 634q75 171 118.5 330.5
t45.5 264.5l-4 -4q-67 -70 -144.5 -167t-121.5 -157t-127 -175q-42 -59 -61.5 -86t-55.5 -75.5t-54.5 -71t-47.5 -57t-48 -50.5t-42 -34t-42.5 -24.5t-37.5 -6.5q-103 0 -103 158q0 179 121 478t239 436q16 15 39.5 12t41.5 -17q17 -13 20.5 -31.5t-7.5 -34.5
q-139 -204 -248 -482t-109 -407q0 -33 9 -34q30 9 136 138q77 95 233 307q105 141 159.5 213.5t123.5 153t106 104.5q39 21 78 0q56 -29 56 -136z" />
    <glyph glyph-name="Y" unicode="&#x178;" horiz-adv-x="1228" 
d="M1336 1183q0 -119 -80 -357.5t-206 -465.5q-149 -268 -317 -424q-201 -187 -405 -187q-63 0 -115 36t-83 87q-41 69 -22 106q11 21 34 12t16 -32l1 -1q1 -2 3 -6.5t3 -6.5q14 -29 23.5 -44.5t28 -37.5t43 -32t55.5 -10q163 0 345 184q223 225 403 634q75 171 118.5 330.5
t45.5 264.5l-4 -4q-67 -70 -144.5 -167t-121.5 -157t-127 -175q-42 -59 -61.5 -86t-55.5 -75.5t-54.5 -71t-47.5 -57t-48 -50.5t-42 -34t-42.5 -24.5t-37.5 -6.5q-103 0 -103 158q0 179 121 478t239 436q16 15 39.5 12t41.5 -17q17 -13 20.5 -31.5t-7.5 -34.5
q-139 -204 -248 -482t-109 -407q0 -33 9 -34q30 9 136 138q77 95 233 307q105 141 159.5 213.5t123.5 153t106 104.5q39 21 78 0q56 -29 56 -136z" />
    <glyph glyph-name="Y" unicode="&#xdd;" horiz-adv-x="1228" 
d="M1336 1183q0 -119 -80 -357.5t-206 -465.5q-149 -268 -317 -424q-201 -187 -405 -187q-63 0 -115 36t-83 87q-41 69 -22 106q11 21 34 12t16 -32l1 -1q1 -2 3 -6.5t3 -6.5q14 -29 23.5 -44.5t28 -37.5t43 -32t55.5 -10q163 0 345 184q223 225 403 634q75 171 118.5 330.5
t45.5 264.5l-4 -4q-67 -70 -144.5 -167t-121.5 -157t-127 -175q-42 -59 -61.5 -86t-55.5 -75.5t-54.5 -71t-47.5 -57t-48 -50.5t-42 -34t-42.5 -24.5t-37.5 -6.5q-103 0 -103 158q0 179 121 478t239 436q16 15 39.5 12t41.5 -17q17 -13 20.5 -31.5t-7.5 -34.5
q-139 -204 -248 -482t-109 -407q0 -33 9 -34q30 9 136 138q77 95 233 307q105 141 159.5 213.5t123.5 153t106 104.5q39 21 78 0q56 -29 56 -136z" />
    <glyph glyph-name="Z" unicode="Z" horiz-adv-x="1134" 
d="M1487 1158q0 -52 -39 -121t-113.5 -152t-158 -162t-198.5 -179q38 -5 53 -20q19 -19 5 -42q-4 -9 -16 -12q-13 -4 -21 2q-2 1 -6 5q-23 9 -83 9q-114 -98 -172 -147q-157 -133 -232.5 -198t-170 -155.5t-133.5 -146.5q0 -1 -0.5 -1t-0.5 -1h7q49 2 191 24q286 45 437 45
q75 0 142.5 -28.5t88.5 -63.5q17 -23 4 -49q-8 -14 -24 -14h-1q-21 0 -26 21q-8 37 -59.5 53t-157 9t-184 -17t-225.5 -32q-110 -17 -177 -26q-55 -8 -89 21q-28 24 -26 59q0 61 125 184t440 393q19 17 59 51q-79 -14 -150 -36q-6 -2 -9 -2q-25 0 -33 23q-11 31 25 47
q61 27 245 43q2 0 5 0.5t5 0.5q100 87 176 155t159 148t136.5 140t88.5 114.5t35 88.5q0 9 -1 15.5t-11 18.5t-28 19.5t-56.5 14t-91.5 6.5h-1q-136 0 -279.5 -57t-259.5 -129q-14 -8 -30 -4.5t-25 17.5q-11 14 -10 30.5t12 27.5q91 89 276 143t330 54q40 0 80 -9t81 -28.5
t66.5 -58.5t25.5 -91z" />
    <glyph glyph-name="bracketleft" unicode="[" horiz-adv-x="980" 
d="M844 1430q14 0 24 -9.5t10 -23.5t-10 -24t-24 -10q-2 0 -18.5 -0.5t-28.5 -0.5q0 -5 -4 -17q-26 -61 -130 -273q-70 -142 -110 -226.5t-109.5 -237t-129.5 -308t-113 -318.5q35 2 47 4q16 3 26 -10t3 -28q-6 -14 -22 -16q-39 -6 -114 -6q-14 0 -22 11q-19 11 -16 34
q17 132 138 467.5t256.5 635.5t188.5 343q10 7 23 9q6 2 10 2h6.5t14.5 0.5t18 0.5q33 1 86 1z" />
    <glyph glyph-name="backslash" unicode="\" horiz-adv-x="391" 
d="M261 1372q31 -21 28 -59q-3 -29 -9 -88.5t-8 -77.5q-63 -616 -78 -1096q-1 -25 -13.5 -38.5t-29.5 -14.5h-2q-15 0 -25 9q-10 10 -12 26q-27 213 37 1312q2 26 25 36q18 9 43 6.5t44 -15.5z" />
    <glyph glyph-name="bracketright" unicode="]" horiz-adv-x="980" 
d="M861 1412q19 -11 16 -34q-17 -132 -138 -467t-256.5 -635t-188.5 -343q-12 -9 -23 -10q-3 -1 -10 -1h-6.5t-14.5 -0.5t-18 -0.5q-66 -2 -86 -2q-14 0 -24 10t-10 24t10 23.5t24 9.5q2 0 18.5 0.5t28.5 0.5q0 6 4 18q23 54 130 272q90 182 149 306.5t151 347.5t162 436
q-41 -2 -47 -3h-3q-11 0 -18.5 7.5t-8.5 17.5t5.5 18t17.5 10q45 7 114 7q13 0 22 -12z" />
    <glyph glyph-name="asciicircum" unicode="^" horiz-adv-x="497" 
d="M388 1226q7 -9 7 -18q0 -8 -4 -15q-9 -12 -23 -12q-8 0 -15 5q-22 15 -44 52t-34 71q-57 -98 -77 -110q-27 -12 -51.5 -4t-37.5 25q-17 20 3 40q44 40 93.5 99t67.5 85q17 24 45 12q14 -5 25.5 -19t10.5 -30q-4 -33 3.5 -94.5t30.5 -86.5z" />
    <glyph glyph-name="underscore" unicode="_" horiz-adv-x="657" 
d="M526 51q14 -2 22 -12t7 -23t-13 -21.5t-28 -7.5q-92 5 -370 -5h-1q-24 0 -35 19t-1 39q8 14 25 14q50 -2 160 0q208 2 234 -3z" />
    <glyph glyph-name="grave" unicode="`" horiz-adv-x="319" 
d="M218 1367q0 -18 -1 -27q-6 -91 -2 -120q2 -13 -6.5 -24t-25.5 -14h-9q-20 0 -35 13.5t-17 33.5q-19 133 -19 158q-2 13 7 24t26 13q26 3 52.5 -12.5t29.5 -44.5z" />
    <glyph glyph-name="a" unicode="a" horiz-adv-x="618" 
d="M656 358q10 -5 12.5 -15.5t-2.5 -20.5q0 -2 -2 -4v-1l-1 -2q-41 -82 -80.5 -139t-71 -83t-53.5 -36t-41 -10q-75 0 -115 69q-24 42 -33 111q-131 -216 -226 -216q-51 0 -81.5 39.5t-30.5 104.5q0 74 29 158.5t80 158.5q52 75 109.5 117t108.5 42q74 0 109 -53
q32 -49 10 -103q-2 -4 -4 -6l-2 -2t-1 -2l-1 -1h-1q-2 0 -2 -1l-2 -2h-2l-2 -1l-2 -1h-1h-2h-3q-22 0 -26 23q-4 34 -13.5 55t-21.5 21q-42 0 -101.5 -67.5t-105.5 -174t-46 -199.5q0 -29 5 -37q7 0 22 9.5t39 33.5t51 58t61 90.5t66 123.5q1 4 4 8q15 25 48 13
q35 -13 30 -42q-33 -196 15 -253q15 -19 38 -17q13 0 28.5 8.5t39.5 31t57 71.5t70 120q2 3 4 7l1 1q2 4 3 5q5 10 15.5 12.5t20.5 -2.5z" />
    <glyph glyph-name="a" unicode="&#xe5;" horiz-adv-x="618" 
d="M656 358q10 -5 12.5 -15.5t-2.5 -20.5q0 -2 -2 -4v-1l-1 -2q-41 -82 -80.5 -139t-71 -83t-53.5 -36t-41 -10q-75 0 -115 69q-24 42 -33 111q-131 -216 -226 -216q-51 0 -81.5 39.5t-30.5 104.5q0 74 29 158.5t80 158.5q52 75 109.5 117t108.5 42q74 0 109 -53
q32 -49 10 -103q-2 -4 -4 -6l-2 -2t-1 -2l-1 -1h-1q-2 0 -2 -1l-2 -2h-2l-2 -1l-2 -1h-1h-2h-3q-22 0 -26 23q-4 34 -13.5 55t-21.5 21q-42 0 -101.5 -67.5t-105.5 -174t-46 -199.5q0 -29 5 -37q7 0 22 9.5t39 33.5t51 58t61 90.5t66 123.5q1 4 4 8q15 25 48 13
q35 -13 30 -42q-33 -196 15 -253q15 -19 38 -17q13 0 28.5 8.5t39.5 31t57 71.5t70 120q2 3 4 7l1 1q2 4 3 5q5 10 15.5 12.5t20.5 -2.5z" />
    <glyph glyph-name="a" unicode="&#xe4;" horiz-adv-x="618" 
d="M656 358q10 -5 12.5 -15.5t-2.5 -20.5q0 -2 -2 -4v-1l-1 -2q-41 -82 -80.5 -139t-71 -83t-53.5 -36t-41 -10q-75 0 -115 69q-24 42 -33 111q-131 -216 -226 -216q-51 0 -81.5 39.5t-30.5 104.5q0 74 29 158.5t80 158.5q52 75 109.5 117t108.5 42q74 0 109 -53
q32 -49 10 -103q-2 -4 -4 -6l-2 -2t-1 -2l-1 -1h-1q-2 0 -2 -1l-2 -2h-2l-2 -1l-2 -1h-1h-2h-3q-22 0 -26 23q-4 34 -13.5 55t-21.5 21q-42 0 -101.5 -67.5t-105.5 -174t-46 -199.5q0 -29 5 -37q7 0 22 9.5t39 33.5t51 58t61 90.5t66 123.5q1 4 4 8q15 25 48 13
q35 -13 30 -42q-33 -196 15 -253q15 -19 38 -17q13 0 28.5 8.5t39.5 31t57 71.5t70 120q2 3 4 7l1 1q2 4 3 5q5 10 15.5 12.5t20.5 -2.5z" />
    <glyph glyph-name="a" unicode="&#xe3;" horiz-adv-x="618" 
d="M656 358q10 -5 12.5 -15.5t-2.5 -20.5q0 -2 -2 -4v-1l-1 -2q-41 -82 -80.5 -139t-71 -83t-53.5 -36t-41 -10q-75 0 -115 69q-24 42 -33 111q-131 -216 -226 -216q-51 0 -81.5 39.5t-30.5 104.5q0 74 29 158.5t80 158.5q52 75 109.5 117t108.5 42q74 0 109 -53
q32 -49 10 -103q-2 -4 -4 -6l-2 -2t-1 -2l-1 -1h-1q-2 0 -2 -1l-2 -2h-2l-2 -1l-2 -1h-1h-2h-3q-22 0 -26 23q-4 34 -13.5 55t-21.5 21q-42 0 -101.5 -67.5t-105.5 -174t-46 -199.5q0 -29 5 -37q7 0 22 9.5t39 33.5t51 58t61 90.5t66 123.5q1 4 4 8q15 25 48 13
q35 -13 30 -42q-33 -196 15 -253q15 -19 38 -17q13 0 28.5 8.5t39.5 31t57 71.5t70 120q2 3 4 7l1 1q2 4 3 5q5 10 15.5 12.5t20.5 -2.5z" />
    <glyph glyph-name="a" unicode="&#xe2;" horiz-adv-x="618" 
d="M656 358q10 -5 12.5 -15.5t-2.5 -20.5q0 -2 -2 -4v-1l-1 -2q-41 -82 -80.5 -139t-71 -83t-53.5 -36t-41 -10q-75 0 -115 69q-24 42 -33 111q-131 -216 -226 -216q-51 0 -81.5 39.5t-30.5 104.5q0 74 29 158.5t80 158.5q52 75 109.5 117t108.5 42q74 0 109 -53
q32 -49 10 -103q-2 -4 -4 -6l-2 -2t-1 -2l-1 -1h-1q-2 0 -2 -1l-2 -2h-2l-2 -1l-2 -1h-1h-2h-3q-22 0 -26 23q-4 34 -13.5 55t-21.5 21q-42 0 -101.5 -67.5t-105.5 -174t-46 -199.5q0 -29 5 -37q7 0 22 9.5t39 33.5t51 58t61 90.5t66 123.5q1 4 4 8q15 25 48 13
q35 -13 30 -42q-33 -196 15 -253q15 -19 38 -17q13 0 28.5 8.5t39.5 31t57 71.5t70 120q2 3 4 7l1 1q2 4 3 5q5 10 15.5 12.5t20.5 -2.5z" />
    <glyph glyph-name="a" unicode="&#xe1;" horiz-adv-x="618" 
d="M656 358q10 -5 12.5 -15.5t-2.5 -20.5q0 -2 -2 -4v-1l-1 -2q-41 -82 -80.5 -139t-71 -83t-53.5 -36t-41 -10q-75 0 -115 69q-24 42 -33 111q-131 -216 -226 -216q-51 0 -81.5 39.5t-30.5 104.5q0 74 29 158.5t80 158.5q52 75 109.5 117t108.5 42q74 0 109 -53
q32 -49 10 -103q-2 -4 -4 -6l-2 -2t-1 -2l-1 -1h-1q-2 0 -2 -1l-2 -2h-2l-2 -1l-2 -1h-1h-2h-3q-22 0 -26 23q-4 34 -13.5 55t-21.5 21q-42 0 -101.5 -67.5t-105.5 -174t-46 -199.5q0 -29 5 -37q7 0 22 9.5t39 33.5t51 58t61 90.5t66 123.5q1 4 4 8q15 25 48 13
q35 -13 30 -42q-33 -196 15 -253q15 -19 38 -17q13 0 28.5 8.5t39.5 31t57 71.5t70 120q2 3 4 7l1 1q2 4 3 5q5 10 15.5 12.5t20.5 -2.5z" />
    <glyph glyph-name="a" unicode="&#xe0;" horiz-adv-x="618" 
d="M656 358q10 -5 12.5 -15.5t-2.5 -20.5q0 -2 -2 -4v-1l-1 -2q-41 -82 -80.5 -139t-71 -83t-53.5 -36t-41 -10q-75 0 -115 69q-24 42 -33 111q-131 -216 -226 -216q-51 0 -81.5 39.5t-30.5 104.5q0 74 29 158.5t80 158.5q52 75 109.5 117t108.5 42q74 0 109 -53
q32 -49 10 -103q-2 -4 -4 -6l-2 -2t-1 -2l-1 -1h-1q-2 0 -2 -1l-2 -2h-2l-2 -1l-2 -1h-1h-2h-3q-22 0 -26 23q-4 34 -13.5 55t-21.5 21q-42 0 -101.5 -67.5t-105.5 -174t-46 -199.5q0 -29 5 -37q7 0 22 9.5t39 33.5t51 58t61 90.5t66 123.5q1 4 4 8q15 25 48 13
q35 -13 30 -42q-33 -196 15 -253q15 -19 38 -17q13 0 28.5 8.5t39.5 31t57 71.5t70 120q2 3 4 7l1 1q2 4 3 5q5 10 15.5 12.5t20.5 -2.5z" />
    <glyph glyph-name="b" unicode="b" horiz-adv-x="727" 
d="M752 362q10 -1 17.5 -9t7.5 -19q0 -10 -7.5 -18t-18.5 -8q-148 2 -283 -35q-28 -55 -68 -115q-21 -32 -46.5 -62.5t-63 -69t-81.5 -62t-85 -23.5q-38 0 -58 20t-20 47q0 50 36.5 100.5t92 88.5t105.5 64t94 42q70 148 70 239q0 19 -13 19q-79 0 -199 -146
q-164 -202 -323 -613q-2 -6 -7 -19.5t-7 -21.5q0 -1 -0.5 -1t-0.5 -1q-10 -27 -38 -25q-1 0 -3 0.5t-3 0.5q-16 1 -27 13t-11 29q0 42 79 311t212.5 643.5t250.5 618.5q12 25 39 23q24 0 54 -17t40 -37q13 -21 -2 -42q-16 -22 -80 -158t-164 -374t-182 -464q49 85 102 157
q70 92 137.5 144t117.5 52q55 0 89 -35t34 -93q0 -68 -41 -169q124 28 254 25zM108 7q50 0 110 61.5t115 156.5q-91 -41 -162 -109q-63 -61 -63 -108v-1z" />
    <glyph glyph-name="c" unicode="c" horiz-adv-x="524" 
d="M563 357q9 -6 11 -17t-4 -20q-1 -1 -2.5 -4t-2.5 -4q-2 -3 -7.5 -12.5t-9.5 -15.5q-41 -70 -76.5 -126t-81.5 -117.5t-87.5 -103t-87.5 -68.5t-88 -27q-61 0 -102 44q-39 40 -60.5 111t-20.5 157q3 224 116 431q53 97 114.5 152t115.5 55q76 0 108 -61q45 -88 -50 -224
q-9 -14 -25 -12t-22 16t3 27q1 1 3 4q0 3 2 7q19 36 26 70.5t4.5 53.5t-8.5 24q-11 -1 -33 -21t-56 -69t-67 -115q-115 -231 -117 -434q-1 -107 35 -143q12 -14 32 -14q123 0 377 412q6 9 14 21.5t10 15.5q6 9 17 11q12 2 20 -4z" />
    <glyph glyph-name="c" unicode="&#xe7;" horiz-adv-x="524" 
d="M563 357q9 -6 11 -17t-4 -20q-1 -1 -2.5 -4t-2.5 -4q-2 -3 -7.5 -12.5t-9.5 -15.5q-41 -70 -76.5 -126t-81.5 -117.5t-87.5 -103t-87.5 -68.5t-88 -27q-61 0 -102 44q-39 40 -60.5 111t-20.5 157q3 224 116 431q53 97 114.5 152t115.5 55q76 0 108 -61q45 -88 -50 -224
q-9 -14 -25 -12t-22 16t3 27q1 1 3 4q0 3 2 7q19 36 26 70.5t4.5 53.5t-8.5 24q-11 -1 -33 -21t-56 -69t-67 -115q-115 -231 -117 -434q-1 -107 35 -143q12 -14 32 -14q123 0 377 412q6 9 14 21.5t10 15.5q6 9 17 11q12 2 20 -4z" />
    <glyph glyph-name="d" unicode="d" horiz-adv-x="712" 
d="M836 1300q-198 -346 -335 -675q-189 -457 -189 -726q0 -44 9 -73t23 -29q82 0 279 368l12 22q64 127 73 156q3 11 12.5 16t19.5 2q24 -7 19 -32q-7 -27 -75 -165v-1l-1 -1l-1 -1q-24 -49 -68 -128q-47 -83 -89.5 -142.5t-69.5 -87.5t-53.5 -43.5t-37 -17.5t-22.5 -2
q-42 0 -70.5 22t-41.5 59t-18 70t-5 70q1 88 20 181q-88 -147 -176 -147q-49 0 -84.5 46t-35.5 133q0 102 40.5 198t106.5 155t136 59q78 0 118 -44q1 -1 3 -3.5t3 -3.5q145 412 381 822q12 21 39.5 23t49.5 -12q24 -14 31 -34.5t-3 -33.5zM309 451q2 24 -12 41
q-17 21 -44 19q-41 0 -91.5 -54t-88 -146.5t-37.5 -186.5q0 -22 3 -37.5t7 -22.5t8 -7q19 0 62.5 41.5t88.5 113.5q21 38 38 75q18 37 26 50q4 10 11 28.5t9 23.5q6 20 20 62z" />
    <glyph glyph-name="e" unicode="e" horiz-adv-x="550" 
d="M586 359q10 -4 13.5 -15t-1.5 -21q-17 -35 -58 -91t-100 -120.5t-134.5 -110t-142.5 -45.5q-35 0 -71.5 15t-70.5 45.5t-55.5 85.5t-21.5 126q0 104 46.5 208.5t113 168t126.5 63.5q44 0 80.5 -32t36.5 -79q0 -96 -92 -188v-1q-17 -17 -27 -25q-82 -66 -158 -60
q-15 -54 -16 -102q0 -51 10.5 -86.5t29 -51.5t34.5 -22t34 -6q163 0 379 318q6 8 7 9l1 2q1 2 1 3q5 10 16 13t20 -1zM139 448q-29 -48 -52 -111q50 2 107 48q16 14 23 21q38 41 54.5 93.5t5.5 76.5q-3 7 -7 7q-21 0 -57.5 -36t-73.5 -99z" />
    <glyph glyph-name="e" unicode="&#xeb;" horiz-adv-x="550" 
d="M586 359q10 -4 13.5 -15t-1.5 -21q-17 -35 -58 -91t-100 -120.5t-134.5 -110t-142.5 -45.5q-35 0 -71.5 15t-70.5 45.5t-55.5 85.5t-21.5 126q0 104 46.5 208.5t113 168t126.5 63.5q44 0 80.5 -32t36.5 -79q0 -96 -92 -188v-1q-17 -17 -27 -25q-82 -66 -158 -60
q-15 -54 -16 -102q0 -51 10.5 -86.5t29 -51.5t34.5 -22t34 -6q163 0 379 318q6 8 7 9l1 2q1 2 1 3q5 10 16 13t20 -1zM139 448q-29 -48 -52 -111q50 2 107 48q16 14 23 21q38 41 54.5 93.5t5.5 76.5q-3 7 -7 7q-21 0 -57.5 -36t-73.5 -99z" />
    <glyph glyph-name="e" unicode="&#xea;" horiz-adv-x="550" 
d="M586 359q10 -4 13.5 -15t-1.5 -21q-17 -35 -58 -91t-100 -120.5t-134.5 -110t-142.5 -45.5q-35 0 -71.5 15t-70.5 45.5t-55.5 85.5t-21.5 126q0 104 46.5 208.5t113 168t126.5 63.5q44 0 80.5 -32t36.5 -79q0 -96 -92 -188v-1q-17 -17 -27 -25q-82 -66 -158 -60
q-15 -54 -16 -102q0 -51 10.5 -86.5t29 -51.5t34.5 -22t34 -6q163 0 379 318q6 8 7 9l1 2q1 2 1 3q5 10 16 13t20 -1zM139 448q-29 -48 -52 -111q50 2 107 48q16 14 23 21q38 41 54.5 93.5t5.5 76.5q-3 7 -7 7q-21 0 -57.5 -36t-73.5 -99z" />
    <glyph glyph-name="e" unicode="&#xe9;" horiz-adv-x="550" 
d="M586 359q10 -4 13.5 -15t-1.5 -21q-17 -35 -58 -91t-100 -120.5t-134.5 -110t-142.5 -45.5q-35 0 -71.5 15t-70.5 45.5t-55.5 85.5t-21.5 126q0 104 46.5 208.5t113 168t126.5 63.5q44 0 80.5 -32t36.5 -79q0 -96 -92 -188v-1q-17 -17 -27 -25q-82 -66 -158 -60
q-15 -54 -16 -102q0 -51 10.5 -86.5t29 -51.5t34.5 -22t34 -6q163 0 379 318q6 8 7 9l1 2q1 2 1 3q5 10 16 13t20 -1zM139 448q-29 -48 -52 -111q50 2 107 48q16 14 23 21q38 41 54.5 93.5t5.5 76.5q-3 7 -7 7q-21 0 -57.5 -36t-73.5 -99z" />
    <glyph glyph-name="e" unicode="&#xe8;" horiz-adv-x="550" 
d="M586 359q10 -4 13.5 -15t-1.5 -21q-17 -35 -58 -91t-100 -120.5t-134.5 -110t-142.5 -45.5q-35 0 -71.5 15t-70.5 45.5t-55.5 85.5t-21.5 126q0 104 46.5 208.5t113 168t126.5 63.5q44 0 80.5 -32t36.5 -79q0 -96 -92 -188v-1q-17 -17 -27 -25q-82 -66 -158 -60
q-15 -54 -16 -102q0 -51 10.5 -86.5t29 -51.5t34.5 -22t34 -6q163 0 379 318q6 8 7 9l1 2q1 2 1 3q5 10 16 13t20 -1zM139 448q-29 -48 -52 -111q50 2 107 48q16 14 23 21q38 41 54.5 93.5t5.5 76.5q-3 7 -7 7q-21 0 -57.5 -36t-73.5 -99z" />
    <glyph glyph-name="f" unicode="f" horiz-adv-x="354" 
d="M378 352q8 -8 7 -19t-10 -19q-106 -88 -290 -159q41 -99 37 -250t-31 -295t-67 -251q-67 -178 -140 -178q-52 0 -82 63.5t-30 176.5q0 164 54 403.5t129.5 459t148 396t118.5 257.5q8 15 28 16.5t42 -10.5q25 -13 32 -33.5t-3 -34.5q-150 -289 -274 -656q1 -2 3.5 -5
t3.5 -4q95 25 271 137q4 3 9 6t6 3t3.5 1t3.5 2q18 8 31 -7zM47 -285q20 137 15 247t-34 172v1q-2 -1 -5 -2t-5 -1q-149 -473 -149 -805q0 -65 16 -86q20 12 44 59q78 150 118 415z" />
    <glyph glyph-name="g" unicode="g" horiz-adv-x="686" 
d="M733 345q5 -10 1 -20.5t-15 -14.5q-137 -58 -251 -128q-60 -244 -194 -507q-28 -54 -58 -107t-79 -124t-97 -123.5t-106.5 -89.5t-111.5 -37q-103 0 -103 110q0 81 61 216t176 281q176 221 408 377q50 167 50 270v3q0 12 -1 18q-30 -22 -135 -175
q-108 -155 -169.5 -223.5t-108.5 -68.5q-35 0 -61.5 33t-26.5 90q0 63 26.5 143.5t70.5 153.5q33 54 67.5 91t64.5 54t51.5 23.5t41.5 6.5q68 0 109 -52q6 -7 12 -21q34 26 59 26q88 0 88 -140q-1 -79 -18 -157q104 60 214 107q24 10 35 -15zM284 453q5 16 -1 30
q-3 8 -10 13q-50 0 -111.5 -76t-102 -168t-40.5 -143l1 -2q27 24 121 158q87 122 143 188zM183 -272q87 172 153 363q-144 -100 -307 -303q-113 -141 -175 -271t-62 -225q0 -12 3.5 -18.5t5.5 -7t6 -0.5q65 0 167.5 126t208.5 336z" />
    <glyph glyph-name="h" unicode="h" horiz-adv-x="737" 
d="M774 358q9 -6 12 -17t-3 -20q-5 -8 -17 -29.5t-17 -29.5q-44 -78 -78.5 -131.5t-76.5 -108.5t-83 -83t-79 -28q-55 0 -89 52t-34 136q0 122 50 339q16 70 18 86q-52 -36 -157 -194q-79 -120 -238 -396q-75 -129 -84 -144q-5 -8 -12 -11q-7 -4 -16 -4h-5q-27 7 -27 36
q0 107 166 609.5t351 899.5q10 22 36 24q19 1 39 -10.5t30 -28.5q18 -24 5 -50q-48 -90 -192.5 -433.5t-263.5 -690.5q178 288 267 394.5t134 106.5q73 0 73 -98q0 -39 -33 -166q-54 -209 -54 -295q0 -46 9 -75t23 -29q87 0 285 340l6 10q11 18 18 30q6 9 17 12t20 -3z" />
    <glyph glyph-name="i" unicode="i" horiz-adv-x="366" 
d="M403 358q9 -6 12 -16q3 -11 -3 -20q-3 -6 -9 -15v-1q-205 -307 -325 -307q-68 0 -101 54q-31 49 -26.5 131t30.5 168t67 167q9 17 31 17q17 1 36.5 -5.5t28.5 -21.5q13 -20 2 -41q-58 -113 -84.5 -236.5t-1.5 -163.5q7 -12 19 -11q47 0 128 86.5t139 173.5q2 3 5 8.5
t5 7.5q0 1 2 2.5t2 2.5q2 4 6 10q5 10 16 12.5t21 -2.5zM131 554q-14 3 -23 16t-9 25q-1 25 20 88q10 22 33 22q16 1 35 -11t25 -26q8 -18 -3 -33q-23 -29 -40 -59q-9 -23 -31 -23q-1 0 -3.5 0.5t-3.5 0.5z" />
    <glyph glyph-name="i" unicode="&#xef;" horiz-adv-x="366" 
d="M403 358q9 -6 12 -16q3 -11 -3 -20q-3 -6 -9 -15v-1q-205 -307 -325 -307q-68 0 -101 54q-31 49 -26.5 131t30.5 168t67 167q9 17 31 17q17 1 36.5 -5.5t28.5 -21.5q13 -20 2 -41q-58 -113 -84.5 -236.5t-1.5 -163.5q7 -12 19 -11q47 0 128 86.5t139 173.5q2 3 5 8.5
t5 7.5q0 1 2 2.5t2 2.5q2 4 6 10q5 10 16 12.5t21 -2.5zM131 554q-14 3 -23 16t-9 25q-1 25 20 88q10 22 33 22q16 1 35 -11t25 -26q8 -18 -3 -33q-23 -29 -40 -59q-9 -23 -31 -23q-1 0 -3.5 0.5t-3.5 0.5z" />
    <glyph glyph-name="i" unicode="&#xee;" horiz-adv-x="366" 
d="M403 358q9 -6 12 -16q3 -11 -3 -20q-3 -6 -9 -15v-1q-205 -307 -325 -307q-68 0 -101 54q-31 49 -26.5 131t30.5 168t67 167q9 17 31 17q17 1 36.5 -5.5t28.5 -21.5q13 -20 2 -41q-58 -113 -84.5 -236.5t-1.5 -163.5q7 -12 19 -11q47 0 128 86.5t139 173.5q2 3 5 8.5
t5 7.5q0 1 2 2.5t2 2.5q2 4 6 10q5 10 16 12.5t21 -2.5zM131 554q-14 3 -23 16t-9 25q-1 25 20 88q10 22 33 22q16 1 35 -11t25 -26q8 -18 -3 -33q-23 -29 -40 -59q-9 -23 -31 -23q-1 0 -3.5 0.5t-3.5 0.5z" />
    <glyph glyph-name="i" unicode="&#xed;" horiz-adv-x="366" 
d="M403 358q9 -6 12 -16q3 -11 -3 -20q-3 -6 -9 -15v-1q-205 -307 -325 -307q-68 0 -101 54q-31 49 -26.5 131t30.5 168t67 167q9 17 31 17q17 1 36.5 -5.5t28.5 -21.5q13 -20 2 -41q-58 -113 -84.5 -236.5t-1.5 -163.5q7 -12 19 -11q47 0 128 86.5t139 173.5q2 3 5 8.5
t5 7.5q0 1 2 2.5t2 2.5q2 4 6 10q5 10 16 12.5t21 -2.5zM131 554q-14 3 -23 16t-9 25q-1 25 20 88q10 22 33 22q16 1 35 -11t25 -26q8 -18 -3 -33q-23 -29 -40 -59q-9 -23 -31 -23q-1 0 -3.5 0.5t-3.5 0.5z" />
    <glyph glyph-name="i" unicode="&#xec;" horiz-adv-x="366" 
d="M403 358q9 -6 12 -16q3 -11 -3 -20q-3 -6 -9 -15v-1q-205 -307 -325 -307q-68 0 -101 54q-31 49 -26.5 131t30.5 168t67 167q9 17 31 17q17 1 36.5 -5.5t28.5 -21.5q13 -20 2 -41q-58 -113 -84.5 -236.5t-1.5 -163.5q7 -12 19 -11q47 0 128 86.5t139 173.5q2 3 5 8.5
t5 7.5q0 1 2 2.5t2 2.5q2 4 6 10q5 10 16 12.5t21 -2.5zM131 554q-14 3 -23 16t-9 25q-1 25 20 88q10 22 33 22q16 1 35 -11t25 -26q8 -18 -3 -33q-23 -29 -40 -59q-9 -23 -31 -23q-1 0 -3.5 0.5t-3.5 0.5z" />
    <glyph glyph-name="j" unicode="j" horiz-adv-x="299" 
d="M347 346q4 -9 1 -20q-3 -9 -14 -15q-158 -74 -329 -217q-105 -309 -234 -551q-49 -91 -95 -160.5t-80.5 -108t-66.5 -62t-52 -30.5t-37 -7q-35 0 -56.5 28.5t-21.5 66.5q0 96 82 246.5t226 320.5q101 120 208 218q86 240 170 544q3 13 17 20q13 6 26 2q17 -4 37 -23
t15 -39q-47 -181 -107 -371q145 111 275 171q9 4 21 1q9 -3 15 -14zM-333 -450q93 184 165 378q-399 -419 -399 -650q0 -23 5 -38q7 0 19 7.5t33 29t46 54t59.5 90t71.5 129.5zM130 645q-16 2 -26 18t-10 27v1q3 45 16 100q10 23 35 23q37 -2 56 -33q9 -16 -1 -30
q-23 -42 -35 -81q-5 -25 -31 -25h-4z" />
    <glyph glyph-name="k" unicode="k" horiz-adv-x="755" 
d="M797 366q7 -7 9 -19q2 -11 -7 -19q-1 -1 -11 -15q-270 -345 -515 -345q-81 0 -146.5 37t-97.5 85q-73 -147 -130 -302l-3 -15q-4 -13 -15.5 -21t-24.5 -7h-6q-16 1 -27 13.5t-11 29.5q0 42 79 311t212.5 643.5t250.5 618.5q12 25 39 23q25 0 54 -17t40 -37q13 -21 -2 -42
q-16 -22 -81.5 -160.5t-166.5 -379t-183 -469.5q46 80 101 158q61 85 129 151t124 66q37 0 63 -29.5t26 -72.5q0 -72 -63.5 -156.5t-151.5 -152t-182 -114.5q25 -44 69 -69.5t95 -24.5q237 0 474 302q8 11 12 15q2 2 5 5.5t4 5.5q7 7 18 9q12 2 20 -6zM399 580
q-43 -7 -129 -107t-179 -266q122 69 215.5 190.5t93.5 178.5q0 3 -1 4z" />
    <glyph glyph-name="l" unicode="l" horiz-adv-x="403" 
d="M526 1301q-194 -339 -334 -675q-189 -457 -189 -727q0 -44 9 -73t22 -29q83 0 280 369l12 22q63 124 72 155q3 10 12.5 15.5t20.5 2.5q24 -7 19 -32q-5 -21 -76 -164v-1l-1 -2v-1q-33 -69 -68 -128q-47 -83 -89.5 -142t-69.5 -87t-53.5 -43.5t-36.5 -17.5t-23 -2
q-42 0 -70.5 22t-41.5 58.5t-18 69.5t-5 70q0 203 137 592.5t375 804.5q12 21 39.5 22.5t49.5 -12.5q24 -14 30.5 -34t-3.5 -33z" />
    <glyph glyph-name="m" unicode="m" horiz-adv-x="1157" 
d="M1193 358q10 -5 12.5 -15.5t-2.5 -20.5l-2 -4q-69 -123 -140 -225q-142 -203 -223 -203q-67 0 -105.5 61t-38.5 168q0 57 24 192q1 8 4 24t5 28.5t3 22.5q-39 -48 -107 -141q-83 -112 -113.5 -149.5t-46.5 -44.5q-19 -13 -42 -6q-52 13 -52 94q0 54 16 168q12 85 13 107
q-41 -28 -112 -130q-73 -105 -188 -297q-94 -157 -127 -203t-55 -48q-10 -2 -15 -2q-16 0 -27 7q-36 19 -36 73q0 172 137 523q31 80 66.5 160.5t55.5 122.5t25 50q11 16 32 17t46 -12q50 -28 34 -65q-16 -36 -25 -54q-200 -430 -246 -641q5 8 17 26q153 241 232 354
q64 92 107.5 142.5t61 61t32.5 10.5q31 2 53 -20q26 -28 24 -95q0 -2 -0.5 -6t-0.5 -5q-4 -56 -9 -82q-9 -61 -14 -112q45 61 124 156q60 72 101 110t53 43t24 5q31 0 49.5 -21t18.5 -48q0 -23 -13 -103q-52 -320 -7 -374q5 -8 18 -8q38 0 147 142q65 84 152 220
q5 7 10.5 15.5t6.5 10.5q1 1 2.5 3.5t1.5 3.5l2 4q7 10 17 13q11 3 20 -3z" />
    <glyph glyph-name="n" unicode="n" horiz-adv-x="716" 
d="M748 361q9 -3 15 -14q4 -9 1 -20q-12 -32 -60 -117q0 -1 -2.5 -4.5t-4.5 -6.5q-32 -55 -59 -95q-120 -178 -183 -178q-61 0 -95.5 52t-34.5 145q0 105 49 371q1 6 3.5 19t3.5 20q-239 -316 -470 -732q-8 -21 -33 -21h-5q-20 3 -34 18.5t-14 36.5q0 95 122 448
q110 316 141 372q11 19 33.5 22.5t48.5 -9.5q23 -12 35.5 -31t4.5 -37q-6 -14 -18.5 -42t-15.5 -34q-127 -280 -191 -467q65 111 171 273q56 85 100 146t69.5 92.5t45.5 50t28 22.5t16 4h1h3q26 0 47.5 -18.5t21.5 -46.5q0 -10 -10 -53q-38 -170 -53 -291q-24 -193 12 -240
q6 -8 16 -8q4 0 11.5 3.5t36 30.5t64.5 75q53 73 92 139q37 62 57 109q4 10 13.5 15t20.5 1z" />
    <glyph glyph-name="n" unicode="&#xf1;" horiz-adv-x="716" 
d="M748 361q9 -3 15 -14q4 -9 1 -20q-12 -32 -60 -117q0 -1 -2.5 -4.5t-4.5 -6.5q-32 -55 -59 -95q-120 -178 -183 -178q-61 0 -95.5 52t-34.5 145q0 105 49 371q1 6 3.5 19t3.5 20q-239 -316 -470 -732q-8 -21 -33 -21h-5q-20 3 -34 18.5t-14 36.5q0 95 122 448
q110 316 141 372q11 19 33.5 22.5t48.5 -9.5q23 -12 35.5 -31t4.5 -37q-6 -14 -18.5 -42t-15.5 -34q-127 -280 -191 -467q65 111 171 273q56 85 100 146t69.5 92.5t45.5 50t28 22.5t16 4h1h3q26 0 47.5 -18.5t21.5 -46.5q0 -10 -10 -53q-38 -170 -53 -291q-24 -193 12 -240
q6 -8 16 -8q4 0 11.5 3.5t36 30.5t64.5 75q53 73 92 139q37 62 57 109q4 10 13.5 15t20.5 1z" />
    <glyph glyph-name="o" unicode="o" horiz-adv-x="518" 
d="M567 345q5 -10 1 -20.5t-15 -14.5q-48 -20 -138 -20q-64 0 -113 12q-12 -48 -44.5 -115.5t-63.5 -112.5q-65 -92 -123 -92q-52 0 -88 48q-39 51 -39 134q0 76 31 170t91.5 168t129.5 74t100 -56q16 -29 17 -62.5t-15 -59.5q-8 -12 -23 -12q-10 0 -14 3q-7 3 -10 10
q-5 8 -5 16q0 29 -6.5 52t-13.5 23q-20 0 -51 -31.5t-63 -91.5q-68 -130 -68 -238q0 -30 4.5 -49.5t9 -25t7.5 -5.5q6 0 19 10t36.5 38t48.5 68q32 51 53.5 100t23.5 75q2 13 12 20q7 7 18 7h4q11 0 19 -8q44 -17 120 -16t113 17q24 10 35 -15z" />
    <glyph glyph-name="o" unicode="&#xf8;" horiz-adv-x="518" 
d="M567 345q5 -10 1 -20.5t-15 -14.5q-48 -20 -138 -20q-64 0 -113 12q-12 -48 -44.5 -115.5t-63.5 -112.5q-65 -92 -123 -92q-52 0 -88 48q-39 51 -39 134q0 76 31 170t91.5 168t129.5 74t100 -56q16 -29 17 -62.5t-15 -59.5q-8 -12 -23 -12q-10 0 -14 3q-7 3 -10 10
q-5 8 -5 16q0 29 -6.5 52t-13.5 23q-20 0 -51 -31.5t-63 -91.5q-68 -130 -68 -238q0 -30 4.5 -49.5t9 -25t7.5 -5.5q6 0 19 10t36.5 38t48.5 68q32 51 53.5 100t23.5 75q2 13 12 20q7 7 18 7h4q11 0 19 -8q44 -17 120 -16t113 17q24 10 35 -15z" />
    <glyph glyph-name="o" unicode="&#xf6;" horiz-adv-x="518" 
d="M567 345q5 -10 1 -20.5t-15 -14.5q-48 -20 -138 -20q-64 0 -113 12q-12 -48 -44.5 -115.5t-63.5 -112.5q-65 -92 -123 -92q-52 0 -88 48q-39 51 -39 134q0 76 31 170t91.5 168t129.5 74t100 -56q16 -29 17 -62.5t-15 -59.5q-8 -12 -23 -12q-10 0 -14 3q-7 3 -10 10
q-5 8 -5 16q0 29 -6.5 52t-13.5 23q-20 0 -51 -31.5t-63 -91.5q-68 -130 -68 -238q0 -30 4.5 -49.5t9 -25t7.5 -5.5q6 0 19 10t36.5 38t48.5 68q32 51 53.5 100t23.5 75q2 13 12 20q7 7 18 7h4q11 0 19 -8q44 -17 120 -16t113 17q24 10 35 -15z" />
    <glyph glyph-name="o" unicode="&#xf5;" horiz-adv-x="518" 
d="M567 345q5 -10 1 -20.5t-15 -14.5q-48 -20 -138 -20q-64 0 -113 12q-12 -48 -44.5 -115.5t-63.5 -112.5q-65 -92 -123 -92q-52 0 -88 48q-39 51 -39 134q0 76 31 170t91.5 168t129.5 74t100 -56q16 -29 17 -62.5t-15 -59.5q-8 -12 -23 -12q-10 0 -14 3q-7 3 -10 10
q-5 8 -5 16q0 29 -6.5 52t-13.5 23q-20 0 -51 -31.5t-63 -91.5q-68 -130 -68 -238q0 -30 4.5 -49.5t9 -25t7.5 -5.5q6 0 19 10t36.5 38t48.5 68q32 51 53.5 100t23.5 75q2 13 12 20q7 7 18 7h4q11 0 19 -8q44 -17 120 -16t113 17q24 10 35 -15z" />
    <glyph glyph-name="o" unicode="&#xf4;" horiz-adv-x="518" 
d="M567 345q5 -10 1 -20.5t-15 -14.5q-48 -20 -138 -20q-64 0 -113 12q-12 -48 -44.5 -115.5t-63.5 -112.5q-65 -92 -123 -92q-52 0 -88 48q-39 51 -39 134q0 76 31 170t91.5 168t129.5 74t100 -56q16 -29 17 -62.5t-15 -59.5q-8 -12 -23 -12q-10 0 -14 3q-7 3 -10 10
q-5 8 -5 16q0 29 -6.5 52t-13.5 23q-20 0 -51 -31.5t-63 -91.5q-68 -130 -68 -238q0 -30 4.5 -49.5t9 -25t7.5 -5.5q6 0 19 10t36.5 38t48.5 68q32 51 53.5 100t23.5 75q2 13 12 20q7 7 18 7h4q11 0 19 -8q44 -17 120 -16t113 17q24 10 35 -15z" />
    <glyph glyph-name="o" unicode="&#xf3;" horiz-adv-x="518" 
d="M567 345q5 -10 1 -20.5t-15 -14.5q-48 -20 -138 -20q-64 0 -113 12q-12 -48 -44.5 -115.5t-63.5 -112.5q-65 -92 -123 -92q-52 0 -88 48q-39 51 -39 134q0 76 31 170t91.5 168t129.5 74t100 -56q16 -29 17 -62.5t-15 -59.5q-8 -12 -23 -12q-10 0 -14 3q-7 3 -10 10
q-5 8 -5 16q0 29 -6.5 52t-13.5 23q-20 0 -51 -31.5t-63 -91.5q-68 -130 -68 -238q0 -30 4.5 -49.5t9 -25t7.5 -5.5q6 0 19 10t36.5 38t48.5 68q32 51 53.5 100t23.5 75q2 13 12 20q7 7 18 7h4q11 0 19 -8q44 -17 120 -16t113 17q24 10 35 -15z" />
    <glyph glyph-name="o" unicode="&#xf2;" horiz-adv-x="518" 
d="M567 345q5 -10 1 -20.5t-15 -14.5q-48 -20 -138 -20q-64 0 -113 12q-12 -48 -44.5 -115.5t-63.5 -112.5q-65 -92 -123 -92q-52 0 -88 48q-39 51 -39 134q0 76 31 170t91.5 168t129.5 74t100 -56q16 -29 17 -62.5t-15 -59.5q-8 -12 -23 -12q-10 0 -14 3q-7 3 -10 10
q-5 8 -5 16q0 29 -6.5 52t-13.5 23q-20 0 -51 -31.5t-63 -91.5q-68 -130 -68 -238q0 -30 4.5 -49.5t9 -25t7.5 -5.5q6 0 19 10t36.5 38t48.5 68q32 51 53.5 100t23.5 75q2 13 12 20q7 7 18 7h4q11 0 19 -8q44 -17 120 -16t113 17q24 10 35 -15z" />
    <glyph glyph-name="p" unicode="p" horiz-adv-x="698" 
d="M724 361q16 -2 22 -16t-4 -27t-25 -10q-77 10 -153 3q-4 -2 -5 -2q-40 -9 -63 -16q-59 -130 -154 -228.5t-165 -98.5q-41 0 -60 21t-19 50q0 37 30.5 85.5t82.5 93.5q82 71 179 108q49 119 49 224q0 20 -2 30q-40 -4 -114 -92t-172 -267q-195 -356 -397 -914q0 -3 -1 -4
l-12 -42q-10 -34 -37 -34h-4q-27 7 -27 37q0 127 132.5 579.5t289.5 860.5q10 24 35 27q18 3 37.5 -7t31.5 -25q19 -24 7 -50q-78 -168 -244 -667q64 138 101 211q239 468 372 468q50 0 81.5 -43.5t31.5 -113.5q-2 -76 -25 -143q102 15 201 2zM325 196q11 16 22 37
q-88 -47 -133 -101t-45 -96v-2h1q11 0 32.5 15.5t55.5 54.5t67 92z" />
    <glyph glyph-name="q" unicode="q" horiz-adv-x="645" 
d="M685 355q20 -18 3 -37q-52 -62 -140 -124.5t-182 -95.5q43 -77 43 -204q0 -164 -68 -413q-22 -79 -44 -136t-37 -84t-32 -41.5t-24 -16.5t-16 -2q-41 0 -69.5 47t-28.5 165q0 332 134 776q-65 -105 -105.5 -141t-68.5 -36q-50 0 -81.5 47.5t-31.5 123.5q0 101 45 200
t116.5 161.5t144.5 62.5q82 0 115 -48q3 6 8.5 18.5t8.5 18.5l1 1q6 14 9 20q7 14 24.5 17t31.5 -1t26 -9q46 -23 29 -60q-91 -197 -160 -411q56 13 120.5 51.5t96 65t76.5 67.5q4 3 10.5 9t9.5 9q7 7 16 7h2h2q9 0 16 -7zM186 248q73 115 139 245q-7 34 -32 34
q-28 0 -71.5 -33.5t-86.5 -96.5q-46 -66 -71.5 -140.5t-25.5 -139.5q0 -29 5 -37q4 0 14.5 6.5t46.5 48t82 113.5zM349 -112q3 130 -37 185q-126 -426 -126 -724q0 -45 9 -63q42 42 89 210q60 215 65 392z" />
    <glyph glyph-name="r" unicode="r" horiz-adv-x="604" 
d="M607 593q2 -11 -4 -19.5t-16 -10.5q-24 -5 -31 18q-56 4 -140 -53.5t-179 -165.5q-92 -105 -170 -228t-120 -230v-1q-10 -25 -37 -23h-9q-20 3 -32 17t-11 31q11 133 109 430q90 271 126 329q16 23 41 20q21 -1 44.5 -13.5t32.5 -31.5q13 -21 -1 -43q-18 -28 -62.5 -133
t-90.5 -233q73 104 152.5 184t145.5 123t119 62.5t86 13.5q2 0 6 -2t6 -2h1q1 -1 2 -1q27 -10 32 -38z" />
    <glyph glyph-name="s" unicode="s" horiz-adv-x="538" 
d="M588 341q3 -10 -2.5 -19.5t-16.5 -12.5q-51 -16 -108 -41q-1 0 -1 -0.5t-1 -0.5q-36 -14 -50 -21q-68 -31 -160 -82q55 -60 55 -119q0 -50 -51 -97.5t-120 -74.5t-126 -27q-41 0 -72 23t-31 60q0 104 238 242l-21 18q-36 31 -55.5 49.5t-46.5 49.5t-39 63t-12 68
q0 70 55 153t135.5 140t147.5 57q35 -1 64.5 -20.5t44.5 -51.5q40 -88 -59 -201q-18 -20 -37 -3q-4 4 -5 6v1l-1 1q-1 1 -1 2q-5 12 -1 21q42 103 32 132h-1q-24 0 -70 -27.5t-93 -75.5q-49 -49 -77.5 -98t-28.5 -84q0 -23 17 -49.5t35 -43.5t53 -47l27 -24q0 1 2 1q1 0 2 1
q71 38 189 90q20 9 43 19q67 28 115 43q10 3 19.5 -3t12.5 -17zM-22 -81q35 0 92 25t101.5 62.5t44.5 67.5q0 22 -29 54q-213 -131 -213 -206v-3h4z" />
    <glyph glyph-name="t" unicode="t" horiz-adv-x="401" 
d="M1007 1080q15 -25 -4 -47q-12 -15 -31 -8t-17 26q-54 21 -210 25.5t-349 -7.5q-120 -232 -208 -443q-189 -457 -189 -727q0 -44 9 -73t22 -29q83 0 280 369l12 22q63 124 72 155q3 10 12.5 15.5t20.5 2.5q24 -7 19 -32q-7 -27 -76 -164v-1l-1 -2v-1q-24 -49 -68 -128
q-47 -83 -89.5 -142t-69.5 -87t-53.5 -43.5t-36.5 -17.5t-23 -2q-42 0 -70.5 22t-41.5 58.5t-18 69.5t-5 70q0 164 92.5 461.5t259.5 635.5q-319 -29 -545 -80q-3 -1 -9 -1q-16 0 -27 13q-18 21 -10 46q6 17 24 20q264 44 600 67q55 109 127 235q12 21 39.5 22.5t49.5 -12.5
q24 -14 30.5 -34t-3.5 -33q-23 -40 -93 -170q58 2 86 3q451 12 492 -54z" />
    <glyph glyph-name="u" unicode="u" horiz-adv-x="575" 
d="M612 358q23 -14 9 -37q0 -2 -27 -42q-1 -2 -9.5 -14t-14.5 -21q-154 -214 -233 -214q-50 0 -80.5 44.5t-30.5 118.5q0 22 6 62q-2 -5 -8 -13.5t-8 -12.5q-36 -58 -67 -100t-50 -62t-36 -30.5t-23 -12t-14 -1.5q-12 0 -23.5 4t-28 15.5t-27 40t-10.5 70.5q0 97 50.5 239
t78.5 164q28 21 72 -14q25 -20 14 -45q-125 -252 -125 -379q0 -14 1 -21h3q26 11 109 143q54 86 139 237q7 13 17.5 31t16.5 29t10 17q14 28 47 16q18 -6 26 -20.5t3 -28.5q-55 -156 -73 -226.5t-18 -145.5q0 -63 29 -63q20 0 73.5 53t102.5 118q2 4 7.5 11.5t8.5 10.5
q14 19 21 31q2 4 4 6q16 22 22 33q14 23 36 9z" />
    <glyph glyph-name="u" unicode="&#xfc;" horiz-adv-x="575" 
d="M612 358q23 -14 9 -37q0 -2 -27 -42q-1 -2 -9.5 -14t-14.5 -21q-154 -214 -233 -214q-50 0 -80.5 44.5t-30.5 118.5q0 22 6 62q-2 -5 -8 -13.5t-8 -12.5q-36 -58 -67 -100t-50 -62t-36 -30.5t-23 -12t-14 -1.5q-12 0 -23.5 4t-28 15.5t-27 40t-10.5 70.5q0 97 50.5 239
t78.5 164q28 21 72 -14q25 -20 14 -45q-125 -252 -125 -379q0 -14 1 -21h3q26 11 109 143q54 86 139 237q7 13 17.5 31t16.5 29t10 17q14 28 47 16q18 -6 26 -20.5t3 -28.5q-55 -156 -73 -226.5t-18 -145.5q0 -63 29 -63q20 0 73.5 53t102.5 118q2 4 7.5 11.5t8.5 10.5
q14 19 21 31q2 4 4 6q16 22 22 33q14 23 36 9z" />
    <glyph glyph-name="u" unicode="&#xfb;" horiz-adv-x="575" 
d="M612 358q23 -14 9 -37q0 -2 -27 -42q-1 -2 -9.5 -14t-14.5 -21q-154 -214 -233 -214q-50 0 -80.5 44.5t-30.5 118.5q0 22 6 62q-2 -5 -8 -13.5t-8 -12.5q-36 -58 -67 -100t-50 -62t-36 -30.5t-23 -12t-14 -1.5q-12 0 -23.5 4t-28 15.5t-27 40t-10.5 70.5q0 97 50.5 239
t78.5 164q28 21 72 -14q25 -20 14 -45q-125 -252 -125 -379q0 -14 1 -21h3q26 11 109 143q54 86 139 237q7 13 17.5 31t16.5 29t10 17q14 28 47 16q18 -6 26 -20.5t3 -28.5q-55 -156 -73 -226.5t-18 -145.5q0 -63 29 -63q20 0 73.5 53t102.5 118q2 4 7.5 11.5t8.5 10.5
q14 19 21 31q2 4 4 6q16 22 22 33q14 23 36 9z" />
    <glyph glyph-name="u" unicode="&#xfa;" horiz-adv-x="575" 
d="M612 358q23 -14 9 -37q0 -2 -27 -42q-1 -2 -9.5 -14t-14.5 -21q-154 -214 -233 -214q-50 0 -80.5 44.5t-30.5 118.5q0 22 6 62q-2 -5 -8 -13.5t-8 -12.5q-36 -58 -67 -100t-50 -62t-36 -30.5t-23 -12t-14 -1.5q-12 0 -23.5 4t-28 15.5t-27 40t-10.5 70.5q0 97 50.5 239
t78.5 164q28 21 72 -14q25 -20 14 -45q-125 -252 -125 -379q0 -14 1 -21h3q26 11 109 143q54 86 139 237q7 13 17.5 31t16.5 29t10 17q14 28 47 16q18 -6 26 -20.5t3 -28.5q-55 -156 -73 -226.5t-18 -145.5q0 -63 29 -63q20 0 73.5 53t102.5 118q2 4 7.5 11.5t8.5 10.5
q14 19 21 31q2 4 4 6q16 22 22 33q14 23 36 9z" />
    <glyph glyph-name="u" unicode="&#xf9;" horiz-adv-x="575" 
d="M612 358q23 -14 9 -37q0 -2 -27 -42q-1 -2 -9.5 -14t-14.5 -21q-154 -214 -233 -214q-50 0 -80.5 44.5t-30.5 118.5q0 22 6 62q-2 -5 -8 -13.5t-8 -12.5q-36 -58 -67 -100t-50 -62t-36 -30.5t-23 -12t-14 -1.5q-12 0 -23.5 4t-28 15.5t-27 40t-10.5 70.5q0 97 50.5 239
t78.5 164q28 21 72 -14q25 -20 14 -45q-125 -252 -125 -379q0 -14 1 -21h3q26 11 109 143q54 86 139 237q7 13 17.5 31t16.5 29t10 17q14 28 47 16q18 -6 26 -20.5t3 -28.5q-55 -156 -73 -226.5t-18 -145.5q0 -63 29 -63q20 0 73.5 53t102.5 118q2 4 7.5 11.5t8.5 10.5
q14 19 21 31q2 4 4 6q16 22 22 33q14 23 36 9z" />
    <glyph glyph-name="v" unicode="v" horiz-adv-x="563" 
d="M450 606q30 -54 -18 -184q-55 -150 -161 -293q-85 -115 -153 -148q-17 -9 -37 -11q-1 0 -4 -0.5t-4 -0.5q-58 0 -90.5 66.5t-32.5 142.5q0 133 38 264.5t66 152.5t72 -14q24 -20 14 -44q-48 -97 -70.5 -202t-22.5 -187q0 -56 9.5 -89.5t21.5 -35.5q10 1 20 8
q54 33 131 139q82 113 135.5 233.5t37.5 177.5q0 2 -2 2q-8 8 -8.5 19t6.5 19q8 8 19 8.5t19 -6.5t14 -17z" />
    <glyph glyph-name="w" unicode="w" horiz-adv-x="862" 
d="M716 632q36 -107 -31 -310q-60 -186 -161 -326q-93 -128 -171 -130q-1 0 -4 -0.5t-4 -0.5q-46 0 -75 39q-54 69 -37 242q-15 -27 -38 -60q-81 -120 -135 -120q-31 0 -53.5 21t-34 54t-17 65t-5.5 62q0 165 60 323q20 52 45 96t43 53q25 10 47.5 4t38.5 -22q22 -23 12 -45
q-49 -99 -73.5 -155t-48 -141.5t-23.5 -161.5q0 -70 13 -83q7 2 19.5 15.5t33.5 46t31.5 48.5t38.5 61q41 68 79 126q7 14 20 18q25 5 41 -13q19 -15 14 -38q-30 -125 -32.5 -230.5t23.5 -139.5q7 -10 18 -10q46 6 119 109q99 138 160.5 322t29.5 279q-4 10 1 20t16 14
q10 4 20 -1t14 -16q0 -2 1 -4t1 -4q2 -3 4 -7z" />
    <glyph glyph-name="x" unicode="x" horiz-adv-x="589" 
d="M627 358q22 -13 9 -37q-6 -11 -21 -33l-1 -2q-66 -100 -141 -185q-161 -182 -279 -182q-84 -2 -134 63q-52 63 -69 188q-151 -170 -152 -235q1 -1 2 -3.5t1 -3.5q9 -14 1 -27q-9 -14 -23 -14q-16 0 -24 13q-9 16 -10 28v4q-6 53 49 143q49 80 149 194v62q3 130 28 268
q3 18 23 23q19 6 49.5 -6t48.5 -30q28 -28 17 -57q-17 -53 -30 -114q144 145 208 192q24 16 45.5 14t31.5 -17q9 -12 6 -24q-3 -13 -14 -21q-36 -26 -122.5 -104.5t-173.5 -166.5q-15 -196 45 -278q20 -29 49 -29q82 0 222 146q85 91 153 190l1 1q5 7 11.5 18.5t7.5 12.5
q13 22 37 9z" />
    <glyph glyph-name="y" unicode="y" horiz-adv-x="643" 
d="M690 344q5 -10 2.5 -20.5t-12.5 -15.5q-145 -84 -285 -196q-1 0 -1 -1l-2 -1h-1q-5 -3 -14 -10.5t-13 -11.5q-66 -195 -152 -377q-104 -220 -212 -363q-125 -164 -223 -164q-31 0 -51 23.5t-20 58.5q0 96 78 239.5t220 306.5q112 128 247 249q70 203 108 416v4
q-44 -33 -169 -211q-85 -119 -121 -160t-61 -41q-66 0 -66 112q0 106 51.5 234.5t85.5 151.5q19 10 40 3t37 -24q28 -28 11 -53q-74 -111 -127 -302q18 23 72 98q109 151 166 215.5t96 64.5q28 0 50 -31.5t22 -81.5q0 -93 -53 -276q122 95 260 174q10 5 21 2.5t16 -12.5z
M87 -340q69 142 124 290q-93 -92 -177 -191q-258 -307 -258 -485q0 -9 2 -29q49 3 131 111q81 106 178 304z" />
    <glyph glyph-name="y" unicode="&#xff;" horiz-adv-x="643" 
d="M690 344q5 -10 2.5 -20.5t-12.5 -15.5q-145 -84 -285 -196q-1 0 -1 -1l-2 -1h-1q-5 -3 -14 -10.5t-13 -11.5q-66 -195 -152 -377q-104 -220 -212 -363q-125 -164 -223 -164q-31 0 -51 23.5t-20 58.5q0 96 78 239.5t220 306.5q112 128 247 249q70 203 108 416v4
q-44 -33 -169 -211q-85 -119 -121 -160t-61 -41q-66 0 -66 112q0 106 51.5 234.5t85.5 151.5q19 10 40 3t37 -24q28 -28 11 -53q-74 -111 -127 -302q18 23 72 98q109 151 166 215.5t96 64.5q28 0 50 -31.5t22 -81.5q0 -93 -53 -276q122 95 260 174q10 5 21 2.5t16 -12.5z
M87 -340q69 142 124 290q-93 -92 -177 -191q-258 -307 -258 -485q0 -9 2 -29q49 3 131 111q81 106 178 304z" />
    <glyph glyph-name="y" unicode="&#xfd;" horiz-adv-x="643" 
d="M690 344q5 -10 2.5 -20.5t-12.5 -15.5q-145 -84 -285 -196q-1 0 -1 -1l-2 -1h-1q-5 -3 -14 -10.5t-13 -11.5q-66 -195 -152 -377q-104 -220 -212 -363q-125 -164 -223 -164q-31 0 -51 23.5t-20 58.5q0 96 78 239.5t220 306.5q112 128 247 249q70 203 108 416v4
q-44 -33 -169 -211q-85 -119 -121 -160t-61 -41q-66 0 -66 112q0 106 51.5 234.5t85.5 151.5q19 10 40 3t37 -24q28 -28 11 -53q-74 -111 -127 -302q18 23 72 98q109 151 166 215.5t96 64.5q28 0 50 -31.5t22 -81.5q0 -93 -53 -276q122 95 260 174q10 5 21 2.5t16 -12.5z
M87 -340q69 142 124 290q-93 -92 -177 -191q-258 -307 -258 -485q0 -9 2 -29q49 3 131 111q81 106 178 304z" />
    <glyph glyph-name="z" unicode="z" horiz-adv-x="622" 
d="M669 348q5 -10 2 -21t-13 -16q-174 -95 -334 -229q-50 -45 -107 -102q29 -71 28 -146q0 -75 -40 -180.5t-108 -207.5q-23 -35 -49.5 -68t-66.5 -74.5t-87 -67t-90 -25.5q-37 0 -57.5 22t-20.5 63q0 124 112 312.5t297 373.5q-5 22 -24 42q-10 10 -23 9q-9 0 -13 1
q-1 0 -3.5 -0.5t-3.5 -0.5q-25 0 -38 21q-7 10 -5 23t12 21q1 0 2 1l2 2q85 67 166 157q137 157 137 279q0 16 -3 23t-6.5 8t-14.5 1q-44 0 -87 -21.5t-73 -52t-53.5 -64.5t-35.5 -58.5t-13 -33.5q-2 -18 -20 -23q-19 -5 -30 11q-19 27 20 101q17 33 43 66.5t61.5 67
t81.5 54.5t92 21q54 0 94 -38t40 -109q0 -70 -48.5 -154t-111 -148t-128.5 -111q18 -17 36 -43q52 49 116 102q15 13 44 35q138 109 285 188q10 5 20.5 2t15.5 -13zM-202 -722q43 0 105 61.5t116 149.5t92.5 195.5t38.5 191.5q0 22 -1 33q-61 -68 -110 -129
q-243 -302 -243 -483q0 -7 2 -19z" />
    <glyph glyph-name="braceleft" unicode="{" horiz-adv-x="1042" 
d="M921 1478q11 -4 16 -14t1 -20q-4 -11 -14 -16t-20 -1q-2 1 -5 1q-22 0 -41.5 -8.5t-34.5 -20t-31.5 -35.5t-27 -42t-26 -54t-24 -56.5t-24.5 -63.5q-21 -56 -33 -85.5t-35 -80.5t-44 -82.5t-49.5 -69t-63 -64.5t-74.5 -45q38 -38 36 -91q0 -48 -22 -121t-42.5 -120.5
t-64.5 -145.5q-71 -157 -88 -215q-23 -74 -8 -97q25 -2 45 7q11 4 20.5 -1t13.5 -15q4 -11 -1 -20.5t-15 -13.5q-28 -11 -56 -11q-13 0 -25 3q-23 5 -36 15q-46 32 -46 99q0 36 18 96.5t35 102t55 131.5q17 39 26.5 62t24.5 61.5t23.5 63t18.5 56.5t13.5 53.5t4 41.5
t-5.5 32q-6 13 -19 16q-10 3 -15.5 12.5t-2.5 20.5q2 8 8 13q4 7 14 10q31 9 59.5 28t54.5 50.5t45 60t42.5 76.5t37 78t36.5 85q16 37 24.5 57t24 54.5t26.5 54t27.5 47.5t30.5 44t32.5 35.5t36.5 28.5t39 16.5t44.5 7t48.5 -7.5h2q1 -1 4.5 -2t5.5 -1z" />
    <glyph glyph-name="verticalbar" unicode="|" horiz-adv-x="856" 
d="M708 1364q28 -13 39.5 -34t2.5 -41q-29 -62 -93 -196q-298 -614 -480 -1081q-10 -26 -37 -26q-1 0 -3.5 0.5t-3.5 0.5q-14 3 -23 14.5t-8 25.5q0 98 172.5 532t353.5 791q10 19 32 23t48 -9z" />
    <glyph glyph-name="braceright" unicode="}" horiz-adv-x="1042" 
d="M939 1351q0 -36 -17.5 -95.5t-35.5 -104t-54 -130.5q-17 -39 -26.5 -62t-24.5 -61.5t-23.5 -63t-18.5 -56.5t-13.5 -53.5t-4 -41.5t5.5 -32q6 -13 19 -16q10 -3 15.5 -12.5t2.5 -20.5q-7 -16 -23 -23q-27 -8 -52.5 -25t-45.5 -36t-42.5 -51.5t-36.5 -57t-34.5 -68
t-31.5 -68t-31 -72.5q-20 -47 -31.5 -73.5t-32 -68.5t-36 -66t-38 -53.5t-43.5 -45t-48 -26.5t-56 -11q-27 0 -49 7h-2q-2 0 -5.5 1t-4.5 2q-11 4 -16 14t-1 20q4 11 14 16t20 1q2 -1 4 -1q22 0 41.5 8.5t35 20t32 35t27 42.5t26 54t24 56.5t24.5 63.5q21 55 33 85t35 80.5
t44 82.5t49.5 69t63 64t74.5 45q-39 39 -37 92q0 48 22 121t42.5 120.5t64.5 145.5q74 163 89 215q23 74 8 97q-25 2 -45 -7q-11 -4 -20.5 1t-13.5 15q-4 11 1 20.5t15 13.5q48 16 83 8q18 -5 33 -15q46 -32 46 -99z" />
    <glyph glyph-name="asciitilde" unicode="~" horiz-adv-x="731" 
d="M629 658q1 -6 -2 -13q-16 -38 -67 -78t-99 -40q-43 0 -79 19.5t-51 37t-38 49.5q-28 41 -38 41q-15 0 -46 -25.5t-54 -53.5q-11 -12 -26 -9q-6 0 -12 3q-10 5 -13 16q-3 10 2 20l1 2q55 91 119 114q17 6 34 6q26 0 46.5 -8t36 -25t24 -29t20.5 -34q20 -35 34.5 -49.5
t38.5 -14.5q30 0 69.5 30.5t48.5 53.5q8 21 31 16q10 -2 15.5 -10.5t4.5 -18.5z" />
    <glyph glyph-name="nonbreakingspace" unicode="&#xa0;" horiz-adv-x="481" 
 />
    <glyph glyph-name="exclamdown" unicode="&#xa1;" horiz-adv-x="843" 
d="M679 1413q25 -1 42 -19t16 -43q0 -43 -39 -58q-40 -15 -68 15q-29 31 -11 69q19 39 60 36zM679 1343q5 0 5 8t-5 8q-4 0 -4 -8t4 -8zM650 1254q15 -3 24.5 -15t8.5 -27q0 -135 -138.5 -497.5t-299.5 -703.5q-8 -20 -36 -22h-6q-23 0 -49.5 11t-39.5 29q-15 23 -3 45
q15 30 53 102q57 108 92 178.5t98.5 208t127 304.5t126.5 361q4 13 16 20.5t26 5.5z" />
    <glyph glyph-name="cent" unicode="&#xa2;" horiz-adv-x="1064" 
d="M941 1355q18 -15 20 -34t-8 -30l-6 -8q-6 -8 -16.5 -22.5t-25 -34.5t-34 -47.5t-40.5 -58t-47.5 -70t-53.5 -79.5v-1h1q55 -94 -27 -240q-5 -10 -15.5 -13t-20.5 2q-19 14 -14 37q20 65 12 118q-157 -245 -298 -504q22 -22 59 -22q72 0 161 70q1 2 4 4t5 3q11 11 27 6
q15 -5 18 -21t-9 -25q-3 -3 -11 -9v0q-109 -87 -193 -87q-49 0 -93 21q-98 -185 -165 -331q-11 -21 -32 -21l-12 3q-13 4 -20 15.5t-4 24.5q27 106 161 372q-41 59 -41 149q0 114 51 234.5t139.5 203t182.5 82.5q17 0 35 -3q146 243 213 320q21 19 49 16t48 -20zM337 514
q110 209 221 401q-77 -51 -144.5 -174.5t-76.5 -226.5z" />
    <glyph glyph-name="sterling" unicode="&#xa3;" horiz-adv-x="1032" 
d="M789 1382q62 0 101.5 -40.5t39.5 -91.5q0 -48 -26.5 -101.5t-41.5 -65.5q-16 -12 -30 2q-16 14 -4 31q40 64 40 133q0 50 -31 50q-35 0 -76 -49t-85.5 -140t-83 -184.5t-83.5 -216.5q42 -2 48 -8q13 -12 7 -28q-5 -16 -21 -16q-24 0 -53 -1q-8 -21 -23 -64t-23 -64
q-78 -219 -120.5 -324t-74.5 -139q45 -1 127 -9q105 -12 210 -12q143 0 155 47q0 1 1 3v2q8 17 24 12q11 -2 20 -12.5t9 -29.5q0 -8 -5 -18.5t-20 -23.5t-37 -24t-60.5 -18t-86.5 -7q-41 0 -149 8q-122 10 -186 10q-43 0 -87 -6q-15 -3 -30 -3q-21 0 -29 25q-10 28 8 42
q2 2 8 4l1 1q0 2 1 2q29 28 65 111.5t60.5 157t69.5 218.5q4 12 16 49.5t18 57.5h-40q-22 0 -27 20q-6 19 12 32q7 4 60 6q3 0 7.5 0.5t6.5 0.5q31 95 57.5 169.5t60 155.5t66.5 139.5t70.5 107.5t79 74t84.5 25z" />
    <glyph glyph-name="currency" unicode="&#xa4;" horiz-adv-x="892" 
d="M770 1030q10 -6 17 -19.5t1 -27.5q-6 -15 -94 -111q5 -25 5 -60q0 -180 -93 -352q-32 -60 -74 -107q38 -74 41 -101q3 -21 -17 -30q-4 -2 -11 -2q-16 2 -26 13l-1 1q-19 16 -40 72q-58 -42 -129 -28q-70 14 -108 76q-75 -86 -82 -97q-8 -16 -26 -16q-7 0 -13 3
q-11 5 -16 17q-4 10 1 23q4 10 103 123l5 6q-19 65 -18 132q0 129 39.5 233t99.5 170q-31 85 -31 96q-1 11 7 19.5t19 9.5q14 2 30.5 -7.5t19.5 -25.5q0 -1 1.5 -7.5t3.5 -15.5t4 -15q0 -1 0.5 -2.5t0.5 -2.5q43 29 77 29q33 -2 58 -14h1q1 1 2 1q58 12 104 -26
q19 -17 33 -39q21 18 63 72l3.5 3.5t3.5 4.5q16 16 36 2zM389 337q21 0 52 24.5t65 70.5t63.5 103t48.5 130t19 143q0 36 -12 78t-34 61q-19 15 -39 11q-4 -9 -15 -14q-75 -34 -146 -172t-71 -268q0 -79 18.5 -123t50.5 -44z" />
    <glyph glyph-name="yen" unicode="&#xa5;" horiz-adv-x="1040" 
d="M926 1367q23 -14 9 -37q-114 -183 -290 -421q-142 -193 -226 -273l33 -1q27 -2 34 -29q5 -23 -18 -34q-10 -5 -67 -4q-7 0 -24 0.5t-27 0.5q-4 -11 -12 -41q31 -1 56 -1q34 -3 34 -29q0 -11 -7.5 -19.5t-18.5 -9.5q-7 -1 -82 -3q-41 -143 -97 -331q-32 -105 -33 -111
q-11 -41 -46 -41q-1 0 -2.5 0.5t-2.5 0.5q-15 2 -26 15t-11 38q0 64 99 427q-9 0 -20 -0.5t-12 -0.5h-6q-27 0 -38 17q-11 14 -2 32q9 19 31 19q31 0 65 -1l9 36q-2 0 -49 -6h-6q-21 0 -34 18q-16 21 -6 45q8 18 29 20q2 0 10.5 -0.5t26 -1t33.5 -0.5q-27 59 -31 170.5
t10 224t28 194t23 114.5q5 19 23 22q16 5 42 -2.5t41 -22.5q19 -19 13 -45q-32 -112 -56 -346q-26 -244 2 -295q44 13 173 178q91 116 255 349q109 157 132 183q7 8 18 9t19 -6h1z" />
    <glyph glyph-name="section" unicode="&#xa7;" horiz-adv-x="1060" 
d="M950 1263q33 -73 -43 -159q-18 -18 -38 -4q-20 13 -13 36q43 76 28 101q-16 29 -110 29q-116 0 -214.5 -82.5t-98.5 -180.5q0 -42 27 -85.5t56.5 -70.5t85.5 -72q44 -35 67 -56t53.5 -54.5t44.5 -68t14 -71.5q0 -59 -43 -109.5t-106 -78.5q41 -61 41 -136
q0 -89 -86.5 -155.5t-236.5 -66.5q-22 0 -48.5 2.5t-71 11t-82.5 29.5t-57 53q-37 60 7 145q6 10 13 12q15 10 30 -1t10 -29q-19 -70 5 -102q32 -42 147 -42q128 0 202 54t74 127q0 23 -23.5 53.5t-47 50.5t-72.5 59q-41 32 -63 51t-56.5 53t-52.5 61t-32 64t-14 74
q0 65 35.5 127.5t88.5 107.5q-19 48 -19 94q0 130 114 227.5t266 97.5q82 0 140.5 -25.5t78.5 -70.5zM556 743q-84 63 -118 98q-38 -35 -61.5 -85t-23.5 -95q0 -27 10.5 -50.5t35.5 -48t44 -39.5t58 -42q59 -41 90 -68q51 24 85 60.5t34 78.5q0 27 -11.5 52t-37.5 51
t-46.5 42.5t-58.5 45.5z" />
    <glyph glyph-name="copyright" unicode="&#xa9;" horiz-adv-x="1103" 
d="M676 1249q81 0 145 -36.5t102.5 -97.5t58.5 -133.5t20 -150.5q0 -125 -45 -257t-125 -239q-85 -115 -190.5 -177.5t-214.5 -62.5q-3 0 -8.5 0.5t-8.5 0.5q-168 8 -249 167q-59 115 -59 263q0 122 45 250.5t125 235.5q85 113 190.5 175t213.5 62zM789 367
q75 100 117 223.5t42 240.5q0 148 -66 250q-74 115 -206 115q-80 0 -166.5 -53t-160.5 -148q-166 -216 -168 -485q0 -152 67 -255q68 -106 179 -106q95 0 190 57t172 161zM635 1000q36 0 65.5 -16.5t44.5 -45.5q26 -45 -4 -90q-2 -3 -8 -7q-15 -10 -30 0q-14 10 -11 28
q5 28 -5 41q-3 5 -11 5q-57 0 -118 -72.5t-99 -168t-38 -166.5q0 -89 50 -89q31 0 78.5 33t79.5 72q3 5 8.5 13t7.5 10q6 9 17 11.5t20 -3.5t11.5 -17.5t-3.5 -20.5q-1 -2 -4 -5l-15 -21q-100 -130 -194 -130q-74 0 -121.5 62t-47.5 160q0 93 50 191t127 162t150 64z" />
    <glyph glyph-name="softhyphen" unicode="&#xad;" 
 />
    <glyph glyph-name="registered" unicode="&#xae;" horiz-adv-x="1103" 
d="M676 1249q81 0 145 -36.5t102.5 -97.5t58.5 -133.5t20 -150.5q0 -125 -45 -257t-125 -239q-85 -115 -191 -177.5t-214 -62.5q-3 0 -8.5 0.5t-8.5 0.5q-168 8 -249 167q-59 115 -59 263q0 122 45 250.5t125 235.5q85 113 190.5 175t213.5 62zM427 149q95 0 190 57t172 161
q75 100 117 223.5t42 240.5q0 148 -66 250q-74 115 -206 115q-80 0 -166.5 -53t-160.5 -148q-166 -216 -168 -485q0 -154 66 -255q68 -106 180 -106zM636 1058q64 0 115 -51q48 -48 48 -101q0 -77 -89 -167t-208 -114q7 -24 15 -40.5t23 -34.5t40.5 -28.5t60.5 -12.5
q51 2 89 35q11 11 27 6q15 -5 18 -20q4 -16 -8 -26q-57 -51 -132 -49q-31 0 -56 7q-84 21 -134 93q-20 -56 -36 -110q-9 -32 -34 -32h-5q-14 2 -22.5 14.5t-8.5 30.5q0 78 43 207t96 246q-48 -43 -86 -98t-52 -101q-9 -30 -34 -27q-25 4 -25 44q0 34 29.5 89t75.5 106
q121 134 250 134zM600 746q51 40 79.5 86.5t28.5 87.5q0 36 -16 50.5t-57 14.5q-48 -2 -88 -25q36 -12 49 -39q10 -18 -2 -34q-39 -51 -100 -200q60 21 106 59z" />
    <glyph glyph-name="plusminus" unicode="&#xb1;" horiz-adv-x="745" 
d="M606 792q37 -2 37 -31q0 -26 -35 -26h-16q-81 3 -151 3q-33 -90 -58 -169q-12 -39 -45 -39q-1 0 -3 0.5t-3 0.5q-13 2 -22.5 12.5t-9.5 29.5q0 55 25 162q-61 -3 -125 -9h-3q-13 0 -23 9.5t-11 24.5q-1 16 6.5 26t19.5 12q34 4 152 2q39 147 64 193q19 35 72 16
q26 -9 42 -26.5t12 -38.5q-3 -11 -9 -20q-30 -55 -58 -127q64 -2 97 -3q11 0 22 -0.5t16.5 -1t6.5 -0.5zM459 498q18 -1 26 -10.5t7 -20.5q0 -4 -1.5 -9t-9.5 -11t-22 -6h-10q-148 6 -308 -13h-4q-13 0 -22.5 10t-11.5 23t5 22q8 11 19 12q34 5 165 5q155 0 167 -2z" />
    <glyph glyph-name="acute" unicode="&#xb4;" horiz-adv-x="399" 
d="M293 1395q11 -24 -8 -49q-12 -16 -47 -72q-44 -71 -54 -84q-14 -16 -32 -14q-13 0 -29 7q-13 7 -18 20.5t0 26.5q9 25 43 91.5t51 93.5q12 16 34 15q46 -3 60 -35z" />
    <glyph glyph-name="paragraph" unicode="&#xb6;" horiz-adv-x="1261" 
d="M1122 1391q19 -3 28.5 -14t8.5 -24q-1 -15 -12.5 -25t-28.5 -12q-12 0 -51 -1q-58 0 -94 -1q-6 -17 -30.5 -80.5t-71 -183t-81.5 -209.5q-311 -803 -321 -834q-11 -32 -46 -34q-6 0 -9 1q-22 6 -22 30q0 8 1 11q117 447 453 1296q-117 -4 -158 -7q-7 -17 -41 -104
q-381 -980 -443 -1193q-12 -33 -46 -35q-3 0 -9 2q-23 7 -23 31q0 7 1 10q94 365 201 692q-2 0 -7 -0.5t-8 -0.5q-58 0 -107 35q-47 33 -75.5 89t-28.5 116q0 75 43.5 153t119.5 140q186 153 481 153h66q290 2 310 -1z" />
    <glyph glyph-name="questiondown" unicode="&#xbf;" horiz-adv-x="993" 
d="M829 1428q25 -1 42 -19t16 -43q0 -42 -39 -57q-40 -15 -68 15q-29 31 -11 69t60 35zM814 1267q13 -5 21 -17.5t4 -26.5q-21 -80 -56 -159t-67.5 -136.5t-85.5 -130.5t-84.5 -112t-90.5 -109q-61 -72 -92 -112t-70 -98t-55.5 -107.5t-16.5 -97.5q0 -65 26 -91
q22 -22 76 -22h3q68 0 145.5 41.5t140.5 111.5q42 47 65 95t21 85q-6 9 -3.5 20t11.5 17t20 3.5t17 -11.5q5 -7 5 -8l1 -1q35 -71 -22 -176q-55 -101 -168 -179t-233 -78q-89 0 -154.5 64t-65.5 152q0 46 13.5 92.5t30.5 81t55 85t62.5 79t77.5 88.5q70 79 109.5 126
t104 133t118 180t98.5 201q5 11 16.5 16t22.5 1z" />
    <glyph glyph-name="multiply" unicode="&#xd7;" horiz-adv-x="696" 
d="M471 925q20 13 54 -3t55 -45t9 -50q-11 -19 -107.5 -84t-125.5 -93q56 -93 84 -127q9 -20 -5.5 -36t-31.5 -5q-13 9 -48 47.5t-59 71.5q-29 -22 -56.5 -45.5t-50 -44.5t-23.5 -22q-19 -17 -38 -10t-23.5 25t3.5 32l2 3q2 3 6.5 9.5t11 15t17 22t22.5 29.5t30 37.5
t38 44.5q-60 114 -63 170q-1 18 14 29.5t35 9t31 -20.5q6 -10 21 -61t26 -68q27 26 68 67.5t68 68.5t36 33z" />
    <glyph glyph-name="divide" unicode="&#xf7;" horiz-adv-x="614" 
d="M483 656q28 -3 28 -29q-1 -26 -37 -26q-8 0 -21 1q-191 8 -315 3q-16 -1 -25.5 7.5t-10.5 19.5t6.5 19t18.5 10q64 5 196 1.5t160 -6.5zM338 721q-25 1 -42 19t-16 43q0 42 39 57q40 15 68 -15q29 -31 11 -68q-19 -39 -60 -36zM264 519q25 -1 42 -19t16 -43
q0 -42 -39 -57q-40 -15 -68 15q-29 31 -11 68q19 39 60 36z" />
    <glyph glyph-name="mugreek" unicode="&#x3bc;" horiz-adv-x="604" 
d="M641 381q10 -7 13 -16q3 -10 -4 -20q0 -2 -27 -42q-1 -2 -5.5 -8.5t-9.5 -13t-10 -13.5q-154 -214 -232 -214q-50 0 -80.5 44.5t-30.5 118.5q0 22 6 62q-2 -5 -7.5 -14t-8.5 -13q-36 -58 -67.5 -100t-50 -61.5t-35.5 -30.5t-23 -12t-14 -1q-47 0 -69 39q-8 -22 -16 -50
q-7 -23 -32 -23q-8 0 -11 1q-13 4 -19.5 16.5t-1.5 26.5q26 82 66 188q15 98 57.5 207.5t65.5 126.5q28 21 72 -14q24 -20 14 -44q-125 -252 -125 -379q0 -14 1 -21q1 0 3 -1q25 11 109 144q54 86 139 237q7 13 17.5 31t16.5 29t10 17q14 28 47 16q18 -6 26 -20.5t3 -28.5
q-55 -156 -73 -226.5t-18 -145.5q0 -64 29 -64q20 0 73.5 53t102.5 118q4 4 9.5 13t6.5 10q14 19 21 31q1 2 4 5q16 22 22 33q14 23 36 9z" />
    <glyph glyph-name="quoteright" unicode="&#x2019;" horiz-adv-x="409" 
d="M291 1394q14 -14 15.5 -33t-11.5 -34q-21 -26 -55.5 -81.5t-43.5 -80.5q-12 -29 -42 -27h-10q-18 3 -30.5 17.5t-11.5 32.5q0 27 39.5 115t62.5 106q18 13 44 7.5t43 -22.5z" />
    <glyph glyph-name="quotedblright" unicode="&#x201d;" horiz-adv-x="579" 
d="M462 1400q13 -13 14 -31t-11 -34q-15 -20 -47 -79.5t-43 -89.5q-12 -29 -42 -27q-6 0 -9 1q-18 3 -29.5 17.5t-10.5 32.5q0 26 33.5 114.5t58.5 107.5q18 13 44 8.5t42 -20.5zM279 1391q12 -12 12 -30q0 -17 -11 -31q-18 -23 -47 -71.5t-39 -75.5q-12 -29 -43 -27
q-8 0 -12 1q-18 4 -28.5 19t-7.5 33q5 30 31 99q33 92 50 103q18 11 48.5 4.5t46.5 -24.5z" />
    <glyph glyph-name="perthousand" unicode="&#x2030;" horiz-adv-x="1335" 
d="M1154 438q79 -27 79 -129q0 -66 -31 -140.5t-82.5 -126t-103.5 -51.5q-51 0 -89 49q-37 51 -37 126q0 99 58 199q61 104 128 104q30 0 46 -26q20 0 32 -5zM1009 53q13 0 37.5 21.5t51.5 56t46.5 87t19.5 105.5q0 42 -22 61q-1 1 -7 4h-3t-3 1q-1 0 -3 1q-5 -8 -13 -11
q-41 -19 -83.5 -99t-42.5 -160q0 -67 22 -67zM1028 1236q0 -43 -29 -104t-95 -151.5t-121 -160t-158 -194.5q-90 -110 -140 -172t-119.5 -153t-114 -161.5t-70.5 -129.5q-13 -29 -38 -29q-8 0 -11 1q-15 5 -23.5 21t-5.5 30q11 52 48 121.5t111 170.5t123 163.5t152 190.5
q95 118 147.5 185t119.5 159t98 153t31 98q0 16 -8 19q-35 16 -144.5 -33t-161.5 -88q10 -51 -20 -121q-33 -79 -90 -140q-67 -71 -126 -71q-44 0 -77.5 39t-33.5 105q0 108 63.5 199.5t139.5 91.5q22 0 40.5 -15t22.5 -33q2 -4 2 -6q1 -11 -6 -19t-18 -10q-23 -3 -59 -39
t-65 -91.5t-29 -102.5q0 -43 7 -50h2q20 0 56 32t71 86q32 50 44.5 92t4.5 59q-3 6 -3 12q-1 9 3 16q2 4 8 10q90 65 186 106.5t157 41.5q60 0 94.5 -38t34.5 -90zM771 437q79 -27 79 -129q0 -66 -31 -140.5t-82.5 -126t-103.5 -51.5q-51 0 -89 49q-37 49 -37 126
q0 101 57 199q61 104 129 104q30 0 46 -25q17 0 32 -6zM626 52q13 0 37.5 21.5t51.5 56t46.5 87.5t19.5 106q0 41 -22 60q-1 1 -7 4q-1 1 -3 1t-3 1h-3q-5 -8 -13 -11q-41 -19 -83.5 -99t-42.5 -160q0 -67 22 -67z" />
    <glyph glyph-name="Euro" unicode="&#x20ac;" horiz-adv-x="950" 
d="M832 1309q15 -29 15 -60t-15 -53q-6 -9 -17 -11t-20 4l-1 1q-13 6 -15 23q-3 76 -29 76q-50 0 -129.5 -90.5t-160.5 -261.5q-33 -70 -63 -146q53 2 61 -3q18 -7 20 -26q0 -19 -19 -28q-10 -5 -87 -14q-3 -9 -12.5 -38t-14.5 -44q37 2 61 2q27 0 29 -27q0 -27 -28 -31
q-5 -1 -16 -2t-29.5 -2.5t-33.5 -3.5q-45 -178 -45 -324q0 -122 33 -184q22 -39 49 -39q21 0 60 27t62 52q1 0 1 1t1 2q9 14 23 14t23 -14q8 -13 0 -27q-4 -8 -7 -11v0q-26 -34 -74 -68.5t-88 -34.5q-93 0 -151.5 94.5t-58.5 244.5q0 105 36 255q-38 -4 -40 -4h-6
q-27 0 -38 17q-11 14 -2 32q10 19 30 19l14 1q27 1 59 3q7 25 23 77q-28 -3 -32 -3h-6q-24 -2 -39 18q-11 18 -2 36q10 17 30 19q6 0 13 1q51 4 62 5q37 100 73 178q48 104 97.5 182.5t88.5 122t78.5 70t66 34.5t50.5 8q84 0 120 -69z" />
    <glyph glyph-name="trademark" unicode="&#x2122;" horiz-adv-x="985" 
d="M848 1431q24 -12 31.5 -28.5t1.5 -31.5l-6 -12q-6 -12 -15 -31t-21 -44t-24.5 -51t-25.5 -52l-23.5 -47t-19 -36t-11.5 -19q-13 -19 -36 -19q-7 0 -14 3q-30 12 -30 45q0 13 49 148q-42 -38 -60 -46q-10 -4 -17 -4q-10 0 -22 7q-20 12 -26 53q-70 -139 -80 -152
q-12 -18 -36 -18q-9 0 -14 2q-14 5 -22.5 17.5t-7.5 27.5q0 13 46 140q48 132 56 145q22 36 69 15q17 -8 29 -23q13 -9 16.5 -28t5.5 -62q0 -11 2 -39q70 64 127 131q25 35 78 9zM449 1440q-1 -11 -9.5 -19t-19.5 -8q-41 -1 -79 -3q-9 -36 -130 -277q-12 -20 -33 -20
q-6 0 -9 1q-30 8 -30 40q0 36 24.5 114.5t49.5 133.5q-16 -1 -35 -3.5t-21 -2.5q-12 -2 -18 -2h-3q-15 1 -24.5 13.5t-9.5 27.5q0 13 10 23t23 10q20 0 38 1q212 6 250 1q11 -1 19 -10t7 -20z" />
    </font>
</defs>
</svg>
