<?xml version="1.0" standalone="no"?>
<!DOCTYPE svg PUBLIC "-//W3C//DTD SVG 1.1//EN" "http://www.w3.org/Graphics/SVG/1.1/DTD/svg11.dtd" >
<svg xmlns="http://www.w3.org/2000/svg" xmlns:xlink="http://www.w3.org/1999/xlink" version="1.1">
<metadata>
Created by FontForge 20170731 at Sat Dec  3 16:44:09 2022
 By Aleksey,,,
(c)2021, Graphix Line Studio
</metadata>
<defs>
<font id="CatLadyRegular" horiz-adv-x="0" >
  <font-face 
    font-family="Cat Lady"
    font-weight="400"
    font-stretch="normal"
    units-per-em="2048"
    panose-1="0 0 0 0 0 0 0 0 0 0"
    ascent="1638"
    descent="-410"
    x-height="491"
    cap-height="1009"
    bbox="-331.316 -854 1141.63 1434"
    underline-thickness="102"
    underline-position="-307"
    unicode-range="U+000A-F000"
  />
<missing-glyph horiz-adv-x="1079" 
d="M102 1434h875v-1434h-875v1434zM160 1393l379 -633l381 633h-760zM514 717l-369 614v-1231zM541 674l-379 -631h758zM565 717l371 -621v1239z" />
    <glyph glyph-name="tt.liga" unicode="tt" horiz-adv-x="962" 
d="M910 526q10 -27 -13 -43q-24 -17 -45 1h-1q-59 -11 -92 -19q-70 -294 -70 -463q0 -64 14 -89h5q14 24 40 17t28 -34v-9v-3q0 -2 -2 -8q-15 -50 -75 -50q-9 0 -19.5 2.5t-29 9.5t-34.5 25.5t-31 45t-24 73t-9 105.5q0 124 42 329q-68 -23 -101 -28q-15 -3 -27 6t-15 24v2
q-9 24 9 40q30 29 158 62q47 191 96 317q9 22 32.5 30t51.5 -2q29 -10 42.5 -33.5t5.5 -50.5q-30 -100 -64 -227q62 7 88 1q31 -8 40 -31zM423 -53q14 1 24.5 -7.5t13.5 -21.5q8 -37 -27 -81q-25 -31 -62.5 -54.5t-69.5 -23.5q-31 0 -62 20.5t-55 56.5q-57 88 -57 235
q0 183 62 438q-42 -11 -69 -11q-31 0 -51 14l-3 3q-23 15 -16 42q7 26 35 26q19 0 131 29q65 226 158 398q13 24 42 33.5t55 -2.5q21 -9 31 -31t-1 -51q-54 -148 -101 -298q92 24 129 26.5t55 -12.5q10 -9 12.5 -23.5t-5.5 -25.5q-18 -26 -48 -12h-6q-62 -15 -165 -47
q-101 -352 -101 -563q0 -54 8 -93t14.5 -51t12.5 -17q20 3 46 28.5t31 41.5q1 14 11.5 23.5t24.5 10.5h3z" />
    <glyph glyph-name=".notdef" horiz-adv-x="1079" 
d="M102 1434h875v-1434h-875v1434zM160 1393l379 -633l381 633h-760zM514 717l-369 614v-1231zM541 674l-379 -631h758zM565 717l371 -621v1239z" />
    <glyph glyph-name=".null" 
 />
    <glyph glyph-name=".null" 
 />
    <glyph glyph-name="nonmarkingreturn" horiz-adv-x="682" 
 />
    <glyph glyph-name="controlLF" unicode="&#xa;" 
 />
    <glyph glyph-name="controlCR" unicode="&#xd;" 
 />
    <glyph glyph-name="space" unicode=" " horiz-adv-x="481" 
 />
    <glyph glyph-name="exclam" unicode="!" horiz-adv-x="258" 
d="M318 961q20 -23 8 -52q-147 -372 -220 -648q-16 -60 -26 -91q0 -3 -2 -7q-1 -7 -5 -16q-14 -39 -49 -39h-5q-14 2 -26.5 13.5t-15.5 30.5q-1 6 -1 17q0 77 68.5 315.5t156.5 469.5q11 28 43 33q18 3 40 -4t34 -22zM10 69q24 -3 38 -23t14 -49q0 -28 -18 -46
q-18 -20 -42 -20t-42.5 18.5t-18.5 50.5q0 30 26 53q22 19 43 16z" />
    <glyph glyph-name="numbersign" unicode="#" horiz-adv-x="870" 
d="M884 678q4 -14 -2 -25q-6 -13 -20 -16q-35 -10 -164 -30q-2 -1 -6 -1h-6q-41 -137 -48 -163q93 14 146 14q13 0 22 -8.5t10 -21.5v-1l1 -2q3 -13 -4 -25t-20 -15q-3 0 -14 -2q-13 -2 -45 -8t-62 -11.5t-58 -10.5q-26 -105 -68 -299q-22 -107 -37 -160q-2 -9 -9 -26
q-2 -6 -8 -16q-16 -26 -44 -26h-7q-14 2 -26 12.5t-16 29.5q-2 16 -2 24q0 112 72 431q-119 -26 -155 -35q-20 -87 -38 -179q-25 -124 -33 -151q-6 -20 -24 -41.5t-44 -21.5h-7q-48 9 -48 68q0 88 39 286q-69 -19 -141 -41q-10 -2 -14 -2q-18 0 -31 13q-22 22 -14 52
q5 23 28 30q98 26 193 49v3.5t1 3.5q21 94 40 162q-98 -24 -127 -32q-10 -2 -15 -2q-16 0 -28 9.5t-17 24.5q-5 17 3.5 32.5t24.5 19.5q63 17 187 46q28 96 55 172q32 88 69 177q11 24 36 31.5t55 -4.5q28 -11 38 -32.5t3 -41.5q-65 -184 -91 -266q63 13 148 25
q24 81 63 189q33 91 71 175q11 23 34.5 30t50.5 -4q24 -10 36 -31t3 -45q-53 -134 -105 -294q82 7 129 7q27 -2 40 -26zM491 417q21 86 43 164q-111 -19 -150 -27q-24 -82 -46 -169q121 26 153 32z" />
    <glyph glyph-name="dollar" unicode="$" horiz-adv-x="589" 
d="M593 727q23 -56 -21 -99q-20 -19 -45 -7t-23 40q12 33 0 48q-13 19 -54 28q-57 -154 -95 -279q60 -42 94.5 -83.5t34.5 -92.5q0 -65 -85 -102q-56 -25 -126 -28q-1 -3 -2.5 -9t-1.5 -8q-17 -77 -30 -119q-6 -22 -26 -38.5t-43 -16.5q-7 0 -10 1q-52 12 -47 76
q4 51 21 130q-64 17 -121 59l-1 1q-2 0 -2 1q-22 17 -26 21q-11 11 -11.5 26t9.5 26q11 11 26 12t26 -9q8 -9 19 -16q38 -21 102 -27q19 77 31 122q4 13 11 39.5t11 39.5q-113 89 -113 178q0 95 100 162q76 50 153 55q8 19 47 104q10 20 31.5 28t50.5 -3q26 -11 37 -33
t2 -44q-22 -56 -32 -82q3 -1 8.5 -3.5t7.5 -4.5q71 -40 93 -93zM233 546q18 57 57 166q-40 -23 -65 -55.5t-25 -59.5q0 -21 33 -51zM361 352q-13 11 -30 24q-4 -14 -14.5 -51.5t-15.5 -55.5q35 7 57 21q26 15 26 33q-1 9 -23 29z" />
    <glyph glyph-name="percent" unicode="%" horiz-adv-x="956" 
d="M825 986q25 -23 28 -49t-12 -40q-182 -211 -362.5 -492.5t-271.5 -470.5q-8 -14 -13 -20q-19 -26 -44 -26q-24 0 -39 21t-5 45q68 199 268 532q98 163 191 294q94 132 169 212q16 17 41 17t50 -23zM712 354q63 -42 63 -133q0 -89 -61 -192q-67 -110 -134 -110
q-60 0 -97 36q-47 45 -47 136q0 87 35.5 171.5t93.5 110.5q47 23 95 -4q25 3 52 -15zM670 125q45 104 7 164q-1 1 -4 3q-45 -24 -79 -100q-35 -76 -35 -144q0 -37 11 -51q18 8 48 43t52 85zM303 582q-56 0 -97.5 43t-41.5 133q0 79 34.5 150t85.5 97q51 25 98 1q7 0 11 -1
q56 -17 81.5 -67t15.5 -121q-13 -82 -63 -154q-58 -81 -124 -81zM390 924q-93 -83 -93 -221q0 -33 14 -44q12 3 35.5 29t42.5 67q46 100 6 161q-5 7 -5 8z" />
    <glyph glyph-name="ampersand" unicode="&#x26;" horiz-adv-x="808" 
d="M804 690q16 -62 -19 -125q-17 -32 -45 -58l-4 -4q-17 -16 -37 -27q-17 -10 -36 -5t-29 22t-5 36t22 29q14 8 20 13q24 31 34.5 60t4.5 39q-9 18 -72 18h-4q-59 -159 -111 -345q18 -2 29.5 -15.5t11.5 -31.5v-47h-47h-1h-18q-26 -101 -44 -181q72 13 101 25q9 4 25 12
q14 7 29 1.5t22 -19.5t1.5 -29t-19.5 -22q-4 -2 -11.5 -5.5t-10.5 -4.5q-1 -1 -2 -1t-1.5 -0.5t-1.5 -0.5q-76 -33 -151 -47q-9 -44 -11 -58q0 -2 -2 -14q-1 -4 -2.5 -12.5t-2.5 -16t-2 -13.5q-1 -5 -3 -12l-1 -7q-10 -43 -49 -43l-1 1h-2q-16 1 -29 12.5t-15 31.5
q0 2 -0.5 7t-0.5 7q0 37 8 109q-66 5 -110 32q-64 41 -64 118q0 89 129 164q-58 18 -98 44q-77 53 -77 130q0 59 46.5 122.5t131.5 119.5q123 82 252 103q37 103 75 191q13 30 46 32q21 2 46.5 -10t37.5 -29q18 -26 3 -54q-31 -57 -63 -134q29 -6 55 -20q56 -31 72 -88z
M334 56q18 109 28 154q-47 -20 -81 -49q-45 -39 -45 -62q0 -17 14 -27q25 -16 84 -16zM398 364q33 133 86 299q-84 -26 -153 -72q-63 -41 -99 -85q-31 -37 -31 -61q0 -18 38 -40q54 -31 159 -41z" />
    <glyph glyph-name="parenleft" unicode="(" horiz-adv-x="735" 
d="M610 1110q20 -9 22 -31t-16 -35t-39 -3q-1 0 -1 1l-2 1q-36 -15 -94 -84q-79 -95 -156 -236q-92 -171 -142.5 -342.5t-50.5 -312.5q0 -166 61 -226q10 -4 18 1q13 8 28.5 4.5t23.5 -16.5t4.5 -29t-16.5 -24q-22 -13 -50 -13q-21 0 -39 7q-3 0 -4 1q-3 1 -6 2.5t-6.5 3.5
t-5.5 3q-65 36 -109 132q-47 103 -47 240q0 103 34 242.5t92 275.5q135 315 296 417q94 60 184 29h1q9 -3 20 -8z" />
    <glyph glyph-name="parenright" unicode=")" horiz-adv-x="372" 
d="M313 979q47 -103 47 -240q0 -103 -34 -242.5t-92 -275.5q-135 -315 -296 -417q-63 -39 -125 -39q-43 0 -80 18q-13 7 -18.5 19.5t-1.5 26.5q4 13 15.5 21.5t25.5 7.5q48 7 125 96.5t154 245.5q81 163 127 335t46 313q0 84 -11 127.5t-45 75.5q-10 3 -17 -1
q-13 -8 -29 -4.5t-24 16.5q-8 14 -4.5 29.5t17.5 23.5q38 23 89 6q3 0 4 -1q3 -1 9 -4.5t8 -4.5q66 -37 110 -132z" />
    <glyph glyph-name="asterisk" unicode="*" horiz-adv-x="636" 
d="M534 874q3 -14 -5 -26t-21 -15h-1q-28 -15 -77 -18q2 -40 5 -63q1 -11 5 -26l3 -12q7 -37 -26 -50q-7 -3 -16 -3q-23 0 -38 24q-41 68 -49 136q-1 0 -2.5 0.5t-2.5 0.5q-5 -6 -8 -13q-46 -79 -75 -114q-21 -24 -51 -24h-3q-23 2 -42 16q-19 15 -22 36t8 34q4 6 32 42
q7 10 23.5 32t23.5 31q-47 26 -83 65q-15 17 -7 37q8 21 30 24q14 2 35 -4.5t31 -20.5t46 -30q53 75 82 129q5 16 18 25q28 19 61 1q36 -19 34 -57q0 -6 -4 -44q-6 -67 -7 -93q31 0 55 4h1q1 1 2 1t2 0.5t2 0.5q14 3 26 -5t15 -21z" />
    <glyph glyph-name="plus" unicode="+" horiz-adv-x="600" 
d="M370 458q65 -1 90 -7.5t34 -23.5q11 -20 -2 -38t-34 -15h-8q-28 0 -110 -3q-14 -45 -41 -146q0 -2 -1 -4t-2 -3v-2q-10 -33 -47 -33h-6q-20 2 -33.5 15t-14.5 32q-3 34 20 137q-11 0 -25 -0.5t-21.5 -1t-9.5 -0.5q-1 0 -2.5 -0.5t-2.5 -0.5q-26 0 -42 21t-6 43
q8 20 31 22q24 3 100 6q30 112 48 144q12 21 36 25.5t52 -9.5q25 -13 33.5 -33t-0.5 -34q-18 -40 -36 -91z" />
    <glyph glyph-name="comma" unicode="," horiz-adv-x="174" 
d="M-28 73q21 -12 27 -37q12 -50 -47 -134l-1 -1q-7 -12 -21 -15t-26 5q-12 7 -15 21.5t5 26.5l2 2q10 14 19 30q-24 17 -24 51q0 28 23 48q17 14 37 12q9 -1 21 -9z" />
    <glyph glyph-name="hyphen" unicode="-" horiz-adv-x="546" 
d="M405 460q17 0 28 -11t11 -28t-11.5 -28.5t-27.5 -11.5h-1q-1 0 -14 -0.5t-23 -0.5q-108 -2 -157 -2q-58 0 -73 2q-16 2 -25.5 15t-8.5 29t13.5 26.5t29.5 8.5q27 -3 219 0q23 1 40 1z" />
    <glyph glyph-name="period" unicode="." horiz-adv-x="135" 
d="M-74 26q23 -3 36.5 -21t13.5 -46q0 -26 -18 -44.5t-39 -18.5q-23 0 -40.5 17.5t-17.5 47.5q0 28 24 50q21 18 41 15z" />
    <glyph glyph-name="slash" unicode="/" horiz-adv-x="956" 
d="M825 1004q25 -23 28 -49t-12 -40q-182 -211 -362.5 -492.5t-271.5 -469.5q-4 -9 -13 -20q-19 -26 -44 -26q-24 0 -39 21q-14 21 -5 44q69 201 268 533q94 157 191 293q94 132 169 212q16 17 41 17t50 -23z" />
    <glyph glyph-name="zero" unicode="0" horiz-adv-x="571" 
d="M510 770q39 -84 27 -203q-16 -165 -106 -315q-98 -163 -206 -163q-87 0 -138 67q-53 68 -53 187q0 201 70 363q66 153 156 188q45 17 83 -3q4 1 12 -1q49 -9 87 -36l3 -3q42 -31 65 -81zM353 300q98 161 98 346q0 100 -53 149q-15 11 -34 17q-71 -71 -130 -210t-59 -300
q0 -42 9.5 -74t20 -45t18.5 -13q17 0 54.5 34t75.5 96z" />
    <glyph glyph-name="one" unicode="1" horiz-adv-x="311" 
d="M311 1070q35 -13 48 -36.5t5 -48.5q-73 -223 -126 -425.5t-69.5 -287.5t-38.5 -209q-11 -65 -22 -115q-5 -23 -25.5 -39.5t-43.5 -16.5q-1 0 -4 0.5t-5 0.5q-23 3 -39 23t-13 57q5 65 16 152t36.5 243t74 336.5t111.5 337.5q9 22 32.5 30.5t62.5 -2.5z" />
    <glyph glyph-name="two" unicode="2" horiz-adv-x="632" 
d="M454 124q11 -3 21 -13q23 -23 3 -46q-9 -11 -22.5 -12.5t-24.5 6.5q-1 0 -1 0.5t-1 0.5q-90 11 -215.5 -5t-202.5 -45q-12 -6 -26 -6q-7 0 -11 1q-18 3 -33 15t-21 30q-10 32 13 54q282 284 421 461q171 217 171 315q0 15 -6 18q-12 8 -44 8q-66 0 -139.5 -34
t-123.5 -104q-17 -24 -44 -19t-35 31q-18 36 7 78q33 55 124 106.5t185 51.5q62 0 117 -39q73 -53 73 -139q0 -148 -186 -374q-106 -130 -313 -327q0 -1 -1 -1t-2 -1q63 4 113 4q86 0 135 -4q31 -2 55 -7h1q1 -1 2 -1q10 -3 11 -3z" />
    <glyph glyph-name="three" unicode="3" horiz-adv-x="694" 
d="M649 867q0 -82 -150 -209q-67 -57 -147 -107q79 -36 141 -101q93 -99 93 -219q0 -56 -29 -111t-82 -99q-109 -92 -254 -92q-91 0 -172 52.5t-127 141.5q-11 20 2 40t35 18q24 -2 33 -22q1 -3 14 -23q90 -109 177 -109q84 0 171 74q88 75 88 157q0 44 -7.5 79t-23.5 57.5
t-30.5 37.5t-38.5 24.5t-37 13.5t-36 9q-42 9 -54 23q-11 6 -17 15q-12 19 -11 34.5t11 25.5q18 18 102 86q47 38 72.5 59.5t67 60t62 68.5t20.5 51v5q-1 1 -3 2t-14.5 2.5t-30.5 1.5q-42 0 -133 -12q-10 -1 -51 -6.5t-65 -7.5t-50.5 13.5t-30.5 35.5q-2 14 6 25.5t21 14.5
q65 15 155.5 25.5t114.5 10.5q75 0 131 -29q77 -41 77 -116z" />
    <glyph glyph-name="four" unicode="4" horiz-adv-x="634" 
d="M638 1022q27 -9 40.5 -31t6.5 -46q-146 -485 -232 -885q-4 -17 -20 -88q-5 -21 -21 -36.5t-38 -15.5h-8q-7 1 -13.5 4.5t-16 11.5t-14.5 24.5t-3 39.5q4 53 33.5 210t74.5 336q-29 -39 -68 -81q-71 -73 -129 -81h-1q-4 -1 -13 -1q-65 0 -99 57q-51 86 -7 305
q15 74 37 144t37 97q12 22 37.5 28t53.5 -6q27 -12 38.5 -36.5t2.5 -51.5q-47 -135 -73 -252q-32 -142 -16 -187q26 10 70.5 57t103.5 138q50 78 91 155.5t49 102.5q3 10 10 28.5t10 27.5q7 20 28.5 30.5t48.5 1.5z" />
    <glyph glyph-name="five" unicode="5" horiz-adv-x="657" 
d="M321 877q-6 -27 -31 -90q-56 -143 -69 -234q76 34 145 34q113 0 164 -69q41 -54 41 -158q0 -102 -71 -198q-62 -83 -160 -140q-108 -61 -207 -61q-59 0 -102 22h-1q-1 1 -4 2.5l-5 2.5q-13 7 -17 22.5t4 28.5t22.5 16.5t27.5 -3.5l2 -1q1 -1 2 -1q38 -10 95 9t112 60
q74 56 116.5 129t42.5 147q0 67 -12 87q-3 6 -15 6q-85 0 -199 -80q-4 -6 -6 -8q-18 -24 -51 -24q-31 0 -59 20q-36 24 -36 52q0 66 41.5 235.5t100.5 256.5q2 2 5 5.5t4 5.5q1 13 10 23.5t23 12.5q32 6 187 8q174 3 211 -12q33 -13 29 -46q-5 -33 -49 -39q-36 -4 -90 -7
q-187 -12 -201 -14z" />
    <glyph glyph-name="six" unicode="6" horiz-adv-x="575" 
d="M605 821q-1 -3 -3 -8.5t-3 -8.5q-6 -15 -20.5 -22t-29.5 -1t-22.5 20.5t-1.5 29.5q4 9 5 17q2 14 -4 40t-18 43q-7 10 -12 10q-44 0 -101 -60q-62 -65 -118 -176q-24 -46 -41 -89q42 22 88 22h1q27 0 47 -8l1 -1q55 -21 85 -74q31 -56 31 -133q0 -55 -19.5 -132.5
t-56.5 -148.5q-40 -78 -94 -126q-64 -57 -140 -57q-14 0 -29.5 3t-43 19.5t-48.5 44.5t-36.5 84.5t-15.5 132.5q0 119 36.5 255.5t101.5 258.5q70 133 152 205.5t160 72.5q82 0 127 -64q43 -62 24 -141q0 -1 -0.5 -4t-1.5 -4zM344 556q-29 9 -62.5 -5.5t-61.5 -48.5
q-11 -12 -28 -14q-42 -149 -42 -278q0 -46 8 -99q10 -55 23 -64q28 1 64 36.5t68 93.5q33 59 53 124t20 111q0 126 -42 144z" />
    <glyph glyph-name="seven" unicode="7" horiz-adv-x="929" 
d="M731 958q43 0 69.5 -27t26.5 -62q0 -22 -37.5 -76t-181.5 -242q-217 -282 -415 -554q-12 -17 -36 -17q-17 0 -29 8q-17 11 -23 28t2 33q60 117 151 250.5t150.5 210t149.5 186.5q89 108 124 159q-2 0 -94 -6q-119 -9 -163 -9q-98 0 -123 28q-14 17 -8 38q6 22 26 30
q67 -3 329 16q74 6 82 6z" />
    <glyph glyph-name="eight" unicode="8" horiz-adv-x="610" 
d="M463 532q-1 0 -1 -2t-1 -2q-7 -14 -29 -56q2 -2 6 -7t6 -7q63 -72 63 -158q0 -72 -36 -149.5t-107.5 -134.5t-157.5 -57q-91 0 -152.5 78t-61.5 194q0 104 34 208q34 98 86 148q31 29 60 39q-15 40 -15 91q0 122 85 224q40 47 87 74t90 27q89 0 128 -87q22 -50 22 -107
q0 -96 -104 -311q-1 -1 -1 -3t-1 -2zM209 39q57 0 106.5 47t75 107t25.5 108q0 63 -30 104q-15 17 -66 62l-1 1h-1q-3 2 -8.5 6.5t-8.5 6.5q-52 39 -65 52l-1 -1q-13 -13 -34.5 -53.5t-43.5 -120.5t-22 -161q0 -74 25 -116t49 -42zM391 565q70 157 79 262q6 78 -16 115
q-11 19 -22 19q-26 0 -56 -21t-56 -57q-60 -84 -60 -180q0 -37 16.5 -70t35.5 -52.5t56 -51.5q0 -1 2 -2l2 -1l18 36v1q1 1 1 2z" />
    <glyph glyph-name="nine" unicode="9" horiz-adv-x="618" 
d="M600 715q4 -92 -25 -209t-81 -221q-66 -131 -153 -205.5t-185 -83.5h-2q-2 -1 -3 -1q-19 0 -32.5 13.5t-14.5 32.5t11.5 33.5t31.5 15.5q5 0 17 2q86 39 160 155q65 103 107 243q30 101 36 180q4 42 0 69l-21 -27q-24 -35 -59 -93q-26 -42 -39.5 -63.5t-36 -53
t-38.5 -46.5t-37 -26.5t-41 -11.5q-51 0 -90 47.5t-39 129.5q0 44 19 103t55 112q94 139 236 139q41 0 71.5 -21t46.5 -53q16 -1 30.5 -7t32.5 -21.5t29.5 -49.5t13.5 -82zM294 674q78 129 115 164q-61 -21 -114.5 -83t-80.5 -132q-22 -58 -15 -84q14 11 34 39q18 25 61 96z
" />
    <glyph glyph-name="colon" unicode=":" horiz-adv-x="188" 
d="M110 597q18 -3 31.5 -18.5t13.5 -43.5q0 -23 -15.5 -40.5t-36.5 -17.5t-36.5 16t-15.5 44q0 29 22 48q17 14 37 12zM22 287q18 -3 31.5 -18.5t13.5 -43.5q0 -23 -15.5 -40.5t-36.5 -17.5t-37 16t-16 44t23 48q17 14 37 12z" />
    <glyph glyph-name="semicolon" unicode=";" horiz-adv-x="198" 
d="M114 606q18 -3 31.5 -18.5t13.5 -43.5q0 -23 -16 -40.5t-37 -17.5t-36.5 16t-15.5 44q0 29 22 48q17 14 38 12zM44 284q21 -12 27 -37q12 -50 -47 -134l-1 -2q-7 -12 -21.5 -14.5t-26.5 5.5q-12 7 -14.5 21t5.5 26q1 2 2 3q10 14 19 30q-24 17 -24 51q0 28 22 47
q17 14 38 12q11 -1 21 -8z" />
    <glyph glyph-name="less" unicode="&#x3c;" horiz-adv-x="579" 
d="M551 591q12 -36 4.5 -57t-26.5 -31q-38 -22 -121 -50q-86 -29 -139 -53q15 -10 60 -35q12 -5 68 -32q1 0 4 -1.5t4.5 -2t4.5 -2.5l4.5 -3t4 -3t4 -3.5t3.5 -4t3.5 -5.5t2.5 -6t1 -7l3 -25l-20 -14q-11 -8 -24 -8t-27 7q-1 0 -1 0.5t-1 0.5q-25 10 -71 33q-40 18 -75 33
q-16 7 -39.5 18t-28.5 13q-24 11 -38 41q-9 20 -9 41q0 25 17 38q2 2 8 6q51 33 184 90.5t171 68.5q20 6 39 -6.5t30 -40.5z" />
    <glyph glyph-name="equal" unicode="=" horiz-adv-x="428" 
d="M353 620q17 0 28 -11t11 -28q0 -16 -11.5 -27.5t-28.5 -11.5q-1 0 -14 -0.5t-23 -0.5q-19 0 -52 -1t-59 -1.5t-46 -0.5q-50 0 -73 3q-22 2 -32 23q-9 20 4 39q14 19 37 16q20 -2 219 1h40zM312 386q17 0 28.5 -11.5t11.5 -27.5q0 -17 -12 -28.5t-28 -11.5q-1 0 -14 -0.5
t-23 -0.5q-108 -2 -157 -2q-58 0 -73 2q-16 1 -26.5 14t-8.5 30q1 16 14 26.5t30 8.5q27 -3 219 0q22 1 39 1z" />
    <glyph glyph-name="greater" unicode="&#x3e;" horiz-adv-x="542" 
d="M430 490q9 -19 9 -41q0 -25 -17 -38q-2 -2 -8 -6q-51 -33 -183.5 -90.5t-170.5 -68.5q-8 -2 -13 -2q-35 0 -56 49q-12 36 -5 57.5t26 31.5q34 19 121 49q86 29 139 53q-15 10 -60 35q-12 5 -68 32q-33 15 -36 39l-2 24l20 15q20 15 50 0l1 -1h1q25 -10 71 -33
q41 -18 75 -33q17 -7 41 -18t27 -12q24 -10 38 -42z" />
    <glyph glyph-name="question" unicode="?" horiz-adv-x="624" 
d="M542 1014q64 0 101 -41.5t37 -114.5q0 -42 -13 -86.5t-43.5 -101t-54.5 -95t-72 -110.5q-138 -209 -189 -324q-14 -32 -46 -32q-10 0 -14 2q-15 5 -23.5 20t-2.5 36q13 50 44.5 117.5t57.5 114t74 128.5q54 92 83 144t57 121.5t28 112.5q0 11 -1 17h-4q-58 0 -151 -59
t-166 -152q-35 -44 -48.5 -78t-9.5 -50q5 -23 -14 -38q-18 -15 -40 -5t-24 33q-26 70 56 189q65 94 168 169q114 83 210 83zM226 64q24 -3 38.5 -22.5t14.5 -48.5q0 -28 -18 -46q-19 -21 -42 -21q-24 0 -42.5 18.5t-18.5 50.5q0 31 26 54q20 18 42 15z" />
    <glyph glyph-name="at" unicode="@" horiz-adv-x="679" 
d="M358 781q107 0 190 -76t83 -198q0 -71 -33 -148q-45 -107 -119 -107q-46 0 -82 42q-21 26 -31 61q-69 -102 -120 -102q-33 0 -58.5 28t-25.5 76q0 105 53 185q59 89 148 89q37 0 67 -15t44 -41q5 -10 5 -20q1 -5 0 -10q-1 -2 -2 -6.5t-2 -8.5q-13 -50 -20 -108
q-8 -69 8 -88q5 -5 10 -5q24 0 49 73q23 66 23 112q0 24 -7 52t-23 59.5t-49.5 52.5t-79.5 21q-111 0 -193 -116q-35 -49 -56 -108t-21 -109q0 -98 47 -145q45 -45 138 -45q20 4 29 7q12 4 23.5 -1.5t16.5 -17.5q4 -12 -1.5 -23.5t-17.5 -16.5q-21 -8 -41 -11h-4
q-16 -3 -33 -3q-71 0 -133 44q-54 38 -86.5 100t-32.5 126q0 182 117 299q47 47 106 74.5t114 27.5zM288 390q35 50 80 133q-22 -18 -44 -54q-26 -43 -36 -79z" />
    <glyph glyph-name="A" unicode="A" horiz-adv-x="958" 
d="M836 303q-1 0 -3 -0.5t-3 -0.5q-92 -553 -94 -682q0 -19 -14 -33t-34 -14q-17 0 -29.5 10.5t-16.5 26.5q0 1 -1 3.5t-1 3.5q-40 157 45 667q-228 -30 -412 -69q-120 -243 -217 -498q-1 -3 -3 -8.5t-3 -8.5q-7 -19 -24 -27.5t-36 -1.5t-27 24t-2 36l6 18v0q73 208 179 437
q-120 -31 -194 -56q-14 -4 -21 -4q-29 0 -39 26q-6 16 2 32t25 23q97 40 274 78q91 186 165 311q118 199 217 312q120 136 207 136h2q1 -1 2 -1t4 1q13 0 26 -5q96 -27 96 -189q0 -65 -69 -473q13 1 30 1q15 0 25.5 -10.5t10.5 -25.5t-10.5 -26t-25.5 -11q-5 0 -37 -2z
M721 492q58 331 58 398q0 36 -4 56q-48 -17 -120 -101q-95 -111 -206 -300q-52 -88 -128 -235q28 5 79 13t59 9q131 19 240 32q4 23 11.5 66t10.5 62z" />
    <glyph glyph-name="A" unicode="&#xc5;" horiz-adv-x="958" 
d="M836 303q-1 0 -3 -0.5t-3 -0.5q-92 -553 -94 -682q0 -19 -14 -33t-34 -14q-17 0 -29.5 10.5t-16.5 26.5q0 1 -1 3.5t-1 3.5q-40 157 45 667q-228 -30 -412 -69q-120 -243 -217 -498q-1 -3 -3 -8.5t-3 -8.5q-7 -19 -24 -27.5t-36 -1.5t-27 24t-2 36l6 18v0q73 208 179 437
q-120 -31 -194 -56q-14 -4 -21 -4q-29 0 -39 26q-6 16 2 32t25 23q97 40 274 78q91 186 165 311q118 199 217 312q120 136 207 136h2q1 -1 2 -1t4 1q13 0 26 -5q96 -27 96 -189q0 -65 -69 -473q13 1 30 1q15 0 25.5 -10.5t10.5 -25.5t-10.5 -26t-25.5 -11q-5 0 -37 -2z
M721 492q58 331 58 398q0 36 -4 56q-48 -17 -120 -101q-95 -111 -206 -300q-52 -88 -128 -235q28 5 79 13t59 9q131 19 240 32q4 23 11.5 66t10.5 62z" />
    <glyph glyph-name="A" unicode="&#xc4;" horiz-adv-x="958" 
d="M836 303q-1 0 -3 -0.5t-3 -0.5q-92 -553 -94 -682q0 -19 -14 -33t-34 -14q-17 0 -29.5 10.5t-16.5 26.5q0 1 -1 3.5t-1 3.5q-40 157 45 667q-228 -30 -412 -69q-120 -243 -217 -498q-1 -3 -3 -8.5t-3 -8.5q-7 -19 -24 -27.5t-36 -1.5t-27 24t-2 36l6 18v0q73 208 179 437
q-120 -31 -194 -56q-14 -4 -21 -4q-29 0 -39 26q-6 16 2 32t25 23q97 40 274 78q91 186 165 311q118 199 217 312q120 136 207 136h2q1 -1 2 -1t4 1q13 0 26 -5q96 -27 96 -189q0 -65 -69 -473q13 1 30 1q15 0 25.5 -10.5t10.5 -25.5t-10.5 -26t-25.5 -11q-5 0 -37 -2z
M721 492q58 331 58 398q0 36 -4 56q-48 -17 -120 -101q-95 -111 -206 -300q-52 -88 -128 -235q28 5 79 13t59 9q131 19 240 32q4 23 11.5 66t10.5 62z" />
    <glyph glyph-name="A" unicode="&#xc3;" horiz-adv-x="958" 
d="M836 303q-1 0 -3 -0.5t-3 -0.5q-92 -553 -94 -682q0 -19 -14 -33t-34 -14q-17 0 -29.5 10.5t-16.5 26.5q0 1 -1 3.5t-1 3.5q-40 157 45 667q-228 -30 -412 -69q-120 -243 -217 -498q-1 -3 -3 -8.5t-3 -8.5q-7 -19 -24 -27.5t-36 -1.5t-27 24t-2 36l6 18v0q73 208 179 437
q-120 -31 -194 -56q-14 -4 -21 -4q-29 0 -39 26q-6 16 2 32t25 23q97 40 274 78q91 186 165 311q118 199 217 312q120 136 207 136h2q1 -1 2 -1t4 1q13 0 26 -5q96 -27 96 -189q0 -65 -69 -473q13 1 30 1q15 0 25.5 -10.5t10.5 -25.5t-10.5 -26t-25.5 -11q-5 0 -37 -2z
M721 492q58 331 58 398q0 36 -4 56q-48 -17 -120 -101q-95 -111 -206 -300q-52 -88 -128 -235q28 5 79 13t59 9q131 19 240 32q4 23 11.5 66t10.5 62z" />
    <glyph glyph-name="A" unicode="&#xc2;" horiz-adv-x="958" 
d="M836 303q-1 0 -3 -0.5t-3 -0.5q-92 -553 -94 -682q0 -19 -14 -33t-34 -14q-17 0 -29.5 10.5t-16.5 26.5q0 1 -1 3.5t-1 3.5q-40 157 45 667q-228 -30 -412 -69q-120 -243 -217 -498q-1 -3 -3 -8.5t-3 -8.5q-7 -19 -24 -27.5t-36 -1.5t-27 24t-2 36l6 18v0q73 208 179 437
q-120 -31 -194 -56q-14 -4 -21 -4q-29 0 -39 26q-6 16 2 32t25 23q97 40 274 78q91 186 165 311q118 199 217 312q120 136 207 136h2q1 -1 2 -1t4 1q13 0 26 -5q96 -27 96 -189q0 -65 -69 -473q13 1 30 1q15 0 25.5 -10.5t10.5 -25.5t-10.5 -26t-25.5 -11q-5 0 -37 -2z
M721 492q58 331 58 398q0 36 -4 56q-48 -17 -120 -101q-95 -111 -206 -300q-52 -88 -128 -235q28 5 79 13t59 9q131 19 240 32q4 23 11.5 66t10.5 62z" />
    <glyph glyph-name="A" unicode="&#xc1;" horiz-adv-x="958" 
d="M836 303q-1 0 -3 -0.5t-3 -0.5q-92 -553 -94 -682q0 -19 -14 -33t-34 -14q-17 0 -29.5 10.5t-16.5 26.5q0 1 -1 3.5t-1 3.5q-40 157 45 667q-228 -30 -412 -69q-120 -243 -217 -498q-1 -3 -3 -8.5t-3 -8.5q-7 -19 -24 -27.5t-36 -1.5t-27 24t-2 36l6 18v0q73 208 179 437
q-120 -31 -194 -56q-14 -4 -21 -4q-29 0 -39 26q-6 16 2 32t25 23q97 40 274 78q91 186 165 311q118 199 217 312q120 136 207 136h2q1 -1 2 -1t4 1q13 0 26 -5q96 -27 96 -189q0 -65 -69 -473q13 1 30 1q15 0 25.5 -10.5t10.5 -25.5t-10.5 -26t-25.5 -11q-5 0 -37 -2z
M721 492q58 331 58 398q0 36 -4 56q-48 -17 -120 -101q-95 -111 -206 -300q-52 -88 -128 -235q28 5 79 13t59 9q131 19 240 32q4 23 11.5 66t10.5 62z" />
    <glyph glyph-name="A" unicode="&#xc0;" horiz-adv-x="958" 
d="M836 303q-1 0 -3 -0.5t-3 -0.5q-92 -553 -94 -682q0 -19 -14 -33t-34 -14q-17 0 -29.5 10.5t-16.5 26.5q0 1 -1 3.5t-1 3.5q-40 157 45 667q-228 -30 -412 -69q-120 -243 -217 -498q-1 -3 -3 -8.5t-3 -8.5q-7 -19 -24 -27.5t-36 -1.5t-27 24t-2 36l6 18v0q73 208 179 437
q-120 -31 -194 -56q-14 -4 -21 -4q-29 0 -39 26q-6 16 2 32t25 23q97 40 274 78q91 186 165 311q118 199 217 312q120 136 207 136h2q1 -1 2 -1t4 1q13 0 26 -5q96 -27 96 -189q0 -65 -69 -473q13 1 30 1q15 0 25.5 -10.5t10.5 -25.5t-10.5 -26t-25.5 -11q-5 0 -37 -2z
M721 492q58 331 58 398q0 36 -4 56q-48 -17 -120 -101q-95 -111 -206 -300q-52 -88 -128 -235q28 5 79 13t59 9q131 19 240 32q4 23 11.5 66t10.5 62z" />
    <glyph glyph-name="B" unicode="B" horiz-adv-x="856" 
d="M682 341q66 -58 66 -146q0 -117 -75 -233q-68 -103 -185 -190q-155 -116 -336 -167q-108 -30 -202 -30h-14h-2l-2 -1h-2q-4 0 -10 2q-61 3 -102 16q-22 6 -29 31q-6 24 12 41t41 9q47 -13 91 -14q185 21 331 100q123 67 213 172q72 84 107 170t35 130q0 42 -22 61
q-46 38 -183 12q-15 -3 -28 4q-1 0 -3 0.5t-3 0.5q-36 9 -45 41q-10 33 15 56q69 69 144 160q118 144 129 212q-91 -50 -195 -174q-226 -271 -371 -758q-5 -17 -20 -27t-32 -7h-5h-9q-28 3 -44.5 20t-16.5 42q1 48 20.5 176.5t53.5 278.5q92 407 216 644q13 24 43.5 27.5
t57.5 -11.5q29 -14 38.5 -38t-0.5 -43q-104 -238 -182 -513q94 172 193 287q83 97 171 156q72 48 108 48q38 0 65.5 -28.5t27.5 -82.5q0 -37 -17.5 -79.5t-56.5 -95.5t-71 -91t-91 -104q111 -8 176 -64z" />
    <glyph glyph-name="C" unicode="C" horiz-adv-x="763" 
d="M636 -121q8 -11 5 -25t-14 -22q-17 -11 -88 -78q-40 -39 -66 -61t-67.5 -52t-83.5 -44.5t-86 -14.5q-163 0 -249 143q-71 118 -71 294q0 131 52 298.5t140 317.5q93 161 202 254q124 108 250 108q104 0 165.5 -63.5t61.5 -169.5q0 -84 -45 -197q-46 -113 -89 -129
q-30 -12 -50 12q-12 22 -2 49q52 101 66 213t-18 165q-19 31 -55 31q-66 0 -158 -85t-177 -224q-89 -146 -144 -313q-58 -177 -58 -338q0 -104 34 -187q43 -104 129 -104q33 0 68 12.5t73.5 39.5t60 44.5t59.5 50.5q50 45 79 62q15 13 28 22q12 8 26 5t22 -14z" />
    <glyph glyph-name="C" unicode="&#xc7;" horiz-adv-x="763" 
d="M636 -121q8 -11 5 -25t-14 -22q-17 -11 -88 -78q-40 -39 -66 -61t-67.5 -52t-83.5 -44.5t-86 -14.5q-163 0 -249 143q-71 118 -71 294q0 131 52 298.5t140 317.5q93 161 202 254q124 108 250 108q104 0 165.5 -63.5t61.5 -169.5q0 -84 -45 -197q-46 -113 -89 -129
q-30 -12 -50 12q-12 22 -2 49q52 101 66 213t-18 165q-19 31 -55 31q-66 0 -158 -85t-177 -224q-89 -146 -144 -313q-58 -177 -58 -338q0 -104 34 -187q43 -104 129 -104q33 0 68 12.5t73.5 39.5t60 44.5t59.5 50.5q50 45 79 62q15 13 28 22q12 8 26 5t22 -14z" />
    <glyph glyph-name="D" unicode="D" horiz-adv-x="847" 
d="M760 954q29 -25 50 -76q29 -71 29 -164q0 -196 -76 -399t-214 -377q-128 -161 -279 -257q-156 -100 -300 -100q-109 0 -157.5 42.5t-65.5 126.5q-4 17 6 31.5t27 18.5t31.5 -6t18.5 -27q11 -57 37 -79.5t101 -22.5q121 12 237 91q107 73 198 199q166 228 249 542
q44 168 45 280q1 96 -20 117q-83 -2 -191 -134q-102 -123 -211 -341q-73 -145 -145 -327.5t-99 -298.5q-2 -7 -4.5 -20.5t-3.5 -20.5q-1 -6 -3 -16q-4 -21 -20.5 -34.5t-36.5 -13.5h-8q-23 4 -35.5 22.5t-10.5 40.5q20 275 104 610t205 621q8 19 27.5 27t47.5 -1
q28 -11 40.5 -34.5t3.5 -47.5q-99 -259 -168 -493q32 67 60 118q104 192 209 306q122 132 229 132q55 0 93 -35z" />
    <glyph glyph-name="E" unicode="E" horiz-adv-x="825" 
d="M567 964q272 29 394 21q21 -2 31 -21q9 -19 -2 -37t-34 -16q-2 0 -10 0.5t-14 0.5q-2 -1 -6 -1q-185 -11 -359 -40q-137 -315 -205 -578q55 10 111 20h1q8 2 20 4t15 2q20 3 32 -12q13 -16 5 -34t-27 -21q-66 -10 -177 -42q-36 -163 -36 -274q0 -148 55 -215
q34 -41 71 -41q42 0 112.5 34.5t117.5 73.5q0 1 2 2.5t2 2.5q9 17 30 17q19 0 29 -19q10 -18 -2 -34q-8 -12 -12 -16l-3 -3q-35 -35 -105 -75q-100 -58 -172 -58q-128 0 -206 125q-68 108 -68 261q0 67 14 167q-74 -23 -90 -30q-21 -10 -40 4q-23 17 -19 49q3 26 26 35
q45 19 140 41q27 139 70 278q54 175 107 298q-109 -23 -218 -51q-10 -2 -14 -2q-36 0 -48 35q-6 18 1 34.5t24 22.5q107 41 308 72q9 18 18 33q10 17 33.5 19.5t42 -3t31.5 -12.5q13 -6 24 -17z" />
    <glyph glyph-name="E" unicode="&#xcb;" horiz-adv-x="825" 
d="M567 964q272 29 394 21q21 -2 31 -21q9 -19 -2 -37t-34 -16q-2 0 -10 0.5t-14 0.5q-2 -1 -6 -1q-185 -11 -359 -40q-137 -315 -205 -578q55 10 111 20h1q8 2 20 4t15 2q20 3 32 -12q13 -16 5 -34t-27 -21q-66 -10 -177 -42q-36 -163 -36 -274q0 -148 55 -215
q34 -41 71 -41q42 0 112.5 34.5t117.5 73.5q0 1 2 2.5t2 2.5q9 17 30 17q19 0 29 -19q10 -18 -2 -34q-8 -12 -12 -16l-3 -3q-35 -35 -105 -75q-100 -58 -172 -58q-128 0 -206 125q-68 108 -68 261q0 67 14 167q-74 -23 -90 -30q-21 -10 -40 4q-23 17 -19 49q3 26 26 35
q45 19 140 41q27 139 70 278q54 175 107 298q-109 -23 -218 -51q-10 -2 -14 -2q-36 0 -48 35q-6 18 1 34.5t24 22.5q107 41 308 72q9 18 18 33q10 17 33.5 19.5t42 -3t31.5 -12.5q13 -6 24 -17z" />
    <glyph glyph-name="E" unicode="&#xca;" horiz-adv-x="825" 
d="M567 964q272 29 394 21q21 -2 31 -21q9 -19 -2 -37t-34 -16q-2 0 -10 0.5t-14 0.5q-2 -1 -6 -1q-185 -11 -359 -40q-137 -315 -205 -578q55 10 111 20h1q8 2 20 4t15 2q20 3 32 -12q13 -16 5 -34t-27 -21q-66 -10 -177 -42q-36 -163 -36 -274q0 -148 55 -215
q34 -41 71 -41q42 0 112.5 34.5t117.5 73.5q0 1 2 2.5t2 2.5q9 17 30 17q19 0 29 -19q10 -18 -2 -34q-8 -12 -12 -16l-3 -3q-35 -35 -105 -75q-100 -58 -172 -58q-128 0 -206 125q-68 108 -68 261q0 67 14 167q-74 -23 -90 -30q-21 -10 -40 4q-23 17 -19 49q3 26 26 35
q45 19 140 41q27 139 70 278q54 175 107 298q-109 -23 -218 -51q-10 -2 -14 -2q-36 0 -48 35q-6 18 1 34.5t24 22.5q107 41 308 72q9 18 18 33q10 17 33.5 19.5t42 -3t31.5 -12.5q13 -6 24 -17z" />
    <glyph glyph-name="E" unicode="&#xc9;" horiz-adv-x="825" 
d="M567 964q272 29 394 21q21 -2 31 -21q9 -19 -2 -37t-34 -16q-2 0 -10 0.5t-14 0.5q-2 -1 -6 -1q-185 -11 -359 -40q-137 -315 -205 -578q55 10 111 20h1q8 2 20 4t15 2q20 3 32 -12q13 -16 5 -34t-27 -21q-66 -10 -177 -42q-36 -163 -36 -274q0 -148 55 -215
q34 -41 71 -41q42 0 112.5 34.5t117.5 73.5q0 1 2 2.5t2 2.5q9 17 30 17q19 0 29 -19q10 -18 -2 -34q-8 -12 -12 -16l-3 -3q-35 -35 -105 -75q-100 -58 -172 -58q-128 0 -206 125q-68 108 -68 261q0 67 14 167q-74 -23 -90 -30q-21 -10 -40 4q-23 17 -19 49q3 26 26 35
q45 19 140 41q27 139 70 278q54 175 107 298q-109 -23 -218 -51q-10 -2 -14 -2q-36 0 -48 35q-6 18 1 34.5t24 22.5q107 41 308 72q9 18 18 33q10 17 33.5 19.5t42 -3t31.5 -12.5q13 -6 24 -17z" />
    <glyph glyph-name="E" unicode="&#xc8;" horiz-adv-x="825" 
d="M567 964q272 29 394 21q21 -2 31 -21q9 -19 -2 -37t-34 -16q-2 0 -10 0.5t-14 0.5q-2 -1 -6 -1q-185 -11 -359 -40q-137 -315 -205 -578q55 10 111 20h1q8 2 20 4t15 2q20 3 32 -12q13 -16 5 -34t-27 -21q-66 -10 -177 -42q-36 -163 -36 -274q0 -148 55 -215
q34 -41 71 -41q42 0 112.5 34.5t117.5 73.5q0 1 2 2.5t2 2.5q9 17 30 17q19 0 29 -19q10 -18 -2 -34q-8 -12 -12 -16l-3 -3q-35 -35 -105 -75q-100 -58 -172 -58q-128 0 -206 125q-68 108 -68 261q0 67 14 167q-74 -23 -90 -30q-21 -10 -40 4q-23 17 -19 49q3 26 26 35
q45 19 140 41q27 139 70 278q54 175 107 298q-109 -23 -218 -51q-10 -2 -14 -2q-36 0 -48 35q-6 18 1 34.5t24 22.5q107 41 308 72q9 18 18 33q10 17 33.5 19.5t42 -3t31.5 -12.5q13 -6 24 -17z" />
    <glyph glyph-name="F" unicode="F" horiz-adv-x="692" 
d="M922 911q-213 -6 -417 -28q-102 -315 -169 -573q23 5 45.5 9.5t38.5 7.5t18 3q12 4 17 5q14 3 26 -5t15 -21q3 -14 -5 -26t-21 -15q-10 -2 -16 -4h-1q-22 -5 -138 -38q-54 -216 -106 -494q-3 -16 -8.5 -45t-7.5 -41q-4 -22 -19.5 -36t-35.5 -14h-6q-32 5 -42 40
q-5 18 -2 42q18 196 72 502q-56 -17 -79 -25q-8 -4 -19 -4q-25 0 -36 22q-8 16 -2.5 32.5t21.5 24.5q30 16 132 43q66 345 146 586q-84 -14 -164 -34q-5 -1 -14 -1q-22 0 -37 15q-21 21 -13 49q6 22 31 29q94 23 233 39q23 40 91 16l15 -6q273 23 455 19h10q5 0 8 -1
q21 0 29 -1q15 -2 25 -13t9 -26t-12.5 -25.5t-26.5 -9.5q-20 2 -40 2z" />
    <glyph glyph-name="G" unicode="G" horiz-adv-x="733" 
d="M678 402q-189 -500 -176 -774q5 -8 5 -20q-2 -22 -15 -36t-32 -14q0 1 -1 1q-77 3 -77 196q0 77 17 177q-129 -162 -236 -162q-108 0 -168 111q-53 97 -53 239q0 149 62 315q57 153 153 287q90 126 199 210q114 86 207 86q62 0 107 -30t67 -85q22 -56 15 -118.5
t-39 -92.5q-9 -9 -22 -9.5t-23 7.5q-23 19 -8 44q14 124 -28 171q-12 14 -24 14q-52 0 -136.5 -69t-169.5 -197q-92 -139 -143 -289.5t-51 -285.5q0 -51 4.5 -92.5t11.5 -65t15 -39.5t14.5 -21.5t10.5 -6.5q34 0 93 59q56 55 122 155q55 84 103 180q41 123 80 200
q8 17 29 23t53 -6q24 -11 32.5 -28.5t1.5 -33.5z" />
    <glyph glyph-name="H" unicode="H" horiz-adv-x="897" 
d="M848 312q0 -15 -11 -26t-26 -11q-5 0 -41 -2q-10 -1 -95 -13q-61 -225 -116 -525q-16 -84 -20 -103q-4 -20 -17.5 -34.5t-33.5 -14.5h-4q-33 4 -43 38q-5 22 -5 39q-8 203 80 577q-34 -5 -131 -19.5t-148 -21.5q-37 -165 -69 -362q-6 -36 -22.5 -56.5t-39.5 -20.5h-4
q-17 2 -29 14.5t-12 35.5q0 112 50 370q-122 -19 -142 -23q-6 -2 -18 -2q-23 0 -38 15q-19 17 -12 43q7 23 30 28q53 12 200 35q73 334 162 533q10 25 46 29q52 5 74 -27q17 -23 4 -49q-85 -179 -157 -467q125 17 277 33q43 169 100 340q62 186 118 318q10 26 44 31
q23 3 53.5 -6.5t45.5 -29.5q20 -25 7 -54q-121 -283 -207 -583q11 1 35.5 3t35.5 3h1q18 1 41 1q15 0 26 -10.5t11 -25.5z" />
    <glyph glyph-name="I" unicode="I" horiz-adv-x="266" 
d="M344 973q19 -26 7 -54q-77 -182 -136.5 -359t-96.5 -335.5t-54 -247t-37 -208.5q-15 -95 -21 -122q-3 -14 -7 -22q-14 -34 -45 -34h-3q-34 4 -41 40q-4 20 -4 32q-3 83 16.5 235t55.5 324q88 426 226 756q10 26 44 31q23 3 52 -6.5t44 -29.5z" />
    <glyph glyph-name="I" unicode="&#xcf;" horiz-adv-x="266" 
d="M344 973q19 -26 7 -54q-77 -182 -136.5 -359t-96.5 -335.5t-54 -247t-37 -208.5q-15 -95 -21 -122q-3 -14 -7 -22q-14 -34 -45 -34h-3q-34 4 -41 40q-4 20 -4 32q-3 83 16.5 235t55.5 324q88 426 226 756q10 26 44 31q23 3 52 -6.5t44 -29.5z" />
    <glyph glyph-name="I" unicode="&#xce;" horiz-adv-x="266" 
d="M344 973q19 -26 7 -54q-77 -182 -136.5 -359t-96.5 -335.5t-54 -247t-37 -208.5q-15 -95 -21 -122q-3 -14 -7 -22q-14 -34 -45 -34h-3q-34 4 -41 40q-4 20 -4 32q-3 83 16.5 235t55.5 324q88 426 226 756q10 26 44 31q23 3 52 -6.5t44 -29.5z" />
    <glyph glyph-name="I" unicode="&#xcd;" horiz-adv-x="266" 
d="M344 973q19 -26 7 -54q-77 -182 -136.5 -359t-96.5 -335.5t-54 -247t-37 -208.5q-15 -95 -21 -122q-3 -14 -7 -22q-14 -34 -45 -34h-3q-34 4 -41 40q-4 20 -4 32q-3 83 16.5 235t55.5 324q88 426 226 756q10 26 44 31q23 3 52 -6.5t44 -29.5z" />
    <glyph glyph-name="I" unicode="&#xcc;" horiz-adv-x="266" 
d="M344 973q19 -26 7 -54q-77 -182 -136.5 -359t-96.5 -335.5t-54 -247t-37 -208.5q-15 -95 -21 -122q-3 -14 -7 -22q-14 -34 -45 -34h-3q-34 4 -41 40q-4 20 -4 32q-3 83 16.5 235t55.5 324q88 426 226 756q10 26 44 31q23 3 52 -6.5t44 -29.5z" />
    <glyph glyph-name="J" unicode="J" horiz-adv-x="573" 
d="M525 879q23 -75 23 -186q0 -175 -53 -369.5t-147 -364.5q-95 -172 -207 -270q-126 -111 -252 -111q-94 0 -151 64q-74 85 -69 249v3q0 1 0.5 3.5t0.5 3.5v8q2 32 3 39q2 15 14.5 24t27.5 7t24 -14t7 -27q-1 -4 -1.5 -11.5t-0.5 -11.5v-2q-10 -136 62 -214q34 -37 61 -37
q80 0 175 95.5t179 260.5q88 174 138 370.5t50 371.5q0 74 -11 117q-10 47 -30 47q-4 0 -12.5 -4t-41 -37.5t-71.5 -92.5q-35 -52 -63 -103.5t-32 -64.5q-4 -12 -10 -17q-6 -10 -19 -15q-25 -10 -45 10q-20 21 -8 73q10 41 29 83q44 102 101 169q80 94 163 94
q121 0 166 -140z" />
    <glyph glyph-name="K" unicode="K" horiz-adv-x="671" 
d="M421 -299q4 -4 5 -6q18 -23 0 -47q-8 -10 -22 -12.5t-25 4.5q-64 37 -166 105q-80 54 -128 94q-66 -135 -104 -230q-6 -20 -24.5 -33t-40.5 -13q-1 0 -3 0.5t-3 0.5q-22 3 -37.5 19t-15.5 44q0 61 30.5 223.5t79.5 364t125 423t154 368.5q14 26 50.5 26.5t59.5 -14.5
q29 -14 38 -37.5t-1 -41.5q-203 -440 -318 -902q134 234 287 463t270 339q2 1 5 4.5t4 5.5q12 13 29 13t30 -12t13.5 -29t-11.5 -30q-98 -102 -262.5 -343t-305.5 -511q26 -28 171 -142q100 -79 116 -94z" />
    <glyph glyph-name="L" unicode="L" horiz-adv-x="352" 
d="M503 -152q3 3 7.5 7t5.5 5q11 9 25 8t23 -12t8 -25t-12 -23l-9 -9l-4 -4q-198 -196 -334 -196q-129 0 -198 124q-58 103 -58 258q0 173 55.5 411t115.5 403.5t92 209.5q11 16 34 18.5t42.5 -3t33.5 -13.5q18 -11 28 -28.5t1 -38.5q-72 -166 -125 -327t-78 -268.5
t-39.5 -207t-17 -137t-2.5 -63.5q0 -76 13.5 -131.5t34 -82t38.5 -38t33 -11.5q33 0 69 13.5t76 43t59.5 45.5t56.5 49q10 9 26 23z" />
    <glyph glyph-name="M" unicode="M" horiz-adv-x="1110" 
d="M1121 1007q28 -28 18 -63q-173 -573 -227.5 -807.5t-77.5 -522.5q-2 -28 -16 -44.5t-35 -16.5h-1q-35 2 -44 39q-4 22 -4 34q-2 129 9 253.5t40 264t50 224.5t65 249q10 37 30 113q-114 -164 -239 -404q-77 -147 -113 -191q-30 -36 -82 -23q-22 5 -37.5 20t-19.5 35
q-20 99 23 356q-22 -31 -42 -65q-69 -118 -143 -268q-20 -40 -54 -112q-67 -140 -99.5 -193.5t-66.5 -63.5q-9 -3 -17 -3q-10 0 -17 3q-27 0 -47.5 27t-23.5 52q-22 176 43 461q66 290 175 462q13 22 46 25t52 -10q19 -11 25.5 -29t-2.5 -37q-68 -144 -127 -342.5
t-83 -400.5q90 174 144 274q177 325 251 388q17 12 37.5 12t38.5 -10q45 -24 38 -76l-1 -11q-19 -159 -35 -316q109 217 246.5 442t206.5 291q8 11 25 16q22 6 48 -4.5t43 -27.5z" />
    <glyph glyph-name="N" unicode="N" horiz-adv-x="835" 
d="M860 919q0 -41 -75 -298q-60 -205 -96 -337t-73 -332t-31 -323q11 -11 13 -26t-6 -28q-13 -21 -38 -21q-5 0 -13 2q-32 10 -48 77q-13 56 -13 118q0 113 30 284t56.5 277t75.5 290q40 147 55 215q6 23 9 41q-64 -76 -143 -206q-135 -221 -253 -472q-91 -198 -136 -272.5
t-88 -86.5q-27 -8 -52 6q-25 11 -44 39.5t-24 64.5q-7 50 -7 108q0 171 51 390t130 378q12 24 42.5 28.5t56.5 -9.5q27 -13 35.5 -37t-2.5 -42q-68 -142 -121.5 -372t-54.5 -386q75 156 160.5 321t216 378t225.5 312q18 19 46.5 24t54.5 -5q61 -24 61 -100z" />
    <glyph glyph-name="N" unicode="&#xd1;" horiz-adv-x="835" 
d="M860 919q0 -41 -75 -298q-60 -205 -96 -337t-73 -332t-31 -323q11 -11 13 -26t-6 -28q-13 -21 -38 -21q-5 0 -13 2q-32 10 -48 77q-13 56 -13 118q0 113 30 284t56.5 277t75.5 290q40 147 55 215q6 23 9 41q-64 -76 -143 -206q-135 -221 -253 -472q-91 -198 -136 -272.5
t-88 -86.5q-27 -8 -52 6q-25 11 -44 39.5t-24 64.5q-7 50 -7 108q0 171 51 390t130 378q12 24 42.5 28.5t56.5 -9.5q27 -13 35.5 -37t-2.5 -42q-68 -142 -121.5 -372t-54.5 -386q75 156 160.5 321t216 378t225.5 312q18 19 46.5 24t54.5 -5q61 -24 61 -100z" />
    <glyph glyph-name="O" unicode="O" horiz-adv-x="1013" 
d="M850 885q91 -128 91 -318q0 -136 -46 -308q-45 -169 -116 -317q-74 -154 -165 -253q-104 -112 -205 -112q-75 0 -127 46q-42 38 -66 100q-30 77 -30 170q0 63 6 121q-73 30 -115 80q-70 82 -70 247q0 139 43.5 267t124.5 228q78 96 177 148.5t201 52.5q190 0 297 -152z
M683 -29q72 147 114 303.5t42 277.5q0 238 -116 334q-73 61 -180 61q-64 0 -139 -55t-140 -150q-69 -100 -108 -215.5t-39 -219.5q0 -121 43 -173q11 -13 29 -25q1 -1 6 -4t8 -4q20 124 51 223q25 82 53 143q27 60 49 76q23 15 52.5 12.5t47.5 -18.5q33 -28 14 -67
q-95 -194 -128 -408q15 -2 43 -4q24 -2 34 -24q10 -24 -3 -42q-15 -20 -39 -18q-14 1 -45 5q-4 -51 -4 -85q0 -108 21.5 -170.5t59.5 -62.5q53 0 127 82q77 84 147 228z" />
    <glyph glyph-name="O" unicode="&#xd8;" horiz-adv-x="1013" 
d="M850 885q91 -128 91 -318q0 -136 -46 -308q-45 -169 -116 -317q-74 -154 -165 -253q-104 -112 -205 -112q-75 0 -127 46q-42 38 -66 100q-30 77 -30 170q0 63 6 121q-73 30 -115 80q-70 82 -70 247q0 139 43.5 267t124.5 228q78 96 177 148.5t201 52.5q190 0 297 -152z
M683 -29q72 147 114 303.5t42 277.5q0 238 -116 334q-73 61 -180 61q-64 0 -139 -55t-140 -150q-69 -100 -108 -215.5t-39 -219.5q0 -121 43 -173q11 -13 29 -25q1 -1 6 -4t8 -4q20 124 51 223q25 82 53 143q27 60 49 76q23 15 52.5 12.5t47.5 -18.5q33 -28 14 -67
q-95 -194 -128 -408q15 -2 43 -4q24 -2 34 -24q10 -24 -3 -42q-15 -20 -39 -18q-14 1 -45 5q-4 -51 -4 -85q0 -108 21.5 -170.5t59.5 -62.5q53 0 127 82q77 84 147 228z" />
    <glyph glyph-name="O" unicode="&#xd6;" horiz-adv-x="1013" 
d="M850 885q91 -128 91 -318q0 -136 -46 -308q-45 -169 -116 -317q-74 -154 -165 -253q-104 -112 -205 -112q-75 0 -127 46q-42 38 -66 100q-30 77 -30 170q0 63 6 121q-73 30 -115 80q-70 82 -70 247q0 139 43.5 267t124.5 228q78 96 177 148.5t201 52.5q190 0 297 -152z
M683 -29q72 147 114 303.5t42 277.5q0 238 -116 334q-73 61 -180 61q-64 0 -139 -55t-140 -150q-69 -100 -108 -215.5t-39 -219.5q0 -121 43 -173q11 -13 29 -25q1 -1 6 -4t8 -4q20 124 51 223q25 82 53 143q27 60 49 76q23 15 52.5 12.5t47.5 -18.5q33 -28 14 -67
q-95 -194 -128 -408q15 -2 43 -4q24 -2 34 -24q10 -24 -3 -42q-15 -20 -39 -18q-14 1 -45 5q-4 -51 -4 -85q0 -108 21.5 -170.5t59.5 -62.5q53 0 127 82q77 84 147 228z" />
    <glyph glyph-name="O" unicode="&#xd5;" horiz-adv-x="1013" 
d="M850 885q91 -128 91 -318q0 -136 -46 -308q-45 -169 -116 -317q-74 -154 -165 -253q-104 -112 -205 -112q-75 0 -127 46q-42 38 -66 100q-30 77 -30 170q0 63 6 121q-73 30 -115 80q-70 82 -70 247q0 139 43.5 267t124.5 228q78 96 177 148.5t201 52.5q190 0 297 -152z
M683 -29q72 147 114 303.5t42 277.5q0 238 -116 334q-73 61 -180 61q-64 0 -139 -55t-140 -150q-69 -100 -108 -215.5t-39 -219.5q0 -121 43 -173q11 -13 29 -25q1 -1 6 -4t8 -4q20 124 51 223q25 82 53 143q27 60 49 76q23 15 52.5 12.5t47.5 -18.5q33 -28 14 -67
q-95 -194 -128 -408q15 -2 43 -4q24 -2 34 -24q10 -24 -3 -42q-15 -20 -39 -18q-14 1 -45 5q-4 -51 -4 -85q0 -108 21.5 -170.5t59.5 -62.5q53 0 127 82q77 84 147 228z" />
    <glyph glyph-name="O" unicode="&#xd4;" horiz-adv-x="1013" 
d="M850 885q91 -128 91 -318q0 -136 -46 -308q-45 -169 -116 -317q-74 -154 -165 -253q-104 -112 -205 -112q-75 0 -127 46q-42 38 -66 100q-30 77 -30 170q0 63 6 121q-73 30 -115 80q-70 82 -70 247q0 139 43.5 267t124.5 228q78 96 177 148.5t201 52.5q190 0 297 -152z
M683 -29q72 147 114 303.5t42 277.5q0 238 -116 334q-73 61 -180 61q-64 0 -139 -55t-140 -150q-69 -100 -108 -215.5t-39 -219.5q0 -121 43 -173q11 -13 29 -25q1 -1 6 -4t8 -4q20 124 51 223q25 82 53 143q27 60 49 76q23 15 52.5 12.5t47.5 -18.5q33 -28 14 -67
q-95 -194 -128 -408q15 -2 43 -4q24 -2 34 -24q10 -24 -3 -42q-15 -20 -39 -18q-14 1 -45 5q-4 -51 -4 -85q0 -108 21.5 -170.5t59.5 -62.5q53 0 127 82q77 84 147 228z" />
    <glyph glyph-name="O" unicode="&#xd3;" horiz-adv-x="1013" 
d="M850 885q91 -128 91 -318q0 -136 -46 -308q-45 -169 -116 -317q-74 -154 -165 -253q-104 -112 -205 -112q-75 0 -127 46q-42 38 -66 100q-30 77 -30 170q0 63 6 121q-73 30 -115 80q-70 82 -70 247q0 139 43.5 267t124.5 228q78 96 177 148.5t201 52.5q190 0 297 -152z
M683 -29q72 147 114 303.5t42 277.5q0 238 -116 334q-73 61 -180 61q-64 0 -139 -55t-140 -150q-69 -100 -108 -215.5t-39 -219.5q0 -121 43 -173q11 -13 29 -25q1 -1 6 -4t8 -4q20 124 51 223q25 82 53 143q27 60 49 76q23 15 52.5 12.5t47.5 -18.5q33 -28 14 -67
q-95 -194 -128 -408q15 -2 43 -4q24 -2 34 -24q10 -24 -3 -42q-15 -20 -39 -18q-14 1 -45 5q-4 -51 -4 -85q0 -108 21.5 -170.5t59.5 -62.5q53 0 127 82q77 84 147 228z" />
    <glyph glyph-name="O" unicode="&#xd2;" horiz-adv-x="1013" 
d="M850 885q91 -128 91 -318q0 -136 -46 -308q-45 -169 -116 -317q-74 -154 -165 -253q-104 -112 -205 -112q-75 0 -127 46q-42 38 -66 100q-30 77 -30 170q0 63 6 121q-73 30 -115 80q-70 82 -70 247q0 139 43.5 267t124.5 228q78 96 177 148.5t201 52.5q190 0 297 -152z
M683 -29q72 147 114 303.5t42 277.5q0 238 -116 334q-73 61 -180 61q-64 0 -139 -55t-140 -150q-69 -100 -108 -215.5t-39 -219.5q0 -121 43 -173q11 -13 29 -25q1 -1 6 -4t8 -4q20 124 51 223q25 82 53 143q27 60 49 76q23 15 52.5 12.5t47.5 -18.5q33 -28 14 -67
q-95 -194 -128 -408q15 -2 43 -4q24 -2 34 -24q10 -24 -3 -42q-15 -20 -39 -18q-14 1 -45 5q-4 -51 -4 -85q0 -108 21.5 -170.5t59.5 -62.5q53 0 127 82q77 84 147 228z" />
    <glyph glyph-name="P" unicode="P" horiz-adv-x="806" 
d="M828 947q42 -54 42 -146q0 -102 -65 -222t-173 -217q-102 -94 -227 -144q-99 -40 -194 -44h-1q-34 -2 -61 1q-100 -242 -162 -500q-1 -6 -6 -12q-13 -28 -48 -28q-1 0 -4 0.5t-5 0.5q-22 3 -35 18.5t-11 35.5q27 258 97 554q103 433 261 769q14 27 43 29q21 1 42 -10
t32 -27q18 -26 5 -52q-142 -303 -232 -612q52 110 115 216q118 200 232 315q130 132 234 132q76 0 121 -57zM618 522q59 84 91 171.5t32 143.5q0 62 -10 77q-5 1 -17 1q-62 0 -154 -83q-98 -89 -203 -251q-95 -148 -180 -339h28q255 57 413 280z" />
    <glyph glyph-name="Q" unicode="Q" horiz-adv-x="817" 
d="M504 -255q66 5 86.5 2.5t31.5 -14.5q19 -22 2 -46q-18 -25 -44 -13q-1 0 -5 0.5t-6 0.5h-4q-69 -1 -297 -45t-272 -58q-10 -5 -20 -5q-17 0 -29 9q-30 20 -24 53q5 27 33 34q38 10 115 23q-42 27 -71 70q-64 92 -64 225q0 308 130 609q62 144 142 248.5t167 157.5
q130 78 250 28l1 -1l10 -5t10 -4q13 -7 17.5 -22t-2.5 -28t-21.5 -17.5t-27.5 2.5q-2 1 -5 2t-4 2q-96 -3 -194 -95q-92 -86 -173 -248q-73 -146 -116.5 -318.5t-43.5 -314.5q0 -116 40 -190q33 -60 79 -60q61 0 147.5 91.5t169.5 243.5q84 155 134.5 314t50.5 271
q0 140 -47 174q-26 17 -68 5q-26 -12 -51 -40q-11 -11 -26 -12t-26 9t-12 25.5t9 26.5q44 49 95 66t100 -2q57 -22 90 -84t33 -147q0 -119 -54 -291t-144 -341q-107 -201 -215 -304q58 7 123 13z" />
    <glyph glyph-name="R" unicode="R" horiz-adv-x="833" 
d="M576 -220q12 -9 14 -23q1 -13 -7 -25q-17 -21 -48 -21q-13 0 -19 1q-78 14 -199 118.5t-185 234.5q-76 -196 -129 -384q-1 -2 -2 -4.5t-1 -3.5v-1l-2 -10q-3 -20 -20.5 -33t-37.5 -13t-34 14t-14 34q5 225 78 547q90 398 247 789q11 27 41 30q22 3 50.5 -8.5t41.5 -29.5
q18 -23 7 -50q-134 -316 -228 -652q45 99 121 238q129 234 242 362q141 161 255 161q57 0 97.5 -39t40.5 -120q0 -98 -57.5 -209t-163.5 -216q-186 -184 -436 -280q28 -108 114 -224.5t195 -175.5q4 -2 5 -3q18 8 34 -4zM400 611q-98 -158 -180 -339q103 60 187 125
t138.5 121.5t95.5 115t62.5 103.5t34.5 89.5t16.5 70t3.5 48.5q0 21 -11 21q-50 0 -142.5 -87.5t-204.5 -267.5z" />
    <glyph glyph-name="S" unicode="S" horiz-adv-x="813" 
d="M701 1006q83 -57 83 -150q0 -58 -30 -132q-32 -77 -69 -99q-22 -19 -44 0q-10 8 -12 21t5 23q9 16 22.5 70.5t13.5 109.5q0 60 -22.5 77.5t-71.5 17.5q-151 0 -270 -128q-54 -58 -84 -128.5t-30 -136.5q0 -33 13.5 -65t30.5 -55.5t52 -55t57.5 -48.5t68.5 -50
q47 -34 72 -53t63 -53.5t57 -62.5t34 -66t15 -78q0 -50 -41 -105t-112 -98q-173 -105 -439 -105q-80 0 -172 61q-85 57 -106 118q-17 50 21 79q23 17 44 -2t5 -43q10 -22 25 -41.5t40 -40.5t63 -33.5t85 -12.5q187 0 324 89q55 35 87.5 77.5t32.5 78.5q0 28 -12 56
t-27.5 49.5t-47 49.5t-52 44t-61.5 46q-48 36 -74 56.5t-66 58.5t-61 70t-37.5 77t-16.5 92q0 74 33 156t89 149q140 166 344 166q105 0 178 -50z" />
    <glyph glyph-name="T" unicode="T" horiz-adv-x="681" 
d="M965 961q-130 1 -311 -15q-72 -161 -129.5 -318.5t-99 -308t-63.5 -240t-50 -219.5q-33 -151 -46 -196q-5 -16 -18.5 -26.5t-29.5 -10.5q-2 0 -4 1h-3q-18 3 -29 17.5t-10 33.5q9 181 99.5 563.5t219.5 686.5q-191 -23 -299 -56q-4 -1 -13 -1q-20 0 -34 14
q-11 11 -23 34.5t-6 44.5q7 26 34 33q164 40 499 53q128 4 233 1q67 -3 92 -8h2q2 -1 3 -1q31 -6 42 -17q12 -11 13.5 -27.5t-8.5 -29.5t-26 -16t-30 6l-2 1q-2 1 -3 1z" />
    <glyph glyph-name="U" unicode="U" horiz-adv-x="821" 
d="M871 1051q26 -11 33 -29.5t1 -32.5q-94 -255 -167.5 -512.5t-101 -381.5t-63.5 -302q-3 -13 -14 -69.5t-17 -81.5q-4 -17 -17 -28t-30 -11h-5q-18 1 -30 14.5t-13 32.5q-9 215 94 646q-25 -46 -86 -154q-90 -154 -156 -231.5t-121 -90.5q-8 -3 -17 -3h-9q-105 0 -153 116
q-29 70 -29 165q0 165 65 419q62 240 115 312q24 32 74 24q30 -5 50 -16q21 -12 27.5 -32t-1.5 -34q-69 -169 -119 -356t-50 -311v-15q0 -81 4 -116q5 -47 17 -59q1 -2 2 -2q50 31 151 181q99 146 202 344q58 113 156 313q24 48 45 93q32 83 79 187q10 21 33 27t51 -6z" />
    <glyph glyph-name="U" unicode="&#xdc;" horiz-adv-x="821" 
d="M871 1051q26 -11 33 -29.5t1 -32.5q-94 -255 -167.5 -512.5t-101 -381.5t-63.5 -302q-3 -13 -14 -69.5t-17 -81.5q-4 -17 -17 -28t-30 -11h-5q-18 1 -30 14.5t-13 32.5q-9 215 94 646q-25 -46 -86 -154q-90 -154 -156 -231.5t-121 -90.5q-8 -3 -17 -3h-9q-105 0 -153 116
q-29 70 -29 165q0 165 65 419q62 240 115 312q24 32 74 24q30 -5 50 -16q21 -12 27.5 -32t-1.5 -34q-69 -169 -119 -356t-50 -311v-15q0 -81 4 -116q5 -47 17 -59q1 -2 2 -2q50 31 151 181q99 146 202 344q58 113 156 313q24 48 45 93q32 83 79 187q10 21 33 27t51 -6z" />
    <glyph glyph-name="U" unicode="&#xdb;" horiz-adv-x="821" 
d="M871 1051q26 -11 33 -29.5t1 -32.5q-94 -255 -167.5 -512.5t-101 -381.5t-63.5 -302q-3 -13 -14 -69.5t-17 -81.5q-4 -17 -17 -28t-30 -11h-5q-18 1 -30 14.5t-13 32.5q-9 215 94 646q-25 -46 -86 -154q-90 -154 -156 -231.5t-121 -90.5q-8 -3 -17 -3h-9q-105 0 -153 116
q-29 70 -29 165q0 165 65 419q62 240 115 312q24 32 74 24q30 -5 50 -16q21 -12 27.5 -32t-1.5 -34q-69 -169 -119 -356t-50 -311v-15q0 -81 4 -116q5 -47 17 -59q1 -2 2 -2q50 31 151 181q99 146 202 344q58 113 156 313q24 48 45 93q32 83 79 187q10 21 33 27t51 -6z" />
    <glyph glyph-name="U" unicode="&#xda;" horiz-adv-x="821" 
d="M871 1051q26 -11 33 -29.5t1 -32.5q-94 -255 -167.5 -512.5t-101 -381.5t-63.5 -302q-3 -13 -14 -69.5t-17 -81.5q-4 -17 -17 -28t-30 -11h-5q-18 1 -30 14.5t-13 32.5q-9 215 94 646q-25 -46 -86 -154q-90 -154 -156 -231.5t-121 -90.5q-8 -3 -17 -3h-9q-105 0 -153 116
q-29 70 -29 165q0 165 65 419q62 240 115 312q24 32 74 24q30 -5 50 -16q21 -12 27.5 -32t-1.5 -34q-69 -169 -119 -356t-50 -311v-15q0 -81 4 -116q5 -47 17 -59q1 -2 2 -2q50 31 151 181q99 146 202 344q58 113 156 313q24 48 45 93q32 83 79 187q10 21 33 27t51 -6z" />
    <glyph glyph-name="U" unicode="&#xd9;" horiz-adv-x="821" 
d="M871 1051q26 -11 33 -29.5t1 -32.5q-94 -255 -167.5 -512.5t-101 -381.5t-63.5 -302q-3 -13 -14 -69.5t-17 -81.5q-4 -17 -17 -28t-30 -11h-5q-18 1 -30 14.5t-13 32.5q-9 215 94 646q-25 -46 -86 -154q-90 -154 -156 -231.5t-121 -90.5q-8 -3 -17 -3h-9q-105 0 -153 116
q-29 70 -29 165q0 165 65 419q62 240 115 312q24 32 74 24q30 -5 50 -16q21 -12 27.5 -32t-1.5 -34q-69 -169 -119 -356t-50 -311v-15q0 -81 4 -116q5 -47 17 -59q1 -2 2 -2q50 31 151 181q99 146 202 344q58 113 156 313q24 48 45 93q32 83 79 187q10 21 33 27t51 -6z" />
    <glyph glyph-name="V" unicode="V" horiz-adv-x="831" 
d="M909 1056q18 -8 25.5 -25.5t0.5 -35.5q-172 -418 -366 -799q-87 -171 -156 -285t-116.5 -166.5t-78 -71.5t-58.5 -19q-61 0 -96 67q-42 85 -41 302q1 172 31 416q26 208 62 386q37 179 63 217q15 20 40.5 23.5t45 -1.5t34.5 -13q6 -3 16 -11q25 -22 15 -53
q-38 -115 -75 -308.5t-61 -403.5q-24 -208 -26 -351q-1 -100 12 -155q28 21 67 75q62 86 141 232q98 181 317 650q106 226 129 273q2 4 13 32q7 17 26 25q18 8 36 0z" />
    <glyph glyph-name="W" unicode="W" horiz-adv-x="1114" 
d="M1137 938q-9 -174 -64.5 -391.5t-145.5 -433.5q-87 -207 -174 -337q-103 -154 -186 -154q-108 0 -158 124q-34 84 -34 225q0 114 4 191q-58 -110 -98 -171q-54 -84 -97.5 -122t-86.5 -38q-83 0 -109 103q-13 52 -13 140q0 231 69 479t132 332q24 33 75 24q26 -5 49 -17
q21 -12 27 -32t-2 -34q-105 -239 -161 -484q-41 -182 -41 -297q0 -3 -0.5 -11t-0.5 -11q0 -45 2 -54q36 39 101 156q33 58 176 343q5 10 14.5 29.5t14.5 29.5q7 18 24 29t41 8t49.5 -19.5t26.5 -44.5q1 -37 -15 -135q-35 -210 -35 -394q0 -96 12 -161q12 -68 30 -82
q33 14 94 105q73 109 151 285q184 417 235 828q1 10 1 31q1 20 15 33.5t33 12.5q20 -1 33.5 -15.5t12.5 -33.5v-12q2 -6 0 -13q0 -2 -0.5 -5.5t-0.5 -5.5z" />
    <glyph glyph-name="X" unicode="X" horiz-adv-x="735" 
d="M519 -163q13 -10 29 -18q17 -9 23.5 -28t-2.5 -36t-28 -23.5t-36 2.5q-27 14 -48 31l-1 1q-159 123 -233 487q-58 -70 -85 -104q-144 -181 -220.5 -309.5t-85.5 -186.5q11 -11 8 -27t-19 -21q-11 -4 -23 -4q-16 0 -31 10q-27 18 -27 66q0 226 406 692q47 53 49 55
q-39 307 -23 560q2 31 29 42q15 8 51 4q34 -4 48 -15q23 -17 20 -46q-20 -147 1 -408q238 250 498 477q29 25 67 12q21 -8 37 -24.5t19 -34.5q5 -23 -13 -38q-316 -264 -589 -566q54 -387 179 -550z" />
    <glyph glyph-name="Y" unicode="Y" horiz-adv-x="780" 
d="M836 1066q25 -11 33.5 -33t-0.5 -39q-309 -727 -415 -1332q-2 -9 -4.5 -25.5t-4.5 -23.5q-2 -12 -4 -32q-1 -21 -15.5 -33.5t-32.5 -12.5q-15 0 -30.5 11.5t-16.5 36.5q0 2 -0.5 5t-1 8t-0.5 10q-14 181 80 545q35 138 91 305q-3 -4 -8 -12.5t-8 -12.5
q-75 -114 -134 -189.5t-98.5 -110.5t-64.5 -47.5t-48 -12.5q-84 0 -121 84q-58 132 15 422q31 123 77 228q49 110 103 171q23 26 70 15q30 -7 49 -21q20 -15 23.5 -37t-7.5 -36q-46 -74 -94.5 -193t-80.5 -238q-26 -97 -34 -168t-4.5 -96.5t10.5 -32.5h3q32 17 93 89
q75 89 169 234q126 192 302 500q4 9 11.5 25.5t11.5 25.5q10 22 34.5 28.5t51.5 -5.5z" />
    <glyph glyph-name="Y" unicode="&#x178;" horiz-adv-x="780" 
d="M836 1066q25 -11 33.5 -33t-0.5 -39q-309 -727 -415 -1332q-2 -9 -4.5 -25.5t-4.5 -23.5q-2 -12 -4 -32q-1 -21 -15.5 -33.5t-32.5 -12.5q-15 0 -30.5 11.5t-16.5 36.5q0 2 -0.5 5t-1 8t-0.5 10q-14 181 80 545q35 138 91 305q-3 -4 -8 -12.5t-8 -12.5
q-75 -114 -134 -189.5t-98.5 -110.5t-64.5 -47.5t-48 -12.5q-84 0 -121 84q-58 132 15 422q31 123 77 228q49 110 103 171q23 26 70 15q30 -7 49 -21q20 -15 23.5 -37t-7.5 -36q-46 -74 -94.5 -193t-80.5 -238q-26 -97 -34 -168t-4.5 -96.5t10.5 -32.5h3q32 17 93 89
q75 89 169 234q126 192 302 500q4 9 11.5 25.5t11.5 25.5q10 22 34.5 28.5t51.5 -5.5z" />
    <glyph glyph-name="Y" unicode="&#xdd;" horiz-adv-x="780" 
d="M836 1066q25 -11 33.5 -33t-0.5 -39q-309 -727 -415 -1332q-2 -9 -4.5 -25.5t-4.5 -23.5q-2 -12 -4 -32q-1 -21 -15.5 -33.5t-32.5 -12.5q-15 0 -30.5 11.5t-16.5 36.5q0 2 -0.5 5t-1 8t-0.5 10q-14 181 80 545q35 138 91 305q-3 -4 -8 -12.5t-8 -12.5
q-75 -114 -134 -189.5t-98.5 -110.5t-64.5 -47.5t-48 -12.5q-84 0 -121 84q-58 132 15 422q31 123 77 228q49 110 103 171q23 26 70 15q30 -7 49 -21q20 -15 23.5 -37t-7.5 -36q-46 -74 -94.5 -193t-80.5 -238q-26 -97 -34 -168t-4.5 -96.5t10.5 -32.5h3q32 17 93 89
q75 89 169 234q126 192 302 500q4 9 11.5 25.5t11.5 25.5q10 22 34.5 28.5t51.5 -5.5z" />
    <glyph glyph-name="Z" unicode="Z" horiz-adv-x="854" 
d="M19 -60q-80 -83 -117 -137q-37 -53 -37 -79v-2q4 -2 12 -4q23 0 34 1q20 2 120 21q235 47 392 47h8q41 0 63 -3q65 -10 76 -56v-2l1 -2q6 -16 -0.5 -33t-22.5 -25t-33.5 -4t-27.5 19q-29 14 -135 3q-76 -8 -242 -40q-147 -28 -187 -28q-33 0 -65 9q-33 5 -55 22l-2 2
t-2 1q-57 39 -57 104q0 105 198 309q95 98 400 368q246 217 337 309q73 75 105 119q22 30 29 49q-67 17 -229 -22q-227 -55 -413 -175q-18 -11 -38.5 -7t-34.5 21q-14 19 -14 43.5t18 42.5q71 70 251 140q207 80 378 80q88 0 140.5 -39.5t52.5 -106.5q0 -44 -33.5 -100.5
t-114 -140.5t-161 -159t-228.5 -206q-270 -239 -366 -339z" />
    <glyph glyph-name="backslash" unicode="\" horiz-adv-x="413" 
d="M256 969q29 -21 27 -52q-14 -296 -25 -506q-17 -324 -19 -404q-1 -28 -15 -49t-40 -21h-1q-40 0 -48 43q-3 13 -3 28v68q-6 491 26 857q2 23 19 36.5t41 12.5q22 -2 38 -13z" />
    <glyph glyph-name="asciicircum" unicode="^" horiz-adv-x="624" 
d="M521 737q3 -20 -5 -34t-15 -18t-12 -5q-8 -2 -12 -2q-34 0 -53 47q-22 57 -33 149q-10 -15 -27 -40t-24 -35q-55 -81 -85 -117q-20 -23 -56 -23q-9 0 -29 4q-57 12 -66 46q-7 27 12 44q36 34 124 137.5t137 172.5q14 20 37 22q25 4 50 -10q40 -21 38 -59q-4 -132 19 -279
z" />
    <glyph glyph-name="underscore" unicode="_" horiz-adv-x="522" 
d="M344 17q15 -21 5 -44q-9 -21 -36 -25q-9 -1 -189 -6t-189 -5q-34 0 -51 30q-14 25 0 50q15 25 45 23h21h210q96 -2 107 -3q62 -4 77 -20z" />
    <glyph glyph-name="a" unicode="a" horiz-adv-x="577" 
d="M495 20q14 -4 22 -16.5t4 -26.5t-16.5 -22t-26.5 -4q-125 31 -155 239l-5.5 -11l-5.5 -11q-55 -104 -101 -151.5t-92 -47.5q-51 0 -82 42q-29 38 -29 104q0 164 104 305q41 55 93 94.5t100 39.5q94 0 127 -71q0 -2 2 -5t2 -5q19 -11 16 -35q-15 -100 -7 -235
q10 -161 48 -183h2zM146 94q73 85 174 330q-14 -4 -42 -29.5t-57 -72.5q-68 -110 -75 -228z" />
    <glyph glyph-name="a" unicode="&#xe5;" horiz-adv-x="577" 
d="M495 20q14 -4 22 -16.5t4 -26.5t-16.5 -22t-26.5 -4q-125 31 -155 239l-5.5 -11l-5.5 -11q-55 -104 -101 -151.5t-92 -47.5q-51 0 -82 42q-29 38 -29 104q0 164 104 305q41 55 93 94.5t100 39.5q94 0 127 -71q0 -2 2 -5t2 -5q19 -11 16 -35q-15 -100 -7 -235
q10 -161 48 -183h2zM146 94q73 85 174 330q-14 -4 -42 -29.5t-57 -72.5q-68 -110 -75 -228z" />
    <glyph glyph-name="a" unicode="&#xe4;" horiz-adv-x="577" 
d="M495 20q14 -4 22 -16.5t4 -26.5t-16.5 -22t-26.5 -4q-125 31 -155 239l-5.5 -11l-5.5 -11q-55 -104 -101 -151.5t-92 -47.5q-51 0 -82 42q-29 38 -29 104q0 164 104 305q41 55 93 94.5t100 39.5q94 0 127 -71q0 -2 2 -5t2 -5q19 -11 16 -35q-15 -100 -7 -235
q10 -161 48 -183h2zM146 94q73 85 174 330q-14 -4 -42 -29.5t-57 -72.5q-68 -110 -75 -228z" />
    <glyph glyph-name="a" unicode="&#xe3;" horiz-adv-x="577" 
d="M495 20q14 -4 22 -16.5t4 -26.5t-16.5 -22t-26.5 -4q-125 31 -155 239l-5.5 -11l-5.5 -11q-55 -104 -101 -151.5t-92 -47.5q-51 0 -82 42q-29 38 -29 104q0 164 104 305q41 55 93 94.5t100 39.5q94 0 127 -71q0 -2 2 -5t2 -5q19 -11 16 -35q-15 -100 -7 -235
q10 -161 48 -183h2zM146 94q73 85 174 330q-14 -4 -42 -29.5t-57 -72.5q-68 -110 -75 -228z" />
    <glyph glyph-name="a" unicode="&#xe2;" horiz-adv-x="577" 
d="M495 20q14 -4 22 -16.5t4 -26.5t-16.5 -22t-26.5 -4q-125 31 -155 239l-5.5 -11l-5.5 -11q-55 -104 -101 -151.5t-92 -47.5q-51 0 -82 42q-29 38 -29 104q0 164 104 305q41 55 93 94.5t100 39.5q94 0 127 -71q0 -2 2 -5t2 -5q19 -11 16 -35q-15 -100 -7 -235
q10 -161 48 -183h2zM146 94q73 85 174 330q-14 -4 -42 -29.5t-57 -72.5q-68 -110 -75 -228z" />
    <glyph glyph-name="a" unicode="&#xe1;" horiz-adv-x="577" 
d="M495 20q14 -4 22 -16.5t4 -26.5t-16.5 -22t-26.5 -4q-125 31 -155 239l-5.5 -11l-5.5 -11q-55 -104 -101 -151.5t-92 -47.5q-51 0 -82 42q-29 38 -29 104q0 164 104 305q41 55 93 94.5t100 39.5q94 0 127 -71q0 -2 2 -5t2 -5q19 -11 16 -35q-15 -100 -7 -235
q10 -161 48 -183h2zM146 94q73 85 174 330q-14 -4 -42 -29.5t-57 -72.5q-68 -110 -75 -228z" />
    <glyph glyph-name="a" unicode="&#xe0;" horiz-adv-x="577" 
d="M495 20q14 -4 22 -16.5t4 -26.5t-16.5 -22t-26.5 -4q-125 31 -155 239l-5.5 -11l-5.5 -11q-55 -104 -101 -151.5t-92 -47.5q-51 0 -82 42q-29 38 -29 104q0 164 104 305q41 55 93 94.5t100 39.5q94 0 127 -71q0 -2 2 -5t2 -5q19 -11 16 -35q-15 -100 -7 -235
q10 -161 48 -183h2zM146 94q73 85 174 330q-14 -4 -42 -29.5t-57 -72.5q-68 -110 -75 -228z" />
    <glyph glyph-name="b" unicode="b" horiz-adv-x="583" 
d="M505 496q44 -49 44 -141q0 -121 -54 -251.5t-136 -180.5q-38 -23 -76 -23q-31 0 -61 16q-13 7 -17.5 21.5t2.5 27.5t21.5 18t27.5 -2l1 -1h2q68 58 114 172q44 110 47 215q2 68 -13 90q-21 -4 -57.5 -45t-76.5 -120q-98 -195 -132 -447q0 -1 -0.5 -1t-0.5 -1
q0 -7 -1 -20.5t-2 -20.5l-1 -6q-2 -19 -16.5 -33t-39.5 -14h-3q-13 0 -31 7q-32 13 -32 44q0 229 71 586q81 410 199 673q8 18 28 25t57 -5q34 -13 46 -36t4 -45q-100 -276 -174 -571q78 113 154 113q67 0 106 -44z" />
    <glyph glyph-name="c" unicode="c" horiz-adv-x="501" 
d="M464 191q11 -11 12 -26t-9 -26q-2 -2 -8 -10q-21 -27 -35 -43t-45 -46t-65 -46t-69 -16q-84 0 -143.5 77t-59.5 186q0 144 78 267q86 137 209 137q40 0 73 -17.5t52 -48.5q44 -74 -7 -169q-18 -28 -49 -16q-14 5 -20.5 17.5t-3.5 26.5q4 68 -8 95q-16 -6 -43 -34.5
t-54 -76.5q-75 -132 -75 -253q0 -45 13 -79q11 -30 30 -30q15 0 33 9t43 30t34 28.5t34 31.5q5 5 15 14t14 13l2 2q11 11 26 12t26 -9z" />
    <glyph glyph-name="c" unicode="&#xe7;" horiz-adv-x="501" 
d="M464 191q11 -11 12 -26t-9 -26q-2 -2 -8 -10q-21 -27 -35 -43t-45 -46t-65 -46t-69 -16q-84 0 -143.5 77t-59.5 186q0 144 78 267q86 137 209 137q40 0 73 -17.5t52 -48.5q44 -74 -7 -169q-18 -28 -49 -16q-14 5 -20.5 17.5t-3.5 26.5q4 68 -8 95q-16 -6 -43 -34.5
t-54 -76.5q-75 -132 -75 -253q0 -45 13 -79q11 -30 30 -30q15 0 33 9t43 30t34 28.5t34 31.5q5 5 15 14t14 13l2 2q11 11 26 12t26 -9z" />
    <glyph glyph-name="d" unicode="d" horiz-adv-x="548" 
d="M668 1017q18 -10 24.5 -27.5t-1.5 -36.5q-46 -108 -120 -378q-115 -421 -142 -773q-2 -34 -18 -55t-39 -21q-29 0 -43 31q-9 19 -10 45q-10 135 8 296q-91 -133 -172 -133q-67 0 -103 53q-32 49 -32 134q0 75 24.5 156t67.5 149q48 76 107 117.5t119 41.5q50 0 93 -26
q44 146 91 260.5t72 153.5q10 15 30.5 19.5t43.5 -6.5zM387 427q2 8 6.5 26.5t7.5 27.5q-9 9 -11 14q-3 7 -16 13q-9 -4 -25 -16q-63 -49 -116 -161t-52 -252q41 33 100 134q48 83 105 213z" />
    <glyph glyph-name="e" unicode="e" horiz-adv-x="421" 
d="M314 252q-67 -38 -130 -15q0 -3 -0.5 -9t-0.5 -9q0 -57 22 -114q30 -77 88 -78q3 1 11 3q13 3 24.5 -4t14.5 -21t-4 -25t-20 -14q-8 -2 -20 -4h-1q-7 -1 -20 -1q-58 0 -107 38q-60 47 -93.5 130.5t-33.5 147.5q0 121 68 213t157 92q43 0 88 -27q71 -43 71 -125
q0 -48 -32.5 -99t-81.5 -79zM235 389q-23 -39 -36 -81q36 -5 74 27q23 20 38.5 50t15.5 55q0 8 -4 17.5t-11 9.5q-11 0 -33 -20.5t-44 -57.5z" />
    <glyph glyph-name="e" unicode="&#xeb;" horiz-adv-x="421" 
d="M314 252q-67 -38 -130 -15q0 -3 -0.5 -9t-0.5 -9q0 -57 22 -114q30 -77 88 -78q3 1 11 3q13 3 24.5 -4t14.5 -21t-4 -25t-20 -14q-8 -2 -20 -4h-1q-7 -1 -20 -1q-58 0 -107 38q-60 47 -93.5 130.5t-33.5 147.5q0 121 68 213t157 92q43 0 88 -27q71 -43 71 -125
q0 -48 -32.5 -99t-81.5 -79zM235 389q-23 -39 -36 -81q36 -5 74 27q23 20 38.5 50t15.5 55q0 8 -4 17.5t-11 9.5q-11 0 -33 -20.5t-44 -57.5z" />
    <glyph glyph-name="e" unicode="&#xea;" horiz-adv-x="421" 
d="M314 252q-67 -38 -130 -15q0 -3 -0.5 -9t-0.5 -9q0 -57 22 -114q30 -77 88 -78q3 1 11 3q13 3 24.5 -4t14.5 -21t-4 -25t-20 -14q-8 -2 -20 -4h-1q-7 -1 -20 -1q-58 0 -107 38q-60 47 -93.5 130.5t-33.5 147.5q0 121 68 213t157 92q43 0 88 -27q71 -43 71 -125
q0 -48 -32.5 -99t-81.5 -79zM235 389q-23 -39 -36 -81q36 -5 74 27q23 20 38.5 50t15.5 55q0 8 -4 17.5t-11 9.5q-11 0 -33 -20.5t-44 -57.5z" />
    <glyph glyph-name="e" unicode="&#xe9;" horiz-adv-x="421" 
d="M314 252q-67 -38 -130 -15q0 -3 -0.5 -9t-0.5 -9q0 -57 22 -114q30 -77 88 -78q3 1 11 3q13 3 24.5 -4t14.5 -21t-4 -25t-20 -14q-8 -2 -20 -4h-1q-7 -1 -20 -1q-58 0 -107 38q-60 47 -93.5 130.5t-33.5 147.5q0 121 68 213t157 92q43 0 88 -27q71 -43 71 -125
q0 -48 -32.5 -99t-81.5 -79zM235 389q-23 -39 -36 -81q36 -5 74 27q23 20 38.5 50t15.5 55q0 8 -4 17.5t-11 9.5q-11 0 -33 -20.5t-44 -57.5z" />
    <glyph glyph-name="e" unicode="&#xe8;" horiz-adv-x="421" 
d="M314 252q-67 -38 -130 -15q0 -3 -0.5 -9t-0.5 -9q0 -57 22 -114q30 -77 88 -78q3 1 11 3q13 3 24.5 -4t14.5 -21t-4 -25t-20 -14q-8 -2 -20 -4h-1q-7 -1 -20 -1q-58 0 -107 38q-60 47 -93.5 130.5t-33.5 147.5q0 121 68 213t157 92q43 0 88 -27q71 -43 71 -125
q0 -48 -32.5 -99t-81.5 -79zM235 389q-23 -39 -36 -81q36 -5 74 27q23 20 38.5 50t15.5 55q0 8 -4 17.5t-11 9.5q-11 0 -33 -20.5t-44 -57.5z" />
    <glyph glyph-name="f" unicode="f" horiz-adv-x="448" 
d="M546 848q42 -57 19 -135q-9 -27 -35 -27t-35 26q-4 8 -4 12q-1 16 -9 44q-53 -65 -110 -220q0 -1 -1 -3t-1 -3q66 0 83 -8q14 -6 21 -19t4 -26q-6 -30 -41 -30q-37 0 -97 -7q-83 -274 -116 -650q-2 -22 -16 -35.5t-34 -13.5t-36.5 16t-18.5 45q-22 260 59 589q1 4 3.5 13
t3.5 14q-10 -2 -25 -4.5t-20 -3.5q-28 -5 -37 -5q-18 0 -30.5 13.5t-15.5 30.5q-3 18 5.5 32.5t24.5 19.5q32 11 127 20q68 220 151 309q47 51 95 51q52 0 86 -45z" />
    <glyph glyph-name="g" unicode="g" horiz-adv-x="585" 
d="M525 452q35 -59 18 -208q-15 -121 -63 -293q-47 -167 -110.5 -328.5t-126.5 -272.5q-10 -17 -28.5 -22t-35.5 4t-23 27.5t3 35.5q0 2 2 4q129 338 210 646q65 245 60 334q-6 -6 -28 -36q-18 -25 -73 -113q-70 -114 -107.5 -159t-75.5 -45q-51 0 -89.5 44.5t-38.5 125.5
q0 93 64 208q38 67 85 103t96 36q84 0 107 -75q37 32 72 32q54 0 82 -48zM249 294q42 72 70 112q-19 8 -24 29v1h-2q-12 -7 -40.5 -46t-55.5 -92q-53 -103 -45 -144q14 11 35 41q25 37 62 99z" />
    <glyph glyph-name="h" unicode="h" horiz-adv-x="565" 
d="M500 32v-7q5 -18 -3.5 -34.5t-25.5 -23.5t-34 0.5t-25 24.5l-3.5 7t-3.5 8l-3 9q-34 100 -32 352q0 9 0.5 27t0.5 26q-38 -70 -68 -141q-91 -215 -158 -485q-17 -38 -58 -40q-22 0 -43 15.5t-22 37.5q-14 249 73 636q87 385 199 594q10 18 32 23t45 -5q24 -10 34.5 -30.5
t2.5 -42.5q-131 -378 -199 -670l15 36q47 105 85 162q52 79 100 79q34 0 55 -23q27 -28 32 -83.5t2 -188.5q-4 -169 2 -263z" />
    <glyph glyph-name="i" unicode="i" horiz-adv-x="251" 
d="M273 696q13 -14 13 -42v-2q0 -19 -10 -39q-17 -33 -48 -33q-24 0 -42.5 17.5t-18.5 46.5q0 35 18 51.5t43 16.5q29 0 45 -16zM229 529q39 -26 23 -62q-41 -92 -71.5 -216.5t-38.5 -214.5q-2 -20 -15.5 -35.5t-35.5 -15.5h-1q-21 0 -39 14t-19 34q-6 128 27 296
q32 165 71 204q24 18 50.5 14.5t48.5 -18.5z" />
    <glyph glyph-name="i" unicode="&#xef;" horiz-adv-x="251" 
d="M273 696q13 -14 13 -42v-2q0 -19 -10 -39q-17 -33 -48 -33q-24 0 -42.5 17.5t-18.5 46.5q0 35 18 51.5t43 16.5q29 0 45 -16zM229 529q39 -26 23 -62q-41 -92 -71.5 -216.5t-38.5 -214.5q-2 -20 -15.5 -35.5t-35.5 -15.5h-1q-21 0 -39 14t-19 34q-6 128 27 296
q32 165 71 204q24 18 50.5 14.5t48.5 -18.5z" />
    <glyph glyph-name="i" unicode="&#xee;" horiz-adv-x="251" 
d="M273 696q13 -14 13 -42v-2q0 -19 -10 -39q-17 -33 -48 -33q-24 0 -42.5 17.5t-18.5 46.5q0 35 18 51.5t43 16.5q29 0 45 -16zM229 529q39 -26 23 -62q-41 -92 -71.5 -216.5t-38.5 -214.5q-2 -20 -15.5 -35.5t-35.5 -15.5h-1q-21 0 -39 14t-19 34q-6 128 27 296
q32 165 71 204q24 18 50.5 14.5t48.5 -18.5z" />
    <glyph glyph-name="i" unicode="&#xed;" horiz-adv-x="251" 
d="M273 696q13 -14 13 -42v-2q0 -19 -10 -39q-17 -33 -48 -33q-24 0 -42.5 17.5t-18.5 46.5q0 35 18 51.5t43 16.5q29 0 45 -16zM229 529q39 -26 23 -62q-41 -92 -71.5 -216.5t-38.5 -214.5q-2 -20 -15.5 -35.5t-35.5 -15.5h-1q-21 0 -39 14t-19 34q-6 128 27 296
q32 165 71 204q24 18 50.5 14.5t48.5 -18.5z" />
    <glyph glyph-name="i" unicode="&#xec;" horiz-adv-x="251" 
d="M273 696q13 -14 13 -42v-2q0 -19 -10 -39q-17 -33 -48 -33q-24 0 -42.5 17.5t-18.5 46.5q0 35 18 51.5t43 16.5q29 0 45 -16zM229 529q39 -26 23 -62q-41 -92 -71.5 -216.5t-38.5 -214.5q-2 -20 -15.5 -35.5t-35.5 -15.5h-1q-21 0 -39 14t-19 34q-6 128 27 296
q32 165 71 204q24 18 50.5 14.5t48.5 -18.5z" />
    <glyph glyph-name="j" unicode="j" horiz-adv-x="284" 
d="M195 626q28 -3 55.5 -26t26.5 -50q-1 -10 -10.5 -62t-31 -152t-46.5 -201q-112 -450 -259 -765q-16 -34 -45 -34q-9 0 -16 3q-19 7 -26 28.5t3 55.5q163 453 290 1160q4 22 20 33.5t39 9.5zM233 674q-29 0 -48 19t-19 49q0 21 9 39q16 34 48 34q31 0 51 -21t20 -54
q0 -32 -18.5 -49t-42.5 -17z" />
    <glyph glyph-name="k" unicode="k" horiz-adv-x="522" 
d="M519 510q13 -33 -16 -54q-3 -3 -9 -6q-108 -79 -146 -111q-104 -88 -121 -137q6 -18 50 -47q45 -30 155 -85q1 0 2.5 -1t2.5 -2q11 -6 15.5 -18t-0.5 -24t-17 -17t-24 -1q-110 35 -203 94q-24 16 -40 28q-10 -54 -35 -219q-13 -87 -23 -135q-4 -19 -21.5 -34t-38.5 -15
h-8q-5 1 -11 3.5t-15.5 9.5t-14.5 22t-3 37q6 73 18 167.5t39.5 267.5t79.5 371.5t119 371.5q8 21 31 27t53 -5q32 -12 43.5 -33.5t4.5 -42.5q-100 -288 -159 -525q26 25 76 65q103 82 137 87q25 4 48 -7.5t31 -31.5z" />
    <glyph glyph-name="l" unicode="l" horiz-adv-x="294" 
d="M418 963q-109 -247 -188.5 -526t-85.5 -499q-1 -65 17 -73q25 -12 25 -36q0 -27 -23 -39q-17 -9 -37 -9q-16 0 -30 8q-33 22 -51.5 88.5t-18.5 160.5q0 123 77 436q30 123 72 255q58 184 109 288q12 24 45.5 26.5t55.5 -10.5q26 -12 34 -33t-1 -37z" />
    <glyph glyph-name="m" unicode="m" horiz-adv-x="759" 
d="M705 582q42 -22 32 -72q-1 -3 -17 -90.5t-39.5 -231.5t-38.5 -256q-2 -17 -13 -28.5t-27 -12.5h-3q-35 0 -47 40q-9 30 -9 87.5t3.5 98.5t12.5 125q0 6 1.5 20t2.5 21q-21 -44 -44 -85q-36 -63 -64 -91t-56 -28q-52 0 -70 58q-7 23 -11 76q0 2 -0.5 8.5t-0.5 9.5l-59 -95
q-62 -103 -93 -141q-13 -16 -39 -21t-48 3q-51 20 -51 80q0 103 22 229q32 182 91 275q16 24 54 22q24 -1 45 -12q22 -12 32.5 -32t1.5 -43q-55 -139 -88 -270q79 134 110 172.5t58 38.5q38 0 54 -12q26 -19 26 -64v-35q0 -46 2 -67q15 23 64 111q91 164 131 205
q13 13 34.5 15t40.5 -8z" />
    <glyph glyph-name="n" unicode="n" horiz-adv-x="575" 
d="M523 447q0 -42 -19 -152q-13 -71 -19 -113t-5 -97.5t17 -82.5q16 -26 -6 -46t-46 -3l-6 3q-69 46 -66 193q1 72 25 209q-41 -60 -116 -178q-108 -167 -132 -197q-13 -16 -39 -21t-48 3q-51 20 -51 80q0 88 36 245t98 247q15 22 46.5 25.5t54.5 -11.5q21 -12 28 -33
t-3 -41q-54 -110 -78 -234q40 60 69 102q52 73 96 122q58 65 96 65q44 0 60 -30q8 -16 8 -55z" />
    <glyph glyph-name="n" unicode="&#xf1;" horiz-adv-x="575" 
d="M523 447q0 -42 -19 -152q-13 -71 -19 -113t-5 -97.5t17 -82.5q16 -26 -6 -46t-46 -3l-6 3q-69 46 -66 193q1 72 25 209q-41 -60 -116 -178q-108 -167 -132 -197q-13 -16 -39 -21t-48 3q-51 20 -51 80q0 88 36 245t98 247q15 22 46.5 25.5t54.5 -11.5q21 -12 28 -33
t-3 -41q-54 -110 -78 -234q40 60 69 102q52 73 96 122q58 65 96 65q44 0 60 -30q8 -16 8 -55z" />
    <glyph glyph-name="o" unicode="o" horiz-adv-x="403" 
d="M351 433q36 -49 25 -138q-11 -96 -65 -178q-63 -97 -137 -97q-67 0 -109 59q-37 53 -37 127q0 108 41 183.5t97 101.5q64 29 111 -12l1 -1q5 0 8 -1q37 -9 62 -40q1 -1 3 -4zM259 207q56 113 29 187q-5 5 -11 8q-15 -20 -39 -13q-25 -23 -50.5 -84.5t-25.5 -141.5
q0 -39 8 -53q4 -6 8 -6q12 4 36 31.5t45 71.5z" />
    <glyph glyph-name="o" unicode="&#xf8;" horiz-adv-x="403" 
d="M351 433q36 -49 25 -138q-11 -96 -65 -178q-63 -97 -137 -97q-67 0 -109 59q-37 53 -37 127q0 108 41 183.5t97 101.5q64 29 111 -12l1 -1q5 0 8 -1q37 -9 62 -40q1 -1 3 -4zM259 207q56 113 29 187q-5 5 -11 8q-15 -20 -39 -13q-25 -23 -50.5 -84.5t-25.5 -141.5
q0 -39 8 -53q4 -6 8 -6q12 4 36 31.5t45 71.5z" />
    <glyph glyph-name="o" unicode="&#xf6;" horiz-adv-x="403" 
d="M351 433q36 -49 25 -138q-11 -96 -65 -178q-63 -97 -137 -97q-67 0 -109 59q-37 53 -37 127q0 108 41 183.5t97 101.5q64 29 111 -12l1 -1q5 0 8 -1q37 -9 62 -40q1 -1 3 -4zM259 207q56 113 29 187q-5 5 -11 8q-15 -20 -39 -13q-25 -23 -50.5 -84.5t-25.5 -141.5
q0 -39 8 -53q4 -6 8 -6q12 4 36 31.5t45 71.5z" />
    <glyph glyph-name="o" unicode="&#xf5;" horiz-adv-x="403" 
d="M351 433q36 -49 25 -138q-11 -96 -65 -178q-63 -97 -137 -97q-67 0 -109 59q-37 53 -37 127q0 108 41 183.5t97 101.5q64 29 111 -12l1 -1q5 0 8 -1q37 -9 62 -40q1 -1 3 -4zM259 207q56 113 29 187q-5 5 -11 8q-15 -20 -39 -13q-25 -23 -50.5 -84.5t-25.5 -141.5
q0 -39 8 -53q4 -6 8 -6q12 4 36 31.5t45 71.5z" />
    <glyph glyph-name="o" unicode="&#xf4;" horiz-adv-x="403" 
d="M351 433q36 -49 25 -138q-11 -96 -65 -178q-63 -97 -137 -97q-67 0 -109 59q-37 53 -37 127q0 108 41 183.5t97 101.5q64 29 111 -12l1 -1q5 0 8 -1q37 -9 62 -40q1 -1 3 -4zM259 207q56 113 29 187q-5 5 -11 8q-15 -20 -39 -13q-25 -23 -50.5 -84.5t-25.5 -141.5
q0 -39 8 -53q4 -6 8 -6q12 4 36 31.5t45 71.5z" />
    <glyph glyph-name="o" unicode="&#xf3;" horiz-adv-x="403" 
d="M351 433q36 -49 25 -138q-11 -96 -65 -178q-63 -97 -137 -97q-67 0 -109 59q-37 53 -37 127q0 108 41 183.5t97 101.5q64 29 111 -12l1 -1q5 0 8 -1q37 -9 62 -40q1 -1 3 -4zM259 207q56 113 29 187q-5 5 -11 8q-15 -20 -39 -13q-25 -23 -50.5 -84.5t-25.5 -141.5
q0 -39 8 -53q4 -6 8 -6q12 4 36 31.5t45 71.5z" />
    <glyph glyph-name="o" unicode="&#xf2;" horiz-adv-x="403" 
d="M351 433q36 -49 25 -138q-11 -96 -65 -178q-63 -97 -137 -97q-67 0 -109 59q-37 53 -37 127q0 108 41 183.5t97 101.5q64 29 111 -12l1 -1q5 0 8 -1q37 -9 62 -40q1 -1 3 -4zM259 207q56 113 29 187q-5 5 -11 8q-15 -20 -39 -13q-25 -23 -50.5 -84.5t-25.5 -141.5
q0 -39 8 -53q4 -6 8 -6q12 4 36 31.5t45 71.5z" />
    <glyph glyph-name="p" unicode="p" horiz-adv-x="665" 
d="M614 451q31 -40 31 -110q0 -56 -33.5 -140t-92.5 -142q-64 -62 -141 -73h-2l-2 -1q-22 -2 -33 -2q-15 0 -25.5 11.5t-10.5 26.5t11.5 25.5t26.5 10.5h15q169 120 169 319q0 24 -5 36q-2 3 -8 3q-35 0 -105.5 -76.5t-147.5 -225.5q-191 -375 -262 -904v-16q0 -1 -1 -1
q-2 -20 -18 -33t-40 -13t-37.5 13t-13.5 31q-2 321 78 711q36 179 85 348q49 168 104 302q8 20 31 26.5t51 -4.5q16 -6 30 -20q23 -24 12 -52q-66 -172 -133 -417q79 173 163 279q106 135 200 135q68 0 104 -47z" />
    <glyph glyph-name="q" unicode="q" horiz-adv-x="512" 
d="M490 524q23 -8 33.5 -28t3.5 -42q-55 -172 -96.5 -336.5t-68.5 -316t-40 -240.5t-29 -217q-10 -84 -21 -155q-3 -18 -16 -29t-32 -11h-4q-19 1 -32 14t-14 31q-5 145 25 375t84 463q-76 -100 -137 -100t-101.5 49t-40.5 122q0 166 103 298q45 58 96.5 91.5t94.5 33.5
q63 0 118 -49q2 3 4.5 10t3.5 11q7 19 26 26.5t40 -0.5zM290 227q54 95 82 153q-26 28 -45 38q-16 -5 -44.5 -33.5t-56.5 -75.5q-78 -128 -78 -264q26 26 42 47q19 24 99 134z" />
    <glyph glyph-name="r" unicode="r" horiz-adv-x="528" 
d="M554 566q20 -5 27 -26q6 -21 -9 -36t-36 -10h-2l-2 1q-96 -35 -196 -173q-121 -164 -207 -417q-8 -22 -30 -25q-9 -3 -20 -3h-3q-21 2 -36 10q-31 16 -31 42q-1 154 46.5 364.5t110.5 306.5q19 27 58 20q22 -4 42 -15q15 -8 26 -20q22 -24 9 -51q-42 -95 -76 -199
q66 92 136 154q112 99 193 77z" />
    <glyph glyph-name="s" unicode="s" horiz-adv-x="493" 
d="M483 548q33 -69 -44 -162q-11 -11 -27.5 -12t-28.5 9t-15 25t5 29q16 27 14 61q-44 -17 -94 -64q-80 -75 -80 -147q0 -15 14.5 -36.5t28.5 -36.5t43 -42q38 -36 58.5 -58t40 -58t19.5 -70q0 -54 -79 -89q-70 -32 -159 -32h-2q-101 0 -157 50q-11 10 -11.5 25t9.5 26
t25 12t26 -9q44 -3 97 4q81 9 110 35q11 10 11 24q0 10 -21 33q-20 23 -65 62q-34 30 -53.5 49t-44.5 48.5t-37 58t-12 58.5q0 39 19.5 87.5t53.5 93t87.5 75t114.5 30.5q36 0 85 -18.5t69 -60.5z" />
    <glyph glyph-name="t" unicode="t" horiz-adv-x="575" 
d="M412 664q91 23 129.5 26t55.5 -13q10 -9 12 -23t-6 -25q-7 -11 -20.5 -14.5t-26.5 2.5h-6q-66 -16 -166 -47q-101 -352 -101 -563q0 -54 8 -93t15 -51t13 -17q20 3 46 28t31 41q1 14 11 24t24 11h4q13 1 24 -7.5t14 -22.5q7 -35 -28 -80q-25 -31 -62.5 -54.5t-69.5 -23.5
q-31 0 -62 20.5t-55 56.5q-56 86 -56 235q0 187 61 437q-39 -10 -69 -10t-50 14q0 1 -2 2l-2 1q-23 15 -16 41q7 27 35 27q24 0 132 28q67 232 157 399q13 24 42 33.5t55 -2.5q21 -9 31 -31t-1 -51q-54 -148 -101 -298z" />
    <glyph glyph-name="u" unicode="u" horiz-adv-x="577" 
d="M495 74q13 -2 22 -13t8 -25t-11.5 -23.5t-24.5 -9.5q-102 0 -134 136q-5 21 -9 61l-9 -18q-66 -134 -119 -176l-2 -1q-2 -1 -3 -2q-29 -21 -57 -21q-65 0 -97 63q-39 79 -14 246q22 149 61 202q18 26 59 26q26 0 49 -14t30 -38t-5 -47q-22 -41 -53 -168
q-29 -117 -17 -162q39 41 90 148q43 89 84 203q6 17 22.5 26t34.5 5h1l1 -1q58 -9 58 -91q0 -17 -2 -57q-4 -100 3 -158q9 -70 34 -91z" />
    <glyph glyph-name="u" unicode="&#xfc;" horiz-adv-x="577" 
d="M495 74q13 -2 22 -13t8 -25t-11.5 -23.5t-24.5 -9.5q-102 0 -134 136q-5 21 -9 61l-9 -18q-66 -134 -119 -176l-2 -1q-2 -1 -3 -2q-29 -21 -57 -21q-65 0 -97 63q-39 79 -14 246q22 149 61 202q18 26 59 26q26 0 49 -14t30 -38t-5 -47q-22 -41 -53 -168
q-29 -117 -17 -162q39 41 90 148q43 89 84 203q6 17 22.5 26t34.5 5h1l1 -1q58 -9 58 -91q0 -17 -2 -57q-4 -100 3 -158q9 -70 34 -91z" />
    <glyph glyph-name="u" unicode="&#xfb;" horiz-adv-x="577" 
d="M495 74q13 -2 22 -13t8 -25t-11.5 -23.5t-24.5 -9.5q-102 0 -134 136q-5 21 -9 61l-9 -18q-66 -134 -119 -176l-2 -1q-2 -1 -3 -2q-29 -21 -57 -21q-65 0 -97 63q-39 79 -14 246q22 149 61 202q18 26 59 26q26 0 49 -14t30 -38t-5 -47q-22 -41 -53 -168
q-29 -117 -17 -162q39 41 90 148q43 89 84 203q6 17 22.5 26t34.5 5h1l1 -1q58 -9 58 -91q0 -17 -2 -57q-4 -100 3 -158q9 -70 34 -91z" />
    <glyph glyph-name="u" unicode="&#xfa;" horiz-adv-x="577" 
d="M495 74q13 -2 22 -13t8 -25t-11.5 -23.5t-24.5 -9.5q-102 0 -134 136q-5 21 -9 61l-9 -18q-66 -134 -119 -176l-2 -1q-2 -1 -3 -2q-29 -21 -57 -21q-65 0 -97 63q-39 79 -14 246q22 149 61 202q18 26 59 26q26 0 49 -14t30 -38t-5 -47q-22 -41 -53 -168
q-29 -117 -17 -162q39 41 90 148q43 89 84 203q6 17 22.5 26t34.5 5h1l1 -1q58 -9 58 -91q0 -17 -2 -57q-4 -100 3 -158q9 -70 34 -91z" />
    <glyph glyph-name="u" unicode="&#xf9;" horiz-adv-x="577" 
d="M495 74q13 -2 22 -13t8 -25t-11.5 -23.5t-24.5 -9.5q-102 0 -134 136q-5 21 -9 61l-9 -18q-66 -134 -119 -176l-2 -1q-2 -1 -3 -2q-29 -21 -57 -21q-65 0 -97 63q-39 79 -14 246q22 149 61 202q18 26 59 26q26 0 49 -14t30 -38t-5 -47q-22 -41 -53 -168
q-29 -117 -17 -162q39 41 90 148q43 89 84 203q6 17 22.5 26t34.5 5h1l1 -1q58 -9 58 -91q0 -17 -2 -57q-4 -100 3 -158q9 -70 34 -91z" />
    <glyph glyph-name="v" unicode="v" horiz-adv-x="591" 
d="M591 581q22 -135 -38 -307q-54 -159 -142 -260q-37 -44 -71 -66q-8 -13 -26 -18q-2 0 -5.5 -1t-5.5 -1q-25 -12 -55 -12q-72 0 -118 60q-46 59 -58 173.5t-1 212t31 171.5q10 35 45 41q24 4 53 -7.5t45 -31.5q24 -32 8 -66q-16 -59 -15 -218q3 -186 42 -227l1 -1
q28 17 58 53q77 90 126.5 233.5t31.5 256.5q-3 19 8.5 34.5t31.5 18.5q19 3 35 -8t19 -30z" />
    <glyph glyph-name="w" unicode="w" horiz-adv-x="851" 
d="M830 522q18 -67 2 -163q-21 -129 -85 -256q-44 -89 -95 -144q-63 -68 -126 -68h-3h-1q-11 0 -22 3q-44 8 -71 37q-60 60 -67 218q-96 -148 -189 -148q-80 0 -112 82q-22 53 -19 134q3 77 21 150q42 177 106 240q17 16 44.5 16.5t51.5 -9t38 -22.5q20 -18 22 -41.5
t-11 -37.5q-9 -13 -34 -75.5t-47 -130.5q-47 -146 -41 -206q26 12 57 51q35 44 86 135q40 67 41 69q11 16 30.5 19.5t35.5 -7.5l2 -1q1 -1 2 -1q15 -5 23.5 -17.5t7.5 -28.5q-7 -71 -7.5 -129.5t3.5 -92.5t11 -60t12.5 -36t11.5 -16t10 -8h5q9 2 25.5 15t44 47.5t53.5 82.5
q92 171 98 386q-3 10 -11 20q-11 14 -8 32.5t17 28.5q14 11 32.5 8t28.5 -17q18 -24 25 -50q0 -1 1 -4t1 -5z" />
    <glyph glyph-name="x" unicode="x" horiz-adv-x="591" 
d="M621 576q11 -17 6 -40q-5 -21 -23 -32q-132 -85 -261 -224q51 -177 149 -291q1 -1 2.5 -4t2.5 -4q21 -21 10 -47q-12 -27 -41 -27q-9 0 -13 2q-133 44 -231 228q-56 -73 -96 -136.5t-49 -87.5q-2 -30 -32 -40q-29 -10 -49 13q-26 38 -12 100q26 116 174 300
q-51 149 -51 244q0 36 34 55q26 15 65 14.5t65 -15.5q33 -20 33 -55q0 -43 4 -76q109 109 194 159q28 17 69 1q37 -15 50 -37z" />
    <glyph glyph-name="y" unicode="y" horiz-adv-x="663" 
d="M637 536q33 -59 5 -220q-22 -129 -82 -324q-58 -188 -131 -362.5t-136 -278.5q-10 -16 -29 -21t-36 6l-1 1q-1 1 -2 1q-16 9 -21.5 26t1.5 33q130 311 233 648q50 164 72 276q10 52 13 90q-14 -16 -20 -25q-8 -11 -85 -125q-102 -154 -155.5 -214.5t-101.5 -60.5
q-53 0 -93 46t-40 132q0 74 33 196.5t66 169.5q14 20 41 23.5t49 -7.5q25 -11 37 -34t5 -49q-8 -31 -26 -89q-39 -127 -48 -175q-12 -63 -8 -89q19 19 53 63q35 46 104 146q94 136 118 166q40 51 65.5 71.5t50.5 20.5q45 0 69 -41z" />
    <glyph glyph-name="y" unicode="&#xff;" horiz-adv-x="663" 
d="M637 536q33 -59 5 -220q-22 -129 -82 -324q-58 -188 -131 -362.5t-136 -278.5q-10 -16 -29 -21t-36 6l-1 1q-1 1 -2 1q-16 9 -21.5 26t1.5 33q130 311 233 648q50 164 72 276q10 52 13 90q-14 -16 -20 -25q-8 -11 -85 -125q-102 -154 -155.5 -214.5t-101.5 -60.5
q-53 0 -93 46t-40 132q0 74 33 196.5t66 169.5q14 20 41 23.5t49 -7.5q25 -11 37 -34t5 -49q-8 -31 -26 -89q-39 -127 -48 -175q-12 -63 -8 -89q19 19 53 63q35 46 104 146q94 136 118 166q40 51 65.5 71.5t50.5 20.5q45 0 69 -41z" />
    <glyph glyph-name="y" unicode="&#xfd;" horiz-adv-x="663" 
d="M637 536q33 -59 5 -220q-22 -129 -82 -324q-58 -188 -131 -362.5t-136 -278.5q-10 -16 -29 -21t-36 6l-1 1q-1 1 -2 1q-16 9 -21.5 26t1.5 33q130 311 233 648q50 164 72 276q10 52 13 90q-14 -16 -20 -25q-8 -11 -85 -125q-102 -154 -155.5 -214.5t-101.5 -60.5
q-53 0 -93 46t-40 132q0 74 33 196.5t66 169.5q14 20 41 23.5t49 -7.5q25 -11 37 -34t5 -49q-8 -31 -26 -89q-39 -127 -48 -175q-12 -63 -8 -89q19 19 53 63q35 46 104 146q94 136 118 166q40 51 65.5 71.5t50.5 20.5q45 0 69 -41z" />
    <glyph glyph-name="z" unicode="z" horiz-adv-x="526" 
d="M413 21q24 -11 34 -28q7 -13 4 -27t-15 -22t-26.5 -5.5t-23.5 14.5h-1q-30 4 -126 -2q-88 -5 -103 -5q-107 0 -149 39q-31 29 -31 76q0 49 58.5 113t195.5 183q95 82 117 103t34 36q-128 -15 -199 -66q-14 -10 -32 -6.5t-32 19.5q-15 17 -15 38.5t16 37.5q28 29 110 61
q82 30 142 30q53 0 92 -24q59 -36 59 -105q0 -32 -13 -60.5t-45 -61t-57 -53t-78 -61.5q-146 -112 -217 -192q21 -3 80 -5q167 -5 216 -25q1 -1 2.5 -1t2.5 -1z" />
    <glyph glyph-name="braceleft" unicode="{" horiz-adv-x="378" 
d="M515 1088q10 -4 20 -11q13 -8 16 -22.5t-5 -27.5t-22 -16.5t-27 3.5q-24 -15 -43.5 -49.5t-29.5 -64t-27 -88.5q-27 -91 -35 -112q-36 -99 -97 -169q-55 -65 -109 -78q20 -35 20 -83q0 -54 -52 -227q-38 -130 -47 -178q-13 -65 -5 -88q3 0 9 2q14 4 27.5 -3.5t18.5 -21.5
t-0.5 -27.5t-18.5 -20.5q-15 -9 -35 -9q-25 0 -48 14q-32 18 -54 55t-22 88q0 91 63 290q31 98 40 144q8 43 4 58q-14 3 -22 14.5t-7 25.5t12 23t25 9h5q39 28 67.5 60t49 73.5t31 69.5t27.5 83q26 80 32 97q64 170 146 196q45 15 93 -9z" />
    <glyph glyph-name="verticalbar" unicode="|" horiz-adv-x="280" 
d="M311 961q26 -11 35.5 -33.5t-0.5 -40.5q-187 -440 -320 -906l-6 -24q-1 -7 -7 -20q-15 -37 -49 -37h-8q-15 3 -27 15t-14 33q-2 12 0 25q5 100 89 371q94 304 217 590q10 24 36 31.5t54 -4.5z" />
    <glyph glyph-name="braceright" unicode="}" horiz-adv-x="356" 
d="M311 648q-31 -98 -40 -144q-8 -42 -4 -57q14 -3 22 -14.5t7 -25.5t-12 -23.5t-25 -9.5h-5q-39 -28 -67.5 -60t-49 -73.5t-31 -69.5t-27.5 -83q-18 -55 -33 -97q-64 -170 -146 -196q-17 -6 -35 -6q-30 0 -56 14l-10 5t-12 7q-13 8 -16 22.5t5 27.5t22.5 16.5t27.5 -3.5
q23 15 43 49t30 65t27 88q27 91 35 112q36 99 96 169q55 65 109 78q-19 33 -19 83q0 57 51 227q41 140 48 178q13 65 5 89q-4 0 -10 -2q-15 -4 -27.5 3t-17.5 22q-5 31 19 47q37 22 83 -5q32 -18 54 -55t22 -88q0 -84 -63 -290z" />
    <glyph glyph-name="asciitilde" unicode="~" horiz-adv-x="743" 
d="M693 495q11 -8 13 -22t-6 -25q0 -2 -2 -4q0 -1 -1.5 -3.5t-2.5 -3.5q-14 -23 -23 -37t-32.5 -42.5t-45 -45.5t-53 -31.5t-63.5 -14.5q-54 0 -106.5 23t-79 44t-63.5 56q-29 29 -39 34q-34 -3 -129 -78q-12 -9 -29.5 -8.5t-29.5 10.5q-25 20 -9 50q22 43 76.5 86.5
t119.5 43.5q30 0 57 -8.5t52 -27t38.5 -31t37.5 -36.5q22 -23 33.5 -33.5t28.5 -21t32 -10.5q35 0 81 32.5t93 90.5q1 1 2 3t2 3q8 11 22 13q15 2 26 -6z" />
    <glyph glyph-name="nonbreakingspace" unicode="&#xa0;" horiz-adv-x="481" 
 />
    <glyph glyph-name="exclamdown" unicode="&#xa1;" horiz-adv-x="258" 
d="M226 970q24 0 42.5 -18.5t18.5 -50.5q0 -31 -26 -54q-18 -15 -37 -15h-6q-24 3 -38 22.5t-14 48.5t18 47q18 20 42 20zM209 792q15 -2 27 -13t15 -30q1 -6 1 -18q0 -77 -68.5 -315t-156.5 -469q-11 -29 -43 -34h-11q-41 0 -64 27q-20 23 -8 51q149 378 221 649
q16 60 26 91v3t1 3q2 9 5 17q15 44 55 38z" />
    <glyph glyph-name="cent" unicode="&#xa2;" horiz-adv-x="540" 
d="M611 942q14 -31 -7 -55q-72 -88 -131 -168q11 -50 0.5 -108.5t-28.5 -95.5q-10 -22 -35 -19h-5q-14 0 -24 10t-10 24t2 50q-108 -154 -208 -321q7 -20 11 -27q14 -24 40 -24q70 0 140 146q0 1 2 3q3 13 14 20.5t24 5.5t21.5 -12t7.5 -23q-3 -70 -57 -138
q-63 -80 -146 -80q-58 0 -108 42q-56 -97 -89 -167q-10 -17 -13 -21q-4 -6 -7 -9q-14 -16 -37 -16q-11 0 -19 4q-17 7 -25 24.5t0 38.5q41 101 122 252q-13 43 -13 93q0 109 35.5 217t100.5 180t139 72q41 0 73 -11q36 53 61 84q34 43 49 59q14 15 34.5 16.5t37.5 -5.5
t31 -19q12 -10 17 -22zM169 495q94 158 154 249q-46 -21 -89.5 -89.5t-64.5 -159.5z" />
    <glyph glyph-name="sterling" unicode="&#xa3;" horiz-adv-x="614" 
d="M495 913q18 -36 15.5 -80.5t-23.5 -73.5q-17 -24 -43 -10t-17 41q0 1 0.5 3t0.5 3q11 55 -6 76q-2 2 -7 4q-21 -10 -54 -76q-36 -71 -68 -174q-20 -65 -40 -142h6q1 0 2.5 -0.5t7.5 -1t14 -1.5q10 -2 13 -2h5q15 -2 22.5 -12.5t7.5 -22.5v-30l-32 -4h-2h-62
q-21 -84 -35.5 -135t-40 -117t-55.5 -116q2 -1 7 -1.5t7 -0.5q176 -31 222 6q7 12 21 16t26 -3t16 -20.5t-3 -25.5q-39 -74 -188 -74q-34 0 -94 4q-76 6 -101 1q-27 -5 -37 21q-11 15 -13.5 36.5t6.5 38.5q46 83 115 368h-13h-9l-3 -1q-19 0 -32 15.5t-13 32.5q0 15 10 25
q11 11 26 11q13 0 54 -2q53 211 89 297q35 85 76 132q51 59 115 59q74 0 107 -64z" />
    <glyph glyph-name="currency" unicode="&#xa4;" horiz-adv-x="540" 
d="M540 699q-23 -24 -85 -112q-1 -2 -4 -5q10 -53 -1 -124q-19 -115 -82 -210q-1 -2 -4 -6.5t-5 -6.5v-1q0 -4 2.5 -12.5t6 -20t4.5 -17.5q13 -50 12 -64q0 -5 -1 -7q0 -1 -0.5 -1t-0.5 -1l-1 -1l-3 -6q0 -1 -1 -2l-1 -2h-1q-1 0 -1 -1t-1 -2h-1l-3 -3h-1l-1 -1l-1 -1h-1
q-2 -2 -4 -2h-1l-2 -1h-1q-1 0 -3 -1h-1h-4h-4h-1q-4 0 -6 1l-1 1h-2l-1 1v1h-1h-1l-1 1q-1 1 -2 1q-23 16 -40 70q-36 -24 -73 -24q-52 0 -95 37q-40 -57 -55 -69q-9 -17 -30 -17q-23 0 -33 20q-7 19 -0.5 34.5t34.5 56.5q6 9 17.5 24.5t15.5 21.5q-16 36 -16 79
q0 78 26 161.5t67 147.5q-2 5 -11.5 28t-17.5 43q-5 15 -10 24q-11 24 6 44t44 12q35 -11 41 -41q0 -2 2 -7.5t4.5 -14t4.5 -13.5v-2q19 15 36 22q37 16 74 -2q5 0 13 -2q47 -16 76 -51q42 57 68 85q13 13 31.5 13.5t31.5 -12.5t13 -31t-13 -32zM345 383q63 147 9 236
q-2 3 -4 13q-4 4 -18 14q-52 -51 -93.5 -144.5t-41.5 -200.5q0 -25 6 -44.5t12 -28t10 -9.5q18 6 55 52t65 112z" />
    <glyph glyph-name="yen" unicode="&#xa5;" horiz-adv-x="802" 
d="M681 947q14 -10 18 -27t-6 -31q-3 -4 -24 -40q-6 -9 -19 -31.5t-20 -34.5q-58 -117 -158 -240q-53 -71 -96 -111h4h2q13 -1 22.5 -11t9.5 -24v-34h-34q-16 0 -82 2q-2 -14 -4 -20q44 -2 54 -12q16 -16 8 -38q-8 -21 -32 -21q-3 0 -9 2q-3 0 -8 0.5t-14 1t-16 0.5
q-9 -34 -25.5 -102.5t-28 -112.5t-15.5 -61q-7 -28 -22.5 -41.5t-32.5 -13.5q-5 0 -8 1q-21 4 -33 24.5t-8 53.5q0 13 48 255h-3q-27 1 -35 1q-14 1 -23 12t-8 25t11.5 23.5t24.5 8.5l11 -1h20q2 0 7.5 -0.5t8.5 -0.5q1 4 2.5 10.5t1.5 9.5q-7 0 -13 0.5t-10 0.5h-4
q-13 0 -32.5 9.5t-19.5 31.5q0 14 10 24.5t24 10.5q7 0 39 -2q-67 117 -27 465q3 29 31 39q21 7 44.5 1.5t39.5 -19.5q31 -26 23 -65q-18 -83 -21 -220q-3 -129 16 -174q49 18 133 121l3 3q3 5 10 14.5t10 13.5q56 77 170 268q25 42 27 45q9 14 27 17q17 3 31 -6z" />
    <glyph glyph-name="copyright" unicode="&#xa9;" horiz-adv-x="636" 
d="M572 775q35 -70 35 -161q0 -75 -25 -161q-28 -108 -98 -199q-116 -161 -262 -161q-85 0 -143 69q-60 72 -60 190q0 88 34 192t86 182.5t101 96.5q19 7 39 4q2 5 10 13q41 35 92 42.5t98 -14.5q33 -16 57 -41l1 -1l3 -3q15 -17 32 -48zM528 615q0 85 -22 129
q-23 42 -58 57q-59 27 -111 -17q-2 -2 -6 -4q1 -14 -8.5 -25.5t-23.5 -13.5q-60 -59 -113 -180q-57 -134 -57 -246q0 -74 25.5 -110t62.5 -38h5q43 0 95.5 32t96.5 85q1 1 3.5 4.5t4.5 5.5q10 14 15 22q49 75 75 161q16 63 16 132v6zM377 680q52 0 79 -43q28 -44 5 -94
q-14 -26 -41 -16q-12 4 -18 16t-3 24q2 18 -5 33q-27 -19 -59 -74.5t-32 -120.5q0 -22 9 -31q4 -4 15 -2q21 5 33 15q10 8 24 5.5t21 -12.5q8 -10 5.5 -23.5t-12.5 -20.5q-23 -18 -56 -26h-4q-1 0 -2.5 -0.5t-2.5 -0.5q-5 -1 -16 -1q-28 0 -49 11q-60 31 -60 104
q0 96 55.5 176.5t113.5 80.5z" />
    <glyph glyph-name="softhyphen" unicode="&#xad;" 
 />
    <glyph glyph-name="registered" unicode="&#xae;" horiz-adv-x="634" 
d="M574 786q34 -65 34 -162q0 -75 -25 -161q-29 -108 -97 -198q-116 -161 -263 -161q-86 0 -143 68q-59 71 -59 190q0 88 33.5 192t85.5 182.5t101 96.5q19 7 40 4q3 7 10 14q41 35 91.5 42.5t97.5 -14.5q33 -16 57 -41l1 -1l3 -3q18 -19 33 -48zM530 626q0 83 -23 129
q-23 42 -58 57q-59 27 -111 -17q-4 -4 -6 -5q1 -14 -8.5 -25.5t-23.5 -13.5q-59 -58 -112 -179q-58 -136 -58 -246q0 -74 26 -110.5t63 -38.5h4q43 0 95.5 32.5t96.5 85.5q1 1 3.5 4t4.5 5q1 1 7 9t9 13q47 71 74 162q17 66 17 131v7zM431 636q36 0 52 -20q11 -14 11 -38
q0 -47 -35.5 -92t-110.5 -74q27 -14 53 -17q12 -2 20 -11t7 -22t-9.5 -21.5t-21.5 -8.5q-1 0 -2 0.5t-2 0.5q-68 9 -113 50q-3 -8 -8 -20t-8 -20t-6 -14q-5 -12 -17 -18.5t-25 -2.5q-32 9 -29 45q4 37 44 150q46 131 73 169q9 14 25 17.5t30 -4.5q13 -8 17.5 -21t-1.5 -27
q0 -1 -2 -5t-4.5 -10t-4.5 -12q41 26 67 26zM354 491q15 7 31 26t22 32v1q-35 -24 -53 -59z" />
    <glyph glyph-name="plusminus" unicode="&#xb1;" horiz-adv-x="464" 
d="M311 575q65 -1 90 -7.5t34 -23.5q11 -19 -2 -37q-14 -19 -34 -16h-7h-1q-27 0 -109 -3q-21 -69 -42 -146l-2 -6v-2q-5 -15 -18 -24.5t-30 -9.5q-1 0 -3 0.5t-3 0.5q-20 2 -33.5 14.5t-14.5 31.5q-3 36 20 137q-12 0 -25.5 -0.5t-20.5 -1t-9 -0.5h-6q-26 0 -42 21t-6 42
q8 21 31 23q13 2 100 5q6 23 27 91q10 34 21 53q12 21 36 26t52 -9q25 -13 33 -31.5t1 -35.5q-21 -46 -37 -92zM273 267q16 0 27.5 -11.5t11.5 -28.5t-11 -28t-28 -11h-1q-1 0 -14 -0.5t-23 -0.5q-108 -2 -156 -2q-59 0 -74 2q-16 2 -25.5 15t-8.5 29t13.5 26t29.5 8
q20 -2 219 1q22 1 40 1z" />
    <glyph glyph-name="questiondown" unicode="&#xbf;" horiz-adv-x="598" 
d="M490 351q26 -70 -56 -189q-67 -97 -168 -169q-114 -83 -210 -83q-64 0 -101 41.5t-37 114.5q0 42 13 86.5t43.5 101t54.5 95t72 110.5q138 209 189 324q8 19 25.5 27.5t34.5 2.5q15 -5 23.5 -20t2.5 -36q-13 -50 -44.5 -117.5t-57.5 -114t-74 -128.5q-54 -92 -83 -144
t-57 -121.5t-28 -112.5q0 -11 1 -17h4q58 0 151 59t166 152q35 44 48.5 78t9.5 50q-5 23 14 38q18 15 40 5t24 -33zM372 860q-24 3 -38.5 22.5t-14.5 48.5q0 28 18 46q18 20 42 20t42.5 -18t18.5 -50q0 -31 -26 -54q-19 -16 -37 -16q-1 0 -2.5 0.5t-2.5 0.5z" />
    <glyph glyph-name="multiply" unicode="&#xd7;" horiz-adv-x="430" 
d="M411 616q12 -24 5 -44t-25 -33q-69 -49 -144 -133q32 -79 39 -91q18 -15 15 -37l-3 -27l-27 -8q-8 -2 -12 -2q-16 0 -29 11q-23 14 -59 66q-4 -5 -11.5 -14t-10.5 -13q-36 -45 -45 -54q-23 -23 -51 -23q-15 0 -29 9q-36 23 -19 70q11 31 101 145q-19 43 -31 78
q-12 37 -16 64q-3 16 6 31t25 20q22 8 45.5 -5.5t36.5 -36.5q8 -16 20 -46q4 5 17 20t19 22q45 50 66 62q27 14 64.5 4t52.5 -35z" />
    <glyph glyph-name="divide" unicode="&#xf7;" horiz-adv-x="387" 
d="M301 462q17 0 28.5 -12t11.5 -28t-11.5 -27.5t-28.5 -11.5q-1 0 -14 -0.5t-23 -0.5q-108 -2 -157 -2q-58 0 -73 2q-22 2 -32 23t4 40q13 18 37 15q20 -2 219 1q22 1 39 1zM204 505q-21 0 -37 16t-16 44t23 48q17 14 37 12q18 -3 31.5 -18.5t13.5 -43.5q0 -23 -15.5 -40.5
t-36.5 -17.5zM123 312q18 -3 31.5 -18t13.5 -43q0 -23 -15.5 -40.5t-36.5 -17.5t-37 16t-16 44q0 27 23 47q17 14 37 12z" />
    <glyph glyph-name="quoteright" unicode="&#x2019;" horiz-adv-x="260" 
d="M328 1016q47 -34 26 -72q-91 -180 -128 -271q-8 -25 -26 -39.5t-40 -14.5h-10q-23 4 -38 23t-15 45q0 43 43 172q45 133 74 164q23 26 68 15q23 -6 46 -22z" />
    <glyph glyph-name="quotedblright" unicode="&#x201d;" horiz-adv-x="651" 
d="M510 1023q18 -10 27 -22t9.5 -23t-1 -17.5t-3.5 -10.5q-25 -50 -53.5 -111.5t-46 -101t-19.5 -46.5q-13 -34 -58 -34q-10 0 -15 1q-23 4 -37.5 19.5t-14.5 36.5q0 31 38.5 149.5t58.5 150.5q17 27 52.5 27t62.5 -18zM302 1022q19 -14 26.5 -30.5t6 -25.5t-5.5 -16
q-54 -107 -122 -269q-6 -16 -21.5 -26t-34.5 -10q-7 0 -11 1q-25 5 -37.5 25t-12.5 43q0 43 33 160q36 125 66 155q23 26 68 15q22 -5 45 -22z" />
    <glyph glyph-name="perthousand" unicode="&#x2030;" horiz-adv-x="1228" 
d="M1083 354q43 -48 43 -113q0 -93 -51 -189q-57 -105 -121 -105q-55 0 -94 41q-45 46 -45 133q0 80 32 163q35 92 92 113q42 16 80 -11q17 2 29 -5q18 -10 31 -23q3 -1 4 -4zM1022 141q36 98 7 159q-36 -25 -62.5 -96t-26.5 -134q0 -26 10 -39q13 7 34.5 37.5t37.5 72.5z
M825 996q25 -23 28 -49t-12 -40q-182 -211 -362.5 -492.5t-271.5 -469.5q-4 -9 -13 -20q-19 -26 -44 -26q-24 0 -39 21q-14 21 -5 44q69 201 268 533q94 157 191 293q94 132 169 212q16 17 41 17t50 -23zM712 365q63 -42 63 -133q0 -90 -61 -193q-67 -110 -134 -110
q-58 0 -97 37q-47 45 -47 136q0 87 35.5 171t93.5 110q47 23 95 -4q26 3 52 -14zM670 136q45 104 7 164q-1 1 -4 3q-45 -24 -79 -100q-35 -76 -35 -145q0 -36 11 -50q18 8 48 43t52 85zM303 592q-56 0 -97.5 43.5t-41.5 133.5q0 79 34.5 150t85.5 97q51 25 98 1q3 0 11 -2
q56 -17 81.5 -66.5t15.5 -120.5q-13 -84 -63 -155q-58 -81 -124 -81zM395 926q-4 6 -5 9q-93 -83 -93 -221q0 -34 14 -44q12 3 35.5 28.5t42.5 66.5q46 100 6 161z" />
    <glyph glyph-name="Euro" unicode="&#x20ac;" horiz-adv-x="507" 
d="M551 939q41 -47 30 -124q-1 -13 -11 -21t-23 -8t-23 8.5t-11 21.5q-1 2 -1 6q-8 54 -23 69q-5 6 -14 6q-23 -2 -71 -69q-55 -78 -109 -197q-4 -8 -11 -24t-11 -24q3 0 7.5 -0.5t5.5 -0.5h5h7q28 -5 28 -35q0 -13 -8.5 -22t-21.5 -11q-2 0 -4 -0.5t-3 -0.5q-2 0 -8 -0.5
t-16.5 -1.5t-19.5 -1q-11 -29 -29 -87h30q14 0 24.5 -9.5t10.5 -23.5t-9.5 -24t-23.5 -11q-8 -2 -53 -5q-29 -118 -29 -205q0 -66 16 -104t37 -38q12 0 32 17q8 8 22 26v1l1 1q8 10 10 12q10 11 23.5 12t24.5 -9t12 -24t-9 -25l-3 -3q-2 -3 -4 -5q-16 -23 -31 -37
q-40 -38 -85 -38q-69 0 -120 60q-55 66 -55 173q0 84 22 181h-21q-28 0 -33 29q-4 7 -4 17q1 14 11.5 23.5t24.5 8.5h42q11 39 24 78h-3q-19 0 -31.5 15t-12.5 32q0 15 10 26t25 11l5 -1h15h23q16 40 43 97q22 45 46.5 87.5t61.5 96.5t79.5 86.5t81.5 32.5q66 0 105 -45z
" />
    <glyph glyph-name="trademark" unicode="&#x2122;" horiz-adv-x="724" 
d="M798 1041q17 -8 28 -25.5t4 -35.5q-25 -64 -77 -223q-42 -132 -57 -166q-10 -21 -32 -21q-1 0 -3.5 0.5t-3.5 0.5q-16 3 -27 18.5t-11 35.5q-1 44 47 189q-40 -39 -59 -39q-49 0 -81 83q-17 -49 -20 -58q-33 -97 -50 -136q-10 -24 -42 -24q-10 0 -19 3q-17 6 -24.5 20
t-3.5 31q4 16 7 30q33 154 56 229q17 55 33 78q10 14 29 15t31.5 -3.5t23.5 -10.5q9 -4 18 -13q15 -11 22 -38q8 -23 14 -56q8 -40 13 -57q5 4 27 29q32 37 61 75q43 55 53 63q18 18 43 6zM392 993q-8 -9 -19 -10q-1 0 -8 -0.5t-19.5 -0.5h-24.5q0 -3 -1 -5
q-29 -72 -67 -182q-34 -101 -50 -137q-9 -21 -36 -21q-10 0 -19 3q-19 7 -28.5 22.5t-4.5 34.5q0 2 2 11t4 16q38 181 68 258q-35 0 -59 3q-32 12 -27 45q3 15 16 21q13 7 138 4q110 -3 127 -7q18 -7 21 -25q3 -19 -13 -30z" />
    </font>
</defs>
</svg>
